<svg width="40" height="40" viewBox="0 0 40 40" fill="none" xmlns="http://www.w3.org/2000/svg">
<path fill-rule="evenodd" clip-rule="evenodd" d="M20 2.57492C9.90833 2.57492 1.73833 10.7033 1.73833 20.7133C1.73833 28.0633 6.14333 34.3883 12.4833 37.2332C13.1467 37.5316 13.795 37.4132 14.3017 37.0332C14.5819 36.815 14.8077 36.5349 14.9616 36.2148C15.1154 35.8947 15.193 35.5434 15.1883 35.1883V34.2383L12.9267 33.9316C12.9099 33.9293 12.8932 33.9265 12.8767 33.9233C11.63 33.6799 10.7883 33.2416 10.1717 32.6099C9.65333 32.0783 9.33667 31.4416 9.06833 30.9016L8.975 30.7133C8.72699 30.1959 8.45617 29.6899 8.16333 29.1966C7.93833 28.8399 7.76333 28.6566 7.59 28.5416C7.15 28.2499 6.72667 27.7549 6.72667 27.1366C6.72516 26.9586 6.76326 26.7825 6.83821 26.6211C6.91316 26.4597 7.02308 26.317 7.16 26.2033C7.41843 25.9986 7.7405 25.8913 8.07 25.8999C8.44 25.8999 8.78833 26.0133 9.07833 26.1433C9.375 26.2766 9.67 26.4533 9.945 26.6366C10.615 27.0833 11.275 27.6116 11.8333 28.2633C12.415 28.9399 12.8267 29.3699 13.4467 29.4583C13.9567 29.5316 14.4767 29.5333 14.8817 29.5149C14.938 29.1943 15.0308 28.8811 15.1583 28.5816C14.6637 28.4662 14.1757 28.3237 13.6967 28.1549C12.6067 27.7683 11.3917 27.1666 10.575 26.2549C9.67833 25.2516 9.12333 24.3566 8.81333 23.3099C8.51167 22.2899 8.46167 21.1849 8.46167 19.8249C8.46167 17.7416 9.36333 15.9866 10.04 15.0549C9.78002 14.2392 9.59317 13.4021 9.48167 12.5533C9.40782 12.018 9.40838 11.475 9.48333 10.9399C9.56667 10.4516 9.775 9.85158 10.3233 9.48992C10.8517 9.13825 11.4717 9.15325 11.955 9.24325C12.4567 9.33825 12.9783 9.54659 13.4583 9.78492C14.24 10.1716 15.0167 10.6883 15.5983 11.1266C16.6017 10.8316 18.3767 10.4516 19.9817 10.4166H20.0183C21.625 10.4516 23.32 10.8316 24.2983 11.1249C24.8817 10.6883 25.6567 10.1699 26.4367 9.78492C26.9167 9.54659 27.4367 9.33825 27.94 9.24325C28.4233 9.15325 29.0433 9.13825 29.5733 9.48825C30.12 9.85158 30.33 10.4516 30.4117 10.9399C30.4967 11.4483 30.4767 12.0166 30.4117 12.5533C30.3006 13.402 30.1144 14.2392 29.855 15.0549C30.5317 15.9883 31.4333 17.7433 31.4333 19.8249C31.4333 21.1849 31.3833 22.2899 31.0833 23.3083C30.7717 24.3583 30.2167 25.2516 29.32 26.2549C28.5033 27.1666 27.2883 27.7683 26.1983 28.1549C25.6197 28.3583 25.0285 28.5236 24.4283 28.6499C24.6333 29.2699 24.7067 29.7716 24.7067 30.0599V35.2099C24.7067 35.9933 25.0717 36.6616 25.59 37.0516C26.0933 37.4333 26.74 37.5516 27.4033 37.2616C33.8033 34.4416 38.26 28.0999 38.26 20.7116C38.26 10.7033 30.0933 2.57492 20 2.57492ZM15.7933 31.1833C15.36 31.2449 15.7917 31.1833 15.7917 31.1833H15.7867L15.7733 31.1866L15.725 31.1933C15.4774 31.2223 15.229 31.2429 14.98 31.2549C14.51 31.2766 13.865 31.2782 13.2033 31.1833C11.885 30.9966 11.0833 30.0633 10.565 29.4566L10.515 29.3999C10.3455 29.2033 10.1635 29.0179 9.97 28.8449C10.1417 29.1616 10.32 29.5149 10.5117 29.8949L10.5283 29.9283L10.6133 30.1016C10.905 30.6816 11.0967 31.0682 11.415 31.3916C11.725 31.7083 12.2083 32.0149 13.185 32.2083L16.175 32.6133C16.3838 32.6415 16.5753 32.7446 16.7139 32.9034C16.8524 33.0622 16.9286 33.2659 16.9283 33.4766V35.1883C16.9283 36.5216 16.3033 37.7099 15.345 38.4299C14.8419 38.8144 14.2433 39.0542 13.6139 39.1235C12.9845 39.1928 12.3481 39.089 11.7733 38.8233C4.83667 35.7116 0 28.7833 0 20.7133C0 9.72659 8.96167 0.833252 20 0.833252C31.0383 0.833252 40 9.72659 40 20.7133C40 28.8249 35.1017 35.7716 28.105 38.8566C27.5298 39.1173 26.8945 39.2167 26.2671 39.1442C25.6398 39.0717 25.0439 38.83 24.5433 38.4449C24.0484 38.0639 23.6484 37.5733 23.3749 37.0118C23.1013 36.4502 22.9616 35.8329 22.9667 35.2083V30.0583C22.9667 29.9416 22.885 29.2683 22.43 28.3633C22.3672 28.2378 22.3356 28.099 22.3378 27.9587C22.34 27.8184 22.3759 27.6806 22.4427 27.5572C22.5094 27.4337 22.6049 27.3282 22.721 27.2494C22.8372 27.1707 22.9706 27.1211 23.11 27.1049C23.6817 27.0416 24.645 26.8566 25.6167 26.5116C26.6067 26.1616 27.495 25.6816 28.0233 25.0916C28.8083 24.2149 29.2 23.5416 29.415 22.8133C29.6383 22.0583 29.695 21.1799 29.695 19.8249C29.695 17.9233 28.695 16.3249 28.235 15.8099C28.1306 15.6935 28.0594 15.5512 28.0289 15.3978C27.9984 15.2445 28.0097 15.0857 28.0617 14.9383C28.295 14.2816 28.5783 13.2599 28.6867 12.3483C28.74 11.8899 28.7433 11.5066 28.6967 11.2299C28.6862 11.1288 28.6556 11.0307 28.6067 10.9416C28.4919 10.9217 28.3743 10.9268 28.2617 10.9566C27.9783 11.0099 27.6167 11.1433 27.2067 11.3466C26.39 11.7499 25.54 12.3466 25.0133 12.7733C24.8972 12.8675 24.7586 12.9301 24.6111 12.9549C24.4637 12.9797 24.3123 12.9659 24.1717 12.9149C22.8222 12.4735 21.4186 12.2195 20 12.1599C18.3217 12.1999 16.385 12.6766 15.7233 12.9149C15.5827 12.9659 15.4313 12.9797 15.2839 12.9549C15.1364 12.9301 14.9978 12.8675 14.8817 12.7733C14.2006 12.2249 13.4657 11.7469 12.6883 11.3466C12.3545 11.1713 11.9993 11.0402 11.6317 10.9566C11.5196 10.9271 11.4025 10.922 11.2883 10.9416C11.2393 11.0307 11.2087 11.1288 11.1983 11.2299C11.1517 11.5066 11.155 11.8899 11.2083 12.3483C11.3167 13.2599 11.6017 14.2816 11.8333 14.9383C11.9383 15.2383 11.8733 15.5716 11.66 15.8099C11.2 16.3249 10.2 17.9233 10.2 19.8249C10.2 21.1783 10.2567 22.0583 10.48 22.8133C10.6967 23.5416 11.0867 24.2133 11.87 25.0916C12.4 25.6816 13.2867 26.1616 14.2783 26.5116C15.0896 26.7987 15.9295 26.9976 16.7833 27.1049C16.959 27.1238 17.1248 27.1957 17.2586 27.311C17.3924 27.4264 17.4879 27.5798 17.5324 27.7508C17.5769 27.9218 17.5683 28.1022 17.5078 28.2682C17.4472 28.4342 17.3375 28.5778 17.1933 28.6799C16.9183 28.8766 16.7367 29.2299 16.635 29.6383C16.5825 29.8485 16.5512 30.0634 16.5417 30.2799V30.3116C16.5438 30.5229 16.4691 30.7278 16.3314 30.8881C16.1938 31.0485 16.0025 31.1534 15.7933 31.1833Z" fill="#986068"/>
</svg>
