<svg width="28" height="28" viewBox="0 0 28 28" fill="none" xmlns="http://www.w3.org/2000/svg">
<path d="M3.375 0.25C2.54802 0.255891 1.75658 0.587022 1.1718 1.1718C0.587022 1.75658 0.255891 2.54802 0.25 3.375V24.625C0.25 26.3337 1.66625 27.75 3.375 27.75H24.625C26.3337 27.75 27.75 26.3337 27.75 24.625V3.375C27.75 1.66625 26.3337 0.25 24.625 0.25H3.375ZM3.375 2.75H24.625C24.9813 2.75 25.25 3.01875 25.25 3.375V24.625C25.25 24.9813 24.9813 25.25 24.625 25.25H3.375C3.29241 25.2519 3.21029 25.237 3.13362 25.2063C3.05694 25.1755 2.98729 25.1295 2.92887 25.0711C2.87046 25.0127 2.82449 24.9431 2.79375 24.8664C2.763 24.7897 2.74812 24.7076 2.75 24.625V3.375C2.75 3.01875 3.01875 2.75 3.375 2.75ZM7.0475 4.89875C6.76104 4.89184 6.4761 4.94229 6.20943 5.04714C5.94276 5.15199 5.69976 5.30911 5.49472 5.50927C5.28967 5.70942 5.12673 5.94857 5.01549 6.21263C4.90424 6.47669 4.84693 6.76034 4.84693 7.04688C4.84693 7.33341 4.90424 7.61706 5.01549 7.88112C5.12673 8.14518 5.28967 8.38433 5.49472 8.58448C5.69976 8.78464 5.94276 8.94176 6.20943 9.04661C6.4761 9.15146 6.76104 9.20191 7.0475 9.195C7.60825 9.18147 8.14148 8.94921 8.53329 8.54784C8.9251 8.14646 9.14443 7.60778 9.14443 7.04688C9.14443 6.48597 8.9251 5.94729 8.53329 5.54591C8.14148 5.14454 7.60825 4.91228 7.0475 4.89875ZM18.335 10.6012C16.5438 10.6012 15.3525 11.5825 14.86 12.515H14.7812V10.875H11.265V22.75H14.9375V16.89C14.9375 15.3425 15.245 13.8438 17.1637 13.8438C19.0538 13.8438 19.0788 15.5913 19.0788 16.9688V22.75H22.75V16.2262C22.75 13.0338 22.0712 10.6012 18.3363 10.6012H18.335ZM5.25 10.875V22.75H8.96125V10.875H5.25Z" fill="#986068"/>
</svg>
