<svg width="32" height="32" viewBox="0 0 32 32" fill="none" xmlns="http://www.w3.org/2000/svg">
<path fill-rule="evenodd" clip-rule="evenodd" d="M16 2.06008C7.92667 2.06008 1.39067 8.56275 1.39067 16.5707C1.39067 22.4507 4.91467 27.5107 9.98667 29.7867C10.5173 30.0254 11.036 29.9307 11.4413 29.6267C11.6655 29.4522 11.8462 29.2281 11.9693 28.972C12.0923 28.7159 12.1544 28.4348 12.1507 28.1507V27.3907L10.3413 27.1454C10.3279 27.1436 10.3146 27.1414 10.3013 27.1387C9.304 26.9441 8.63067 26.5934 8.13733 26.0881C7.72267 25.6627 7.46933 25.1534 7.25467 24.7214L7.18 24.5707C6.98159 24.1569 6.76494 23.7521 6.53067 23.3574C6.35067 23.0721 6.21067 22.9254 6.072 22.8334C5.72 22.6001 5.38133 22.2041 5.38133 21.7094C5.38013 21.567 5.41061 21.4262 5.47057 21.297C5.53053 21.1679 5.61846 21.0537 5.728 20.9627C5.93474 20.7991 6.1924 20.7132 6.456 20.7201C6.752 20.7201 7.03067 20.8107 7.26267 20.9147C7.5 21.0214 7.736 21.1627 7.956 21.3094C8.492 21.6667 9.02 22.0894 9.46667 22.6107C9.932 23.1521 10.2613 23.4961 10.7573 23.5667C11.1653 23.6254 11.5813 23.6267 11.9053 23.6121C11.9504 23.3556 12.0246 23.105 12.1267 22.8654C11.731 22.7731 11.3406 22.6591 10.9573 22.5241C10.0853 22.2147 9.11333 21.7334 8.46 21.0041C7.74267 20.2014 7.29867 19.4854 7.05067 18.6481C6.80933 17.8321 6.76933 16.9481 6.76933 15.8601C6.76933 14.1934 7.49067 12.7894 8.032 12.0441C7.82402 11.3915 7.67454 10.7218 7.58533 10.0427C7.52625 9.61452 7.5267 9.18018 7.58667 8.75208C7.65333 8.36141 7.82 7.88141 8.25867 7.59208C8.68133 7.31075 9.17733 7.32275 9.564 7.39475C9.96533 7.47075 10.3827 7.63741 10.7667 7.82808C11.392 8.13741 12.0133 8.55075 12.4787 8.90141C13.2813 8.66542 14.7013 8.36141 15.9853 8.33342H16.0147C17.3 8.36141 18.656 8.66542 19.4387 8.90008C19.9053 8.55075 20.5253 8.13608 21.1493 7.82808C21.5333 7.63741 21.9493 7.47075 22.352 7.39475C22.7387 7.32275 23.2347 7.31075 23.6587 7.59075C24.096 7.88141 24.264 8.36141 24.3293 8.75208C24.3973 9.15875 24.3813 9.61341 24.3293 10.0427C24.2405 10.7217 24.0915 11.3915 23.884 12.0441C24.4253 12.7907 25.1467 14.1947 25.1467 15.8601C25.1467 16.9481 25.1067 17.8321 24.8667 18.6467C24.6173 19.4867 24.1733 20.2014 23.456 21.0041C22.8027 21.7334 21.8307 22.2147 20.9587 22.5241C20.4958 22.6868 20.0228 22.8191 19.5427 22.9201C19.7067 23.4161 19.7653 23.8174 19.7653 24.0481V28.1681C19.7653 28.7947 20.0573 29.3294 20.472 29.6414C20.8747 29.9468 21.392 30.0414 21.9227 29.8094C27.0427 27.5534 30.608 22.4801 30.608 16.5694C30.608 8.56275 24.0747 2.06008 16 2.06008ZM12.6347 24.9467C12.288 24.9961 12.6333 24.9467 12.6333 24.9467H12.6293L12.6187 24.9494L12.58 24.9547C12.382 24.978 12.1832 24.9945 11.984 25.0041C11.608 25.0214 11.092 25.0227 10.5627 24.9467C9.508 24.7974 8.86667 24.0507 8.452 23.5654L8.412 23.5201C8.27642 23.3628 8.13078 23.2145 7.976 23.0761C8.11333 23.3294 8.256 23.6121 8.40933 23.9161L8.42267 23.9427L8.49067 24.0814C8.724 24.5454 8.87733 24.8547 9.132 25.1134C9.38 25.3667 9.76667 25.6121 10.548 25.7668L12.94 26.0907C13.1071 26.1134 13.2602 26.1958 13.3711 26.3229C13.4819 26.4499 13.5429 26.6128 13.5427 26.7814V28.1507C13.5427 29.2174 13.0427 30.1681 12.276 30.7441C11.8735 31.0516 11.3946 31.2435 10.8911 31.299C10.3876 31.3544 9.87847 31.2714 9.41867 31.0588C3.86933 28.5694 0 23.0267 0 16.5707C0 7.78142 7.16933 0.666748 16 0.666748C24.8307 0.666748 32 7.78142 32 16.5707C32 23.0601 28.0813 28.6174 22.484 31.0854C22.0238 31.294 21.5156 31.3735 21.0137 31.3155C20.5118 31.2575 20.0351 31.0641 19.6347 30.7561C19.2387 30.4512 18.9187 30.0588 18.6999 29.6096C18.4811 29.1603 18.3693 28.6665 18.3733 28.1667V24.0467C18.3733 23.9534 18.308 23.4147 17.944 22.6907C17.8938 22.5904 17.8684 22.4793 17.8702 22.3671C17.872 22.2548 17.9008 22.1447 17.9541 22.0459C18.0075 21.9471 18.0839 21.8627 18.1768 21.7997C18.2698 21.7367 18.3765 21.6971 18.488 21.6841C18.9453 21.6334 19.716 21.4854 20.4933 21.2094C21.2853 20.9294 21.996 20.5454 22.4187 20.0734C23.0467 19.3721 23.36 18.8334 23.532 18.2507C23.7107 17.6467 23.756 16.9441 23.756 15.8601C23.756 14.3387 22.956 13.0601 22.588 12.6481C22.5045 12.555 22.4475 12.4411 22.4231 12.3184C22.3987 12.1957 22.4078 12.0687 22.4493 11.9507C22.636 11.4254 22.8627 10.6081 22.9493 9.87875C22.992 9.51208 22.9947 9.20541 22.9573 8.98408C22.949 8.90316 22.9245 8.82473 22.8853 8.75342C22.7935 8.73753 22.6994 8.74162 22.6093 8.76542C22.3827 8.80808 22.0933 8.91475 21.7653 9.07742C21.112 9.40008 20.432 9.87741 20.0107 10.2187C19.9178 10.2941 19.8069 10.3442 19.6889 10.364C19.5709 10.3839 19.4498 10.3729 19.3373 10.3321C18.2578 9.97895 17.1348 9.77571 16 9.72808C14.6573 9.76008 13.108 10.1414 12.5787 10.3321C12.4662 10.3729 12.3451 10.3839 12.2271 10.364C12.1091 10.3442 11.9982 10.2941 11.9053 10.2187C11.3604 9.78008 10.7726 9.39768 10.1507 9.07742C9.88362 8.93718 9.59945 8.8323 9.30533 8.76542C9.21569 8.74181 9.12203 8.73772 9.03067 8.75342C8.99148 8.82471 8.96699 8.90315 8.95867 8.98408C8.92133 9.20541 8.924 9.51208 8.96667 9.87875C9.05333 10.6081 9.28133 11.4254 9.46667 11.9507C9.55067 12.1907 9.49867 12.4574 9.328 12.6481C8.96 13.0601 8.16 14.3387 8.16 15.8601C8.16 16.9427 8.20533 17.6467 8.384 18.2507C8.55733 18.8334 8.86933 19.3707 9.496 20.0734C9.92 20.5454 10.6293 20.9294 11.4227 21.2094C12.0717 21.4391 12.7436 21.5982 13.4267 21.6841C13.5672 21.6992 13.6998 21.7567 13.8069 21.849C13.9139 21.9413 13.9903 22.064 14.0259 22.2008C14.0616 22.3376 14.0547 22.4819 14.0062 22.6147C13.9578 22.7475 13.87 22.8624 13.7547 22.9441C13.5347 23.1014 13.3893 23.3841 13.308 23.7108C13.266 23.8789 13.241 24.0509 13.2333 24.2241V24.2494C13.235 24.4185 13.1753 24.5824 13.0651 24.7107C12.955 24.8389 12.802 24.9228 12.6347 24.9467Z" fill="#986068"/>
</svg>
