<svg width="32" height="32" viewBox="0 0 32 32" fill="none" xmlns="http://www.w3.org/2000/svg">
<path d="M7.5 5C6.83841 5.00471 6.20526 5.26962 5.73744 5.73744C5.26962 6.20526 5.00471 6.83841 5 7.5V24.5C5 25.867 6.133 27 7.5 27H24.5C25.867 27 27 25.867 27 24.5V7.5C27 6.133 25.867 5 24.5 5H7.5ZM7.5 7H24.5C24.785 7 25 7.215 25 7.5V24.5C25 24.785 24.785 25 24.5 25H7.5C7.43393 25.0015 7.36824 24.9896 7.30689 24.965C7.24555 24.9404 7.18983 24.9036 7.1431 24.8569C7.09637 24.8102 7.05959 24.7544 7.035 24.6931C7.0104 24.6318 6.9985 24.5661 7 24.5V7.5C7 7.215 7.215 7 7.5 7ZM10.438 8.719C10.2088 8.71347 9.98088 8.75383 9.76754 8.83771C9.55421 8.92159 9.35981 9.04729 9.19577 9.20741C9.03174 9.36754 8.90139 9.55885 8.81239 9.7701C8.72339 9.98135 8.67754 10.2083 8.67754 10.4375C8.67754 10.6667 8.72339 10.8936 8.81239 11.1049C8.90139 11.3161 9.03174 11.5075 9.19577 11.6676C9.35981 11.8277 9.55421 11.9534 9.76754 12.0373C9.98088 12.1212 10.2088 12.1615 10.438 12.156C10.8866 12.1452 11.3132 11.9594 11.6266 11.6383C11.9401 11.3172 12.1155 10.8862 12.1155 10.4375C12.1155 9.98877 11.9401 9.55783 11.6266 9.23673C11.3132 8.91563 10.8866 8.72982 10.438 8.719ZM19.468 13.281C18.035 13.281 17.082 14.066 16.688 14.812H16.625V13.5H13.812V23H16.75V18.312C16.75 17.074 16.996 15.875 18.531 15.875C20.043 15.875 20.063 17.273 20.063 18.375V23H23V17.781C23 15.227 22.457 13.281 19.469 13.281H19.468ZM9 13.5V23H11.969V13.5H9Z" fill="#986068"/>
</svg>
