<svg width="360" height="252" viewBox="0 0 360 252" fill="none" xmlns="http://www.w3.org/2000/svg">
<path d="M219.974 37.368L234.223 51.12L248.544 128.642H114.214L219.974 37.368Z" fill="#FFCF2D"/>
<path d="M234.346 51.012L220.053 37.2168L222.444 34.7328C225.965 31.0752 232.308 31.4928 235.966 35.0064C239.623 38.5272 240.264 44.8704 236.743 48.528L234.346 51.012Z" fill="white" stroke="#FFCF2D" stroke-width="6" stroke-miterlimit="10" stroke-linecap="round"/>
<path d="M236.736 48.5281L222.437 34.7328" stroke="#FFCF2D" stroke-width="6" stroke-miterlimit="10" stroke-linecap="round"/>
<path d="M236.75 35.6328L238.349 34.4088C240.494 32.7672 243.576 33.1992 245.181 35.3808L284.465 83.2033L264.355 128.052" stroke="#3FB1B5" stroke-width="6" stroke-miterlimit="10" stroke-linecap="round"/>
<path d="M283.824 85.6441C285.041 85.6441 286.027 84.6577 286.027 83.4409C286.027 82.2241 285.041 81.2377 283.824 81.2377C282.607 81.2377 281.621 82.2241 281.621 83.4409C281.621 84.6577 282.607 85.6441 283.824 85.6441Z" fill="white" stroke="#FFCF2D" stroke-width="6" stroke-miterlimit="10" stroke-linecap="round"/>
<path d="M258.768 123.041H269.503C272.592 123.041 275.09 125.546 275.09 128.628V128.786H253.173V128.628C253.181 125.546 255.679 123.041 258.768 123.041Z" fill="white" stroke="#FFCF2D" stroke-width="6" stroke-miterlimit="10" stroke-linecap="round"/>
<path d="M206.762 112.435H138.801C136.245 112.435 134.179 110.369 134.179 107.813V60.2784C134.179 57.7224 136.245 55.656 138.801 55.656H206.762C209.318 55.656 211.385 57.7224 211.385 60.2784V107.806C211.392 110.362 209.318 112.435 206.762 112.435Z" fill="white" stroke="#3FB1B5" stroke-width="6" stroke-miterlimit="10" stroke-linecap="round"/>
<path d="M206.805 108.014H139.5C138.499 108.014 137.693 107.201 137.693 106.207V60.732C137.693 59.7312 138.506 58.9248 139.5 58.9248H206.805C207.806 58.9248 208.613 59.7384 208.613 60.732V106.2C208.62 107.201 207.806 108.014 206.805 108.014Z" fill="#66B0F0" stroke="#66B0F0" stroke-width="6" stroke-miterlimit="10" stroke-linejoin="round"/>
<path d="M141.912 63.1728H140.846C140.501 63.1728 140.213 62.892 140.213 62.5392V61.4736C140.213 61.128 140.493 60.84 140.846 60.84H141.912C142.257 60.84 142.545 61.1208 142.545 61.4736V62.5392C142.538 62.892 142.257 63.1728 141.912 63.1728Z" stroke="white" stroke-width="6" stroke-miterlimit="10" stroke-linecap="round"/>
<path d="M146.757 63.1728H145.692C145.346 63.1728 145.058 62.892 145.058 62.5392V61.4736C145.058 61.128 145.339 60.84 145.692 60.84H146.757C147.103 60.84 147.391 61.1208 147.391 61.4736V62.5392C147.391 62.892 147.103 63.1728 146.757 63.1728Z" stroke="white" stroke-width="6" stroke-miterlimit="10" stroke-linecap="round"/>
<path d="M151.603 63.1728H150.538C150.192 63.1728 149.904 62.892 149.904 62.5392V61.4736C149.904 61.128 150.185 60.84 150.538 60.84H151.603C151.949 60.84 152.237 61.1208 152.237 61.4736V62.5392C152.237 62.892 151.956 63.1728 151.603 63.1728Z" stroke="white" stroke-width="6" stroke-miterlimit="10" stroke-linecap="round"/>
<path d="M187.128 128.642H160.747L165.924 112.435H181.944L187.128 128.642Z" fill="white" stroke="#3FB1B5" stroke-width="6" stroke-miterlimit="10" stroke-linecap="round"/>
<path d="M162.821 122.155L165.924 112.435H181.944L162.821 122.155Z" fill="#3FB1B5"/>
<path d="M202.889 73.836H190.066C188.863 73.836 187.891 72.864 187.891 71.6616V63.3816C187.891 62.1792 188.863 61.2072 190.066 61.2072H202.889C204.091 61.2072 205.063 62.1792 205.063 63.3816V71.6616C205.063 72.864 204.091 73.836 202.889 73.836Z" stroke="white" stroke-width="6" stroke-miterlimit="10" stroke-linecap="round"/>
<path d="M191.556 64.1592H201.341" stroke="white" stroke-width="6" stroke-miterlimit="10" stroke-linecap="round"/>
<path d="M191.556 66.3912H201.341" stroke="white" stroke-width="6" stroke-miterlimit="10" stroke-linecap="round"/>
<path d="M191.556 68.6232H201.341" stroke="white" stroke-width="6" stroke-miterlimit="10" stroke-linecap="round"/>
<path d="M191.556 70.8553H201.341" stroke="white" stroke-width="6" stroke-miterlimit="10" stroke-linecap="round"/>
<path d="M206.431 108.014H155.462L152.474 112.298C149.097 117.137 141.962 117.209 138.492 112.435L120.29 87.4008C121.053 88.3512 124.545 87.2928 127.872 85.104C131.248 82.8792 133.43 80.0784 132.746 79.0416L145.368 95.1264L149.234 88.3008C150.292 86.4936 152.049 85.1976 154.094 84.7224L167.248 81.936H178.588L191.088 84.6936C193.262 85.1904 195.105 86.6088 196.149 88.5744L206.431 108.014Z" fill="white" stroke="#3FB1B5" stroke-width="6" stroke-miterlimit="10"/>
<path d="M192.441 107.719L188.82 100.57" stroke="#3FB1B5" stroke-width="6" stroke-miterlimit="10" stroke-linecap="round"/>
<path d="M155.174 108.389L158.76 101.311" stroke="#3FB1B5" stroke-width="6" stroke-miterlimit="10" stroke-linecap="round"/>
<path d="M140.457 88.884L148.672 99.3888" stroke="#3FB1B5" stroke-width="6" stroke-miterlimit="10" stroke-linecap="round"/>
<path d="M174.333 85.392L177.357 89.0712L184.125 83.3256" stroke="#3FB1B5" stroke-width="6" stroke-miterlimit="10" stroke-linecap="round"/>
<path d="M172.022 85.464L169.084 89.2152L161.647 83.3256" stroke="#3FB1B5" stroke-width="6" stroke-miterlimit="10" stroke-linecap="round"/>
<path d="M135.252 82.26C135.936 83.304 133.747 86.1408 130.349 88.3944C127.008 90.6119 123.465 91.6775 122.695 90.7199" stroke="#3FB1B5" stroke-width="6" stroke-miterlimit="10" stroke-linecap="round"/>
<path d="M132.991 84.0816C133.44 84.0816 133.804 83.7173 133.804 83.268C133.804 82.8187 133.44 82.4544 132.991 82.4544C132.542 82.4544 132.177 82.8187 132.177 83.268C132.177 83.7173 132.542 84.0816 132.991 84.0816Z" stroke="#3FB1B5" stroke-width="6" stroke-miterlimit="10" stroke-linecap="round"/>
<path d="M173.167 89.1936C173.616 89.1936 173.98 88.8294 173.98 88.38C173.98 87.9307 173.616 87.5664 173.167 87.5664C172.718 87.5664 172.353 87.9307 172.353 88.38C172.353 88.8294 172.718 89.1936 173.167 89.1936Z" stroke="#3FB1B5" stroke-width="6" stroke-miterlimit="10" stroke-linecap="round"/>
<path d="M173.167 95.7456C173.616 95.7456 173.98 95.3813 173.98 94.932C173.98 94.4827 173.616 94.1184 173.167 94.1184C172.718 94.1184 172.353 94.4827 172.353 94.932C172.353 95.3813 172.718 95.7456 173.167 95.7456Z" stroke="#3FB1B5" stroke-width="6" stroke-miterlimit="10" stroke-linecap="round"/>
<path d="M152.215 112.644L155.462 108.014V112.644H152.215Z" fill="#3FB1B5"/>
<path d="M127.793 84.8881C124.466 87.0769 120.974 88.1353 120.211 87.1849C120.197 87.1705 120.189 87.1561 120.175 87.1345C120.017 86.8969 120.031 86.5729 120.175 86.1769C120.672 84.8737 122.724 82.8577 125.33 81.144C127.404 79.776 129.449 78.8256 130.867 78.5304C131.688 78.3648 132.3 78.4152 132.595 78.732L132.667 78.8184C133.344 79.8552 131.169 82.6633 127.793 84.8881Z" fill="#FE5244"/>
<path d="M127.792 84.888C125.899 86.1336 123.948 87.0192 122.479 87.3648L115.905 78.0912C114.991 76.7952 115.293 75.0024 116.597 74.088L122.515 69.9264L119.16 64.2168C118.67 63.3888 118.951 62.316 119.786 61.8336C120.06 61.6752 120.355 61.6032 120.65 61.6032C121.219 61.6032 121.781 61.884 122.112 62.4024L132.602 78.7176L132.674 78.8328C133.344 79.8552 131.169 82.6632 127.792 84.888Z" fill="#E57281"/>
<path d="M122.501 69.9911L126.165 75.672C126.504 76.2048 126.353 76.9104 125.82 77.256L125.006 77.7888C124.473 78.1416 123.753 77.9904 123.408 77.4576L119.945 72.2736" stroke="#9A3B82" stroke-width="6" stroke-miterlimit="10" stroke-linecap="round"/>
<path d="M123.393 77.4432C123.746 77.9832 123.588 78.7104 123.048 79.056L122.306 79.524C121.773 79.8624 121.068 79.7112 120.722 79.1856" stroke="#9A3B82" stroke-width="6" stroke-miterlimit="10" stroke-linecap="round"/>
<path d="M117.317 74.1024L120.708 79.1424C121.061 79.6824 120.91 80.4096 120.355 80.7552L119.664 81.1368C119.146 81.468 118.462 81.3312 118.102 80.8272L116.136 78.0552" stroke="#9A3B82" stroke-width="6" stroke-miterlimit="10" stroke-linecap="round"/>
<path d="M130.154 74.916L128.434 72.2447C127.865 71.3591 126.677 71.1143 125.805 71.7047L121.536 74.5992C121.536 74.5992 122.774 76.824 125.784 75.06L126.792 76.6656C124.733 77.9688 124.142 80.712 125.481 82.7496L130.154 74.916Z" fill="#E57281"/>
<path d="M129.931 74.988L128.21 72.3168C127.642 71.4312 126.454 71.1864 125.582 71.7768L121.536 74.5992C121.536 74.5992 122.774 76.824 125.784 75.06L126.792 76.6656C124.733 77.9688 124.142 80.712 125.482 82.7496" stroke="#9A3B82" stroke-width="6" stroke-miterlimit="10" stroke-linecap="round"/>
<path d="M127.792 84.888C125.899 86.1336 123.948 87.0192 122.479 87.3648L120.844 85.0608C121.759 83.8656 123.393 82.4256 125.33 81.1512C127.404 79.7832 129.448 78.8328 130.867 78.5376C131.688 78.372 132.3 78.4224 132.595 78.7392L132.667 78.8256C132.674 78.84 132.681 78.8472 132.688 78.8616C132.696 78.8688 132.696 78.876 132.703 78.8904C132.71 78.9048 132.717 78.912 132.724 78.9264C133.214 80.028 131.061 82.728 127.792 84.888Z" fill="#9A3B82"/>
<path d="M178.581 75.6V81.9288C178.581 83.7648 176.033 85.248 172.901 85.248C169.761 85.248 167.22 83.7648 167.22 81.9288V75.6H178.581Z" fill="#E57281"/>
<path d="M168.883 84.276C167.853 83.6784 167.213 82.8432 167.213 81.9288V75.6H178.581V77.3568C178.581 79.1784 177.473 80.8128 175.788 81.4968L168.883 84.276Z" fill="#9A3B82"/>
<path d="M181.75 75.2256V75.3336C181.75 76.428 180.864 77.3136 179.77 77.3136H178.466C178.027 79.0848 176.429 80.4024 174.514 80.4024H171.288C169.38 80.4024 167.774 79.092 167.342 77.3136H166.039C164.945 77.3136 164.059 76.428 164.059 75.3336V75.2256C164.059 74.1312 164.945 73.2456 166.039 73.2456H167.22V71.6832C167.22 70.0128 168.451 68.6304 170.057 68.4C170.41 68.9904 171.475 70.4016 173.65 70.3224C174.672 70.2864 175.622 70.092 176.407 69.8616C177.35 69.588 178.294 70.164 178.531 71.064C178.567 71.2656 178.589 71.4672 178.589 71.676V73.2384H179.77C180.857 73.2384 181.75 74.1312 181.75 75.2256Z" fill="#E57281"/>
<path d="M179.489 73.2384H178.581V71.5032C178.581 71.352 178.56 71.2008 178.524 71.064C178.286 70.164 177.343 69.588 176.4 69.8616C175.615 70.092 174.672 70.2864 173.642 70.3224C171.468 70.4016 170.402 68.9904 170.049 68.4C168.444 68.6304 167.213 70.0128 167.213 71.6832V73.2456H166.082C166.082 73.2456 164.786 68.5584 165.758 67.2336C166.716 65.9304 167.868 66.4992 167.868 66.4992C167.868 66.4992 167.177 62.5968 171.036 62.6688C174.888 62.7408 179.899 67.212 180.266 68.0328C180.842 69.2928 179.489 73.2384 179.489 73.2384Z" fill="#9A3B82"/>
<path d="M179.021 75.5928C179.021 74.8225 179.647 74.2032 180.41 74.2032" stroke="#9A3B82" stroke-width="5" stroke-miterlimit="10" stroke-linecap="round"/>
<path d="M166.795 75.5928C166.795 74.8225 166.169 74.2032 165.406 74.2032" stroke="#9A3B82" stroke-width="5" stroke-miterlimit="10" stroke-linecap="round"/>
<path d="M176.767 71.6832C176.767 71.6832 175.745 70.9344 174.442 71.4744" stroke="#9A3B82" stroke-width="5" stroke-miterlimit="10" stroke-linecap="round"/>
<path d="M168.962 71.6832C168.962 71.6832 169.985 70.9344 171.288 71.4744" stroke="#9A3B82" stroke-width="5" stroke-miterlimit="10" stroke-linecap="round"/>
<path d="M174.694 76.9968C174.694 76.9968 174.139 78.1921 172.44 77.5656" stroke="#9A3B82" stroke-width="5" stroke-miterlimit="10" stroke-linecap="round"/>
<path d="M172.361 76.3776C172.8 76.4063 173.47 76.3776 173.47 76.3776" stroke="#9A3B82" stroke-width="5" stroke-miterlimit="10" stroke-linecap="round"/>
<path d="M175.608 74.6857C175.807 74.6857 175.968 74.4149 175.968 74.0808C175.968 73.7468 175.807 73.476 175.608 73.476C175.409 73.476 175.248 73.7468 175.248 74.0808C175.248 74.4149 175.409 74.6857 175.608 74.6857Z" fill="#9A3B82"/>
<path d="M170.446 74.6857C170.645 74.6857 170.806 74.4149 170.806 74.0808C170.806 73.7468 170.645 73.476 170.446 73.476C170.247 73.476 170.086 73.7468 170.086 74.0808C170.086 74.4149 170.247 74.6857 170.446 74.6857Z" fill="#9A3B82"/>
<path d="M171.302 76.1184H169.034C168.595 76.1184 168.242 75.7656 168.242 75.3264V73.0584C168.242 72.6192 168.595 72.2664 169.034 72.2664H171.302C171.741 72.2664 172.094 72.6192 172.094 73.0584V75.3264C172.101 75.7584 171.741 76.1184 171.302 76.1184Z" stroke="white" stroke-width="5" stroke-miterlimit="10"/>
<path d="M176.853 76.1184H174.585C174.146 76.1184 173.793 75.7656 173.793 75.3264V73.0584C173.793 72.6192 174.146 72.2664 174.585 72.2664H176.853C177.293 72.2664 177.645 72.6192 177.645 73.0584V75.3264C177.645 75.7584 177.293 76.1184 176.853 76.1184Z" stroke="white" stroke-width="5" stroke-miterlimit="10"/>
<path d="M172.101 73.764H173.793" stroke="white" stroke-width="5" stroke-miterlimit="10"/>
<path d="M177.451 105.221H169.581C168.868 105.221 168.285 104.645 168.285 103.925V99.7416C168.285 99.0288 168.861 98.4456 169.581 98.4456H177.451C178.164 98.4456 178.747 99.0216 178.747 99.7416V103.925C178.747 104.638 178.171 105.221 177.451 105.221Z" stroke="#66B0F0" stroke-width="6" stroke-miterlimit="10" stroke-linejoin="round"/>
<path d="M173.714 103.536H171.05C170.625 103.536 170.28 103.19 170.28 102.766V100.901C170.28 100.476 170.625 100.13 171.05 100.13H173.714C174.139 100.13 174.484 100.476 174.484 100.901V102.766C174.484 103.19 174.139 103.536 173.714 103.536Z" fill="#66B0F0"/>
<path d="M176.306 103.486L175.485 102.938C175.262 102.787 175.125 102.528 175.125 102.247V101.426C175.125 101.146 175.262 100.886 175.485 100.735L176.306 100.188C176.5 100.058 176.752 100.202 176.752 100.447V103.234C176.759 103.471 176.5 103.615 176.306 103.486Z" fill="#66B0F0"/>
<path d="M282.701 128.786H91.562" stroke="#3FB1B5" stroke-width="6" stroke-miterlimit="10" stroke-linecap="round"/>
<path d="M153.1 130.046V218.938H148.082V202.018C148.082 200.441 146.8 199.159 145.224 199.159H109.303C107.726 199.159 106.444 200.441 106.444 202.018V218.938H101.426V130.046H153.1Z" fill="white" stroke="#3FB1B5" stroke-width="6" stroke-miterlimit="10" stroke-linecap="round"/>
<path d="M153.252 130.046V153.634L101.426 196.308L101.433 130.046H153.252Z" fill="#D0F0E4"/>
<path d="M148.082 136.814V152.935C148.082 154.433 146.873 155.642 145.375 155.642H109.159C107.661 155.642 106.452 154.433 106.452 152.935V136.814C106.452 135.317 107.661 134.107 109.159 134.107H145.375C146.873 134.107 148.082 135.317 148.082 136.814Z" stroke="#3FB1B5" stroke-width="6" stroke-miterlimit="10" stroke-linecap="round"/>
<path d="M136.476 167.854H118.649L117.907 162.749H135.741L136.476 167.854Z" fill="#FFCF2D"/>
<path d="M145.987 159.804C143.762 159.804 141.962 161.604 141.962 163.829V167.854H126.792V163.829C126.792 161.604 128.592 159.804 130.816 159.804H145.987Z" fill="white" stroke="#3FB1B5" stroke-width="6" stroke-miterlimit="10" stroke-linecap="round"/>
<path d="M149.767 162.749H134.596C134.128 161.05 132.566 159.804 130.716 159.804H145.886C147.736 159.804 149.292 161.05 149.767 162.749Z" fill="white" stroke="#3FB1B5" stroke-width="6" stroke-miterlimit="10" stroke-linecap="round"/>
<path d="M148.082 170.561V186.682C148.082 188.179 146.873 189.389 145.375 189.389H109.159C107.661 189.389 106.452 188.179 106.452 186.682V170.561C106.452 169.063 107.661 167.854 109.159 167.854H145.375C146.873 167.854 148.082 169.063 148.082 170.561Z" stroke="#3FB1B5" stroke-width="6" stroke-miterlimit="10" stroke-linecap="round"/>
<path d="M119.851 144.554C119.851 143.273 120.888 142.229 122.176 142.229H132.364C133.646 142.229 134.69 143.266 134.69 144.554" stroke="#3FB1B5" stroke-width="6" stroke-miterlimit="10" stroke-linecap="round"/>
<path d="M119.851 178.301C119.851 177.019 120.888 175.975 122.176 175.975H132.364C133.646 175.975 134.69 177.012 134.69 178.301" stroke="#3FB1B5" stroke-width="6" stroke-miterlimit="10" stroke-linecap="round"/>
<path d="M275.09 130.046H269.74V219.132H275.09V130.046Z" fill="white" stroke="#3FB1B5" stroke-width="6" stroke-miterlimit="10" stroke-linecap="round"/>
<path d="M184.176 219.132H295.819" stroke="#3FB1B5" stroke-width="6" stroke-miterlimit="10" stroke-linecap="round"/>
<path d="M116.618 116.568H113.385C113.385 116.568 108.77 97.3368 104.717 96.7104C100.663 96.084 100.454 103.486 100.454 103.486C100.454 103.486 100.526 92.232 110.657 93.7728C120.794 95.3136 116.618 116.568 116.618 116.568Z" fill="white" stroke="#3FB1B5" stroke-width="6" stroke-miterlimit="10" stroke-linecap="round"/>
<path d="M105.544 94.2624C105.544 94.2624 114.782 90.8496 115.2 116.28" stroke="#3FB1B5" stroke-width="6" stroke-miterlimit="10" stroke-linecap="round"/>
<path d="M125.424 116.28H110.239V128.642H125.424V116.28Z" fill="#FE5244"/>
<path d="M128.621 122.465C127.656 122.882 126.504 122.832 125.431 122.364C124.639 122.018 123.89 121.45 123.285 120.672C122.45 119.592 121.889 118.116 121.889 116.28C121.889 111.83 118.346 109.037 116.892 114.926C116.791 115.337 116.697 115.783 116.618 116.28V116.266V116.237C116.618 116.222 116.618 116.201 116.625 116.179V116.15C116.654 115.783 116.762 114.696 117.093 113.386C117.338 112.414 117.705 111.334 118.253 110.333C118.526 109.836 118.843 109.361 119.217 108.936C120.182 107.827 121.507 107.05 123.314 107.05C126.641 107.05 129.074 110.966 130.003 114.869C130.817 118.26 130.485 121.651 128.621 122.465Z" fill="white" stroke="#3FB1B5" stroke-width="6" stroke-miterlimit="10" stroke-linecap="round"/>
<path d="M119.225 108.936C119.225 108.936 125.892 104.191 127.85 122.602" stroke="#3FB1B5" stroke-width="6" stroke-miterlimit="10" stroke-linecap="round"/>
<path d="M100.238 103.486C100.238 104.674 100.101 109.217 104.436 109.426C108.77 109.634 109.202 103.09 109.202 103.09C109.202 103.09 107.071 97.3008 104.717 96.7104C100.735 95.7096 100.238 103.486 100.238 103.486Z" fill="#3FB1B5"/>
<path d="M121.889 116.28H116.618C117.835 108.655 121.889 111.521 121.889 116.28Z" fill="#3FB1B5"/>
<path opacity="0.4" d="M211.392 60.2784V107.806C211.392 110.362 209.319 112.428 206.77 112.428H152.374C148.961 117.13 141.926 117.151 138.485 112.428L138.478 112.421C137.11 112.327 135.9 111.629 135.122 110.599L136.375 109.519L168.343 81.9288L198.785 55.656H206.77C209.319 55.656 211.392 57.7296 211.392 60.2784Z" fill="white"/>
<path opacity="0.4" d="M128.621 122.681C127.663 123.113 126.504 123.048 125.431 122.58V128.642H114.221L123.293 120.816L125.438 118.966L127.073 117.554L130.234 114.869C131.155 118.8 130.644 121.752 128.621 122.681Z" fill="white"/>
<path d="M69.6166 62.424C69.5302 62.424 69.4438 62.3664 69.415 62.28C69.379 62.1648 69.4366 62.0424 69.5446 62.0064L70.2214 61.7688C70.3366 61.7328 70.459 61.7904 70.495 61.8984C70.531 62.0136 70.4734 62.136 70.3654 62.172L69.6886 62.4096C69.6598 62.4168 69.6382 62.424 69.6166 62.424ZM71.3158 61.8336C71.2294 61.8336 71.143 61.776 71.1142 61.6896C71.0782 61.5744 71.1358 61.452 71.2438 61.416L71.9206 61.1784C72.0358 61.1424 72.1582 61.2 72.1942 61.308C72.2302 61.4232 72.1726 61.5456 72.0646 61.5816L71.3878 61.8192C71.3662 61.8264 71.3374 61.8336 71.3158 61.8336ZM73.015 61.236C72.9286 61.236 72.8422 61.1784 72.8134 61.092C72.7774 60.9768 72.835 60.8544 72.943 60.8184L73.6198 60.5808C73.735 60.5448 73.8574 60.6024 73.8934 60.7104C73.9294 60.8256 73.8718 60.948 73.7638 60.984L73.087 61.2216C73.0654 61.236 73.0366 61.236 73.015 61.236ZM74.7142 60.6456C74.6278 60.6456 74.5414 60.588 74.5126 60.5016C74.4766 60.3864 74.5342 60.264 74.6422 60.228L75.319 59.9904C75.4342 59.9544 75.5566 60.012 75.5926 60.12C75.6286 60.2352 75.571 60.3576 75.463 60.3936L74.7862 60.6312C74.7646 60.6456 74.743 60.6456 74.7142 60.6456ZM76.4134 60.0552C76.327 60.0552 76.2406 59.9976 76.2118 59.9112C76.1758 59.796 76.2334 59.6736 76.3414 59.6376L77.0182 59.4C77.1334 59.364 77.2558 59.4216 77.2918 59.5296C77.3278 59.6448 77.2702 59.7672 77.1622 59.8032L76.4854 60.0408C76.4638 60.0552 76.4422 60.0552 76.4134 60.0552ZM78.1198 59.4648C78.0334 59.4648 77.947 59.4072 77.9182 59.3208C77.8822 59.2056 77.9398 59.0832 78.0478 59.0472L78.7246 58.8096C78.8398 58.7736 78.9622 58.8312 78.9982 58.9392C79.0342 59.0544 78.9766 59.1768 78.8686 59.2128L78.1918 59.4504C78.163 59.4648 78.1414 59.4648 78.1198 59.4648ZM79.819 58.8744C79.7326 58.8744 79.6462 58.8168 79.6174 58.7304C79.5814 58.6152 79.639 58.4928 79.747 58.4568L80.4238 58.2192C80.539 58.1832 80.6614 58.2408 80.6974 58.3488C80.7334 58.464 80.6758 58.5864 80.5678 58.6224L79.891 58.86C79.8622 58.8672 79.8406 58.8744 79.819 58.8744ZM81.5182 58.284C81.4318 58.284 81.3454 58.2264 81.3166 58.14C81.2806 58.0248 81.3382 57.9024 81.4462 57.8664L82.123 57.6288C82.2382 57.5928 82.3606 57.6504 82.3966 57.7584C82.4326 57.8736 82.375 57.996 82.267 58.032L81.5902 58.2696C81.5614 58.2768 81.5398 58.284 81.5182 58.284ZM83.2174 57.6936C83.131 57.6936 83.0446 57.636 83.0158 57.5496C82.9798 57.4344 83.0374 57.312 83.1454 57.276L83.8222 57.0384C83.9374 57.0024 84.0598 57.06 84.0958 57.168C84.1318 57.2832 84.0742 57.4056 83.9662 57.4416L83.2894 57.6792C83.2678 57.6864 83.239 57.6936 83.2174 57.6936ZM84.9166 57.1032C84.8302 57.1032 84.7438 57.0456 84.715 56.9592C84.679 56.844 84.7366 56.7216 84.8446 56.6856L85.5214 56.448C85.6366 56.412 85.759 56.4696 85.795 56.5776C85.831 56.6928 85.7734 56.8152 85.6654 56.8512L84.9886 57.0888C84.967 57.096 84.9382 57.1032 84.9166 57.1032ZM86.6158 56.5128C86.5294 56.5128 86.443 56.4552 86.4142 56.3688C86.3782 56.2536 86.4358 56.1312 86.5438 56.0952L87.2206 55.8576C87.3358 55.8216 87.4582 55.8792 87.4942 55.9872C87.5302 56.1024 87.4726 56.2248 87.3646 56.2608L86.6878 56.4984C86.6662 56.5056 86.6374 56.5128 86.6158 56.5128ZM88.315 55.9152C88.2286 55.9152 88.1422 55.8576 88.1134 55.7712C88.0774 55.656 88.135 55.5336 88.243 55.4976L88.9198 55.26C89.035 55.224 89.1574 55.2816 89.1934 55.3896C89.2294 55.5048 89.1718 55.6272 89.0638 55.6632L88.387 55.9008C88.3654 55.9152 88.3438 55.9152 88.315 55.9152ZM90.0142 55.3248C89.9278 55.3248 89.8414 55.2672 89.8126 55.1808C89.7766 55.0656 89.8342 54.9432 89.9422 54.9072L90.619 54.6696C90.7342 54.6336 90.8566 54.6912 90.8926 54.7992C90.9286 54.9144 90.871 55.0368 90.763 55.0728L90.0862 55.3104C90.0646 55.3248 90.043 55.3248 90.0142 55.3248ZM91.7206 54.7344C91.6342 54.7344 91.5478 54.6768 91.519 54.5904C91.483 54.4752 91.5406 54.3528 91.6486 54.3168L92.3254 54.0792C92.4406 54.0432 92.563 54.1008 92.599 54.2088C92.635 54.324 92.5774 54.4464 92.4694 54.4824L91.7926 54.72C91.7638 54.7344 91.7422 54.7344 91.7206 54.7344ZM93.4198 54.144C93.3334 54.144 93.247 54.0864 93.2182 54C93.1822 53.8848 93.2398 53.7624 93.3478 53.7264L94.0246 53.4888C94.1398 53.4528 94.2622 53.5104 94.2982 53.6184C94.3342 53.7336 94.2766 53.856 94.1686 53.892L93.4918 54.1296C93.463 54.144 93.4414 54.144 93.4198 54.144ZM95.119 53.5536C95.0326 53.5536 94.9462 53.496 94.9174 53.4096C94.8814 53.2944 94.939 53.172 95.047 53.136L95.7238 52.8984C95.839 52.8624 95.9614 52.92 95.9974 53.028C96.0334 53.1432 95.9758 53.2656 95.8678 53.3016L95.191 53.5392C95.1622 53.5536 95.1406 53.5536 95.119 53.5536ZM96.8182 52.9632C96.7318 52.9632 96.6454 52.9056 96.6166 52.8192C96.5806 52.704 96.6382 52.5816 96.7462 52.5456L97.423 52.308C97.5382 52.272 97.6606 52.3296 97.6966 52.4376C97.7326 52.5528 97.675 52.6752 97.567 52.7112L96.8902 52.9488C96.8686 52.956 96.8398 52.9632 96.8182 52.9632ZM98.5174 52.3728C98.431 52.3728 98.3446 52.3152 98.3158 52.2288C98.2798 52.1136 98.3374 51.9912 98.4454 51.9552L99.1222 51.7176C99.2374 51.6816 99.3598 51.7392 99.3958 51.8472C99.4318 51.9624 99.3742 52.0848 99.2662 52.1208L98.5894 52.3584C98.5678 52.3656 98.539 52.3728 98.5174 52.3728Z" fill="#FFCF2D"/>
<path d="M77.2775 62.424C77.1551 62.424 77.0615 62.3304 77.0615 62.208C77.0615 60.2568 76.4567 58.8384 75.2543 58.0032C74.3543 57.3768 73.4399 57.3192 73.4327 57.3192C73.3103 57.312 73.2239 57.2112 73.2311 57.0888C73.2383 56.9664 73.3391 56.88 73.4543 56.8872C73.4975 56.8872 74.4839 56.9448 75.4847 57.636C77.1479 58.788 77.4935 60.7608 77.4935 62.208C77.4935 62.3232 77.3999 62.424 77.2775 62.424Z" fill="#3FB1B5"/>
<path d="M111.679 62.424H69.6166C69.5374 62.424 69.4582 62.3808 69.4222 62.3016C69.3862 62.2296 69.3934 62.1432 69.4438 62.0784L86.5366 39.2904C86.5726 39.24 86.6302 39.2112 86.6878 39.204C86.7454 39.1968 86.8102 39.2184 86.8534 39.2616L111.83 62.0496C111.895 62.1072 111.917 62.2008 111.888 62.2872C111.852 62.3664 111.773 62.424 111.679 62.424ZM70.0486 61.992H111.125L86.7382 39.7368L70.0486 61.992Z" fill="#3FB1B5"/>
<path d="M65.8367 63.9216C64.8071 63.9216 63.9719 63.0864 63.9719 62.0568C63.9719 61.0272 64.8071 60.192 65.8367 60.192C66.8663 60.192 67.7015 61.0272 67.7015 62.0568C67.7015 63.0864 66.8663 63.9216 65.8367 63.9216ZM65.8367 60.6168C65.0447 60.6168 64.4039 61.2576 64.4039 62.0496C64.4039 62.8416 65.0447 63.4824 65.8367 63.4824C66.6287 63.4824 67.2695 62.8416 67.2695 62.0496C67.2695 61.2576 66.6287 60.6168 65.8367 60.6168Z" fill="#FFCF2D"/>
<path d="M67.7018 62.0568H67.2698V63.7057H67.7018V62.0568Z" fill="#FFCF2D"/>
<path d="M87.9842 37.872C86.9546 37.872 86.1194 37.0368 86.1194 36.0072C86.1194 34.9776 86.9546 34.1424 87.9842 34.1424C89.0138 34.1424 89.849 34.9776 89.849 36.0072C89.849 37.0296 89.0138 37.872 87.9842 37.872ZM87.9842 34.5672C87.1922 34.5672 86.5514 35.208 86.5514 36C86.5514 36.792 87.1922 37.44 87.9842 37.44C88.7762 37.44 89.417 36.7992 89.417 36.0072C89.417 35.2152 88.7762 34.5672 87.9842 34.5672Z" fill="#FFCF2D"/>
<path d="M86.5367 33.12H86.1047V37.6488H86.5367V33.12Z" fill="#FFCF2D"/>
<path d="M115.042 63.8784C114.012 63.8784 113.177 63.0432 113.177 62.0136C113.177 60.984 114.012 60.1488 115.042 60.1488V60.5808C114.25 60.5808 113.609 61.2216 113.609 62.0136C113.609 62.8056 114.25 63.4464 115.042 63.4464V63.8784Z" fill="#FFCF2D"/>
<path d="M224.085 154.67V194.746H214.826L208.929 178.279L200.484 154.67H224.085Z" fill="#A0505A"/>
<path d="M200.484 154.67H224.085V167.537L203.292 162.511L200.484 154.67Z" fill="#73325A"/>
<path d="M224.085 178.279V194.746H214.826L208.929 178.279C208.929 178.279 213.703 180.914 224.085 178.279Z" stroke="white" stroke-width="6" stroke-miterlimit="10" stroke-linecap="round"/>
<path d="M213.746 182.146C214.327 182.146 214.797 181.675 214.797 181.094C214.797 180.514 214.327 180.043 213.746 180.043C213.166 180.043 212.695 180.514 212.695 181.094C212.695 181.675 213.166 182.146 213.746 182.146Z" stroke="white" stroke-width="6" stroke-miterlimit="10" stroke-linecap="round"/>
<path d="M218.758 185.537C219.338 185.537 219.809 185.066 219.809 184.486C219.809 183.905 219.338 183.434 218.758 183.434C218.177 183.434 217.707 183.905 217.707 184.486C217.707 185.066 218.177 185.537 218.758 185.537Z" stroke="white" stroke-width="6" stroke-miterlimit="10" stroke-linecap="round"/>
<path d="M222.487 181.771C223.067 181.771 223.538 181.301 223.538 180.72C223.538 180.139 223.067 179.669 222.487 179.669C221.906 179.669 221.436 180.139 221.436 180.72C221.436 181.301 221.906 181.771 222.487 181.771Z" stroke="white" stroke-width="6" stroke-miterlimit="10" stroke-linecap="round"/>
<path d="M221.011 189.482C221.592 189.482 222.062 189.012 222.062 188.431C222.062 187.851 221.592 187.38 221.011 187.38C220.431 187.38 219.96 187.851 219.96 188.431C219.96 189.012 220.431 189.482 221.011 189.482Z" stroke="white" stroke-width="6" stroke-miterlimit="10" stroke-linecap="round"/>
<path d="M214.798 187.567C215.378 187.567 215.849 187.097 215.849 186.516C215.849 185.935 215.378 185.465 214.798 185.465C214.217 185.465 213.746 185.935 213.746 186.516C213.746 187.097 214.217 187.567 214.798 187.567Z" stroke="white" stroke-width="6" stroke-miterlimit="10" stroke-linecap="round"/>
<path d="M216.511 193.327C217.092 193.327 217.562 192.857 217.562 192.276C217.562 191.695 217.092 191.225 216.511 191.225C215.931 191.225 215.46 191.695 215.46 192.276C215.46 192.857 215.931 193.327 216.511 193.327Z" stroke="white" stroke-width="6" stroke-miterlimit="10" stroke-linecap="round"/>
<path d="M228.463 202.219L222.113 215.402C221.213 217.526 219.132 218.909 216.821 218.909H208.721C206.647 218.909 205.387 216.806 206.179 214.891L214.322 195.25C214.776 194.054 215.575 193.061 216.576 192.362C217.584 191.664 218.793 191.268 220.068 191.268C221.839 191.268 223.596 192.47 224.762 193.802L227.585 196.848C228.888 198.331 229.226 200.412 228.463 202.219Z" fill="#66B0F0"/>
<path d="M228.463 202.219L222.113 215.402C221.213 217.526 219.132 218.909 216.821 218.909H208.209C207.41 218.909 206.957 218.412 206.69 217.728H208.605C210.917 217.728 212.997 216.346 213.897 214.222L221.22 198.95C221.904 197.525 223.351 196.61 224.935 196.61C227.001 196.61 228.571 198.122 228.859 200.038C228.888 200.772 228.758 201.514 228.463 202.219Z" fill="white" stroke="#66B0F0" stroke-width="6" stroke-miterlimit="10" stroke-linejoin="round"/>
<path d="M227.002 196.214C226.238 195.797 225.317 195.494 224.51 195.494C222.962 195.494 221.53 196.394 220.86 197.791L213.278 213.602C212.313 215.885 210.081 217.361 207.597 217.361H206.201C206.129 217.224 206.078 217.08 206.028 216.929H207.597C209.909 216.929 211.982 215.554 212.882 213.43L212.89 213.422L220.478 197.604C221.22 196.056 222.804 195.062 224.518 195.062C225.065 195.062 225.72 195.242 226.282 195.437L227.002 196.214Z" fill="white"/>
<path d="M200.484 154.67L198.677 178.279L197.871 188.856C197.871 188.856 192.607 194.717 186.617 191.102L183.845 178.286L177.502 148.961C175.788 141.034 181.202 133.322 189.245 132.25L200.484 154.67Z" fill="#A0505A"/>
<path d="M198.677 178.279L197.87 189.144C197.87 189.144 192.607 195.005 186.617 191.39L183.845 178.286C190.807 180.374 198.677 178.279 198.677 178.279Z" stroke="white" stroke-width="6" stroke-miterlimit="10" stroke-linecap="round"/>
<path d="M190.404 184.81C190.985 184.81 191.455 184.339 191.455 183.758C191.455 183.178 190.985 182.707 190.404 182.707C189.823 182.707 189.353 183.178 189.353 183.758C189.353 184.339 189.823 184.81 190.404 184.81Z" stroke="white" stroke-width="6" stroke-miterlimit="10" stroke-linecap="round"/>
<path d="M197.086 183.197C197.666 183.197 198.137 182.726 198.137 182.146C198.137 181.565 197.666 181.094 197.086 181.094C196.505 181.094 196.034 181.565 196.034 182.146C196.034 182.726 196.505 183.197 197.086 183.197Z" stroke="white" stroke-width="6" stroke-miterlimit="10" stroke-linecap="round"/>
<path d="M186.372 181.771C186.952 181.771 187.423 181.301 187.423 180.72C187.423 180.139 186.952 179.669 186.372 179.669C185.791 179.669 185.321 180.139 185.321 180.72C185.321 181.301 185.791 181.771 186.372 181.771Z" stroke="white" stroke-width="6" stroke-miterlimit="10" stroke-linecap="round"/>
<path d="M189.353 190.534C189.933 190.534 190.404 190.063 190.404 189.482C190.404 188.902 189.933 188.431 189.353 188.431C188.772 188.431 188.302 188.902 188.302 189.482C188.302 190.063 188.772 190.534 189.353 190.534Z" stroke="white" stroke-width="6" stroke-miterlimit="10" stroke-linecap="round"/>
<path d="M194.256 188.431C194.836 188.431 195.307 187.961 195.307 187.38C195.307 186.8 194.836 186.329 194.256 186.329C193.675 186.329 193.205 186.8 193.205 187.38C193.205 187.961 193.675 188.431 194.256 188.431Z" stroke="white" stroke-width="6" stroke-miterlimit="10" stroke-linecap="round"/>
<path d="M204.811 191.376L197.87 219.132H195.682C195.581 219.132 195.487 219.125 195.386 219.118C193.73 218.966 192.334 217.57 191.981 215.921L186.61 191.088C192.6 194.71 197.87 188.849 197.87 188.849L204.811 191.376Z" fill="#66B0F0"/>
<path d="M205.164 205.618C206.625 197.899 207.029 192.002 204.509 191.527C201.989 191.052 197.503 196.171 196.042 203.89C194.58 211.608 195.343 218.434 197.863 218.909C200.383 219.391 203.702 213.343 205.164 205.618Z" fill="white" stroke="#66B0F0" stroke-width="6" stroke-miterlimit="10" stroke-linejoin="round"/>
<path d="M195.034 203.767C194.278 207.77 194.054 211.637 194.414 214.661C194.674 216.835 195.221 218.383 195.97 219.132H195.682C195.581 219.132 195.487 219.125 195.386 219.118C194.71 218.225 194.227 216.727 193.982 214.711C193.615 211.651 193.838 207.734 194.609 203.688C195.336 199.858 196.805 196.265 198.756 193.565C199.923 191.952 201.147 190.822 202.263 190.31L202.911 190.526C200.34 191.29 196.438 196.358 195.034 203.767Z" fill="white"/>
<path d="M189.245 132.243L222.091 128.859L254.923 138.067L254.642 142.43C254.196 149.314 248.263 154.67 241.365 154.67H200.491L189.245 132.243Z" fill="#FE5244"/>
<path d="M253.051 137.75C253.051 144 246.816 151.646 239.918 151.646H199.044" stroke="white" stroke-width="6" stroke-miterlimit="10" stroke-linecap="round" stroke-linejoin="round"/>
<path d="M249.156 136.505C248.134 142.085 242.676 148.046 236.7 148.046H197.388" stroke="white" stroke-width="6" stroke-miterlimit="10" stroke-linecap="round" stroke-linejoin="round"/>
<path d="M244.728 135.18C243 139.918 238.313 144.375 233.237 144.375H195.3" stroke="white" stroke-width="6" stroke-miterlimit="10" stroke-linecap="round" stroke-linejoin="round"/>
<path d="M241.322 134.251C239.054 137.7 235.332 140.414 231.365 140.414H193.428" stroke="white" stroke-width="6" stroke-miterlimit="10" stroke-linecap="round" stroke-linejoin="round"/>
<path d="M237.521 133.185C235.339 135.382 232.517 136.814 229.565 136.814H191.628" stroke="white" stroke-width="6" stroke-miterlimit="10" stroke-linecap="round" stroke-linejoin="round"/>
<path d="M232.575 131.753C231.034 132.624 229.349 133.142 227.621 133.142H189.684" stroke="white" stroke-width="6" stroke-miterlimit="10" stroke-linecap="round" stroke-linejoin="round"/>
<path d="M200.412 154.67L189.173 132.242" stroke="white" stroke-width="6" stroke-miterlimit="10" stroke-linecap="round" stroke-linejoin="round"/>
<path d="M256.723 108.014C253.627 108.893 250.582 108.634 250.258 107.69C249.955 106.79 251.323 105.25 254.095 104.227C254.232 104.177 254.376 104.126 254.52 104.076C255.355 103.795 256.19 103.615 256.975 103.522C259.301 103.226 261.194 103.644 261.432 104.35C261.756 105.293 259.999 107.086 256.723 108.014Z" fill="white" stroke="#3FB1B5" stroke-width="6" stroke-miterlimit="10" stroke-linejoin="round"/>
<path d="M254.765 129.01H253.577L250.459 107.964V107.95L250.38 107.424C250.531 106.466 252.029 105.113 254.671 104.234C255.989 103.795 257.299 103.601 258.415 103.579L259.553 106.697L259.661 106.992L263.261 116.863C265.421 122.76 261.05 129.01 254.765 129.01Z" fill="#A0505A"/>
<path d="M259.625 106.92C258.869 107.395 257.889 107.834 256.723 108.166C254.045 108.922 251.33 108.612 250.459 107.964V107.95L250.38 107.424C250.531 106.466 252.029 105.113 254.671 104.234C255.989 103.795 257.299 103.601 258.415 103.579L259.625 106.92Z" fill="#73325A"/>
<path d="M216.202 111.694L212.422 121.097C210.557 125.741 206.05 128.786 201.038 128.786H150.228V124.135C150.228 123.012 150.919 122.004 151.97 121.608L157.19 119.628C157.666 119.448 158.162 119.354 158.666 119.354H164.592L198.13 115.97L203.918 102.715L216.202 111.694Z" fill="#A0505A"/>
<path d="M155.7 122.486L151.762 123.977C150.97 124.279 150.444 125.035 150.444 125.885" stroke="#73325A" stroke-width="6" stroke-miterlimit="10" stroke-linecap="round"/>
<path d="M155.7 124.862L151.762 126.353C150.97 126.655 150.444 127.411 150.444 128.261" stroke="#73325A" stroke-width="6" stroke-miterlimit="10" stroke-linecap="round"/>
<path d="M155.7 127.152L151.762 128.571" stroke="#73325A" stroke-width="6" stroke-miterlimit="10" stroke-linecap="round"/>
<path d="M155.29 120.427C155.29 120.427 158.976 111.017 160.157 111.175C161.337 111.334 156.888 119.822 156.888 119.822L155.29 120.427Z" fill="#FE5244"/>
<path d="M203.918 102.722L203.069 104.659L213.948 117.295L216.202 111.694L203.918 102.722Z" fill="#73325A"/>
<path d="M250.46 107.971L254.924 138.067L222.099 128.858L216.202 111.686L200.981 100.562L206.323 94.1976C211.09 88.5168 218.124 85.2336 225.54 85.2336H236.088C245.261 85.2336 253.707 90.2448 258.106 98.2944L261.526 104.213C261.526 104.213 260.496 102.701 254.945 104.22C250.056 105.566 250.46 107.971 250.46 107.971Z" fill="#3FB1B5"/>
<path d="M216.202 111.55L217.908 104.148" stroke="white" stroke-width="6" stroke-miterlimit="10" stroke-linecap="round" stroke-linejoin="round"/>
<path d="M254.095 131.04L248.544 96.5305" stroke="white" stroke-width="6" stroke-miterlimit="10" stroke-linecap="round" stroke-linejoin="round"/>
<path d="M222.092 128.722L254.851 138.067" stroke="white" stroke-width="6" stroke-miterlimit="10" stroke-linecap="round" stroke-linejoin="round"/>
<path d="M223.863 80.424V85.2624L232.402 85.1904V76.6512L223.863 80.424Z" fill="#A0505A"/>
<path d="M233.093 75.1608V75.2904C233.093 76.5864 232.114 77.6376 230.818 77.6376H230.314C229.99 78.9192 227.11 80.4168 225.065 80.4168H222.682C220.075 80.4168 218.081 78.0768 218.506 75.4992L218.621 74.8008L217.915 74.4048C217.512 74.1744 217.397 73.6488 217.678 73.2744L219.204 71.2584L219.535 69.2712C219.802 67.6368 220.874 66.3048 222.3 65.6496C222.862 71.9784 228.449 72.7272 229.925 72.8136H230.746C232.042 72.8136 233.093 73.8648 233.093 75.1608Z" fill="#A0505A"/>
<path d="M229.313 75.78C229.313 74.7576 230.141 73.9296 231.163 73.9296" stroke="#73325A" stroke-width="6" stroke-miterlimit="10" stroke-linecap="round"/>
<path d="M221.508 72.8784C221.711 72.8784 221.875 72.498 221.875 72.0288C221.875 71.5596 221.711 71.1792 221.508 71.1792C221.305 71.1792 221.141 71.5596 221.141 72.0288C221.141 72.498 221.305 72.8784 221.508 72.8784Z" fill="#73325A"/>
<path d="M220.947 69.4009C220.947 69.4009 221.962 69.3001 223.006 70.7401" stroke="#73325A" stroke-width="6" stroke-miterlimit="10" stroke-linecap="round"/>
<path d="M229.925 72.8136H230.746C232.042 72.8136 233.093 73.8648 233.093 75.1608V75.2904C233.093 76.5864 232.114 77.6376 230.818 77.6376L230.264 78.0264C227.931 79.524 224.705 85.4136 225.497 89.5824C226.39 94.2696 230.472 95.3136 234.245 94.5936C238.018 93.8736 240.768 91.6776 239.875 86.9832C239.775 86.4288 239.609 85.8744 239.4 85.3272C239.465 85.3488 239.523 85.3704 239.587 85.392C244.123 86.6304 249.451 86.7744 250.92 83.232C252.389 79.6896 252.058 76.1832 247.644 74.3544C245.081 73.2888 241.596 73.296 238.896 74.0304C240.257 69.3 237.838 64.0368 233.396 63.5112C226.419 62.6832 222.416 65.5632 222.308 65.6424C222.3 66.4776 222.869 72.4032 229.925 72.8136Z" fill="#73325A"/>
<path d="M239.076 73.8648C238.507 75.7152 237.334 77.6952 235.426 79.0416C235.426 79.0416 238.795 81.2664 239.587 85.3992" stroke="white" stroke-width="6" stroke-miterlimit="10" stroke-linecap="round" stroke-linejoin="round"/>
<path d="M241.035 73.7064H239.127V71.7984C239.127 70.7976 239.933 69.9911 240.934 69.9911H241.035C242.036 69.9911 242.842 70.7976 242.842 71.7984V71.8992C242.849 72.8928 242.036 73.7064 241.035 73.7064Z" stroke="#FE5244" stroke-width="6" stroke-miterlimit="10" stroke-linejoin="round"/>
<path d="M240.336 75.6648L239.112 73.7208L241.056 72.4968C242.028 71.8848 243.317 72.1728 243.929 73.1448L244.044 73.3248C244.656 74.2968 244.368 75.5856 243.396 76.1976L243.216 76.3128C242.23 76.9248 240.948 76.6368 240.336 75.6648Z" stroke="#FE5244" stroke-width="6" stroke-miterlimit="10" stroke-linejoin="round"/>
<path d="M229.061 79.1352L230.422 77.832L231.754 79.3369C232.409 80.0929 232.323 81.2377 231.567 81.8857L231.487 81.9505C230.731 82.6057 229.587 82.5193 228.939 81.7633L228.874 81.6841C228.219 80.9353 228.305 79.7905 229.061 79.1352Z" stroke="#FE5244" stroke-width="6" stroke-miterlimit="10" stroke-linejoin="round"/>
<path d="M231.048 80.0712L230.436 77.8608L232.647 77.2488C233.755 76.9392 234.9 77.5872 235.21 78.696L235.267 78.9048C235.577 80.0137 234.929 81.1585 233.82 81.4681L233.611 81.5257C232.503 81.8281 231.358 81.1729 231.048 80.0712Z" stroke="#FE5244" stroke-width="6" stroke-miterlimit="10" stroke-linejoin="round"/>
<path d="M211.399 160.207L198.857 218.909" stroke="#FFCF2D" stroke-width="6" stroke-miterlimit="10" stroke-linecap="round"/>
<path d="M243.497 160.207L256.039 218.909" stroke="#FFCF2D" stroke-width="6" stroke-miterlimit="10" stroke-linecap="round"/>
<path d="M201.636 205.877H253.087" stroke="#FFCF2D" stroke-width="6" stroke-miterlimit="10" stroke-linecap="round"/>
<path d="M253.368 160.207H201.521C200.866 160.207 200.333 159.674 200.333 159.019V155.858C200.333 155.203 200.866 154.67 201.521 154.67H253.368C254.024 154.67 254.556 155.203 254.556 155.858V159.019C254.556 159.674 254.024 160.207 253.368 160.207Z" fill="white" stroke="#66B0F0" stroke-width="6" stroke-miterlimit="10" stroke-linejoin="round"/>
</svg>
