<svg width="500" height="350" viewBox="0 0 500 350" fill="none" xmlns="http://www.w3.org/2000/svg">
<path d="M183.4 188.84L172.73 296.76" stroke="#66B0F0" stroke-width="6" stroke-miterlimit="10" stroke-linecap="round"/>
<path d="M226.83 188.84L237.5 296.76" stroke="#66B0F0" stroke-width="6" stroke-miterlimit="10" stroke-linecap="round"/>
<path d="M176.06 265.2C176.06 265.2 201.76 251.63 234.26 265.2" stroke="#66B0F0" stroke-width="6" stroke-miterlimit="10" stroke-linecap="round"/>
<path d="M232.86 188.84H178.7C175.1 188.84 172.18 185.92 172.18 182.32V179.6H239.38V182.31C239.38 185.92 236.46 188.84 232.86 188.84Z" fill="#D0F0E4" stroke="#66B0F0" stroke-width="6" stroke-miterlimit="10" stroke-linejoin="round"/>
<path d="M194.37 228.21L192.39 230.44C191.18 231.81 191.3 233.9 192.67 235.11C193.35 235.72 194.22 235.99 195.06 235.94C195.91 235.89 196.73 235.52 197.34 234.83L199.44 232.47C199.44 232.46 199.45 231.86 199.45 231.85C198.51 231.34 197.41 231.16 196.32 230.19C195.58 229.53 194.92 228.86 194.37 228.21Z" stroke="#9A3B82" stroke-width="3" stroke-miterlimit="10" stroke-linecap="round"/>
<path d="M185.68 232.63L195.23 223.88L206.34 227.86L195.32 243.73C194.44 245 192.68 245.3 191.42 244.4L186.13 240.58C183.51 238.67 183.28 234.82 185.68 232.63Z" fill="white" stroke="#FE5244" stroke-width="5" stroke-miterlimit="10"/>
<path d="M231.79 178.97C232.42 182.05 231.97 185.4 230.19 188.4L206.71 227.85C206.49 228.74 203.66 228.88 200.4 228.11C197.13 227.34 194.66 225.97 194.87 225.08L205.8 178.57C207.48 171.42 214.64 166.98 221.8 168.66C227.14 169.92 230.8 174.12 231.79 178.97Z" fill="#E57281"/>
<path d="M232.03 182.59C230.57 181.44 228.83 180.58 226.86 180.12C219.71 178.44 212.55 182.87 210.86 190.03L201.84 228.41C201.37 228.34 200.89 228.24 200.39 228.12C197.12 227.35 194.65 225.98 194.86 225.09L205.79 178.58C207.47 171.43 214.63 166.99 221.79 168.67C227.13 169.93 230.79 174.13 231.79 178.98C232.04 180.15 232.12 181.37 232.03 182.59Z" fill="#9A3B82"/>
<path d="M200.88 199.52L194.87 225.08C194.66 225.97 197.13 227.35 200.4 228.11C203.67 228.88 206.5 228.74 206.71 227.85L220.79 204.2L200.88 199.52Z" fill="#D82F25"/>
<path d="M220.79 204.2L200.88 199.52" stroke="white" stroke-width="6" stroke-miterlimit="10" stroke-linecap="round"/>
<path opacity="0.7" d="M200.21 202.64L219.08 207.08" stroke="white" stroke-width="6" stroke-miterlimit="10" stroke-linecap="round"/>
<path opacity="0.7" d="M199.37 206.2L217.09 210.37" stroke="white" stroke-width="6" stroke-miterlimit="10" stroke-linecap="round"/>
<path opacity="0.7" d="M198.53 209.77L215.1 213.66" stroke="white" stroke-width="6" stroke-miterlimit="10" stroke-linecap="round"/>
<path opacity="0.7" d="M197.7 213.33L213.11 216.95" stroke="white" stroke-width="6" stroke-miterlimit="10" stroke-linecap="round"/>
<path opacity="0.7" d="M196.86 216.89L211.13 220.24" stroke="white" stroke-width="6" stroke-miterlimit="10" stroke-linecap="round"/>
<path opacity="0.7" d="M196.02 220.45L209.14 223.53" stroke="white" stroke-width="6" stroke-miterlimit="10" stroke-linecap="round"/>
<path opacity="0.7" d="M195.18 224.01L207.3 226.86" stroke="white" stroke-width="6" stroke-miterlimit="10" stroke-linecap="round"/>
<path d="M206.58 244.53V180.71C206.58 173.36 200.62 167.41 193.28 167.41C184.29 167.41 177.89 176.13 180.59 184.71L194.42 228.49L192.4 240.4C191.87 243.58 193.76 246.67 196.83 247.64L200.67 248.86C203.59 249.78 206.58 247.6 206.58 244.53Z" fill="#E57281"/>
<path d="M206.58 201.23V228.49C206.58 229.41 203.86 230.18 200.5 230.18C197.15 230.18 194.42 229.4 194.42 228.48L185.83 201.23H206.58Z" fill="#FE5244"/>
<path d="M185.82 200.93H206.58L206.68 227.49" stroke="white" stroke-width="6" stroke-miterlimit="10" stroke-linecap="round"/>
<path d="M192.4 240.39C191.87 243.57 193.76 246.66 196.83 247.63L200.67 248.85C203.59 249.78 206.58 247.6 206.58 244.53L206.24 228.49C206.24 229.41 203.86 230.18 200.51 230.18C197.16 230.18 194.66 229.17 194.65 228.25L192.4 240.39Z" fill="white" stroke="#FE5244" stroke-width="5" stroke-miterlimit="10"/>
<path d="M203.27 232.16V235.14C203.27 236.97 201.79 238.45 199.96 238.45C199.05 238.45 198.22 238.08 197.62 237.48C197.02 236.88 196.65 236.05 196.65 235.14V231.98C196.65 231.97 196.65 231.97 196.65 231.96C197.7 232.2 199.04 232.35 200.49 232.35C201.5 232.35 202.44 232.28 203.27 232.16Z" fill="#FE5244"/>
<path d="M206.27 205.43H187.13" stroke="white" stroke-width="6" stroke-miterlimit="10" stroke-linecap="round"/>
<path d="M206.27 209.09H188.31" stroke="white" stroke-width="6" stroke-miterlimit="10" stroke-linecap="round"/>
<path d="M206.27 212.74H189.49" stroke="white" stroke-width="6" stroke-miterlimit="10" stroke-linecap="round"/>
<path d="M206.27 216.4H190.67" stroke="white" stroke-width="6" stroke-miterlimit="10" stroke-linecap="round"/>
<path d="M206.27 220.06H191.86" stroke="white" stroke-width="6" stroke-miterlimit="10" stroke-linecap="round"/>
<path d="M206.27 223.72H193.04" stroke="white" stroke-width="6" stroke-miterlimit="10" stroke-linecap="round"/>
<path d="M206.27 227.38H194.07" stroke="white" stroke-width="6" stroke-miterlimit="10" stroke-linecap="round"/>
<path d="M297.98 209.51H305.97C312.3 209.51 317.43 214.64 317.43 220.97V269.22C317.43 275.55 312.3 280.68 305.97 280.68H302.83C299.18 280.68 296.22 283.64 296.22 287.29" stroke="#66B0F0" stroke-width="6" stroke-miterlimit="10" stroke-linecap="round"/>
<path d="M296.52 296.76C299.668 296.76 302.22 294.208 302.22 291.06C302.22 287.912 299.668 285.36 296.52 285.36C293.372 285.36 290.82 287.912 290.82 291.06C290.82 294.208 293.372 296.76 296.52 296.76Z" fill="white" stroke="#66B0F0" stroke-width="6" stroke-miterlimit="10" stroke-linejoin="round"/>
<path d="M295.4 209.51H344.29C346.49 209.51 348.27 207.73 348.27 205.53V202.18C348.27 199.98 346.49 198.2 344.29 198.2H295.4C292.87 198.2 290.82 200.25 290.82 202.78V204.92C290.82 207.46 292.87 209.51 295.4 209.51Z" fill="#D0F0E4" stroke="#66B0F0" stroke-width="6" stroke-miterlimit="10" stroke-linejoin="round"/>
<path d="M341.14 209.51H333.15C326.82 209.51 321.69 214.64 321.69 220.97V269.22C321.69 275.55 326.82 280.68 333.15 280.68H336.29C339.94 280.68 342.9 283.64 342.9 287.29" stroke="#66B0F0" stroke-width="6" stroke-miterlimit="10" stroke-linecap="round"/>
<path d="M342.61 296.76C345.758 296.76 348.31 294.208 348.31 291.06C348.31 287.912 345.758 285.36 342.61 285.36C339.462 285.36 336.91 287.912 336.91 291.06C336.91 294.208 339.462 296.76 342.61 296.76Z" fill="white" stroke="#66B0F0" stroke-width="6" stroke-miterlimit="10" stroke-linejoin="round"/>
<path d="M252.16 275.2L255.76 282.57C256.97 285.05 257.6 287.76 257.6 290.5V296.09C257.6 297.06 256.79 297.85 255.79 297.85H214.67C213.58 297.85 212.7 296.99 212.7 295.93V294.2C212.7 293.5 213.09 292.86 213.72 292.52C217.99 290.23 231.78 283.07 234.45 275.42L252.16 275.2Z" fill="white" stroke="#FFCF2D" stroke-width="6" stroke-miterlimit="10"/>
<path d="M257.35 287.52H254.13C251.15 287.52 248.38 289.03 246.82 291.5L245.45 293.68C244.63 294.98 243.18 295.77 241.62 295.77H212.72" fill="white"/>
<path d="M257.35 287.52H254.13C251.15 287.52 248.38 289.03 246.82 291.5L245.45 293.68C244.63 294.98 243.18 295.77 241.62 295.77H212.72" stroke="#FFCF2D" stroke-width="6" stroke-miterlimit="10"/>
<path d="M254.86 280.73C251.77 280.83 247.67 280.51 242.72 279.61C239.47 279.02 236.38 278.12 233.69 277.11C234 276.55 234.25 275.99 234.45 275.43L252.16 275.2L254.86 280.73Z" fill="#FFCF2D"/>
<path d="M225.88 285.09L229.14 279.92C230.36 277.99 229.01 275.46 226.73 275.4C224.67 275.34 223.18 277.37 223.86 279.32L225.88 285.09Z" stroke="#FE5244" stroke-width="6" stroke-miterlimit="10" stroke-linecap="round" stroke-linejoin="round"/>
<path d="M225.7 285.12L222.14 282.19C220.81 281.1 218.79 281.86 218.53 283.57C218.29 285.11 219.67 286.41 221.19 286.09L225.7 285.12Z" stroke="#FE5244" stroke-width="6" stroke-miterlimit="10" stroke-linecap="round" stroke-linejoin="round"/>
<path d="M225.38 284.97H233.47" stroke="#FE5244" stroke-width="6" stroke-miterlimit="10" stroke-linecap="round" stroke-linejoin="round"/>
<path d="M223.02 287.23H231.1" stroke="#FE5244" stroke-width="6" stroke-miterlimit="10" stroke-linecap="round" stroke-linejoin="round"/>
<path d="M229.01 282.6H236.89" stroke="#FE5244" stroke-width="6" stroke-miterlimit="10" stroke-linecap="round" stroke-linejoin="round"/>
<path d="M300.23 172.13L281.68 179.15L263.84 272.06C263.12 273.76 253.66 276.2 244.83 276.2C235.53 276.2 228 273.61 228 271.78L238.96 186.44C240.39 175.18 249.97 166.73 261.33 166.73H299.88L300.06 172.12L300.23 172.13Z" fill="white" stroke="#3FB1B5" stroke-width="6" stroke-miterlimit="10" stroke-linecap="round"/>
<path d="M244.32 276.18L255.14 191.93C256.55 180.81 266.63 172.27 283.22 172.27" stroke="#3FB1B5" stroke-width="6" stroke-miterlimit="10" stroke-linecap="round"/>
<path d="M291.62 171.13L271.65 232.2L263.87 207.32C259.07 191.41 267.72 171.13 291.62 171.13Z" fill="#3FB1B5"/>
<path d="M313.52 274.83L320.71 292.74C321.71 295.22 319.74 297.87 316.9 297.87H289.82C288.48 297.87 287.39 296.86 287.39 295.6V293.8C287.39 292.98 287.65 292.19 288.15 291.51L292.9 286.32C295.67 283.3 297.19 279.45 297.19 275.48V275.43L313.52 274.83Z" fill="white" stroke="#FFCF2D" stroke-width="6" stroke-miterlimit="10"/>
<path d="M289.15 290.45C290.65 289.75 292.3 289.38 293.98 289.38H302.67C304.21 289.38 305.73 289.69 307.13 290.29L310.31 291.64" fill="white"/>
<path d="M289.15 290.45C290.65 289.75 292.3 289.38 293.98 289.38H302.67C304.21 289.38 305.73 289.69 307.13 290.29L310.31 291.64" stroke="#FFCF2D" stroke-width="6" stroke-miterlimit="10"/>
<path d="M313.86 275.65C313.3 277.86 305.87 279.62 296.79 279.62H296.64C297.01 278.27 297.2 276.88 297.2 275.47V275.42L313.53 274.83L313.86 275.65Z" fill="#FFCF2D"/>
<path d="M299.72 283.78L305.19 283.73C307.45 283.7 308.82 281.23 307.65 279.3C306.59 277.55 304.11 277.41 302.86 279.03L299.72 283.78Z" stroke="#FE5244" stroke-width="6" stroke-miterlimit="10" stroke-linejoin="round"/>
<path d="M299.72 283.78L296.86 280.23C295.79 278.9 293.68 279.24 293.09 280.84C292.55 282.28 293.62 283.82 295.16 283.81L299.72 283.78Z" stroke="#FE5244" stroke-width="6" stroke-miterlimit="10" stroke-linejoin="round"/>
<path d="M296.68 285.82H308.53" stroke="#FE5244" stroke-width="6" stroke-miterlimit="10" stroke-linecap="round" stroke-linejoin="round"/>
<path d="M319.8 270.07C319.8 272.24 311.96 276.31 303.78 276.31C296.43 276.31 290.34 274.85 289.19 273L268.97 208.32C263.36 189.75 277.26 171.03 296.65 171.03H299.97L299.5 154.35H341.02L345.11 171.32C348.41 185.02 338.03 198.54 323.94 198.54H305.3L319.8 270.07Z" fill="white" stroke="#3FB1B5" stroke-width="6" stroke-miterlimit="10" stroke-linecap="round"/>
<path d="M306.91 276L287.8 214.86C280.93 195.01 288.64 184.61 306.97 184.61H323.68C328.97 184.61 333.26 180.32 333.26 175.03V154.39" stroke="#3FB1B5" stroke-width="6" stroke-miterlimit="10" stroke-linecap="round"/>
<path d="M402.07 179.6H92.1402C90.9202 179.6 90.4602 178 91.4902 177.35L146.29 150.69H350.39L402.63 177.71C403.49 178.28 403.09 179.6 402.07 179.6Z" fill="white" stroke="#66B0F0" stroke-width="6" stroke-miterlimit="10" stroke-linejoin="round"/>
<path d="M393.8 176.63H100.02C98.6599 176.63 98.1399 174.84 99.2999 174.11L146.59 150.99H349.92L394.55 174.13C395.67 174.87 395.15 176.63 393.8 176.63Z" fill="#D0F0E4"/>
<path d="M108.25 179.6L87.8999 296.76" stroke="#66B0F0" stroke-width="6" stroke-miterlimit="10" stroke-linecap="round"/>
<path d="M118.86 179.6L139.21 296.76" stroke="#66B0F0" stroke-width="6" stroke-miterlimit="10" stroke-linecap="round"/>
<path d="M374.52 179.6L354.17 296.76" stroke="#66B0F0" stroke-width="6" stroke-miterlimit="10" stroke-linecap="round"/>
<path d="M385.13 179.6L405.48 296.76" stroke="#66B0F0" stroke-width="6" stroke-miterlimit="10" stroke-linecap="round"/>
<path d="M145.94 146.42L143.06 166.81C142.89 168.02 141.86 168.91 140.64 168.91H135.01C133.79 168.91 132.76 168.01 132.59 166.81L129.71 146.42C129.71 148.25 133.34 149.73 137.82 149.73C142.31 149.73 145.94 148.24 145.94 146.42Z" fill="white" stroke="#66B0F0" stroke-width="6" stroke-miterlimit="10" stroke-linejoin="round"/>
<path d="M144.13 148.6L141.56 166.65C141.37 168 140.2 169.01 138.84 169.01H136.91C135.55 169.01 134.38 168 134.19 166.65L131.62 148.65C131.82 148.74 132.04 148.82 132.26 148.9L134.78 166.57C134.92 167.54 135.7 168.29 136.66 168.4C136.74 168.41 136.82 168.42 136.91 168.42H138.84C138.96 168.42 139.08 168.41 139.19 168.39C140.1 168.24 140.83 167.51 140.96 166.57L143.48 148.86C143.72 148.78 143.93 148.69 144.13 148.6Z" fill="#66B0F0"/>
<path d="M141.48 149.4L139.19 168.39L139.16 168.65C139.14 168.8 139.01 168.91 138.86 168.91C138.85 168.91 138.84 168.91 138.82 168.91C138.65 168.89 138.54 168.74 138.56 168.58L138.58 168.42L140.86 149.51C141.08 149.47 141.28 149.43 141.48 149.4Z" fill="#66B0F0"/>
<path d="M137.03 168.91C137.02 168.91 137.01 168.91 136.99 168.91C136.84 168.91 136.71 168.8 136.69 168.65L136.66 168.4L134.37 149.44C134.57 149.48 134.78 149.51 134.99 149.54L137.27 168.42L137.29 168.58C137.31 168.74 137.19 168.89 137.03 168.91Z" fill="#66B0F0"/>
<path d="M146.23 146.42C146.23 147.26 145.44 148.02 144.14 148.61C143.94 148.7 143.72 148.79 143.5 148.87C142.9 149.08 142.23 149.27 141.49 149.41C141.29 149.45 141.08 149.48 140.87 149.52C140 149.65 139.05 149.73 138.06 149.74C137.98 149.74 137.91 149.74 137.83 149.74C137.72 149.74 137.61 149.74 137.5 149.74C136.62 149.73 135.78 149.66 135 149.55C134.79 149.52 134.59 149.49 134.38 149.45C133.61 149.31 132.9 149.13 132.27 148.91C132.05 148.83 131.83 148.75 131.63 148.66C130.26 148.07 129.43 147.29 129.43 146.43C129.43 146.36 129.44 146.29 129.45 146.22C129.73 144.49 133.37 143.13 137.83 143.13C142.29 143.13 145.94 144.5 146.21 146.22C146.22 146.28 146.23 146.35 146.23 146.42Z" fill="#66B0F0"/>
<path d="M138.18 168.35C138.18 168.37 138.18 168.4 138.17 168.42C138.14 168.55 138.02 168.65 137.88 168.65C137.74 168.65 137.62 168.55 137.59 168.42C137.58 168.4 137.58 168.38 137.58 168.36L137.48 149.84C137.48 149.8 137.49 149.77 137.5 149.73C137.61 149.73 137.72 149.73 137.83 149.73C137.91 149.73 137.99 149.73 138.06 149.73C138.07 149.76 138.08 149.79 138.08 149.83L138.18 168.35Z" fill="#66B0F0"/>
<path d="M137.88 149.12C136.1 149.07 134.47 148.8 133.15 148.37L128.43 128.58H132.98L137.88 149.12Z" fill="#FFCF2D"/>
<path d="M133.57 131.08H131.71C131.57 131.08 131.46 130.97 131.46 130.83C131.46 130.69 131.57 130.58 131.71 130.58H133.45L133.57 131.08Z" fill="white"/>
<path d="M134.07 133.18H132.21C132.07 133.18 131.96 133.07 131.96 132.93C131.96 132.79 132.07 132.68 132.21 132.68H133.95L134.07 133.18Z" fill="white"/>
<path d="M134.57 135.28H132.71C132.57 135.28 132.46 135.17 132.46 135.03C132.46 134.89 132.57 134.78 132.71 134.78H134.45L134.57 135.28Z" fill="white"/>
<path d="M135.08 137.38H133.22C133.08 137.38 132.97 137.27 132.97 137.13C132.97 136.99 133.08 136.88 133.22 136.88H134.96L135.08 137.38Z" fill="white"/>
<path d="M135.58 139.48H133.72C133.58 139.48 133.47 139.37 133.47 139.23C133.47 139.09 133.58 138.98 133.72 138.98H135.46L135.58 139.48Z" fill="white"/>
<path d="M136.08 141.58H134.31C134.17 141.58 134.06 141.47 134.06 141.33C134.06 141.19 134.17 141.08 134.31 141.08H135.96L136.08 141.58Z" fill="white"/>
<path d="M136.58 143.68H134.71C134.57 143.68 134.46 143.57 134.46 143.43C134.46 143.29 134.57 143.18 134.71 143.18H136.46L136.58 143.68Z" fill="white"/>
<path d="M137.08 145.78H135.21C135.07 145.78 134.96 145.67 134.96 145.53C134.96 145.39 135.07 145.28 135.21 145.28H136.96L137.08 145.78Z" fill="white"/>
<path d="M137.58 147.87C137.56 147.88 137.54 147.88 137.51 147.88H135.61C135.47 147.88 135.36 147.77 135.36 147.63C135.36 147.49 135.47 147.38 135.61 147.38H137.46L137.58 147.87Z" fill="white"/>
<path d="M172.03 171.32C172.03 171.32 172.02 171.33 172.03 171.32L171.61 172.85C171.6 172.89 171.57 172.91 171.54 172.9L149.94 166.45C149.91 166.44 149.9 166.4 149.91 166.37L150.32 164.85C150.32 164.83 150.34 164.82 150.35 164.81C150.36 164.8 150.38 164.8 150.39 164.8L171.99 171.25C172 171.25 172.01 171.27 172.02 171.28C172.03 171.29 172.03 171.31 172.03 171.32Z" fill="#FE5244"/>
<path d="M150.64 164.89L150.2 166.52C150.17 166.63 150.08 166.7 149.99 166.68L149.5 166.53C149.42 166.51 149.37 166.39 149.4 166.28L149.84 164.65C149.87 164.54 149.96 164.47 150.05 164.49L150.54 164.64C150.62 164.66 150.67 164.77 150.64 164.89Z" fill="#FFCF2D"/>
<path d="M148.65 164.77L148.45 165.53C148.39 165.74 148.52 165.96 148.74 166.03L149.43 166.23L149.84 164.7L149.15 164.5C148.93 164.44 148.71 164.56 148.65 164.77Z" fill="#FE5244"/>
<path d="M171.97 171.31L172.62 171.97L173.12 172.48L172.44 172.64L171.56 172.84L171.97 171.31Z" fill="white"/>
<path d="M173.17 172.49C173.16 172.53 173.14 172.55 173.12 172.55L171.56 172.91C171.54 172.91 171.52 172.91 171.51 172.89C171.5 172.87 171.5 172.85 171.5 172.83L171.91 171.31C171.92 171.29 171.93 171.27 171.95 171.26C171.97 171.25 171.99 171.25 172 171.27L173.15 172.44C173.17 172.44 173.18 172.46 173.17 172.49ZM171.64 172.75L172.99 172.44L172 171.43L171.64 172.75Z" fill="#FE5244"/>
<path d="M172.62 171.97L173.12 172.48L172.44 172.64L172.62 171.97Z" fill="#F0E1D4"/>
<path d="M173.17 172.49C173.16 172.53 173.14 172.55 173.12 172.55L172.44 172.71C172.42 172.71 172.4 172.71 172.39 172.69C172.38 172.67 172.38 172.65 172.38 172.63L172.56 171.97C172.57 171.95 172.58 171.93 172.6 171.92C172.62 171.91 172.64 171.91 172.65 171.93L173.15 172.44C173.17 172.44 173.18 172.46 173.17 172.49Z" fill="#FE5244"/>
<path d="M141.54 135.83C141.54 135.89 141.54 135.96 141.53 136.02L139.9 149.02C139.25 149.09 138.58 149.13 137.88 149.13L138.68 135.74C138.73 134.99 139.35 134.4 140.11 134.4C140.91 134.4 141.54 135.05 141.54 135.83Z" fill="#FE5244"/>
<path d="M366.7 257.5H386.52C387.14 255.28 389.17 253.65 391.59 253.65H371.77C369.35 253.65 367.32 255.28 366.7 257.5Z" fill="#3FB1B5"/>
<path d="M371.94 253.97C374.84 253.97 377.2 256.33 377.2 259.23V264.49H397.02V259.23C397.02 256.32 394.66 253.97 391.76 253.97H371.94Z" fill="white" stroke="#3FB1B5" stroke-width="6" stroke-miterlimit="10" stroke-linecap="round"/>
<path d="M407.16 257.09H389.07L390.17 262.11H408.26L407.16 257.09Z" fill="white" stroke="#FFCF2D" stroke-width="6" stroke-miterlimit="10"/>
<path d="M416.45 296.75H374.26C377.65 296.75 380.17 293.61 379.43 290.3L373.64 264.29C373.36 263.01 372.22 262.1 370.91 262.1H413.1C414.41 262.1 415.54 263.01 415.83 264.29L421.62 290.3C422.36 293.61 419.84 296.75 416.45 296.75Z" fill="white" stroke="#FFCF2D" stroke-width="6" stroke-miterlimit="10"/>
<path d="M405.2 262.51L407.29 271.9C408.5 277.32 404.37 282.47 398.82 282.47H397.05C390.39 282.47 384.63 277.85 383.18 271.35L381.21 262.51" stroke="#D0F0E4" stroke-width="10" stroke-miterlimit="10"/>
<path d="M407.3 262.41L409.39 271.8C410.6 277.22 406.47 282.37 400.92 282.37H399.15C392.49 282.37 386.73 277.75 385.28 271.25L383.31 262.41" stroke="#FFCF2D" stroke-width="10" stroke-miterlimit="10" stroke-linecap="round"/>
<path d="M374.26 296.75H367.3C363.91 296.75 361.39 293.61 362.13 290.3L367.92 264.29C368.2 263.01 369.34 262.1 370.65 262.1H370.93C372.24 262.1 373.37 263.01 373.66 264.29L379.45 290.3C380.17 293.61 377.65 296.75 374.26 296.75Z" fill="#FFCF2D" stroke="#FFCF2D" stroke-width="6" stroke-miterlimit="10"/>
<path d="M370.91 262.11V290.73" stroke="white" stroke-width="6" stroke-miterlimit="10"/>
<path d="M364.28 295.81L370.9 290.65L377.48 295.85" stroke="white" stroke-width="6" stroke-miterlimit="10" stroke-linecap="round"/>
<path d="M94.07 252.84C94.07 252.84 81.5201 236.72 83.51 231.74C85.21 227.49 89.08 231.45 89.08 231.45L94.07 252.84Z" fill="#3FB1B5"/>
<path d="M103.3 269.82C103.3 269.82 116.37 255.42 116.07 250.24C115.77 245.06 111.04 247.49 111.04 247.49L103.3 269.82Z" fill="#3FB1B5"/>
<path d="M116.94 282.49C116.94 286.83 115.1 290.79 112.08 293.81C109.65 296.23 106.35 297.57 102.92 297.57H92.27C88.84 297.57 85.54 296.23 83.11 293.81C80.09 290.8 78.25 286.83 78.25 282.49C78.25 276.31 81.97 270.9 87.55 267.9H107.65C113.22 270.89 116.94 276.31 116.94 282.49Z" fill="#FFCF2D"/>
<path d="M97.5998 271.28C103.283 271.28 107.89 270.058 107.89 268.55C107.89 267.042 103.283 265.82 97.5998 265.82C91.9168 265.82 87.3098 267.042 87.3098 268.55C87.3098 270.058 91.9168 271.28 97.5998 271.28Z" fill="#3FB1B5"/>
<path d="M103.3 269.82C101.67 270.11 99.7102 270.28 97.6003 270.28C95.6003 270.28 93.7303 270.13 92.1603 269.87C88.4403 265.92 79.3803 255.44 82.7303 250.26C86.9103 243.79 94.0803 252.85 94.0803 252.85C94.0803 252.85 85.6203 226.87 90.1003 221.1C94.5803 215.33 98.0903 225.58 98.0903 225.58C98.0903 225.58 100.35 213.14 106.42 214.33C112.21 215.47 103.24 244.32 102.4 246.98C102.83 245.7 105.43 238.64 110.5 239.29C115.3 239.9 105.94 263.41 103.3 269.82Z" fill="white" stroke="#3FB1B5" stroke-width="6" stroke-miterlimit="10" stroke-linecap="round"/>
<path d="M106.41 214.32C106.41 214.32 97.8501 238.06 97.6001 270.28" stroke="#3FB1B5" stroke-width="6" stroke-miterlimit="10" stroke-linecap="round"/>
<path d="M98.0803 225.57C98.5403 228.15 100.29 239.64 99.4003 245.51" stroke="#3FB1B5" stroke-width="6" stroke-miterlimit="10" stroke-linecap="round"/>
<path d="M110.49 239.28C110.49 239.28 100.73 251.84 99.6401 270.22" stroke="#3FB1B5" stroke-width="6" stroke-miterlimit="10" stroke-linecap="round"/>
<path d="M83.6802 249.07C83.6802 249.07 95.3402 256.46 95.5402 270.23" stroke="#3FB1B5" stroke-width="6" stroke-miterlimit="10" stroke-linecap="round"/>
<path d="M87.7702 245.58C88.8969 245.58 89.8102 244.667 89.8102 243.54C89.8102 242.413 88.8969 241.5 87.7702 241.5C86.6436 241.5 85.7302 242.413 85.7302 243.54C85.7302 244.667 86.6436 245.58 87.7702 245.58Z" stroke="#FFCF2D" stroke-width="6" stroke-miterlimit="10"/>
<path d="M83.0499 242.5C83.569 242.5 83.9899 242.079 83.9899 241.56C83.9899 241.041 83.569 240.62 83.0499 240.62C82.5307 240.62 82.1099 241.041 82.1099 241.56C82.1099 242.079 82.5307 242.5 83.0499 242.5Z" stroke="#FFCF2D" stroke-width="6" stroke-miterlimit="10"/>
<path d="M84.4 266.14C84.9191 266.14 85.34 265.719 85.34 265.2C85.34 264.681 84.9191 264.26 84.4 264.26C83.8808 264.26 83.46 264.681 83.46 265.2C83.46 265.719 83.8808 266.14 84.4 266.14Z" stroke="#FFCF2D" stroke-width="6" stroke-miterlimit="10"/>
<path d="M109.42 237.1C110.547 237.1 111.46 236.187 111.46 235.06C111.46 233.933 110.547 233.02 109.42 233.02C108.294 233.02 107.38 233.933 107.38 235.06C107.38 236.187 108.294 237.1 109.42 237.1Z" stroke="#FFCF2D" stroke-width="6" stroke-miterlimit="10"/>
<path d="M110.02 229.56C110.539 229.56 110.96 229.139 110.96 228.62C110.96 228.101 110.539 227.68 110.02 227.68C109.501 227.68 109.08 228.101 109.08 228.62C109.08 229.139 109.501 229.56 110.02 229.56Z" stroke="#FFCF2D" stroke-width="6" stroke-miterlimit="10"/>
<path d="M113.43 237.1C113.949 237.1 114.37 236.679 114.37 236.16C114.37 235.641 113.949 235.22 113.43 235.22C112.911 235.22 112.49 235.641 112.49 236.16C112.49 236.679 112.911 237.1 113.43 237.1Z" stroke="#FFCF2D" stroke-width="6" stroke-miterlimit="10"/>
<path d="M320.31 91.62L340.44 97.3C349.25 99.71 355.64 107.35 356.44 116.45L359.51 150.4H252.98L262.82 112.25C264.43 105.89 269.25 100.85 275.53 98.96L299.04 91.62H320.31Z" fill="#FE5244"/>
<path d="M258.97 147.47C259.506 147.47 259.94 147.036 259.94 146.5C259.94 145.964 259.506 145.53 258.97 145.53C258.434 145.53 258 145.964 258 146.5C258 147.036 258.434 147.47 258.97 147.47Z" fill="white"/>
<path d="M269.07 147.47C269.606 147.47 270.04 147.036 270.04 146.5C270.04 145.964 269.606 145.53 269.07 145.53C268.534 145.53 268.1 145.964 268.1 146.5C268.1 147.036 268.534 147.47 269.07 147.47Z" fill="white"/>
<path d="M279.17 147.47C279.706 147.47 280.14 147.036 280.14 146.5C280.14 145.964 279.706 145.53 279.17 145.53C278.634 145.53 278.2 145.964 278.2 146.5C278.2 147.036 278.634 147.47 279.17 147.47Z" fill="white"/>
<path d="M289.27 147.47C289.806 147.47 290.24 147.036 290.24 146.5C290.24 145.964 289.806 145.53 289.27 145.53C288.734 145.53 288.3 145.964 288.3 146.5C288.3 147.036 288.734 147.47 289.27 147.47Z" fill="white"/>
<path d="M299.37 147.47C299.906 147.47 300.34 147.036 300.34 146.5C300.34 145.964 299.906 145.53 299.37 145.53C298.834 145.53 298.4 145.964 298.4 146.5C298.4 147.036 298.834 147.47 299.37 147.47Z" fill="white"/>
<path d="M309.47 147.47C310.005 147.47 310.44 147.036 310.44 146.5C310.44 145.964 310.005 145.53 309.47 145.53C308.934 145.53 308.5 145.964 308.5 146.5C308.5 147.036 308.934 147.47 309.47 147.47Z" fill="white"/>
<path d="M319.57 147.47C320.106 147.47 320.54 147.036 320.54 146.5C320.54 145.964 320.106 145.53 319.57 145.53C319.034 145.53 318.6 145.964 318.6 146.5C318.6 147.036 319.034 147.47 319.57 147.47Z" fill="white"/>
<path d="M329.67 147.47C330.206 147.47 330.64 147.036 330.64 146.5C330.64 145.964 330.206 145.53 329.67 145.53C329.134 145.53 328.7 145.964 328.7 146.5C328.7 147.036 329.134 147.47 329.67 147.47Z" fill="white"/>
<path d="M339.77 147.47C340.306 147.47 340.74 147.036 340.74 146.5C340.74 145.964 340.306 145.53 339.77 145.53C339.234 145.53 338.8 145.964 338.8 146.5C338.8 147.036 339.234 147.47 339.77 147.47Z" fill="white"/>
<path d="M349.87 147.47C350.406 147.47 350.84 147.036 350.84 146.5C350.84 145.964 350.406 145.53 349.87 145.53C349.334 145.53 348.9 145.964 348.9 146.5C348.9 147.036 349.334 147.47 349.87 147.47Z" fill="white"/>
<path d="M264.17 140.67C264.706 140.67 265.14 140.236 265.14 139.7C265.14 139.164 264.706 138.73 264.17 138.73C263.634 138.73 263.2 139.164 263.2 139.7C263.2 140.236 263.634 140.67 264.17 140.67Z" fill="white"/>
<path d="M274.27 140.67C274.805 140.67 275.24 140.236 275.24 139.7C275.24 139.164 274.805 138.73 274.27 138.73C273.734 138.73 273.3 139.164 273.3 139.7C273.3 140.236 273.734 140.67 274.27 140.67Z" fill="white"/>
<path d="M284.37 140.67C284.906 140.67 285.34 140.236 285.34 139.7C285.34 139.164 284.906 138.73 284.37 138.73C283.834 138.73 283.4 139.164 283.4 139.7C283.4 140.236 283.834 140.67 284.37 140.67Z" fill="white"/>
<path d="M294.47 140.67C295.006 140.67 295.44 140.236 295.44 139.7C295.44 139.164 295.006 138.73 294.47 138.73C293.934 138.73 293.5 139.164 293.5 139.7C293.5 140.236 293.934 140.67 294.47 140.67Z" fill="white"/>
<path d="M304.57 140.67C305.106 140.67 305.54 140.236 305.54 139.7C305.54 139.164 305.106 138.73 304.57 138.73C304.034 138.73 303.6 139.164 303.6 139.7C303.6 140.236 304.034 140.67 304.57 140.67Z" fill="white"/>
<path d="M314.67 140.67C315.205 140.67 315.64 140.236 315.64 139.7C315.64 139.164 315.205 138.73 314.67 138.73C314.134 138.73 313.7 139.164 313.7 139.7C313.7 140.236 314.134 140.67 314.67 140.67Z" fill="white"/>
<path d="M324.77 140.67C325.306 140.67 325.74 140.236 325.74 139.7C325.74 139.164 325.306 138.73 324.77 138.73C324.234 138.73 323.8 139.164 323.8 139.7C323.8 140.236 324.234 140.67 324.77 140.67Z" fill="white"/>
<path d="M334.87 140.67C335.406 140.67 335.84 140.236 335.84 139.7C335.84 139.164 335.406 138.73 334.87 138.73C334.334 138.73 333.9 139.164 333.9 139.7C333.9 140.236 334.334 140.67 334.87 140.67Z" fill="white"/>
<path d="M344.97 140.67C345.506 140.67 345.94 140.236 345.94 139.7C345.94 139.164 345.506 138.73 344.97 138.73C344.434 138.73 344 139.164 344 139.7C344 140.236 344.434 140.67 344.97 140.67Z" fill="white"/>
<path d="M355.07 140.67C355.606 140.67 356.04 140.236 356.04 139.7C356.04 139.164 355.606 138.73 355.07 138.73C354.534 138.73 354.1 139.164 354.1 139.7C354.1 140.236 354.534 140.67 355.07 140.67Z" fill="white"/>
<path d="M258.97 133.67C259.506 133.67 259.94 133.236 259.94 132.7C259.94 132.164 259.506 131.73 258.97 131.73C258.434 131.73 258 132.164 258 132.7C258 133.236 258.434 133.67 258.97 133.67Z" fill="white"/>
<path d="M269.07 133.67C269.606 133.67 270.04 133.236 270.04 132.7C270.04 132.164 269.606 131.73 269.07 131.73C268.534 131.73 268.1 132.164 268.1 132.7C268.1 133.236 268.534 133.67 269.07 133.67Z" fill="white"/>
<path d="M279.17 133.67C279.706 133.67 280.14 133.236 280.14 132.7C280.14 132.164 279.706 131.73 279.17 131.73C278.634 131.73 278.2 132.164 278.2 132.7C278.2 133.236 278.634 133.67 279.17 133.67Z" fill="white"/>
<path d="M289.27 133.67C289.806 133.67 290.24 133.236 290.24 132.7C290.24 132.164 289.806 131.73 289.27 131.73C288.734 131.73 288.3 132.164 288.3 132.7C288.3 133.236 288.734 133.67 289.27 133.67Z" fill="white"/>
<path d="M299.37 133.67C299.906 133.67 300.34 133.236 300.34 132.7C300.34 132.164 299.906 131.73 299.37 131.73C298.834 131.73 298.4 132.164 298.4 132.7C298.4 133.236 298.834 133.67 299.37 133.67Z" fill="white"/>
<path d="M309.47 133.67C310.005 133.67 310.44 133.236 310.44 132.7C310.44 132.164 310.005 131.73 309.47 131.73C308.934 131.73 308.5 132.164 308.5 132.7C308.5 133.236 308.934 133.67 309.47 133.67Z" fill="white"/>
<path d="M319.57 133.67C320.106 133.67 320.54 133.236 320.54 132.7C320.54 132.164 320.106 131.73 319.57 131.73C319.034 131.73 318.6 132.164 318.6 132.7C318.6 133.236 319.034 133.67 319.57 133.67Z" fill="white"/>
<path d="M329.67 133.67C330.206 133.67 330.64 133.236 330.64 132.7C330.64 132.164 330.206 131.73 329.67 131.73C329.134 131.73 328.7 132.164 328.7 132.7C328.7 133.236 329.134 133.67 329.67 133.67Z" fill="white"/>
<path d="M339.77 133.67C340.306 133.67 340.74 133.236 340.74 132.7C340.74 132.164 340.306 131.73 339.77 131.73C339.234 131.73 338.8 132.164 338.8 132.7C338.8 133.236 339.234 133.67 339.77 133.67Z" fill="white"/>
<path d="M349.87 133.67C350.406 133.67 350.84 133.236 350.84 132.7C350.84 132.164 350.406 131.73 349.87 131.73C349.334 131.73 348.9 132.164 348.9 132.7C348.9 133.236 349.334 133.67 349.87 133.67Z" fill="white"/>
<path d="M264.17 127.17C264.706 127.17 265.14 126.736 265.14 126.2C265.14 125.664 264.706 125.23 264.17 125.23C263.634 125.23 263.2 125.664 263.2 126.2C263.2 126.736 263.634 127.17 264.17 127.17Z" fill="white"/>
<path d="M274.27 127.17C274.805 127.17 275.24 126.736 275.24 126.2C275.24 125.664 274.805 125.23 274.27 125.23C273.734 125.23 273.3 125.664 273.3 126.2C273.3 126.736 273.734 127.17 274.27 127.17Z" fill="white"/>
<path d="M284.37 127.17C284.906 127.17 285.34 126.736 285.34 126.2C285.34 125.664 284.906 125.23 284.37 125.23C283.834 125.23 283.4 125.664 283.4 126.2C283.4 126.736 283.834 127.17 284.37 127.17Z" fill="white"/>
<path d="M294.47 127.17C295.006 127.17 295.44 126.736 295.44 126.2C295.44 125.664 295.006 125.23 294.47 125.23C293.934 125.23 293.5 125.664 293.5 126.2C293.5 126.736 293.934 127.17 294.47 127.17Z" fill="white"/>
<path d="M304.57 127.17C305.106 127.17 305.54 126.736 305.54 126.2C305.54 125.664 305.106 125.23 304.57 125.23C304.034 125.23 303.6 125.664 303.6 126.2C303.6 126.736 304.034 127.17 304.57 127.17Z" fill="white"/>
<path d="M314.67 127.17C315.205 127.17 315.64 126.736 315.64 126.2C315.64 125.664 315.205 125.23 314.67 125.23C314.134 125.23 313.7 125.664 313.7 126.2C313.7 126.736 314.134 127.17 314.67 127.17Z" fill="white"/>
<path d="M324.77 127.17C325.306 127.17 325.74 126.736 325.74 126.2C325.74 125.664 325.306 125.23 324.77 125.23C324.234 125.23 323.8 125.664 323.8 126.2C323.8 126.736 324.234 127.17 324.77 127.17Z" fill="white"/>
<path d="M335.17 127.17C335.706 127.17 336.14 126.736 336.14 126.2C336.14 125.664 335.706 125.23 335.17 125.23C334.634 125.23 334.2 125.664 334.2 126.2C334.2 126.736 334.634 127.17 335.17 127.17Z" fill="white"/>
<path d="M344.97 127.17C345.506 127.17 345.94 126.736 345.94 126.2C345.94 125.664 345.506 125.23 344.97 125.23C344.434 125.23 344 125.664 344 126.2C344 126.736 344.434 127.17 344.97 127.17Z" fill="white"/>
<path d="M355.07 127.17C355.606 127.17 356.04 126.736 356.04 126.2C356.04 125.664 355.606 125.23 355.07 125.23C354.534 125.23 354.1 125.664 354.1 126.2C354.1 126.736 354.534 127.17 355.07 127.17Z" fill="white"/>
<path d="M269.07 120.47C269.606 120.47 270.04 120.036 270.04 119.5C270.04 118.964 269.606 118.53 269.07 118.53C268.534 118.53 268.1 118.964 268.1 119.5C268.1 120.036 268.534 120.47 269.07 120.47Z" fill="white"/>
<path d="M289.27 120.47C289.806 120.47 290.24 120.036 290.24 119.5C290.24 118.964 289.806 118.53 289.27 118.53C288.734 118.53 288.3 118.964 288.3 119.5C288.3 120.036 288.734 120.47 289.27 120.47Z" fill="white"/>
<path d="M299.37 120.47C299.906 120.47 300.34 120.036 300.34 119.5C300.34 118.964 299.906 118.53 299.37 118.53C298.834 118.53 298.4 118.964 298.4 119.5C298.4 120.036 298.834 120.47 299.37 120.47Z" fill="white"/>
<path d="M309.47 120.47C310.005 120.47 310.44 120.036 310.44 119.5C310.44 118.964 310.005 118.53 309.47 118.53C308.934 118.53 308.5 118.964 308.5 119.5C308.5 120.036 308.934 120.47 309.47 120.47Z" fill="white"/>
<path d="M319.57 120.47C320.106 120.47 320.54 120.036 320.54 119.5C320.54 118.964 320.106 118.53 319.57 118.53C319.034 118.53 318.6 118.964 318.6 119.5C318.6 120.036 319.034 120.47 319.57 120.47Z" fill="white"/>
<path d="M329.67 120.47C330.206 120.47 330.64 120.036 330.64 119.5C330.64 118.964 330.206 118.53 329.67 118.53C329.134 118.53 328.7 118.964 328.7 119.5C328.7 120.036 329.134 120.47 329.67 120.47Z" fill="white"/>
<path d="M339.77 120.47C340.306 120.47 340.74 120.036 340.74 119.5C340.74 118.964 340.306 118.53 339.77 118.53C339.234 118.53 338.8 118.964 338.8 119.5C338.8 120.036 339.234 120.47 339.77 120.47Z" fill="white"/>
<path d="M349.87 120.47C350.406 120.47 350.84 120.036 350.84 119.5C350.84 118.964 350.406 118.53 349.87 118.53C349.334 118.53 348.9 118.964 348.9 119.5C348.9 120.036 349.334 120.47 349.87 120.47Z" fill="white"/>
<path d="M264.17 113.87C264.706 113.87 265.14 113.436 265.14 112.9C265.14 112.364 264.706 111.93 264.17 111.93C263.634 111.93 263.2 112.364 263.2 112.9C263.2 113.436 263.634 113.87 264.17 113.87Z" fill="white"/>
<path d="M274.27 113.87C274.805 113.87 275.24 113.436 275.24 112.9C275.24 112.364 274.805 111.93 274.27 111.93C273.734 111.93 273.3 112.364 273.3 112.9C273.3 113.436 273.734 113.87 274.27 113.87Z" fill="white"/>
<path d="M284.37 113.87C284.906 113.87 285.34 113.436 285.34 112.9C285.34 112.364 284.906 111.93 284.37 111.93C283.834 111.93 283.4 112.364 283.4 112.9C283.4 113.436 283.834 113.87 284.37 113.87Z" fill="white"/>
<path d="M294.47 113.87C295.006 113.87 295.44 113.436 295.44 112.9C295.44 112.364 295.006 111.93 294.47 111.93C293.934 111.93 293.5 112.364 293.5 112.9C293.5 113.436 293.934 113.87 294.47 113.87Z" fill="white"/>
<path d="M304.57 113.87C305.106 113.87 305.54 113.436 305.54 112.9C305.54 112.364 305.106 111.93 304.57 111.93C304.034 111.93 303.6 112.364 303.6 112.9C303.6 113.436 304.034 113.87 304.57 113.87Z" fill="white"/>
<path d="M314.67 113.87C315.205 113.87 315.64 113.436 315.64 112.9C315.64 112.364 315.205 111.93 314.67 111.93C314.134 111.93 313.7 112.364 313.7 112.9C313.7 113.436 314.134 113.87 314.67 113.87Z" fill="white"/>
<path d="M324.77 113.87C325.306 113.87 325.74 113.436 325.74 112.9C325.74 112.364 325.306 111.93 324.77 111.93C324.234 111.93 323.8 112.364 323.8 112.9C323.8 113.436 324.234 113.87 324.77 113.87Z" fill="white"/>
<path d="M334.87 113.87C335.406 113.87 335.84 113.436 335.84 112.9C335.84 112.364 335.406 111.93 334.87 111.93C334.334 111.93 333.9 112.364 333.9 112.9C333.9 113.436 334.334 113.87 334.87 113.87Z" fill="white"/>
<path d="M344.97 113.87C345.506 113.87 345.94 113.436 345.94 112.9C345.94 112.364 345.506 111.93 344.97 111.93C344.434 111.93 344 112.364 344 112.9C344 113.436 344.434 113.87 344.97 113.87Z" fill="white"/>
<path d="M354.57 113.87C355.106 113.87 355.54 113.436 355.54 112.9C355.54 112.364 355.106 111.93 354.57 111.93C354.034 111.93 353.6 112.364 353.6 112.9C353.6 113.436 354.034 113.87 354.57 113.87Z" fill="white"/>
<path d="M269.07 107.37C269.606 107.37 270.04 106.936 270.04 106.4C270.04 105.864 269.606 105.43 269.07 105.43C268.534 105.43 268.1 105.864 268.1 106.4C268.1 106.936 268.534 107.37 269.07 107.37Z" fill="white"/>
<path d="M279.17 107.37C279.706 107.37 280.14 106.936 280.14 106.4C280.14 105.864 279.706 105.43 279.17 105.43C278.634 105.43 278.2 105.864 278.2 106.4C278.2 106.936 278.634 107.37 279.17 107.37Z" fill="white"/>
<path d="M289.27 107.37C289.806 107.37 290.24 106.936 290.24 106.4C290.24 105.864 289.806 105.43 289.27 105.43C288.734 105.43 288.3 105.864 288.3 106.4C288.3 106.936 288.734 107.37 289.27 107.37Z" fill="white"/>
<path d="M299.37 107.37C299.906 107.37 300.34 106.936 300.34 106.4C300.34 105.864 299.906 105.43 299.37 105.43C298.834 105.43 298.4 105.864 298.4 106.4C298.4 106.936 298.834 107.37 299.37 107.37Z" fill="white"/>
<path d="M309.47 107.37C310.005 107.37 310.44 106.936 310.44 106.4C310.44 105.864 310.005 105.43 309.47 105.43C308.934 105.43 308.5 105.864 308.5 106.4C308.5 106.936 308.934 107.37 309.47 107.37Z" fill="white"/>
<path d="M319.57 107.37C320.106 107.37 320.54 106.936 320.54 106.4C320.54 105.864 320.106 105.43 319.57 105.43C319.034 105.43 318.6 105.864 318.6 106.4C318.6 106.936 319.034 107.37 319.57 107.37Z" fill="white"/>
<path d="M329.67 107.37C330.206 107.37 330.64 106.936 330.64 106.4C330.64 105.864 330.206 105.43 329.67 105.43C329.134 105.43 328.7 105.864 328.7 106.4C328.7 106.936 329.134 107.37 329.67 107.37Z" fill="white"/>
<path d="M339.77 107.37C340.306 107.37 340.74 106.936 340.74 106.4C340.74 105.864 340.306 105.43 339.77 105.43C339.234 105.43 338.8 105.864 338.8 106.4C338.8 106.936 339.234 107.37 339.77 107.37Z" fill="white"/>
<path d="M349.87 107.37C350.406 107.37 350.84 106.936 350.84 106.4C350.84 105.864 350.406 105.43 349.87 105.43C349.334 105.43 348.9 105.864 348.9 106.4C348.9 106.936 349.334 107.37 349.87 107.37Z" fill="white"/>
<path d="M299.37 95.1699C299.906 95.1699 300.34 94.7356 300.34 94.1999C300.34 93.6642 299.906 93.23 299.37 93.23C298.834 93.23 298.4 93.6642 298.4 94.1999C298.4 94.7356 298.834 95.1699 299.37 95.1699Z" fill="white"/>
<path d="M309.47 95.1699C310.005 95.1699 310.44 94.7356 310.44 94.1999C310.44 93.6642 310.005 93.23 309.47 93.23C308.934 93.23 308.5 93.6642 308.5 94.1999C308.5 94.7356 308.934 95.1699 309.47 95.1699Z" fill="white"/>
<path d="M319.57 95.1699C320.106 95.1699 320.54 94.7356 320.54 94.1999C320.54 93.6642 320.106 93.23 319.57 93.23C319.034 93.23 318.6 93.6642 318.6 94.1999C318.6 94.7356 319.034 95.1699 319.57 95.1699Z" fill="white"/>
<path d="M330.59 94.52C330.46 94.8999 330.1 95.1699 329.67 95.1699C329.14 95.1699 328.7 94.7399 328.7 94.2C328.7 94.13 328.71 94.06 328.72 93.99L330.59 94.52Z" fill="white"/>
<path d="M274.27 101.27C274.805 101.27 275.24 100.836 275.24 100.3C275.24 99.7642 274.805 99.3299 274.27 99.3299C273.734 99.3299 273.3 99.7642 273.3 100.3C273.3 100.836 273.734 101.27 274.27 101.27Z" fill="white"/>
<path d="M284.37 101.27C284.906 101.27 285.34 100.836 285.34 100.3C285.34 99.7642 284.906 99.3299 284.37 99.3299C283.834 99.3299 283.4 99.7642 283.4 100.3C283.4 100.836 283.834 101.27 284.37 101.27Z" fill="white"/>
<path d="M293.51 99.98C294.046 99.98 294.48 99.5457 294.48 99.01C294.48 98.4743 294.046 98.04 293.51 98.04C292.974 98.04 292.54 98.4743 292.54 99.01C292.54 99.5457 292.974 99.98 293.51 99.98Z" fill="white"/>
<path d="M304.57 101.27C305.106 101.27 305.54 100.836 305.54 100.3C305.54 99.7642 305.106 99.3299 304.57 99.3299C304.034 99.3299 303.6 99.7642 303.6 100.3C303.6 100.836 304.034 101.27 304.57 101.27Z" fill="white"/>
<path d="M314.67 101.27C315.205 101.27 315.64 100.836 315.64 100.3C315.64 99.7642 315.205 99.3299 314.67 99.3299C314.134 99.3299 313.7 99.7642 313.7 100.3C313.7 100.836 314.134 101.27 314.67 101.27Z" fill="white"/>
<path d="M324.77 101.27C325.306 101.27 325.74 100.836 325.74 100.3C325.74 99.7642 325.306 99.3299 324.77 99.3299C324.234 99.3299 323.8 99.7642 323.8 100.3C323.8 100.836 324.234 101.27 324.77 101.27Z" fill="white"/>
<path d="M334.87 101.27C335.406 101.27 335.84 100.836 335.84 100.3C335.84 99.7642 335.406 99.3299 334.87 99.3299C334.334 99.3299 333.9 99.7642 333.9 100.3C333.9 100.836 334.334 101.27 334.87 101.27Z" fill="white"/>
<path d="M344.97 101.27C345.506 101.27 345.94 100.836 345.94 100.3C345.94 99.7642 345.506 99.3299 344.97 99.3299C344.434 99.3299 344 99.7642 344 100.3C344 100.836 344.434 101.27 344.97 101.27Z" fill="white"/>
<path d="M336.32 150.69L334.12 120.76" stroke="white" stroke-width="6" stroke-miterlimit="10" stroke-linecap="round"/>
<path d="M284.27 150.69V141.62L282.19 140.4C278.68 138.34 276.92 134.25 277.83 130.29L281.02 116.37" stroke="white" stroke-width="6" stroke-miterlimit="10" stroke-linecap="round"/>
<path d="M298.53 91.48L305.19 110.77L320.64 91.48" stroke="white" stroke-width="6" stroke-miterlimit="10" stroke-linecap="round"/>
<path d="M316.31 96.7299L322.85 104.31L329.62 94.6599" stroke="white" stroke-width="6" stroke-miterlimit="10" stroke-linecap="round"/>
<path d="M300.39 96.7299L292.76 103.21L288.31 94.7999" stroke="white" stroke-width="6" stroke-miterlimit="10" stroke-linecap="round"/>
<path d="M278.18 116.37L279.55 122.76" stroke="white" stroke-width="6" stroke-miterlimit="10" stroke-linecap="round"/>
<path d="M306.25 176.63H278.84L266.72 157.7H294.13L306.25 176.63Z" fill="#FFCF2D"/>
<path d="M289.72 172.52H262.3L250.19 153.6H277.6L289.72 172.52Z" fill="white" stroke="#3FB1B5" stroke-width="6" stroke-miterlimit="10" stroke-linejoin="round"/>
<path d="M256.06 156.36L257.08 156.8C257.76 157.09 258.37 157.1 258.6 156.82L258.97 156.35C259.19 156.07 259.81 156.07 260.49 156.37L261.51 156.81C262.19 157.1 262.8 157.11 263.03 156.83L263.44 156.3C263.66 156.02 264.28 156.02 264.96 156.32L266.31 156.91C266.99 157.2 267.6 157.21 267.83 156.93L268.32 156.31C268.54 156.03 269.16 156.03 269.84 156.33L271.39 157.01C272.07 157.3 272.68 157.31 272.91 157.03L273.44 156.35" stroke="#3FB1B5" stroke-width="5" stroke-miterlimit="10" stroke-linecap="round"/>
<path d="M260.21 160.8C260.89 161.09 261.5 161.1 261.73 160.82L262.1 160.35C262.32 160.07 262.94 160.07 263.62 160.37L264.64 160.81C265.32 161.1 265.93 161.11 266.16 160.83L266.57 160.3C266.79 160.02 267.41 160.02 268.09 160.32L269.44 160.91C270.12 161.2 270.73 161.21 270.96 160.93L271.45 160.31C271.67 160.03 272.29 160.03 272.97 160.33L274.52 161.01C275.2 161.3 275.81 161.31 276.04 161.03L276.57 160.35" stroke="#3FB1B5" stroke-width="5" stroke-miterlimit="10" stroke-linecap="round"/>
<path d="M262.32 164.35L263.34 164.79C264.02 165.08 264.63 165.09 264.86 164.81L265.23 164.34C265.45 164.06 266.07 164.06 266.75 164.36L267.77 164.8C268.45 165.09 269.06 165.1 269.29 164.82L269.7 164.29C269.92 164.01 270.54 164.01 271.22 164.31L272.57 164.9C273.25 165.19 273.86 165.2 274.09 164.92L274.58 164.3C274.8 164.02 275.42 164.02 276.1 164.32L277.65 165C278.33 165.29 278.94 165.3 279.17 165.02L279.7 164.34" stroke="#3FB1B5" stroke-width="5" stroke-miterlimit="10" stroke-linecap="round"/>
<path d="M265.45 168.35L266.47 168.79C267.15 169.08 267.76 169.09 267.99 168.81L268.36 168.34C268.58 168.06 269.2 168.06 269.88 168.36L270.9 168.8C271.58 169.09 272.19 169.1 272.42 168.82L272.83 168.29C273.05 168.01 273.67 168.01 274.35 168.31L275.7 168.9C276.38 169.19 276.99 169.2 277.22 168.92L277.71 168.3C277.93 168.02 278.55 168.02 279.23 168.32L280.78 169C281.46 169.29 282.07 169.3 282.3 169.02L282.83 168.34" stroke="#3FB1B5" stroke-width="5" stroke-miterlimit="10" stroke-linecap="round"/>
<path d="M295.1 161.64H347.68C354.64 161.64 360.09 155.65 359.43 148.73C358.77 141.78 352.26 136.91 345.41 138.25L284.9 146.68C282.61 147 280.6 148.39 279.51 150.43L274.15 160.39C273.96 160.64 273.83 160.93 273.75 161.23L271.74 169H272.87C274.62 169 276.24 168.03 277.06 166.48L278.07 164.59L289.7 165.85C291.88 166.12 293.95 164.63 294.73 162.59L295.1 161.64Z" fill="#A0505A"/>
<path d="M278.18 164.25L281.69 156.98" stroke="#73325A" stroke-width="6" stroke-miterlimit="10" stroke-linecap="round"/>
<path d="M282.86 164.71L286.37 157.44" stroke="#73325A" stroke-width="6" stroke-miterlimit="10" stroke-linecap="round"/>
<path d="M287.44 165.28L290.94 158.01" stroke="#73325A" stroke-width="6" stroke-miterlimit="10" stroke-linecap="round"/>
<path d="M295.1 161.64L296.7 156.87" stroke="#73325A" stroke-width="6" stroke-miterlimit="10" stroke-linecap="round"/>
<path d="M308.04 57.38C308.04 57.38 314.92 53.06 321.64 58.51C327.98 63.66 325.02 73.81 322.7 72.11C320.71 70.66 336.22 65.71 341.08 77.2C346.59 90.2201 334.18 97.6101 320.03 91.1701H299.5L277.67 97.9801C277.67 97.9801 266.58 92.3401 272.61 81.34C278.18 71.19 291.49 74.81 289.99 77.32C287.88 80.84 278.86 69.7 285.2 59.18C291.9 48.06 307.12 52.2 308.04 57.38Z" fill="white" stroke="#FFCF2D" stroke-width="6" stroke-miterlimit="10"/>
<path d="M312.47 71.89C312.47 71.89 306.24 68.93 307.39 62.86C307.39 62.86 304.54 71.04 295.31 70.98C291.07 70.95 291.25 66.55 293.51 64.49" stroke="#FFCF2D" stroke-width="6" stroke-miterlimit="10" stroke-linecap="round" stroke-linejoin="round"/>
<path d="M320.2 91.59L314.95 77.65H300.03L298.86 91.59L305.29 110.07L320.2 91.59Z" fill="#A0505A"/>
<path d="M308.15 88.64L300.28 95.59L298.86 91.59L300.03 77.65H313.25V77.91C313.24 82.08 311.37 86.02 308.15 88.64Z" fill="#73325A"/>
<path d="M318.36 74.94V75.5C318.36 77.02 317.12 78.26 315.6 78.26H312.6C312.04 82.51 308.4 85.8 304 85.8C301.6 85.8 299.43 84.83 297.86 83.26C296.29 81.69 295.32 79.52 295.32 77.12V71.28C304.55 71.35 307.2 63.76 307.2 63.76C306.59 69.46 311.79 71.91 312.58 72.24V72.18H315.6C317.12 72.18 318.36 73.42 318.36 74.94Z" fill="#A0505A"/>
<path d="M305.51 69.62C305.51 69.62 307.66 69.66 309.11 71.2" stroke="#73325A" stroke-width="6" stroke-miterlimit="10" stroke-linecap="round"/>
<path d="M305.06 76.55C305.397 76.55 305.67 76.0709 305.67 75.48C305.67 74.889 305.397 74.41 305.06 74.41C304.723 74.41 304.45 74.889 304.45 75.48C304.45 76.0709 304.723 76.55 305.06 76.55Z" fill="#73325A"/>
<path d="M296.73 76.55C297.067 76.55 297.34 76.0709 297.34 75.48C297.34 74.889 297.067 74.41 296.73 74.41C296.393 74.41 296.12 74.889 296.12 75.48C296.12 76.0709 296.393 76.55 296.73 76.55Z" fill="#73325A"/>
<path d="M300.42 80.63C300.42 80.63 302.06 81.4199 303.55 79.97" stroke="#73325A" stroke-width="6" stroke-miterlimit="10" stroke-linecap="round"/>
<path d="M313.37 76.03C313.37 74.73 314.43 73.67 315.73 73.67" stroke="#73325A" stroke-width="6" stroke-miterlimit="10" stroke-linecap="round"/>
<path d="M296.27 69.72C296.27 69.72 294.12 69.76 292.67 71.3" stroke="#73325A" stroke-width="6" stroke-miterlimit="10" stroke-linecap="round"/>
<path d="M296.4 79.36C298.294 79.36 299.83 77.5557 299.83 75.33C299.83 73.1043 298.294 71.3 296.4 71.3C294.506 71.3 292.97 73.1043 292.97 75.33C292.97 77.5557 294.506 79.36 296.4 79.36Z" stroke="#FE5244" stroke-width="6" stroke-miterlimit="10" stroke-linejoin="round"/>
<path d="M305.61 79.36C307.504 79.36 309.04 77.5557 309.04 75.33C309.04 73.1043 307.504 71.3 305.61 71.3C303.716 71.3 302.18 73.1043 302.18 75.33C302.18 77.5557 303.716 79.36 305.61 79.36Z" stroke="#FE5244" stroke-width="6" stroke-miterlimit="10" stroke-linejoin="round"/>
<path d="M302.19 75.33C302.19 75.33 300.96 74.4499 299.83 75.33" stroke="#FE5244" stroke-width="6" stroke-miterlimit="10" stroke-linejoin="round"/>
<path d="M194.19 118.78H213.65C223.17 118.78 232.34 122.42 239.26 128.95L250.7 139.74L233.7 144.49L230.43 141.41C229.24 140.3 227.3 140.88 226.92 142.46L225.5 148.44H187.59L185.87 138.41C185.4 136.78 183.3 136.33 182.21 137.63L180.88 139.22L154.87 138.74L172 126.08C178.42 121.34 186.2 118.78 194.19 118.78Z" fill="#9A3B82"/>
<path d="M195.34 118.78L205.56 136.56L215.19 118.83C216.32 118.89 217.44 119 218.55 119.16C218.11 121.82 215.92 137.72 225.05 148.44H187.14C187.14 148.44 194.77 133.15 191.71 118.83L195.34 118.78Z" fill="#3FB1B5"/>
<path d="M171.9 168.66H246.54L232.01 148.45H187.59L171.9 168.66Z" stroke="#9A3B82" stroke-width="3" stroke-miterlimit="10" stroke-linecap="round"/>
<path d="M246.54 168.66H171.9L187.59 148.45H232.01L246.54 168.66Z" fill="white" stroke="#3FB1B5" stroke-width="6" stroke-miterlimit="10" stroke-linejoin="round"/>
<path d="M209.22 168.66H171.9C194.08 155.18 209.22 168.66 209.22 168.66Z" fill="#3FB1B5"/>
<path d="M209.22 168.66H246.54C224.36 155.18 209.22 168.66 209.22 168.66Z" fill="#3FB1B5"/>
<path d="M209.22 168.66V148.45" stroke="#3FB1B5" stroke-width="6" stroke-miterlimit="10" stroke-linecap="round"/>
<path d="M226.33 154.88L237.05 139.77C238.69 137.68 241.2 136.45 243.86 136.45C248.64 136.45 252.52 140.33 252.52 145.11V145.41C252.52 148.49 250.88 151.34 248.22 152.89L233.9 161.09L229.94 167.9C229.2 169.17 227.85 169.95 226.38 169.95H213.87C213.87 169.95 213.83 167.68 216.33 166.92C218.83 166.16 219.25 163.69 219.25 163.69C219.25 163.69 218.01 164.65 215.54 163.74L220.3 156.91C221.18 155.64 222.63 154.88 224.18 154.88H226.33Z" fill="#E57281"/>
<path d="M230.25 162.56L227.1 167.97C226.51 168.98 225.44 169.6 224.27 169.6" stroke="#9A3B82" stroke-width="4" stroke-miterlimit="10" stroke-linecap="round"/>
<path d="M226.88 162.56L223.73 167.97C223.14 168.98 222.07 169.6 220.9 169.6" stroke="#9A3B82" stroke-width="4" stroke-miterlimit="10" stroke-linecap="round"/>
<path d="M223.51 162.56L220.36 167.97C219.77 168.98 218.7 169.6 217.53 169.6" stroke="#9A3B82" stroke-width="4" stroke-miterlimit="10" stroke-linecap="round"/>
<path d="M226.33 154.88H228.6" stroke="#9A3B82" stroke-width="4" stroke-miterlimit="10" stroke-linecap="round"/>
<path d="M210.48 145.67C210.38 145.73 210.38 145.88 210.48 145.94C210.78 146.11 210.98 146.44 210.98 146.82V147.78C210.98 148.16 210.78 148.48 210.48 148.66C210.38 148.72 210.38 148.87 210.48 148.93C210.78 149.1 210.98 149.43 210.98 149.81V150.77C210.98 151.15 210.78 151.47 210.48 151.65C210.38 151.71 210.38 151.86 210.48 151.92C210.78 152.09 210.98 152.42 210.98 152.8V153.76C210.98 154.32 210.54 154.77 209.99 154.77H162.52C156.28 154.77 151.16 149.48 152.45 143.24C153.43 138.5 157.52 135.27 162.06 135.27C162.79 135.27 163.54 135.36 164.29 135.53L198.14 142.85H209.84C210.47 142.85 210.98 143.37 210.98 144.01V144.81C210.98 145.16 210.78 145.49 210.48 145.67Z" fill="#E57281"/>
<path d="M210.33 145.8H205.01" stroke="#9A3B82" stroke-width="4" stroke-miterlimit="10" stroke-linecap="round"/>
<path d="M210.33 148.78H205.01" stroke="#9A3B82" stroke-width="4" stroke-miterlimit="10" stroke-linecap="round"/>
<path d="M210.33 151.76H205.01" stroke="#9A3B82" stroke-width="4" stroke-miterlimit="10" stroke-linecap="round"/>
<path d="M201.1 142.87C201.1 142.87 193.58 131.84 195.65 131.64C197.72 131.44 203.04 142.82 203.04 142.82L201.1 142.87Z" fill="white"/>
<path d="M219.69 117.97C219.71 118.72 219.41 119.4 218.92 119.89C218.44 120.37 217.78 120.66 217.06 120.66H214.81C214.42 124.86 210.9 128.14 206.6 128.14H204.19C199.9 128.14 196.37 124.86 195.98 120.66H193.72C192.99 120.66 192.33 120.37 191.86 119.89C191.37 119.4 191.07 118.72 191.09 117.97C191.12 116.53 192.34 115.39 193.78 115.39H195.95V113.9C195.95 112.05 197.45 110.56 199.29 110.56H211.5C213.35 110.56 214.84 112.06 214.84 113.9V115.39H217C218.45 115.39 219.66 116.53 219.69 117.97Z" fill="#E57281"/>
<path d="M215.67 119.5C215.67 118.36 216.59 117.44 217.73 117.44" stroke="#9A3B82" stroke-width="5" stroke-miterlimit="10" stroke-linecap="round"/>
<path d="M208.14 119.78C208.14 119.78 210.23 119.36 211.48 120.58" stroke="#9A3B82" stroke-width="5" stroke-miterlimit="10" stroke-linecap="round"/>
<path d="M198.8 120.09C198.8 120.09 200.16 118.96 202.04 119.79C203.16 120.28 203.73 122.17 203.9 124.36C203.9 124.36 204.97 125.5 206.77 124.36" stroke="#9A3B82" stroke-width="5" stroke-miterlimit="10" stroke-linecap="round"/>
<path d="M194.91 119.5C194.91 118.36 193.99 117.44 192.85 117.44" stroke="#9A3B82" stroke-width="5" stroke-miterlimit="10" stroke-linecap="round"/>
<path d="M201.29 123.3C201.5 123.3 201.67 122.973 201.67 122.57C201.67 122.167 201.5 121.84 201.29 121.84C201.08 121.84 200.91 122.167 200.91 122.57C200.91 122.973 201.08 123.3 201.29 123.3Z" fill="#9A3B82"/>
<path d="M209.19 123.3C209.4 123.3 209.57 122.973 209.57 122.57C209.57 122.167 209.4 121.84 209.19 121.84C208.98 121.84 208.81 122.167 208.81 122.57C208.81 122.973 208.98 123.3 209.19 123.3Z" fill="#9A3B82"/>
<path d="M230.14 110.07C228.02 113.91 223.19 115.3 219.36 113.18C218.71 112.82 218.13 112.38 217.62 111.89C217.17 113.98 216.45 115.41 216.45 115.41C216.45 115.41 215.44 115.82 213.67 116.24C213.89 115.52 214.41 112.96 211.96 110.59C211.96 110.59 213.66 113.96 211.18 116.61C211.13 116.66 211.08 116.72 211.04 116.77C206.88 117.44 200.72 117.69 193.98 115.41C193.98 115.41 191.45 111.25 192.7 106.88C191.96 107.1 191.17 107.22 190.35 107.22C185.79 107.22 182.09 103.52 182.09 98.96C182.09 94.4001 185.79 90.7001 190.35 90.7001C194.91 90.7001 198.61 94.4001 198.61 98.96C198.61 99.49 198.56 100.01 198.46 100.52C204.46 97.4 212.89 99.31 216.08 102.72C216.13 102.61 216.19 102.51 216.24 102.41C218.36 98.57 223.19 97.18 227.02 99.3C230.86 101.4 232.26 106.23 230.14 110.07Z" fill="#FFCF2D"/>
<path d="M202.52 94.92C201.92 94.45 201.34 94.32 200.78 94.55C199.96 94.88 199.26 95.99 198.71 97.86C198.63 98.11 198.67 98.06 198.61 98.3C198.6 96.77 198.19 96.02 197.61 95.49C197.19 95.11 196.64 95 195.98 95.17C195.62 95.27 195.36 95.49 195.26 95.82C195.04 96.48 195.4 97.56 196.37 99.11C196.87 99.91 197.39 100.62 197.65 100.95L192.34 106.87C192.23 106.99 192.24 107.18 192.36 107.29C192.42 107.34 192.49 107.37 192.56 107.37C192.64 107.37 192.72 107.34 192.78 107.27L198.25 101.17L198.26 101.16L198.62 100.75C198.82 100.62 199.78 100.03 200.75 99.23C202.24 98.01 203.03 96.97 203.08 96.12C203.12 95.65 202.92 95.24 202.52 94.92ZM195.83 96.01C195.86 95.92 195.92 95.81 196.14 95.75C196.29 95.71 196.43 95.69 196.56 95.69C196.82 95.69 197.03 95.77 197.21 95.93C198.01 96.66 197.97 98.86 197.83 100.21C196.79 98.79 195.58 96.78 195.83 96.01ZM202.49 96.09C202.42 97.28 200.18 99.01 198.84 99.91C199.14 98.31 199.87 95.56 201.01 95.1C201.11 95.06 201.22 95.04 201.33 95.04C201.59 95.04 201.86 95.16 202.15 95.39C202.4 95.59 202.51 95.81 202.49 96.09Z" fill="#FE5244"/>
<path d="M220.57 98.45C220.07 97.97 219.54 97.8 218.98 97.94C218.2 98.13 217.42 98.94 216.67 100.35C216.52 100.63 216.38 100.91 216.27 101.17C216.25 100.79 216.22 100.36 216.16 99.91C215.93 98.08 215.44 96.93 214.71 96.5C214.2 96.2 213.59 96.24 212.92 96.64C212.46 96.91 212.2 97.3 212.17 97.78C212.05 99.5 214.89 101.93 215.66 102.56L217.55 112C217.58 112.14 217.7 112.24 217.84 112.24C217.86 112.24 217.88 112.24 217.9 112.23C218.06 112.2 218.17 112.04 218.13 111.88L216.29 102.68C216.59 102.56 217.47 102.18 218.38 101.68C219.94 100.82 220.76 100.07 220.89 99.39C220.93 99.14 220.91 98.79 220.57 98.45ZM215.62 101.75C214.47 100.75 212.68 98.93 212.75 97.81C212.77 97.53 212.91 97.31 213.21 97.14C213.5 96.97 213.75 96.89 213.97 96.89C214.12 96.89 214.26 96.93 214.39 97C214.94 97.32 215.35 98.38 215.55 99.97C215.63 100.62 215.66 101.24 215.67 101.7C215.66 101.71 215.64 101.73 215.62 101.75ZM220.3 99.27C220.15 100.05 218.16 101.18 216.6 101.88C217.11 100.66 218.09 98.77 219.12 98.52C219.19 98.5 219.26 98.49 219.34 98.49C219.61 98.49 219.88 98.62 220.16 98.88C220.32 99.05 220.32 99.18 220.3 99.27Z" fill="#FE5244"/>
</svg>
