<svg width="360" height="252" viewBox="0 0 360 252" fill="none" xmlns="http://www.w3.org/2000/svg">
<path d="M132.048 135.965L124.365 213.667" stroke="#66B0F0" stroke-width="6" stroke-miterlimit="10" stroke-linecap="round"/>
<path d="M163.317 135.965L171 213.667" stroke="#66B0F0" stroke-width="6" stroke-miterlimit="10" stroke-linecap="round"/>
<path d="M126.763 190.944C126.763 190.944 145.267 181.174 168.667 190.944" stroke="#66B0F0" stroke-width="6" stroke-miterlimit="10" stroke-linecap="round"/>
<path d="M167.659 135.965H128.664C126.072 135.965 123.969 133.862 123.969 131.27V129.312H172.354V131.263C172.354 133.862 170.251 135.965 167.659 135.965Z" fill="#D0F0E4" stroke="#66B0F0" stroke-width="6" stroke-miterlimit="10" stroke-linejoin="round"/>
<path d="M139.946 164.311L138.521 165.917C137.65 166.903 137.736 168.408 138.722 169.279C139.212 169.718 139.838 169.913 140.443 169.877C141.055 169.841 141.646 169.574 142.085 169.078L143.597 167.378C143.597 167.371 143.604 166.939 143.604 166.932C142.927 166.565 142.135 166.435 141.35 165.737C140.818 165.262 140.342 164.779 139.946 164.311Z" stroke="#9A3B82" stroke-width="3" stroke-miterlimit="10" stroke-linecap="round"/>
<path d="M133.69 167.494L140.566 161.194L148.565 164.059L140.63 175.486C139.997 176.4 138.73 176.616 137.822 175.968L134.014 173.218C132.127 171.842 131.962 169.07 133.69 167.494Z" fill="white" stroke="#FE5244" stroke-width="5" stroke-miterlimit="10"/>
<path d="M166.889 128.858C167.343 131.076 167.019 133.488 165.737 135.648L148.831 164.052C148.673 164.693 146.635 164.794 144.288 164.239C141.934 163.685 140.155 162.698 140.307 162.058L148.176 128.57C149.386 123.422 154.541 120.226 159.696 121.435C163.541 122.342 166.176 125.366 166.889 128.858Z" fill="#E57281"/>
<path d="M167.062 131.465C166.01 130.637 164.758 130.018 163.339 129.686C158.191 128.477 153.036 131.666 151.819 136.822L145.325 164.455C144.986 164.405 144.641 164.333 144.281 164.246C141.926 163.692 140.148 162.706 140.299 162.065L148.169 128.578C149.378 123.43 154.534 120.233 159.689 121.442C163.534 122.35 166.169 125.374 166.889 128.866C167.069 129.708 167.126 130.586 167.062 131.465Z" fill="#9A3B82"/>
<path d="M144.634 143.654L140.307 162.058C140.155 162.698 141.934 163.692 144.288 164.239C146.643 164.794 148.68 164.693 148.831 164.052L158.969 147.024L144.634 143.654Z" fill="#D82F25"/>
<path d="M158.969 147.024L144.634 143.654" stroke="white" stroke-width="6" stroke-miterlimit="10" stroke-linecap="round"/>
<path opacity="0.7" d="M144.151 145.901L157.738 149.098" stroke="white" stroke-width="6" stroke-miterlimit="10" stroke-linecap="round"/>
<path opacity="0.7" d="M143.547 148.464L156.305 151.466" stroke="white" stroke-width="6" stroke-miterlimit="10" stroke-linecap="round"/>
<path opacity="0.7" d="M142.942 151.034L154.872 153.835" stroke="white" stroke-width="6" stroke-miterlimit="10" stroke-linecap="round"/>
<path opacity="0.7" d="M142.344 153.598L153.439 156.204" stroke="white" stroke-width="6" stroke-miterlimit="10" stroke-linecap="round"/>
<path opacity="0.7" d="M141.739 156.161L152.014 158.573" stroke="white" stroke-width="6" stroke-miterlimit="10" stroke-linecap="round"/>
<path opacity="0.7" d="M141.135 158.724L150.581 160.942" stroke="white" stroke-width="6" stroke-miterlimit="10" stroke-linecap="round"/>
<path opacity="0.7" d="M140.53 161.287L149.256 163.339" stroke="white" stroke-width="6" stroke-miterlimit="10" stroke-linecap="round"/>
<path d="M148.738 176.061V130.111C148.738 124.819 144.446 120.535 139.162 120.535C132.689 120.535 128.081 126.814 130.025 132.991L139.982 164.513L138.528 173.088C138.146 175.377 139.507 177.602 141.718 178.301L144.482 179.179C146.585 179.841 148.738 178.272 148.738 176.061Z" fill="#E57281"/>
<path d="M148.738 144.886V164.513C148.738 165.175 146.779 165.73 144.36 165.73C141.948 165.73 139.983 165.168 139.983 164.506L133.798 144.886H148.738Z" fill="#FE5244"/>
<path d="M133.791 144.67H148.738L148.81 163.793" stroke="white" stroke-width="6" stroke-miterlimit="10" stroke-linecap="round"/>
<path d="M138.528 173.081C138.147 175.371 139.507 177.595 141.718 178.294L144.483 179.172C146.585 179.842 148.738 178.272 148.738 176.062L148.493 164.513C148.493 165.175 146.779 165.73 144.367 165.73C141.955 165.73 140.155 165.002 140.148 164.34L138.528 173.081Z" fill="white" stroke="#FE5244" stroke-width="5" stroke-miterlimit="10"/>
<path d="M146.355 167.155V169.301C146.355 170.618 145.289 171.684 143.971 171.684C143.316 171.684 142.719 171.418 142.287 170.986C141.855 170.554 141.588 169.956 141.588 169.301V167.026C141.588 167.018 141.588 167.018 141.588 167.011C142.344 167.184 143.309 167.292 144.353 167.292C145.08 167.292 145.757 167.242 146.355 167.155Z" fill="#FE5244"/>
<path d="M148.515 147.91H134.734" stroke="white" stroke-width="6" stroke-miterlimit="10" stroke-linecap="round"/>
<path d="M148.515 150.545H135.583" stroke="white" stroke-width="6" stroke-miterlimit="10" stroke-linecap="round"/>
<path d="M148.515 153.173H136.433" stroke="white" stroke-width="6" stroke-miterlimit="10" stroke-linecap="round"/>
<path d="M148.515 155.808H137.283" stroke="white" stroke-width="6" stroke-miterlimit="10" stroke-linecap="round"/>
<path d="M148.515 158.443H138.139" stroke="white" stroke-width="6" stroke-miterlimit="10" stroke-linecap="round"/>
<path d="M148.515 161.078H138.989" stroke="white" stroke-width="6" stroke-miterlimit="10" stroke-linecap="round"/>
<path d="M148.515 163.714H139.731" stroke="white" stroke-width="6" stroke-miterlimit="10" stroke-linecap="round"/>
<path d="M214.546 150.847H220.298C224.856 150.847 228.549 154.541 228.549 159.098V193.838C228.549 198.396 224.856 202.09 220.298 202.09H218.037C215.409 202.09 213.278 204.221 213.278 206.849" stroke="#66B0F0" stroke-width="6" stroke-miterlimit="10" stroke-linecap="round"/>
<path d="M213.494 213.667C215.761 213.667 217.598 211.83 217.598 209.563C217.598 207.297 215.761 205.459 213.494 205.459C211.228 205.459 209.39 207.297 209.39 209.563C209.39 211.83 211.228 213.667 213.494 213.667Z" fill="white" stroke="#66B0F0" stroke-width="6" stroke-miterlimit="10" stroke-linejoin="round"/>
<path d="M212.688 150.847H247.889C249.473 150.847 250.754 149.566 250.754 147.982V145.57C250.754 143.986 249.473 142.704 247.889 142.704H212.688C210.866 142.704 209.39 144.18 209.39 146.002V147.542C209.39 149.371 210.866 150.847 212.688 150.847Z" fill="#D0F0E4" stroke="#66B0F0" stroke-width="6" stroke-miterlimit="10" stroke-linejoin="round"/>
<path d="M245.621 150.847H239.868C235.31 150.847 231.617 154.541 231.617 159.098V193.838C231.617 198.396 235.31 202.09 239.868 202.09H242.129C244.757 202.09 246.888 204.221 246.888 206.849" stroke="#66B0F0" stroke-width="6" stroke-miterlimit="10" stroke-linecap="round"/>
<path d="M246.679 213.667C248.946 213.667 250.783 211.83 250.783 209.563C250.783 207.297 248.946 205.459 246.679 205.459C244.413 205.459 242.575 207.297 242.575 209.563C242.575 211.83 244.413 213.667 246.679 213.667Z" fill="white" stroke="#66B0F0" stroke-width="6" stroke-miterlimit="10" stroke-linejoin="round"/>
<path d="M181.555 198.144L184.147 203.45C185.018 205.236 185.472 207.187 185.472 209.16V213.185C185.472 213.883 184.889 214.452 184.169 214.452H154.562C153.778 214.452 153.144 213.833 153.144 213.07V211.824C153.144 211.32 153.425 210.859 153.878 210.614C156.953 208.966 166.882 203.81 168.804 198.302L181.555 198.144Z" fill="white" stroke="#FFCF2D" stroke-width="6" stroke-miterlimit="10"/>
<path d="M185.292 207.014H182.974C180.828 207.014 178.834 208.102 177.71 209.88L176.724 211.45C176.134 212.386 175.09 212.954 173.966 212.954H153.158" fill="white"/>
<path d="M185.292 207.014H182.974C180.828 207.014 178.834 208.102 177.71 209.88L176.724 211.45C176.134 212.386 175.09 212.954 173.966 212.954H153.158" stroke="#FFCF2D" stroke-width="6" stroke-miterlimit="10"/>
<path d="M183.499 202.126C181.274 202.198 178.322 201.967 174.758 201.319C172.418 200.894 170.194 200.246 168.257 199.519C168.48 199.116 168.66 198.713 168.804 198.31L181.555 198.144L183.499 202.126Z" fill="#FFCF2D"/>
<path d="M162.634 205.265L164.981 201.542C165.859 200.153 164.887 198.331 163.246 198.288C161.762 198.245 160.69 199.706 161.179 201.11L162.634 205.265Z" stroke="#FE5244" stroke-width="6" stroke-miterlimit="10" stroke-linecap="round" stroke-linejoin="round"/>
<path d="M162.504 205.286L159.941 203.177C158.983 202.392 157.529 202.939 157.342 204.17C157.169 205.279 158.162 206.215 159.257 205.985L162.504 205.286Z" stroke="#FE5244" stroke-width="6" stroke-miterlimit="10" stroke-linecap="round" stroke-linejoin="round"/>
<path d="M162.274 205.178H168.098" stroke="#FE5244" stroke-width="6" stroke-miterlimit="10" stroke-linecap="round" stroke-linejoin="round"/>
<path d="M160.574 206.806H166.392" stroke="#FE5244" stroke-width="6" stroke-miterlimit="10" stroke-linecap="round" stroke-linejoin="round"/>
<path d="M164.887 203.472H170.561" stroke="#FE5244" stroke-width="6" stroke-miterlimit="10" stroke-linecap="round" stroke-linejoin="round"/>
<path d="M216.166 123.934L202.81 128.988L189.965 195.883C189.447 197.107 182.635 198.864 176.278 198.864C169.582 198.864 164.16 196.999 164.16 195.682L172.051 134.237C173.081 126.13 179.979 120.046 188.158 120.046H215.914L216.043 123.926L216.166 123.934Z" fill="white" stroke="#3FB1B5" stroke-width="6" stroke-miterlimit="10" stroke-linecap="round"/>
<path d="M175.91 198.85L183.701 138.19C184.716 130.183 191.974 124.034 203.918 124.034" stroke="#3FB1B5" stroke-width="6" stroke-miterlimit="10" stroke-linecap="round"/>
<path d="M209.966 123.214L195.588 167.184L189.986 149.27C186.53 137.815 192.758 123.214 209.966 123.214Z" fill="#3FB1B5"/>
<path d="M225.734 197.878L230.911 210.773C231.631 212.558 230.213 214.466 228.168 214.466H208.67C207.705 214.466 206.921 213.739 206.921 212.832V211.536C206.921 210.946 207.108 210.377 207.468 209.887L210.888 206.15C212.882 203.976 213.977 201.204 213.977 198.346V198.31L225.734 197.878Z" fill="white" stroke="#FFCF2D" stroke-width="6" stroke-miterlimit="10"/>
<path d="M208.188 209.124C209.268 208.62 210.456 208.354 211.666 208.354H217.922C219.031 208.354 220.126 208.577 221.134 209.009L223.423 209.981" fill="white"/>
<path d="M208.188 209.124C209.268 208.62 210.456 208.354 211.666 208.354H217.922C219.031 208.354 220.126 208.577 221.134 209.009L223.423 209.981" stroke="#FFCF2D" stroke-width="6" stroke-miterlimit="10"/>
<path d="M225.979 198.468C225.576 200.059 220.226 201.326 213.689 201.326H213.581C213.847 200.354 213.984 199.354 213.984 198.338V198.302L225.741 197.878L225.979 198.468Z" fill="#FFCF2D"/>
<path d="M215.798 204.322L219.737 204.286C221.364 204.264 222.35 202.486 221.508 201.096C220.745 199.836 218.959 199.735 218.059 200.902L215.798 204.322Z" stroke="#FE5244" stroke-width="6" stroke-miterlimit="10" stroke-linejoin="round"/>
<path d="M215.798 204.322L213.739 201.766C212.969 200.808 211.449 201.053 211.025 202.205C210.636 203.242 211.406 204.35 212.515 204.343L215.798 204.322Z" stroke="#FE5244" stroke-width="6" stroke-miterlimit="10" stroke-linejoin="round"/>
<path d="M213.609 205.79H222.141" stroke="#FE5244" stroke-width="6" stroke-miterlimit="10" stroke-linecap="round" stroke-linejoin="round"/>
<path d="M230.256 194.45C230.256 196.013 224.611 198.943 218.722 198.943C213.43 198.943 209.045 197.892 208.217 196.56L193.658 149.99C189.619 136.62 199.627 123.142 213.588 123.142H215.978L215.64 111.132H245.534L248.479 123.35C250.855 133.214 243.381 142.949 233.237 142.949H219.816L230.256 194.45Z" fill="white" stroke="#3FB1B5" stroke-width="6" stroke-miterlimit="10" stroke-linecap="round"/>
<path d="M220.975 198.72L207.216 154.699C202.27 140.407 207.821 132.919 221.018 132.919H233.049C236.858 132.919 239.947 129.83 239.947 126.022V111.161" stroke="#3FB1B5" stroke-width="6" stroke-miterlimit="10" stroke-linecap="round"/>
<path d="M289.491 129.312H66.3412C65.4628 129.312 65.1316 128.16 65.8732 127.692L105.329 108.497H252.281L289.894 127.951C290.513 128.361 290.225 129.312 289.491 129.312Z" fill="white" stroke="#66B0F0" stroke-width="6" stroke-miterlimit="10" stroke-linejoin="round"/>
<path d="M283.536 127.174H72.0144C71.0352 127.174 70.6608 125.885 71.496 125.359L105.545 108.713H251.942L284.076 125.374C284.882 125.906 284.508 127.174 283.536 127.174Z" fill="#D0F0E4"/>
<path d="M77.9401 129.312L63.2881 213.667" stroke="#66B0F0" stroke-width="6" stroke-miterlimit="10" stroke-linecap="round"/>
<path d="M85.5791 129.312L100.231 213.667" stroke="#66B0F0" stroke-width="6" stroke-miterlimit="10" stroke-linecap="round"/>
<path d="M269.654 129.312L255.002 213.667" stroke="#66B0F0" stroke-width="6" stroke-miterlimit="10" stroke-linecap="round"/>
<path d="M277.293 129.312L291.946 213.667" stroke="#66B0F0" stroke-width="6" stroke-miterlimit="10" stroke-linecap="round"/>
<path d="M105.077 105.422L103.003 120.103C102.881 120.974 102.139 121.615 101.261 121.615H97.2074C96.329 121.615 95.5874 120.967 95.465 120.103L93.3914 105.422C93.3914 106.74 96.005 107.806 99.2306 107.806C102.463 107.806 105.077 106.733 105.077 105.422Z" fill="white" stroke="#66B0F0" stroke-width="6" stroke-miterlimit="10" stroke-linejoin="round"/>
<path d="M103.774 106.992L101.923 119.988C101.787 120.96 100.944 121.687 99.965 121.687H98.5754C97.5962 121.687 96.7538 120.96 96.617 119.988L94.7666 107.028C94.9106 107.093 95.069 107.15 95.2274 107.208L97.0418 119.93C97.1426 120.629 97.7042 121.169 98.3954 121.248C98.453 121.255 98.5106 121.262 98.5754 121.262H99.965C100.051 121.262 100.138 121.255 100.217 121.241C100.872 121.133 101.398 120.607 101.491 119.93L103.306 107.179C103.479 107.122 103.63 107.057 103.774 106.992Z" fill="#66B0F0"/>
<path d="M101.866 107.568L100.217 121.241L100.195 121.428C100.181 121.536 100.087 121.615 99.9794 121.615C99.9722 121.615 99.965 121.615 99.9506 121.615C99.8282 121.601 99.749 121.493 99.7634 121.378L99.7778 121.262L101.419 107.647C101.578 107.618 101.722 107.59 101.866 107.568Z" fill="#66B0F0"/>
<path d="M98.6618 121.615C98.6546 121.615 98.6474 121.615 98.633 121.615C98.525 121.615 98.4314 121.536 98.417 121.428L98.3954 121.248L96.7466 107.597C96.8906 107.626 97.0418 107.647 97.193 107.669L98.8345 121.262L98.8489 121.378C98.8633 121.493 98.777 121.601 98.6618 121.615Z" fill="#66B0F0"/>
<path d="M105.286 105.422C105.286 106.027 104.717 106.574 103.781 106.999C103.637 107.064 103.478 107.129 103.32 107.186C102.888 107.338 102.406 107.474 101.873 107.575C101.729 107.604 101.578 107.626 101.426 107.654C100.8 107.748 100.116 107.806 99.4033 107.813C99.3457 107.813 99.2953 107.813 99.2377 107.813C99.1585 107.813 99.0793 107.813 99.0001 107.813C98.3665 107.806 97.7617 107.755 97.2001 107.676C97.0489 107.654 96.9049 107.633 96.7537 107.604C96.1993 107.503 95.6881 107.374 95.2345 107.215C95.0761 107.158 94.9177 107.1 94.7737 107.035C93.7873 106.61 93.1897 106.049 93.1897 105.43C93.1897 105.379 93.1969 105.329 93.2041 105.278C93.4057 104.033 96.0265 103.054 99.2377 103.054C102.449 103.054 105.077 104.04 105.271 105.278C105.278 105.322 105.286 105.372 105.286 105.422Z" fill="#66B0F0"/>
<path d="M99.4895 121.212C99.4895 121.226 99.4895 121.248 99.4823 121.262C99.4607 121.356 99.3743 121.428 99.2735 121.428C99.1728 121.428 99.0864 121.356 99.0648 121.262C99.0576 121.248 99.0576 121.234 99.0576 121.219L98.9856 107.885C98.9856 107.856 98.9928 107.834 99 107.806C99.0792 107.806 99.1584 107.806 99.2375 107.806C99.2951 107.806 99.3527 107.806 99.4031 107.806C99.4103 107.827 99.4175 107.849 99.4175 107.878L99.4895 121.212Z" fill="#66B0F0"/>
<path d="M99.2737 107.366C97.9921 107.33 96.8185 107.136 95.8681 106.826L92.4697 92.5776H95.7457L99.2737 107.366Z" fill="#FFCF2D"/>
<path d="M96.1706 94.3776H94.8314C94.7306 94.3776 94.6514 94.2984 94.6514 94.1976C94.6514 94.0968 94.7306 94.0176 94.8314 94.0176H96.0842L96.1706 94.3776Z" fill="white"/>
<path d="M96.5307 95.8896H95.1915C95.0907 95.8896 95.0115 95.8104 95.0115 95.7096C95.0115 95.6088 95.0907 95.5296 95.1915 95.5296H96.4443L96.5307 95.8896Z" fill="white"/>
<path d="M96.8907 97.4016H95.5514C95.4505 97.4016 95.3713 97.3224 95.3713 97.2216C95.3713 97.1208 95.4505 97.0416 95.5514 97.0416H96.8043L96.8907 97.4016Z" fill="white"/>
<path d="M97.2577 98.9136H95.9185C95.8177 98.9136 95.7385 98.8344 95.7385 98.7336C95.7385 98.6328 95.8177 98.5536 95.9185 98.5536H97.1713L97.2577 98.9136Z" fill="white"/>
<path d="M97.6177 100.426H96.2784C96.1776 100.426 96.0984 100.346 96.0984 100.246C96.0984 100.145 96.1776 100.066 96.2784 100.066H97.5313L97.6177 100.426Z" fill="white"/>
<path d="M97.9778 101.938H96.7034C96.6026 101.938 96.5234 101.858 96.5234 101.758C96.5234 101.657 96.6026 101.578 96.7034 101.578H97.8914L97.9778 101.938Z" fill="white"/>
<path d="M98.3376 103.45H96.9913C96.8905 103.45 96.8113 103.37 96.8113 103.27C96.8113 103.169 96.8905 103.09 96.9913 103.09H98.2512L98.3376 103.45Z" fill="white"/>
<path d="M98.6978 104.962H97.3514C97.2506 104.962 97.1714 104.882 97.1714 104.782C97.1714 104.681 97.2506 104.602 97.3514 104.602H98.6114L98.6978 104.962Z" fill="white"/>
<path d="M99.0579 106.466C99.0435 106.474 99.0291 106.474 99.0075 106.474H97.6395C97.5387 106.474 97.4595 106.394 97.4595 106.294C97.4595 106.193 97.5387 106.114 97.6395 106.114H98.9715L99.0579 106.466Z" fill="white"/>
<path d="M123.861 123.35C123.861 123.35 123.854 123.358 123.861 123.35L123.559 124.452C123.552 124.481 123.53 124.495 123.509 124.488L107.957 119.844C107.935 119.837 107.928 119.808 107.935 119.786L108.23 118.692C108.23 118.678 108.245 118.67 108.252 118.663C108.259 118.656 108.273 118.656 108.281 118.656L123.833 123.3C123.84 123.3 123.847 123.314 123.854 123.322C123.861 123.329 123.861 123.343 123.861 123.35Z" fill="#FE5244"/>
<path d="M108.461 118.721L108.144 119.894C108.122 119.974 108.057 120.024 107.993 120.01L107.64 119.902C107.582 119.887 107.546 119.801 107.568 119.722L107.885 118.548C107.906 118.469 107.971 118.418 108.036 118.433L108.389 118.541C108.446 118.555 108.482 118.634 108.461 118.721Z" fill="#FFCF2D"/>
<path d="M107.028 118.634L106.884 119.182C106.841 119.333 106.934 119.491 107.093 119.542L107.59 119.686L107.885 118.584L107.388 118.44C107.23 118.397 107.071 118.483 107.028 118.634Z" fill="#FE5244"/>
<path d="M123.818 123.343L124.286 123.818L124.646 124.186L124.157 124.301L123.523 124.445L123.818 123.343Z" fill="white"/>
<path d="M124.682 124.193C124.675 124.222 124.661 124.236 124.646 124.236L123.523 124.495C123.509 124.495 123.494 124.495 123.487 124.481C123.48 124.466 123.48 124.452 123.48 124.438L123.775 123.343C123.782 123.329 123.79 123.314 123.804 123.307C123.818 123.3 123.833 123.3 123.84 123.314L124.668 124.157C124.682 124.157 124.69 124.171 124.682 124.193ZM123.581 124.38L124.553 124.157L123.84 123.43L123.581 124.38Z" fill="#FE5244"/>
<path d="M124.286 123.818L124.646 124.186L124.157 124.301L124.286 123.818Z" fill="#F0E1D4"/>
<path d="M124.683 124.193C124.675 124.222 124.661 124.236 124.647 124.236L124.157 124.351C124.143 124.351 124.128 124.351 124.121 124.337C124.114 124.322 124.114 124.308 124.114 124.294L124.243 123.818C124.251 123.804 124.258 123.79 124.272 123.782C124.287 123.775 124.301 123.775 124.308 123.79L124.668 124.157C124.683 124.157 124.69 124.171 124.683 124.193Z" fill="#FE5244"/>
<path d="M101.909 97.7976C101.909 97.8408 101.909 97.8912 101.902 97.9344L100.728 107.294C100.26 107.345 99.7777 107.374 99.2737 107.374L99.8497 97.7328C99.8857 97.1928 100.332 96.768 100.879 96.768C101.455 96.768 101.909 97.236 101.909 97.7976Z" fill="#FE5244"/>
<path d="M264.024 185.4H278.294C278.741 183.802 280.202 182.628 281.945 182.628H267.674C265.932 182.628 264.47 183.802 264.024 185.4Z" fill="#3FB1B5"/>
<path d="M267.797 182.858C269.885 182.858 271.584 184.558 271.584 186.646V190.433H285.854V186.646C285.854 184.55 284.155 182.858 282.067 182.858H267.797Z" fill="white" stroke="#3FB1B5" stroke-width="6" stroke-miterlimit="10" stroke-linecap="round"/>
<path d="M293.155 185.105H280.13L280.922 188.719H293.947L293.155 185.105Z" fill="white" stroke="#FFCF2D" stroke-width="6" stroke-miterlimit="10"/>
<path d="M299.844 213.66H269.467C271.908 213.66 273.722 211.399 273.19 209.016L269.021 190.289C268.819 189.367 267.998 188.712 267.055 188.712H297.432C298.375 188.712 299.189 189.367 299.397 190.289L303.566 209.016C304.099 211.399 302.285 213.66 299.844 213.66Z" fill="white" stroke="#FFCF2D" stroke-width="6" stroke-miterlimit="10"/>
<path d="M291.744 189.007L293.249 195.768C294.12 199.67 291.146 203.378 287.15 203.378H285.876C281.081 203.378 276.934 200.052 275.89 195.372L274.471 189.007" stroke="#D0F0E4" stroke-width="10" stroke-miterlimit="10"/>
<path d="M293.256 188.935L294.761 195.696C295.632 199.598 292.658 203.306 288.662 203.306H287.388C282.593 203.306 278.446 199.98 277.402 195.3L275.983 188.935" stroke="#FFCF2D" stroke-width="10" stroke-miterlimit="10" stroke-linecap="round"/>
<path d="M269.467 213.66H264.456C262.015 213.66 260.201 211.399 260.734 209.016L264.902 190.289C265.104 189.367 265.925 188.712 266.868 188.712H267.07C268.013 188.712 268.826 189.367 269.035 190.289L273.204 209.016C273.722 211.399 271.908 213.66 269.467 213.66Z" fill="#FFCF2D" stroke="#FFCF2D" stroke-width="6" stroke-miterlimit="10"/>
<path d="M267.055 188.719V209.326" stroke="white" stroke-width="6" stroke-miterlimit="10"/>
<path d="M262.281 212.983L267.048 209.268L271.785 213.012" stroke="white" stroke-width="6" stroke-miterlimit="10" stroke-linecap="round"/>
<path d="M67.7306 182.045C67.7306 182.045 58.6946 170.438 60.1274 166.853C61.3514 163.793 64.1378 166.644 64.1378 166.644L67.7306 182.045Z" fill="#3FB1B5"/>
<path d="M74.376 194.27C74.376 194.27 83.7863 183.902 83.5703 180.173C83.3543 176.443 79.9488 178.193 79.9488 178.193L74.376 194.27Z" fill="#3FB1B5"/>
<path d="M84.1969 203.393C84.1969 206.518 82.8721 209.369 80.6977 211.543C78.9481 213.286 76.5721 214.25 74.1025 214.25H66.4345C63.9649 214.25 61.5889 213.286 59.8393 211.543C57.6649 209.376 56.3401 206.518 56.3401 203.393C56.3401 198.943 59.0185 195.048 63.0361 192.888H77.5081C81.5185 195.041 84.1969 198.943 84.1969 203.393Z" fill="#FFCF2D"/>
<path d="M70.2721 195.322C74.3639 195.322 77.6809 194.442 77.6809 193.356C77.6809 192.27 74.3639 191.39 70.2721 191.39C66.1803 191.39 62.8633 192.27 62.8633 193.356C62.8633 194.442 66.1803 195.322 70.2721 195.322Z" fill="#3FB1B5"/>
<path d="M74.3764 194.271C73.2028 194.479 71.7916 194.602 70.2724 194.602C68.8324 194.602 67.486 194.494 66.3556 194.307C63.6772 191.463 57.154 183.917 59.566 180.187C62.5756 175.529 67.738 182.052 67.738 182.052C67.738 182.052 61.6468 163.346 64.8724 159.192C68.098 155.038 70.6252 162.418 70.6252 162.418C70.6252 162.418 72.2524 153.461 76.6227 154.318C80.7915 155.138 74.3332 175.91 73.7284 177.826C74.038 176.904 75.91 171.821 79.5603 172.289C83.0163 172.728 76.2771 189.655 74.3764 194.271Z" fill="white" stroke="#3FB1B5" stroke-width="6" stroke-miterlimit="10" stroke-linecap="round"/>
<path d="M76.6152 154.31C76.6152 154.31 70.452 171.403 70.272 194.602" stroke="#3FB1B5" stroke-width="6" stroke-miterlimit="10" stroke-linecap="round"/>
<path d="M70.6179 162.41C70.9491 164.268 72.2091 172.541 71.5683 176.767" stroke="#3FB1B5" stroke-width="6" stroke-miterlimit="10" stroke-linecap="round"/>
<path d="M79.553 172.282C79.553 172.282 72.5258 181.325 71.741 194.558" stroke="#3FB1B5" stroke-width="6" stroke-miterlimit="10" stroke-linecap="round"/>
<path d="M60.2498 179.33C60.2498 179.33 68.645 184.651 68.789 194.566" stroke="#3FB1B5" stroke-width="6" stroke-miterlimit="10" stroke-linecap="round"/>
<path d="M63.1946 176.818C64.0058 176.818 64.6634 176.16 64.6634 175.349C64.6634 174.538 64.0058 173.88 63.1946 173.88C62.3834 173.88 61.7258 174.538 61.7258 175.349C61.7258 176.16 62.3834 176.818 63.1946 176.818Z" stroke="#FFCF2D" stroke-width="6" stroke-miterlimit="10"/>
<path d="M59.7959 174.6C60.1697 174.6 60.4727 174.297 60.4727 173.923C60.4727 173.549 60.1697 173.246 59.7959 173.246C59.4222 173.246 59.1191 173.549 59.1191 173.923C59.1191 174.297 59.4222 174.6 59.7959 174.6Z" stroke="#FFCF2D" stroke-width="6" stroke-miterlimit="10"/>
<path d="M60.7679 191.621C61.1417 191.621 61.4447 191.318 61.4447 190.944C61.4447 190.57 61.1417 190.267 60.7679 190.267C60.3941 190.267 60.0911 190.57 60.0911 190.944C60.0911 191.318 60.3941 191.621 60.7679 191.621Z" stroke="#FFCF2D" stroke-width="6" stroke-miterlimit="10"/>
<path d="M78.7828 170.712C79.594 170.712 80.2516 170.054 80.2516 169.243C80.2516 168.432 79.594 167.774 78.7828 167.774C77.9716 167.774 77.314 168.432 77.314 169.243C77.314 170.054 77.9716 170.712 78.7828 170.712Z" stroke="#FFCF2D" stroke-width="6" stroke-miterlimit="10"/>
<path d="M79.2146 165.283C79.5884 165.283 79.8914 164.98 79.8914 164.606C79.8914 164.233 79.5884 163.93 79.2146 163.93C78.8408 163.93 78.5378 164.233 78.5378 164.606C78.5378 164.98 78.8408 165.283 79.2146 165.283Z" stroke="#FFCF2D" stroke-width="6" stroke-miterlimit="10"/>
<path d="M81.6697 170.712C82.0435 170.712 82.3465 170.409 82.3465 170.035C82.3465 169.661 82.0435 169.358 81.6697 169.358C81.2959 169.358 80.9929 169.661 80.9929 170.035C80.9929 170.409 81.2959 170.712 81.6697 170.712Z" stroke="#FFCF2D" stroke-width="6" stroke-miterlimit="10"/>
<path d="M230.623 65.9664L245.117 70.056C251.46 71.7912 256.061 77.292 256.637 83.844L258.847 108.288H182.146L189.23 80.82C190.39 76.2408 193.86 72.612 198.382 71.2512L215.309 65.9664H230.623Z" fill="#FE5244"/>
<path d="M186.459 106.178C186.844 106.178 187.157 105.866 187.157 105.48C187.157 105.094 186.844 104.782 186.459 104.782C186.073 104.782 185.76 105.094 185.76 105.48C185.76 105.866 186.073 106.178 186.459 106.178Z" fill="white"/>
<path d="M193.73 106.178C194.116 106.178 194.429 105.866 194.429 105.48C194.429 105.094 194.116 104.782 193.73 104.782C193.345 104.782 193.032 105.094 193.032 105.48C193.032 105.866 193.345 106.178 193.73 106.178Z" fill="white"/>
<path d="M201.002 106.178C201.388 106.178 201.701 105.866 201.701 105.48C201.701 105.094 201.388 104.782 201.002 104.782C200.617 104.782 200.304 105.094 200.304 105.48C200.304 105.866 200.617 106.178 201.002 106.178Z" fill="white"/>
<path d="M208.274 106.178C208.66 106.178 208.973 105.866 208.973 105.48C208.973 105.094 208.66 104.782 208.274 104.782C207.889 104.782 207.576 105.094 207.576 105.48C207.576 105.866 207.889 106.178 208.274 106.178Z" fill="white"/>
<path d="M215.546 106.178C215.932 106.178 216.245 105.866 216.245 105.48C216.245 105.094 215.932 104.782 215.546 104.782C215.16 104.782 214.848 105.094 214.848 105.48C214.848 105.866 215.16 106.178 215.546 106.178Z" fill="white"/>
<path d="M222.818 106.178C223.204 106.178 223.517 105.866 223.517 105.48C223.517 105.094 223.204 104.782 222.818 104.782C222.433 104.782 222.12 105.094 222.12 105.48C222.12 105.866 222.433 106.178 222.818 106.178Z" fill="white"/>
<path d="M230.09 106.178C230.476 106.178 230.789 105.866 230.789 105.48C230.789 105.094 230.476 104.782 230.09 104.782C229.705 104.782 229.392 105.094 229.392 105.48C229.392 105.866 229.705 106.178 230.09 106.178Z" fill="white"/>
<path d="M237.362 106.178C237.748 106.178 238.061 105.866 238.061 105.48C238.061 105.094 237.748 104.782 237.362 104.782C236.977 104.782 236.664 105.094 236.664 105.48C236.664 105.866 236.977 106.178 237.362 106.178Z" fill="white"/>
<path d="M244.634 106.178C245.02 106.178 245.333 105.866 245.333 105.48C245.333 105.094 245.02 104.782 244.634 104.782C244.249 104.782 243.936 105.094 243.936 105.48C243.936 105.866 244.249 106.178 244.634 106.178Z" fill="white"/>
<path d="M251.906 106.178C252.292 106.178 252.605 105.866 252.605 105.48C252.605 105.094 252.292 104.782 251.906 104.782C251.521 104.782 251.208 105.094 251.208 105.48C251.208 105.866 251.521 106.178 251.906 106.178Z" fill="white"/>
<path d="M190.202 101.282C190.588 101.282 190.901 100.97 190.901 100.584C190.901 100.198 190.588 99.8856 190.202 99.8856C189.817 99.8856 189.504 100.198 189.504 100.584C189.504 100.97 189.817 101.282 190.202 101.282Z" fill="white"/>
<path d="M197.474 101.282C197.86 101.282 198.173 100.97 198.173 100.584C198.173 100.198 197.86 99.8856 197.474 99.8856C197.089 99.8856 196.776 100.198 196.776 100.584C196.776 100.97 197.089 101.282 197.474 101.282Z" fill="white"/>
<path d="M204.746 101.282C205.132 101.282 205.445 100.97 205.445 100.584C205.445 100.198 205.132 99.8856 204.746 99.8856C204.361 99.8856 204.048 100.198 204.048 100.584C204.048 100.97 204.361 101.282 204.746 101.282Z" fill="white"/>
<path d="M212.018 101.282C212.404 101.282 212.717 100.97 212.717 100.584C212.717 100.198 212.404 99.8856 212.018 99.8856C211.633 99.8856 211.32 100.198 211.32 100.584C211.32 100.97 211.633 101.282 212.018 101.282Z" fill="white"/>
<path d="M219.29 101.282C219.676 101.282 219.989 100.97 219.989 100.584C219.989 100.198 219.676 99.8856 219.29 99.8856C218.905 99.8856 218.592 100.198 218.592 100.584C218.592 100.97 218.905 101.282 219.29 101.282Z" fill="white"/>
<path d="M226.563 101.282C226.948 101.282 227.261 100.97 227.261 100.584C227.261 100.198 226.948 99.8856 226.563 99.8856C226.177 99.8856 225.864 100.198 225.864 100.584C225.864 100.97 226.177 101.282 226.563 101.282Z" fill="white"/>
<path d="M233.835 101.282C234.22 101.282 234.533 100.97 234.533 100.584C234.533 100.198 234.22 99.8856 233.835 99.8856C233.449 99.8856 233.136 100.198 233.136 100.584C233.136 100.97 233.449 101.282 233.835 101.282Z" fill="white"/>
<path d="M241.107 101.282C241.492 101.282 241.805 100.97 241.805 100.584C241.805 100.198 241.492 99.8856 241.107 99.8856C240.721 99.8856 240.408 100.198 240.408 100.584C240.408 100.97 240.721 101.282 241.107 101.282Z" fill="white"/>
<path d="M248.379 101.282C248.764 101.282 249.077 100.97 249.077 100.584C249.077 100.198 248.764 99.8856 248.379 99.8856C247.993 99.8856 247.68 100.198 247.68 100.584C247.68 100.97 247.993 101.282 248.379 101.282Z" fill="white"/>
<path d="M255.651 101.282C256.036 101.282 256.349 100.97 256.349 100.584C256.349 100.198 256.036 99.8856 255.651 99.8856C255.265 99.8856 254.952 100.198 254.952 100.584C254.952 100.97 255.265 101.282 255.651 101.282Z" fill="white"/>
<path d="M186.459 96.2424C186.844 96.2424 187.157 95.9297 187.157 95.544C187.157 95.1583 186.844 94.8456 186.459 94.8456C186.073 94.8456 185.76 95.1583 185.76 95.544C185.76 95.9297 186.073 96.2424 186.459 96.2424Z" fill="white"/>
<path d="M193.73 96.2424C194.116 96.2424 194.429 95.9297 194.429 95.544C194.429 95.1583 194.116 94.8456 193.73 94.8456C193.345 94.8456 193.032 95.1583 193.032 95.544C193.032 95.9297 193.345 96.2424 193.73 96.2424Z" fill="white"/>
<path d="M201.002 96.2424C201.388 96.2424 201.701 95.9297 201.701 95.544C201.701 95.1583 201.388 94.8456 201.002 94.8456C200.617 94.8456 200.304 95.1583 200.304 95.544C200.304 95.9297 200.617 96.2424 201.002 96.2424Z" fill="white"/>
<path d="M208.274 96.2424C208.66 96.2424 208.973 95.9297 208.973 95.544C208.973 95.1583 208.66 94.8456 208.274 94.8456C207.889 94.8456 207.576 95.1583 207.576 95.544C207.576 95.9297 207.889 96.2424 208.274 96.2424Z" fill="white"/>
<path d="M215.546 96.2424C215.932 96.2424 216.245 95.9297 216.245 95.544C216.245 95.1583 215.932 94.8456 215.546 94.8456C215.16 94.8456 214.848 95.1583 214.848 95.544C214.848 95.9297 215.16 96.2424 215.546 96.2424Z" fill="white"/>
<path d="M222.818 96.2424C223.204 96.2424 223.517 95.9297 223.517 95.544C223.517 95.1583 223.204 94.8456 222.818 94.8456C222.433 94.8456 222.12 95.1583 222.12 95.544C222.12 95.9297 222.433 96.2424 222.818 96.2424Z" fill="white"/>
<path d="M230.09 96.2424C230.476 96.2424 230.789 95.9297 230.789 95.544C230.789 95.1583 230.476 94.8456 230.09 94.8456C229.705 94.8456 229.392 95.1583 229.392 95.544C229.392 95.9297 229.705 96.2424 230.09 96.2424Z" fill="white"/>
<path d="M237.362 96.2424C237.748 96.2424 238.061 95.9297 238.061 95.544C238.061 95.1583 237.748 94.8456 237.362 94.8456C236.977 94.8456 236.664 95.1583 236.664 95.544C236.664 95.9297 236.977 96.2424 237.362 96.2424Z" fill="white"/>
<path d="M244.634 96.2424C245.02 96.2424 245.333 95.9297 245.333 95.544C245.333 95.1583 245.02 94.8456 244.634 94.8456C244.249 94.8456 243.936 95.1583 243.936 95.544C243.936 95.9297 244.249 96.2424 244.634 96.2424Z" fill="white"/>
<path d="M251.906 96.2424C252.292 96.2424 252.605 95.9297 252.605 95.544C252.605 95.1583 252.292 94.8456 251.906 94.8456C251.521 94.8456 251.208 95.1583 251.208 95.544C251.208 95.9297 251.521 96.2424 251.906 96.2424Z" fill="white"/>
<path d="M190.202 91.5624C190.588 91.5624 190.901 91.2497 190.901 90.864C190.901 90.4783 190.588 90.1656 190.202 90.1656C189.817 90.1656 189.504 90.4783 189.504 90.864C189.504 91.2497 189.817 91.5624 190.202 91.5624Z" fill="white"/>
<path d="M197.474 91.5624C197.86 91.5624 198.173 91.2497 198.173 90.864C198.173 90.4783 197.86 90.1656 197.474 90.1656C197.089 90.1656 196.776 90.4783 196.776 90.864C196.776 91.2497 197.089 91.5624 197.474 91.5624Z" fill="white"/>
<path d="M204.746 91.5624C205.132 91.5624 205.445 91.2497 205.445 90.864C205.445 90.4783 205.132 90.1656 204.746 90.1656C204.361 90.1656 204.048 90.4783 204.048 90.864C204.048 91.2497 204.361 91.5624 204.746 91.5624Z" fill="white"/>
<path d="M212.018 91.5624C212.404 91.5624 212.717 91.2497 212.717 90.864C212.717 90.4783 212.404 90.1656 212.018 90.1656C211.633 90.1656 211.32 90.4783 211.32 90.864C211.32 91.2497 211.633 91.5624 212.018 91.5624Z" fill="white"/>
<path d="M219.29 91.5624C219.676 91.5624 219.989 91.2497 219.989 90.864C219.989 90.4783 219.676 90.1656 219.29 90.1656C218.905 90.1656 218.592 90.4783 218.592 90.864C218.592 91.2497 218.905 91.5624 219.29 91.5624Z" fill="white"/>
<path d="M226.563 91.5624C226.948 91.5624 227.261 91.2497 227.261 90.864C227.261 90.4783 226.948 90.1656 226.563 90.1656C226.177 90.1656 225.864 90.4783 225.864 90.864C225.864 91.2497 226.177 91.5624 226.563 91.5624Z" fill="white"/>
<path d="M233.835 91.5624C234.22 91.5624 234.533 91.2497 234.533 90.864C234.533 90.4783 234.22 90.1656 233.835 90.1656C233.449 90.1656 233.136 90.4783 233.136 90.864C233.136 91.2497 233.449 91.5624 233.835 91.5624Z" fill="white"/>
<path d="M241.323 91.5624C241.708 91.5624 242.021 91.2497 242.021 90.864C242.021 90.4783 241.708 90.1656 241.323 90.1656C240.937 90.1656 240.624 90.4783 240.624 90.864C240.624 91.2497 240.937 91.5624 241.323 91.5624Z" fill="white"/>
<path d="M248.379 91.5624C248.764 91.5624 249.077 91.2497 249.077 90.864C249.077 90.4783 248.764 90.1656 248.379 90.1656C247.993 90.1656 247.68 90.4783 247.68 90.864C247.68 91.2497 247.993 91.5624 248.379 91.5624Z" fill="white"/>
<path d="M255.651 91.5624C256.036 91.5624 256.349 91.2497 256.349 90.864C256.349 90.4783 256.036 90.1656 255.651 90.1656C255.265 90.1656 254.952 90.4783 254.952 90.864C254.952 91.2497 255.265 91.5624 255.651 91.5624Z" fill="white"/>
<path d="M193.73 86.7384C194.116 86.7384 194.429 86.4257 194.429 86.04C194.429 85.6543 194.116 85.3416 193.73 85.3416C193.345 85.3416 193.032 85.6543 193.032 86.04C193.032 86.4257 193.345 86.7384 193.73 86.7384Z" fill="white"/>
<path d="M208.274 86.7384C208.66 86.7384 208.973 86.4257 208.973 86.04C208.973 85.6543 208.66 85.3416 208.274 85.3416C207.889 85.3416 207.576 85.6543 207.576 86.04C207.576 86.4257 207.889 86.7384 208.274 86.7384Z" fill="white"/>
<path d="M215.546 86.7384C215.932 86.7384 216.245 86.4257 216.245 86.04C216.245 85.6543 215.932 85.3416 215.546 85.3416C215.16 85.3416 214.848 85.6543 214.848 86.04C214.848 86.4257 215.16 86.7384 215.546 86.7384Z" fill="white"/>
<path d="M222.818 86.7384C223.204 86.7384 223.516 86.4257 223.516 86.04C223.516 85.6543 223.204 85.3416 222.818 85.3416C222.433 85.3416 222.12 85.6543 222.12 86.04C222.12 86.4257 222.433 86.7384 222.818 86.7384Z" fill="white"/>
<path d="M230.09 86.7384C230.476 86.7384 230.789 86.4257 230.789 86.04C230.789 85.6543 230.476 85.3416 230.09 85.3416C229.705 85.3416 229.392 85.6543 229.392 86.04C229.392 86.4257 229.705 86.7384 230.09 86.7384Z" fill="white"/>
<path d="M237.362 86.7384C237.748 86.7384 238.061 86.4257 238.061 86.04C238.061 85.6543 237.748 85.3416 237.362 85.3416C236.977 85.3416 236.664 85.6543 236.664 86.04C236.664 86.4257 236.977 86.7384 237.362 86.7384Z" fill="white"/>
<path d="M244.634 86.7384C245.02 86.7384 245.333 86.4257 245.333 86.04C245.333 85.6543 245.02 85.3416 244.634 85.3416C244.249 85.3416 243.936 85.6543 243.936 86.04C243.936 86.4257 244.249 86.7384 244.634 86.7384Z" fill="white"/>
<path d="M251.906 86.7384C252.292 86.7384 252.605 86.4257 252.605 86.04C252.605 85.6543 252.292 85.3416 251.906 85.3416C251.521 85.3416 251.208 85.6543 251.208 86.04C251.208 86.4257 251.521 86.7384 251.906 86.7384Z" fill="white"/>
<path d="M190.202 81.9864C190.588 81.9864 190.901 81.6737 190.901 81.288C190.901 80.9023 190.588 80.5896 190.202 80.5896C189.817 80.5896 189.504 80.9023 189.504 81.288C189.504 81.6737 189.817 81.9864 190.202 81.9864Z" fill="white"/>
<path d="M197.474 81.9864C197.86 81.9864 198.173 81.6737 198.173 81.288C198.173 80.9023 197.86 80.5896 197.474 80.5896C197.089 80.5896 196.776 80.9023 196.776 81.288C196.776 81.6737 197.089 81.9864 197.474 81.9864Z" fill="white"/>
<path d="M204.746 81.9864C205.132 81.9864 205.445 81.6737 205.445 81.288C205.445 80.9023 205.132 80.5896 204.746 80.5896C204.361 80.5896 204.048 80.9023 204.048 81.288C204.048 81.6737 204.361 81.9864 204.746 81.9864Z" fill="white"/>
<path d="M212.018 81.9864C212.404 81.9864 212.717 81.6737 212.717 81.288C212.717 80.9023 212.404 80.5896 212.018 80.5896C211.633 80.5896 211.32 80.9023 211.32 81.288C211.32 81.6737 211.633 81.9864 212.018 81.9864Z" fill="white"/>
<path d="M219.29 81.9864C219.676 81.9864 219.989 81.6737 219.989 81.288C219.989 80.9023 219.676 80.5896 219.29 80.5896C218.905 80.5896 218.592 80.9023 218.592 81.288C218.592 81.6737 218.905 81.9864 219.29 81.9864Z" fill="white"/>
<path d="M226.563 81.9864C226.948 81.9864 227.261 81.6737 227.261 81.288C227.261 80.9023 226.948 80.5896 226.563 80.5896C226.177 80.5896 225.864 80.9023 225.864 81.288C225.864 81.6737 226.177 81.9864 226.563 81.9864Z" fill="white"/>
<path d="M233.835 81.9864C234.22 81.9864 234.533 81.6737 234.533 81.288C234.533 80.9023 234.22 80.5896 233.835 80.5896C233.449 80.5896 233.136 80.9023 233.136 81.288C233.136 81.6737 233.449 81.9864 233.835 81.9864Z" fill="white"/>
<path d="M241.107 81.9864C241.492 81.9864 241.805 81.6737 241.805 81.288C241.805 80.9023 241.492 80.5896 241.107 80.5896C240.721 80.5896 240.408 80.9023 240.408 81.288C240.408 81.6737 240.721 81.9864 241.107 81.9864Z" fill="white"/>
<path d="M248.379 81.9864C248.764 81.9864 249.077 81.6737 249.077 81.288C249.077 80.9023 248.764 80.5896 248.379 80.5896C247.993 80.5896 247.68 80.9023 247.68 81.288C247.68 81.6737 247.993 81.9864 248.379 81.9864Z" fill="white"/>
<path d="M255.291 81.9864C255.676 81.9864 255.989 81.6737 255.989 81.288C255.989 80.9023 255.676 80.5896 255.291 80.5896C254.905 80.5896 254.592 80.9023 254.592 81.288C254.592 81.6737 254.905 81.9864 255.291 81.9864Z" fill="white"/>
<path d="M193.73 77.3064C194.116 77.3064 194.429 76.9937 194.429 76.608C194.429 76.2223 194.116 75.9096 193.73 75.9096C193.345 75.9096 193.032 76.2223 193.032 76.608C193.032 76.9937 193.345 77.3064 193.73 77.3064Z" fill="white"/>
<path d="M201.002 77.3064C201.388 77.3064 201.701 76.9937 201.701 76.608C201.701 76.2223 201.388 75.9096 201.002 75.9096C200.617 75.9096 200.304 76.2223 200.304 76.608C200.304 76.9937 200.617 77.3064 201.002 77.3064Z" fill="white"/>
<path d="M208.274 77.3064C208.66 77.3064 208.973 76.9937 208.973 76.608C208.973 76.2223 208.66 75.9096 208.274 75.9096C207.889 75.9096 207.576 76.2223 207.576 76.608C207.576 76.9937 207.889 77.3064 208.274 77.3064Z" fill="white"/>
<path d="M215.546 77.3064C215.932 77.3064 216.245 76.9937 216.245 76.608C216.245 76.2223 215.932 75.9096 215.546 75.9096C215.16 75.9096 214.848 76.2223 214.848 76.608C214.848 76.9937 215.16 77.3064 215.546 77.3064Z" fill="white"/>
<path d="M222.818 77.3064C223.204 77.3064 223.516 76.9937 223.516 76.608C223.516 76.2223 223.204 75.9096 222.818 75.9096C222.433 75.9096 222.12 76.2223 222.12 76.608C222.12 76.9937 222.433 77.3064 222.818 77.3064Z" fill="white"/>
<path d="M230.09 77.3064C230.476 77.3064 230.789 76.9937 230.789 76.608C230.789 76.2223 230.476 75.9096 230.09 75.9096C229.705 75.9096 229.392 76.2223 229.392 76.608C229.392 76.9937 229.705 77.3064 230.09 77.3064Z" fill="white"/>
<path d="M237.362 77.3064C237.748 77.3064 238.061 76.9937 238.061 76.608C238.061 76.2223 237.748 75.9096 237.362 75.9096C236.977 75.9096 236.664 76.2223 236.664 76.608C236.664 76.9937 236.977 77.3064 237.362 77.3064Z" fill="white"/>
<path d="M244.634 77.3064C245.02 77.3064 245.333 76.9937 245.333 76.608C245.333 76.2223 245.02 75.9096 244.634 75.9096C244.249 75.9096 243.936 76.2223 243.936 76.608C243.936 76.9937 244.249 77.3064 244.634 77.3064Z" fill="white"/>
<path d="M251.906 77.3064C252.292 77.3064 252.605 76.9937 252.605 76.608C252.605 76.2223 252.292 75.9096 251.906 75.9096C251.521 75.9096 251.208 76.2223 251.208 76.608C251.208 76.9937 251.521 77.3064 251.906 77.3064Z" fill="white"/>
<path d="M215.546 68.5224C215.932 68.5224 216.245 68.2097 216.245 67.824C216.245 67.4383 215.932 67.1256 215.546 67.1256C215.16 67.1256 214.848 67.4383 214.848 67.824C214.848 68.2097 215.16 68.5224 215.546 68.5224Z" fill="white"/>
<path d="M222.818 68.5224C223.204 68.5224 223.516 68.2097 223.516 67.824C223.516 67.4383 223.204 67.1256 222.818 67.1256C222.433 67.1256 222.12 67.4383 222.12 67.824C222.12 68.2097 222.433 68.5224 222.818 68.5224Z" fill="white"/>
<path d="M230.09 68.5224C230.476 68.5224 230.789 68.2097 230.789 67.824C230.789 67.4383 230.476 67.1256 230.09 67.1256C229.705 67.1256 229.392 67.4383 229.392 67.824C229.392 68.2097 229.705 68.5224 230.09 68.5224Z" fill="white"/>
<path d="M238.025 68.0544C237.931 68.328 237.672 68.5224 237.362 68.5224C236.981 68.5224 236.664 68.2128 236.664 67.824C236.664 67.7736 236.671 67.7232 236.678 67.6728L238.025 68.0544Z" fill="white"/>
<path d="M197.474 72.9145C197.86 72.9145 198.173 72.6018 198.173 72.216C198.173 71.8303 197.86 71.5175 197.474 71.5175C197.089 71.5175 196.776 71.8303 196.776 72.216C196.776 72.6018 197.089 72.9145 197.474 72.9145Z" fill="white"/>
<path d="M204.746 72.9145C205.132 72.9145 205.445 72.6018 205.445 72.216C205.445 71.8303 205.132 71.5175 204.746 71.5175C204.361 71.5175 204.048 71.8303 204.048 72.216C204.048 72.6018 204.361 72.9145 204.746 72.9145Z" fill="white"/>
<path d="M211.327 71.9856C211.713 71.9856 212.026 71.6729 212.026 71.2872C212.026 70.9015 211.713 70.5888 211.327 70.5888C210.942 70.5888 210.629 70.9015 210.629 71.2872C210.629 71.6729 210.942 71.9856 211.327 71.9856Z" fill="white"/>
<path d="M219.29 72.9145C219.676 72.9145 219.989 72.6018 219.989 72.216C219.989 71.8303 219.676 71.5175 219.29 71.5175C218.905 71.5175 218.592 71.8303 218.592 72.216C218.592 72.6018 218.905 72.9145 219.29 72.9145Z" fill="white"/>
<path d="M226.562 72.9145C226.948 72.9145 227.261 72.6018 227.261 72.216C227.261 71.8303 226.948 71.5175 226.562 71.5175C226.177 71.5175 225.864 71.8303 225.864 72.216C225.864 72.6018 226.177 72.9145 226.562 72.9145Z" fill="white"/>
<path d="M233.835 72.9145C234.22 72.9145 234.533 72.6018 234.533 72.216C234.533 71.8303 234.22 71.5175 233.835 71.5175C233.449 71.5175 233.136 71.8303 233.136 72.216C233.136 72.6018 233.449 72.9145 233.835 72.9145Z" fill="white"/>
<path d="M241.107 72.9145C241.492 72.9145 241.805 72.6018 241.805 72.216C241.805 71.8303 241.492 71.5175 241.107 71.5175C240.721 71.5175 240.408 71.8303 240.408 72.216C240.408 72.6018 240.721 72.9145 241.107 72.9145Z" fill="white"/>
<path d="M248.379 72.9145C248.764 72.9145 249.077 72.6018 249.077 72.216C249.077 71.8303 248.764 71.5175 248.379 71.5175C247.993 71.5175 247.68 71.8303 247.68 72.216C247.68 72.6018 247.993 72.9145 248.379 72.9145Z" fill="white"/>
<path d="M242.15 108.497L240.566 86.9472" stroke="white" stroke-width="6" stroke-miterlimit="10" stroke-linecap="round"/>
<path d="M204.674 108.497V101.966L203.177 101.088C200.65 99.6048 199.382 96.66 200.038 93.8088L202.334 83.7864" stroke="white" stroke-width="6" stroke-miterlimit="10" stroke-linecap="round"/>
<path d="M214.942 65.8656L219.737 79.7544L230.861 65.8656" stroke="white" stroke-width="6" stroke-miterlimit="10" stroke-linecap="round"/>
<path d="M227.743 69.6456L232.452 75.1032L237.326 68.1552" stroke="white" stroke-width="6" stroke-miterlimit="10" stroke-linecap="round"/>
<path d="M216.281 69.6456L210.787 74.3112L207.583 68.256" stroke="white" stroke-width="6" stroke-miterlimit="10" stroke-linecap="round"/>
<path d="M200.29 83.7864L201.276 88.3872" stroke="white" stroke-width="6" stroke-miterlimit="10" stroke-linecap="round"/>
<path d="M220.5 127.174H200.765L192.038 113.544H211.774L220.5 127.174Z" fill="#FFCF2D"/>
<path d="M208.598 124.214H188.856L180.137 110.592H199.872L208.598 124.214Z" fill="white" stroke="#3FB1B5" stroke-width="6" stroke-miterlimit="10" stroke-linejoin="round"/>
<path d="M184.363 112.579L185.097 112.896C185.587 113.105 186.026 113.112 186.192 112.91L186.458 112.572C186.617 112.37 187.063 112.37 187.553 112.586L188.287 112.903C188.777 113.112 189.216 113.119 189.381 112.918L189.677 112.536C189.835 112.334 190.281 112.334 190.771 112.55L191.743 112.975C192.232 113.184 192.672 113.191 192.837 112.99L193.19 112.543C193.348 112.342 193.795 112.342 194.284 112.558L195.4 113.047C195.89 113.256 196.329 113.263 196.495 113.062L196.876 112.572" stroke="#3FB1B5" stroke-width="5" stroke-miterlimit="10" stroke-linecap="round"/>
<path d="M187.351 115.776C187.841 115.985 188.28 115.992 188.445 115.79L188.712 115.452C188.87 115.25 189.317 115.25 189.806 115.466L190.541 115.783C191.03 115.992 191.469 115.999 191.635 115.798L191.93 115.416C192.089 115.214 192.535 115.214 193.025 115.43L193.997 115.855C194.486 116.064 194.925 116.071 195.091 115.87L195.444 115.423C195.602 115.222 196.049 115.222 196.538 115.438L197.654 115.927C198.144 116.136 198.583 116.143 198.749 115.942L199.13 115.452" stroke="#3FB1B5" stroke-width="5" stroke-miterlimit="10" stroke-linecap="round"/>
<path d="M188.87 118.332L189.605 118.649C190.094 118.858 190.534 118.865 190.699 118.663L190.966 118.325C191.124 118.123 191.57 118.123 192.06 118.339L192.794 118.656C193.284 118.865 193.723 118.872 193.889 118.67L194.184 118.289C194.342 118.087 194.789 118.087 195.278 118.303L196.25 118.728C196.74 118.937 197.179 118.944 197.345 118.742L197.697 118.296C197.856 118.094 198.302 118.094 198.792 118.31L199.908 118.8C200.397 119.009 200.837 119.016 201.002 118.814L201.384 118.325" stroke="#3FB1B5" stroke-width="5" stroke-miterlimit="10" stroke-linecap="round"/>
<path d="M191.124 121.212L191.858 121.529C192.348 121.738 192.787 121.745 192.953 121.543L193.219 121.205C193.377 121.003 193.824 121.003 194.313 121.219L195.048 121.536C195.537 121.745 195.977 121.752 196.142 121.55L196.437 121.169C196.596 120.967 197.042 120.967 197.532 121.183L198.504 121.608C198.993 121.817 199.433 121.824 199.598 121.622L199.951 121.176C200.109 120.974 200.556 120.974 201.045 121.19L202.161 121.68C202.651 121.889 203.09 121.896 203.256 121.694L203.637 121.205" stroke="#3FB1B5" stroke-width="5" stroke-miterlimit="10" stroke-linecap="round"/>
<path d="M212.472 116.381H250.33C255.341 116.381 259.265 112.068 258.79 107.086C258.314 102.082 253.627 98.5752 248.695 99.54L205.128 105.61C203.479 105.84 202.032 106.841 201.247 108.31L197.388 115.481C197.251 115.661 197.158 115.87 197.1 116.086L195.653 121.68H196.466C197.726 121.68 198.893 120.982 199.483 119.866L200.21 118.505L208.584 119.412C210.154 119.606 211.644 118.534 212.206 117.065L212.472 116.381Z" fill="#A0505A"/>
<path d="M200.29 118.26L202.817 113.026" stroke="#73325A" stroke-width="6" stroke-miterlimit="10" stroke-linecap="round"/>
<path d="M203.659 118.591L206.186 113.357" stroke="#73325A" stroke-width="6" stroke-miterlimit="10" stroke-linecap="round"/>
<path d="M206.957 119.002L209.477 113.767" stroke="#73325A" stroke-width="6" stroke-miterlimit="10" stroke-linecap="round"/>
<path d="M212.472 116.381L213.624 112.946" stroke="#73325A" stroke-width="6" stroke-miterlimit="10" stroke-linecap="round"/>
<path d="M221.789 41.3136C221.789 41.3136 226.742 38.2032 231.581 42.1272C236.146 45.8352 234.014 53.1432 232.344 51.9192C230.911 50.8752 242.078 47.3112 245.578 55.584C249.545 64.9584 240.61 70.2793 230.422 65.6424H215.64L199.922 70.5457C199.922 70.5457 191.938 66.4849 196.279 58.5648C200.29 51.2568 209.873 53.8632 208.793 55.6704C207.274 58.2048 200.779 50.184 205.344 42.6096C210.168 34.6032 221.126 37.584 221.789 41.3136Z" fill="white" stroke="#FFCF2D" stroke-width="6" stroke-miterlimit="10"/>
<path d="M224.978 51.7608C224.978 51.7608 220.493 49.6296 221.321 45.2592C221.321 45.2592 219.269 51.1488 212.623 51.1056C209.571 51.084 209.7 47.916 211.327 46.4328" stroke="#FFCF2D" stroke-width="6" stroke-miterlimit="10" stroke-linecap="round" stroke-linejoin="round"/>
<path d="M230.544 65.9448L226.764 55.908H216.022L215.179 65.9448L219.809 79.2504L230.544 65.9448Z" fill="#A0505A"/>
<path d="M221.868 63.8208L216.202 68.8248L215.179 65.9448L216.022 55.908H225.54V56.0952C225.533 59.0976 224.186 61.9344 221.868 63.8208Z" fill="#73325A"/>
<path d="M229.219 53.9568V54.36C229.219 55.4544 228.326 56.3472 227.232 56.3472H225.072C224.669 59.4072 222.048 61.776 218.88 61.776C217.152 61.776 215.59 61.0776 214.459 59.9472C213.329 58.8168 212.63 57.2544 212.63 55.5264V51.3216C219.276 51.372 221.184 45.9072 221.184 45.9072C220.745 50.0112 224.489 51.7752 225.058 52.0128V51.9696H227.232C228.326 51.9696 229.219 52.8624 229.219 53.9568Z" fill="#A0505A"/>
<path d="M219.967 50.1264C219.967 50.1264 221.515 50.1552 222.559 51.264" stroke="#73325A" stroke-width="6" stroke-miterlimit="10" stroke-linecap="round"/>
<path d="M219.643 55.116C219.886 55.116 220.082 54.7711 220.082 54.3456C220.082 53.9201 219.886 53.5752 219.643 53.5752C219.401 53.5752 219.204 53.9201 219.204 54.3456C219.204 54.7711 219.401 55.116 219.643 55.116Z" fill="#73325A"/>
<path d="M213.646 55.116C213.888 55.116 214.085 54.7711 214.085 54.3456C214.085 53.9201 213.888 53.5752 213.646 53.5752C213.403 53.5752 213.207 53.9201 213.207 54.3456C213.207 54.7711 213.403 55.116 213.646 55.116Z" fill="#73325A"/>
<path d="M216.302 58.0536C216.302 58.0536 217.483 58.6224 218.556 57.5784" stroke="#73325A" stroke-width="6" stroke-miterlimit="10" stroke-linecap="round"/>
<path d="M225.626 54.7416C225.626 53.8056 226.39 53.0424 227.326 53.0424" stroke="#73325A" stroke-width="6" stroke-miterlimit="10" stroke-linecap="round"/>
<path d="M213.314 50.1984C213.314 50.1984 211.767 50.2272 210.723 51.336" stroke="#73325A" stroke-width="6" stroke-miterlimit="10" stroke-linecap="round"/>
<path d="M213.408 57.1392C214.772 57.1392 215.877 55.8401 215.877 54.2376C215.877 52.6351 214.772 51.336 213.408 51.336C212.044 51.336 210.938 52.6351 210.938 54.2376C210.938 55.8401 212.044 57.1392 213.408 57.1392Z" stroke="#FE5244" stroke-width="6" stroke-miterlimit="10" stroke-linejoin="round"/>
<path d="M220.039 57.1392C221.403 57.1392 222.509 55.8401 222.509 54.2376C222.509 52.6351 221.403 51.336 220.039 51.336C218.675 51.336 217.57 52.6351 217.57 54.2376C217.57 55.8401 218.675 57.1392 220.039 57.1392Z" stroke="#FE5244" stroke-width="6" stroke-miterlimit="10" stroke-linejoin="round"/>
<path d="M217.577 54.2376C217.577 54.2376 216.691 53.6039 215.877 54.2376" stroke="#FE5244" stroke-width="6" stroke-miterlimit="10" stroke-linejoin="round"/>
<path d="M139.817 85.5216H153.828C160.683 85.5216 167.285 88.1424 172.267 92.844L180.504 100.613L168.264 104.033L165.91 101.815C165.053 101.016 163.656 101.434 163.382 102.571L162.36 106.877H135.065L133.827 99.6552C133.488 98.4816 131.976 98.1576 131.191 99.0936L130.234 100.238L111.507 99.8928L123.84 90.7776C128.463 87.3648 134.064 85.5216 139.817 85.5216Z" fill="#9A3B82"/>
<path d="M140.645 85.5216L148.003 98.3232L154.937 85.5576C155.751 85.6008 156.557 85.68 157.356 85.7952C157.039 87.7104 155.463 99.1584 162.036 106.877H134.741C134.741 106.877 140.235 95.868 138.031 85.5576L140.645 85.5216Z" fill="#3FB1B5"/>
<path d="M123.768 121.435H177.509L167.047 106.884H135.065L123.768 121.435Z" stroke="#9A3B82" stroke-width="3" stroke-miterlimit="10" stroke-linecap="round"/>
<path d="M177.509 121.435H123.768L135.065 106.884H167.047L177.509 121.435Z" fill="white" stroke="#3FB1B5" stroke-width="6" stroke-miterlimit="10" stroke-linejoin="round"/>
<path d="M150.638 121.435H123.768C139.738 111.73 150.638 121.435 150.638 121.435Z" fill="#3FB1B5"/>
<path d="M150.638 121.435H177.509C161.539 111.73 150.638 121.435 150.638 121.435Z" fill="#3FB1B5"/>
<path d="M150.638 121.435V106.884" stroke="#3FB1B5" stroke-width="6" stroke-miterlimit="10" stroke-linecap="round"/>
<path d="M162.958 111.514L170.676 100.634C171.857 99.1296 173.664 98.244 175.579 98.244C179.021 98.244 181.814 101.038 181.814 104.479V104.695C181.814 106.913 180.633 108.965 178.718 110.081L168.408 115.985L165.557 120.888C165.024 121.802 164.052 122.364 162.994 122.364H153.986C153.986 122.364 153.958 120.73 155.758 120.182C157.558 119.635 157.86 117.857 157.86 117.857C157.86 117.857 156.967 118.548 155.189 117.893L158.616 112.975C159.25 112.061 160.294 111.514 161.41 111.514H162.958Z" fill="#E57281"/>
<path d="M165.78 117.043L163.512 120.938C163.087 121.666 162.317 122.112 161.474 122.112" stroke="#9A3B82" stroke-width="4" stroke-miterlimit="10" stroke-linecap="round"/>
<path d="M163.353 117.043L161.085 120.938C160.661 121.666 159.89 122.112 159.048 122.112" stroke="#9A3B82" stroke-width="4" stroke-miterlimit="10" stroke-linecap="round"/>
<path d="M160.927 117.043L158.659 120.938C158.234 121.666 157.464 122.112 156.622 122.112" stroke="#9A3B82" stroke-width="4" stroke-miterlimit="10" stroke-linecap="round"/>
<path d="M162.958 111.514H164.592" stroke="#9A3B82" stroke-width="4" stroke-miterlimit="10" stroke-linecap="round"/>
<path d="M151.546 104.882C151.474 104.926 151.474 105.034 151.546 105.077C151.762 105.199 151.906 105.437 151.906 105.71V106.402C151.906 106.675 151.762 106.906 151.546 107.035C151.474 107.078 151.474 107.186 151.546 107.23C151.762 107.352 151.906 107.59 151.906 107.863V108.554C151.906 108.828 151.762 109.058 151.546 109.188C151.474 109.231 151.474 109.339 151.546 109.382C151.762 109.505 151.906 109.742 151.906 110.016V110.707C151.906 111.11 151.589 111.434 151.193 111.434H117.015C112.522 111.434 108.835 107.626 109.764 103.133C110.47 99.72 113.415 97.3944 116.683 97.3944C117.209 97.3944 117.749 97.4592 118.289 97.5816L142.661 102.852H151.085C151.538 102.852 151.906 103.226 151.906 103.687V104.263C151.906 104.515 151.762 104.753 151.546 104.882Z" fill="#E57281"/>
<path d="M151.438 104.976H147.607" stroke="#9A3B82" stroke-width="4" stroke-miterlimit="10" stroke-linecap="round"/>
<path d="M151.438 107.122H147.607" stroke="#9A3B82" stroke-width="4" stroke-miterlimit="10" stroke-linecap="round"/>
<path d="M151.438 109.267H147.607" stroke="#9A3B82" stroke-width="4" stroke-miterlimit="10" stroke-linecap="round"/>
<path d="M144.792 102.866C144.792 102.866 139.378 94.9248 140.868 94.7808C142.359 94.6368 146.189 102.83 146.189 102.83L144.792 102.866Z" fill="white"/>
<path d="M158.177 84.9384C158.191 85.4784 157.975 85.968 157.622 86.3208C157.277 86.6664 156.802 86.8752 156.283 86.8752H154.663C154.382 89.8992 151.848 92.2608 148.752 92.2608H147.017C143.928 92.2608 141.386 89.8992 141.106 86.8752H139.478C138.953 86.8752 138.478 86.6664 138.139 86.3208C137.787 85.968 137.571 85.4784 137.585 84.9384C137.607 83.9016 138.485 83.0808 139.522 83.0808H141.084V82.008C141.084 80.676 142.164 79.6032 143.489 79.6032H152.28C153.612 79.6032 154.685 80.6832 154.685 82.008V83.0808H156.24C157.284 83.0808 158.155 83.9016 158.177 84.9384Z" fill="#E57281"/>
<path d="M155.282 86.04C155.282 85.2192 155.945 84.5568 156.766 84.5568" stroke="#9A3B82" stroke-width="5" stroke-miterlimit="10" stroke-linecap="round"/>
<path d="M149.861 86.2416C149.861 86.2416 151.366 85.9392 152.266 86.8176" stroke="#9A3B82" stroke-width="5" stroke-miterlimit="10" stroke-linecap="round"/>
<path d="M143.136 86.4648C143.136 86.4648 144.115 85.6512 145.469 86.2488C146.275 86.6016 146.686 87.9624 146.808 89.5393C146.808 89.5393 147.579 90.3601 148.875 89.5393" stroke="#9A3B82" stroke-width="5" stroke-miterlimit="10" stroke-linecap="round"/>
<path d="M140.335 86.04C140.335 85.2192 139.673 84.5568 138.852 84.5568" stroke="#9A3B82" stroke-width="5" stroke-miterlimit="10" stroke-linecap="round"/>
<path d="M144.929 88.776C145.08 88.776 145.203 88.5407 145.203 88.2504C145.203 87.9601 145.08 87.7248 144.929 87.7248C144.778 87.7248 144.655 87.9601 144.655 88.2504C144.655 88.5407 144.778 88.776 144.929 88.776Z" fill="#9A3B82"/>
<path d="M150.617 88.776C150.768 88.776 150.891 88.5407 150.891 88.2504C150.891 87.9601 150.768 87.7248 150.617 87.7248C150.466 87.7248 150.344 87.9601 150.344 88.2504C150.344 88.5407 150.466 88.776 150.617 88.776Z" fill="#9A3B82"/>
<path d="M165.701 79.2504C164.175 82.0152 160.697 83.016 157.939 81.4896C157.471 81.2304 157.054 80.9136 156.687 80.5608C156.363 82.0656 155.844 83.0952 155.844 83.0952C155.844 83.0952 155.117 83.3904 153.843 83.6928C154.001 83.1744 154.375 81.3312 152.611 79.6248C152.611 79.6248 153.835 82.0512 152.05 83.9592C152.014 83.9952 151.978 84.0384 151.949 84.0744C148.954 84.5568 144.519 84.7368 139.666 83.0952C139.666 83.0952 137.844 80.1 138.744 76.9536C138.211 77.112 137.643 77.1984 137.052 77.1984C133.769 77.1984 131.105 74.5344 131.105 71.2512C131.105 67.968 133.769 65.3041 137.052 65.3041C140.335 65.3041 142.999 67.968 142.999 71.2512C142.999 71.6328 142.963 72.0072 142.891 72.3744C147.211 70.128 153.281 71.5032 155.578 73.9584C155.614 73.8792 155.657 73.8072 155.693 73.7352C157.219 70.9704 160.697 69.9696 163.455 71.496C166.219 73.008 167.227 76.4856 165.701 79.2504Z" fill="#FFCF2D"/>
<path d="M145.814 68.3424C145.382 68.004 144.965 67.9104 144.562 68.076C143.971 68.3136 143.467 69.1128 143.071 70.4592C143.014 70.6392 143.042 70.6032 142.999 70.776C142.992 69.6744 142.697 69.1344 142.279 68.7528C141.977 68.4792 141.581 68.4 141.106 68.5224C140.846 68.5944 140.659 68.7528 140.587 68.9904C140.429 69.4656 140.688 70.2432 141.386 71.3592C141.746 71.9352 142.121 72.4464 142.308 72.684L138.485 76.9464C138.406 77.0328 138.413 77.1696 138.499 77.2488C138.542 77.2848 138.593 77.3064 138.643 77.3064C138.701 77.3064 138.758 77.2848 138.802 77.2344L142.74 72.8424L142.747 72.8352L143.006 72.54C143.15 72.4464 143.842 72.0216 144.54 71.4456C145.613 70.5672 146.182 69.8184 146.218 69.2064C146.246 68.868 146.102 68.5728 145.814 68.3424ZM140.998 69.1272C141.019 69.0624 141.062 68.9832 141.221 68.94C141.329 68.9112 141.43 68.8968 141.523 68.8968C141.71 68.8968 141.862 68.9544 141.991 69.0696C142.567 69.5952 142.538 71.1792 142.438 72.1512C141.689 71.1288 140.818 69.6816 140.998 69.1272ZM145.793 69.1848C145.742 70.0416 144.13 71.2872 143.165 71.9352C143.381 70.7832 143.906 68.8032 144.727 68.472C144.799 68.4432 144.878 68.4288 144.958 68.4288C145.145 68.4288 145.339 68.5152 145.548 68.6808C145.728 68.8248 145.807 68.9832 145.793 69.1848Z" fill="#FE5244"/>
<path d="M158.811 70.884C158.451 70.5384 158.069 70.416 157.666 70.5168C157.104 70.6536 156.543 71.2368 156.003 72.252C155.895 72.4536 155.794 72.6552 155.714 72.8424C155.7 72.5688 155.679 72.2592 155.635 71.9352C155.47 70.6176 155.117 69.7896 154.591 69.48C154.224 69.264 153.785 69.2928 153.302 69.5808C152.971 69.7752 152.784 70.056 152.762 70.4016C152.676 71.64 154.721 73.3896 155.275 73.8432L156.636 80.64C156.658 80.7408 156.744 80.8128 156.845 80.8128C156.859 80.8128 156.874 80.8128 156.888 80.8056C157.003 80.784 157.083 80.6688 157.054 80.5536L155.729 73.9296C155.945 73.8432 156.579 73.5696 157.234 73.2096C158.357 72.5904 158.947 72.0504 159.041 71.5608C159.07 71.3808 159.055 71.1288 158.811 70.884ZM155.246 73.26C154.418 72.54 153.13 71.2296 153.18 70.4232C153.194 70.2216 153.295 70.0632 153.511 69.9408C153.72 69.8184 153.9 69.7608 154.058 69.7608C154.166 69.7608 154.267 69.7896 154.361 69.84C154.757 70.0704 155.052 70.8336 155.196 71.9784C155.254 72.4464 155.275 72.8928 155.282 73.224C155.275 73.2312 155.261 73.2456 155.246 73.26ZM158.616 71.4744C158.508 72.036 157.075 72.8496 155.952 73.3536C156.319 72.4752 157.025 71.1144 157.767 70.9344C157.817 70.92 157.867 70.9128 157.925 70.9128C158.119 70.9128 158.314 71.0064 158.515 71.1936C158.631 71.316 158.631 71.4096 158.616 71.4744Z" fill="#FE5244"/>
</svg>
