<svg width="400" height="400" viewBox="0 0 400 400" fill="none" xmlns="http://www.w3.org/2000/svg">
<path d="M200 400C310.457 400 400 310.457 400 200C400 89.543 310.457 0 200 0C89.543 0 0 89.543 0 200C0 310.457 89.543 400 200 400Z" fill="#FAEFE9"/>
<g clip-path="url(#clip0_42_1290)">
<path d="M36.2265 136.059C57.5254 136.059 64.7139 150.48 64.7139 160.501C64.7139 181.4 60.1832 176.74 60.1832 198.339C60.1832 221.553 89.9628 250.864 89.9628 290.959C89.9628 345.772 42.0548 353.808 36.2265 353.808C6.01784 353.808 -5.20447 320.609 -5.20447 300.468C-5.20447 276.606 15.838 251.062 15.838 228.063C15.838 211.239 10.3341 204.703 10.3341 178.621C10.3341 152.392 25.5483 136.059 36.2265 136.059Z" fill="#73E5E2"/>
<path d="M34.636 399.216V170.574" stroke="#FBDC8E" stroke-width="3" stroke-miterlimit="10" stroke-linecap="round"/>
<path d="M34.636 318.969L70.1079 282.662" stroke="#FBDC8E" stroke-width="3" stroke-miterlimit="10" stroke-linecap="round"/>
<path d="M33.7519 217.08L22.3256 205.669" stroke="#FBDC8E" stroke-width="3" stroke-miterlimit="10" stroke-linecap="round"/>
<path d="M34.636 186.473L50.5879 170.548" stroke="#FBDC8E" stroke-width="3" stroke-miterlimit="10" stroke-linecap="round"/>
</g>
<path d="M250.268 171.175H153.167V262.944H250.268V171.175Z" stroke="#66B0F0" stroke-width="6" stroke-miterlimit="10"/>
<path d="M201.717 171.175H153.167V262.944H201.717V171.175Z" stroke="#66B0F0" stroke-width="6" stroke-miterlimit="10"/>
<path d="M250.268 171.175H201.717V262.944H250.268V171.175Z" stroke="#66B0F0" stroke-width="6" stroke-miterlimit="10"/>
<path d="M241.308 180.052H211.703V209.658H241.308V180.052Z" stroke="#66B0F0" stroke-width="6" stroke-miterlimit="10"/>
<path d="M231.041 194.29L227.599 196.892" stroke="#66B0F0" stroke-width="6" stroke-miterlimit="10" stroke-linecap="round"/>
<path d="M222.803 200.52L211.703 208.914V202.743L241.301 180.796V186.535L233.323 192.565" stroke="#66B0F0" stroke-width="6" stroke-miterlimit="10" stroke-linecap="round"/>
<path d="M153.167 171.175H201.717V178.275L153.167 171.175Z" fill="#66B0F0"/>
<path d="M213.844 229.829C213.509 229.829 213.197 229.65 213.026 229.353L205.926 216.937C205.569 216.312 206.022 215.524 206.744 215.524C207.078 215.524 207.39 215.702 207.561 216L214.662 228.416C215.019 229.048 214.565 229.829 213.844 229.829Z" stroke="#66B0F0" stroke-width="6" stroke-miterlimit="10"/>
<path d="M191.613 180.052H162.007V209.658H191.613V180.052Z" stroke="#66B0F0" stroke-width="6" stroke-miterlimit="10"/>
<path d="M162.007 202.743L191.606 180.796" stroke="#66B0F0" stroke-width="6" stroke-miterlimit="10" stroke-linecap="round"/>
<path d="M189.465 229.829C189.799 229.829 190.112 229.65 190.283 229.353L197.383 216.937C197.74 216.312 197.286 215.524 196.565 215.524C196.23 215.524 195.918 215.702 195.747 216L188.647 228.416C188.29 229.048 188.744 229.829 189.465 229.829Z" stroke="#66B0F0" stroke-width="6" stroke-miterlimit="10"/>
<path d="M326.208 352.275L76.0892 366.402V346.305H326.208V352.275Z" fill="#D0F0E4"/>
<path d="M314.81 330.729L89.0706 344.855V324.759H314.81V330.729Z" fill="#D0F0E4"/>
<path d="M300.275 309.257L101.256 323.383V303.286H300.275V309.257Z" fill="#D0F0E4"/>
<path d="M288.818 287.933L114.833 302.06V281.963H288.818V287.933Z" fill="#D0F0E4"/>
<path d="M76.0892 346.305H326.208V365.658" stroke="#66B0F0" stroke-width="6" stroke-miterlimit="10"/>
<path d="M89.0706 324.684H314.81V344.863" stroke="#66B0F0" stroke-width="6" stroke-miterlimit="10"/>
<path d="M101.256 303.212H300.275V323.383" stroke="#66B0F0" stroke-width="6" stroke-miterlimit="10"/>
<path d="M114.907 281.889H288.818V302.06" stroke="#66B0F0" stroke-width="6" stroke-miterlimit="10"/>
<path d="M273.205 267.784L130.454 280.164V262.55H273.205V267.784Z" fill="#D0F0E4"/>
<path d="M130.513 262.483H273.205V280.164" stroke="#66B0F0" stroke-width="6" stroke-miterlimit="10"/>
<path d="M114.848 302.892V256.483" stroke="#66B0F0" stroke-width="6" stroke-miterlimit="10"/>
<path d="M153.264 224.996L65.9405 296.528C62.8847 299.584 61.1672 303.725 61.1672 308.045C61.1672 317.041 68.4609 324.706 77.4572 324.706" stroke="#66B0F0" stroke-width="6" stroke-miterlimit="10"/>
<path d="M88.8475 344.862V277.717" stroke="#66B0F0" stroke-width="6" stroke-miterlimit="10"/>
<path d="M288.818 303.041V256.483" stroke="#66B0F0" stroke-width="6" stroke-miterlimit="10"/>
<path d="M250.401 224.996L337.732 296.528C340.788 299.584 342.505 303.725 342.505 308.045C342.505 317.041 335.212 324.706 326.216 324.706" stroke="#66B0F0" stroke-width="6" stroke-miterlimit="10"/>
<path d="M314.825 344.862V277.717" stroke="#66B0F0" stroke-width="6" stroke-miterlimit="10"/>
<path d="M302.967 366.81C302.967 366.81 312.699 349.346 306.788 349.249C304.03 349.204 301.205 358.654 302.275 366.81H302.967Z" fill="#3FB1B5"/>
<path d="M302.543 366.714C302.543 366.714 306.156 350.364 314.885 353.004C323.613 355.643 308.714 366.714 308.714 366.714" stroke="#FFCF2D" stroke-width="6" stroke-miterlimit="10" stroke-linecap="round"/>
<path d="M290.862 366.996C287.836 366.714 286.126 361.301 289.71 359.494C294.862 356.9 296.476 362.32 295.457 362.498C294.439 362.684 293.004 355.829 297.45 356.015C301.896 356.201 302.06 366.714 302.06 366.714" stroke="#FFCF2D" stroke-width="6" stroke-miterlimit="10" stroke-linecap="round"/>
<path d="M306.201 366.714C306.201 366.714 310.848 355.428 315.376 353.175" stroke="#FFCF2D" stroke-width="6" stroke-miterlimit="10" stroke-linecap="round"/>
<path d="M301.249 360.855C301.249 360.855 300.156 354.796 300.112 350.81" stroke="#FFCF2D" stroke-width="6" stroke-miterlimit="10"/>
<path d="M302.572 353.509C302.357 354.045 300.691 355.376 300.691 355.376C300.691 355.376 300.424 353.257 300.639 352.721C300.855 352.186 301.465 351.933 301.993 352.149C302.528 352.364 302.788 352.974 302.572 353.509Z" stroke="#FFCF2D" stroke-width="6" stroke-miterlimit="10"/>
<path d="M302.015 349.249C301.799 349.784 300.134 351.115 300.134 351.115C300.134 351.115 299.866 348.996 300.082 348.461C300.297 347.926 300.907 347.673 301.435 347.889C301.97 348.112 302.23 348.714 302.015 349.249Z" stroke="#FFCF2D" stroke-width="6" stroke-miterlimit="10"/>
<path d="M298.178 353.978C298.491 354.461 300.379 355.45 300.379 355.45C300.379 355.45 300.238 353.324 299.926 352.84C299.613 352.357 298.967 352.223 298.483 352.535C298 352.855 297.866 353.495 298.178 353.978Z" stroke="#FFCF2D" stroke-width="6" stroke-miterlimit="10"/>
<path d="M86.5799 367.115C86.5799 367.115 80.6022 361.718 80.7211 357.844C80.8549 353.413 85.0929 355.554 85.3159 353.955C85.5464 352.364 80.8401 341.48 87.3903 341.561C93.9405 341.643 90.8921 352.082 92.6691 353.048C94.446 354.007 97.3903 352.863 96.5947 357.086C95.7992 361.316 89.1821 367.063 89.1821 367.063L86.5799 367.115Z" fill="#3FB1B5"/>
<path d="M68.632 366.981C64.7584 366.981 61.777 359.903 67.7473 358.03C73.7175 356.156 74.3718 361.799 73.0707 362.015C71.7696 362.231 71.1227 351.175 81.8662 352.677C93.5911 354.312 86.4238 366.981 86.4238 366.981C86.4238 366.981 93.3383 355.353 86.9814 341.732" stroke="#FFCF2D" stroke-width="6" stroke-miterlimit="10" stroke-linecap="round"/>
<path d="M94.5427 366.981C94.5427 366.981 100.61 354.283 106.431 358.327C112.253 362.372 98.5873 366.981 98.5873 366.981" stroke="#FFCF2D" stroke-width="6" stroke-miterlimit="10" stroke-linecap="round"/>
<path d="M96.7286 366.87C96.7286 366.87 102.625 358.989 106.513 358.409" stroke="#FFCF2D" stroke-width="6" stroke-miterlimit="10" stroke-linecap="round"/>
<path d="M89.2864 366.907C89.2864 366.907 92.476 359.479 95.3013 355.078" stroke="#FFCF2D" stroke-width="6" stroke-miterlimit="10" stroke-linecap="round"/>
<path d="M96.0521 359.807C95.4275 360.238 92.6394 360.498 92.6394 360.498C92.6394 360.498 93.881 357.985 94.4981 357.554C95.1227 357.123 95.9703 357.279 96.4015 357.903C96.8327 358.528 96.6766 359.383 96.0521 359.807Z" stroke="#FFCF2D" stroke-width="6" stroke-miterlimit="10"/>
<path d="M98.5207 354.736C97.8961 355.167 95.108 355.427 95.108 355.427C95.108 355.427 96.3497 352.914 96.9668 352.483C97.5913 352.052 98.4389 352.208 98.8701 352.833C99.3013 353.457 99.1452 354.312 98.5207 354.736Z" stroke="#FFCF2D" stroke-width="6" stroke-miterlimit="10"/>
<path d="M99.554 350.431C99.1525 351.071 96.6915 352.409 96.6915 352.409C96.6915 352.409 96.8328 349.613 97.2417 348.974C97.6432 348.335 98.4908 348.141 99.1302 348.543C99.7696 348.944 99.9555 349.792 99.554 350.431Z" stroke="#FFCF2D" stroke-width="6" stroke-miterlimit="10"/>
<path d="M90.8924 357.145C90.8849 357.903 92.2381 360.357 92.2381 360.357C92.2381 360.357 93.621 357.918 93.6284 357.167C93.6358 356.409 93.0262 355.792 92.2678 355.792C91.5169 355.784 90.8998 356.387 90.8924 357.145Z" stroke="#FFCF2D" stroke-width="6" stroke-miterlimit="10"/>
<path d="M93.6581 352.134C93.6507 352.892 95.0038 355.346 95.0038 355.346C95.0038 355.346 96.3867 352.907 96.3942 352.156C96.4016 351.398 95.7919 350.781 95.0336 350.781C94.2752 350.781 93.6655 351.383 93.6581 352.134Z" stroke="#FFCF2D" stroke-width="6" stroke-miterlimit="10"/>
<path d="M272.067 366.996H334.729" stroke="#66B0F0" stroke-width="6" stroke-miterlimit="10"/>
<path d="M58.9889 366.996H210.171" stroke="#66B0F0" stroke-width="6" stroke-miterlimit="10"/>
<path d="M196.416 224.253C196.416 224.714 196.364 225.167 196.268 225.613C196.245 225.703 196.223 225.792 196.201 225.881C195.963 226.773 195.532 227.621 194.915 228.342C194.907 228.349 194.9 228.364 194.892 228.372C194.825 228.454 194.751 228.528 194.677 228.61C194.662 228.632 194.639 228.647 194.625 228.662C194.379 228.914 194.104 229.152 193.807 229.368C193.286 229.747 192.736 230.03 192.164 230.23C192.074 230.26 191.985 230.29 191.896 230.32C191.093 230.558 190.253 230.632 189.435 230.543C189.346 230.535 189.257 230.52 189.167 230.506C188.297 230.372 187.457 230.067 186.706 229.584C186.617 229.524 186.528 229.465 186.439 229.405C186.112 229.175 185.807 228.907 185.524 228.61C185.442 228.52 185.361 228.439 185.286 228.342C185.13 228.156 184.974 227.955 184.84 227.747L184.372 227.041L184.788 228.342L184.87 228.61L185.651 231.071L185.732 231.338L186.439 233.569L186.513 233.799L186.595 234.067L186.706 234.409L187.375 236.528L187.457 236.796L188.238 239.257L188.32 239.524L189.1 241.985L189.16 242.178L189.182 242.253L189.428 243.019L189.472 243.16C189.465 243.13 189.45 243.1 189.428 243.071C189.375 242.996 189.286 242.929 189.16 242.87C188.736 242.662 187.888 242.506 186.699 242.416C186.61 242.409 186.52 242.401 186.431 242.394C185.717 242.349 184.9 242.32 183.97 242.305C183.881 242.305 183.792 242.305 183.703 242.305C182.944 242.297 182.126 242.305 181.242 242.327C181.152 242.327 181.063 242.335 180.974 242.335C180.193 242.357 179.375 242.387 178.513 242.424C178.424 242.431 178.335 242.431 178.245 242.439C177.457 242.476 176.639 242.52 175.784 242.572C175.695 242.58 175.606 242.58 175.517 242.587C174.721 242.639 173.903 242.691 173.056 242.758C172.967 242.766 172.877 242.773 172.788 242.781C171.985 242.84 171.167 242.907 170.327 242.981C170.245 242.989 170.164 242.996 170.082 243.004C170.074 243.004 170.067 243.004 170.059 243.004C169.227 243.078 168.401 243.152 167.599 243.234C167.509 243.242 167.42 243.249 167.331 243.264C166.491 243.346 165.665 243.435 164.87 243.532C164.781 243.539 164.691 243.554 164.602 243.561C163.755 243.658 162.929 243.762 162.141 243.874C162.052 243.888 161.963 243.896 161.874 243.911C161.011 244.03 160.193 244.149 159.413 244.268C159.323 244.283 159.234 244.297 159.145 244.312C158.297 244.446 157.509 244.587 156.773 244.721C156.743 244.729 156.714 244.736 156.684 244.736C156.595 244.751 156.506 244.773 156.416 244.788C156.082 244.855 155.762 244.922 155.457 244.989C154.907 245.108 154.409 245.227 153.955 245.346C153.866 245.368 153.777 245.39 153.688 245.42C152.126 245.844 151.242 246.26 151.242 246.632V235.955H143.041C142.952 235.955 142.862 235.955 142.773 235.948C141.911 235.918 141.086 235.755 140.312 235.487C140.223 235.457 140.134 235.42 140.045 235.39C139.234 235.071 138.483 234.632 137.814 234.089C137.74 234.03 137.658 233.963 137.584 233.896C137.554 233.874 137.532 233.851 137.502 233.822C137.442 233.77 137.375 233.71 137.316 233.651C137.264 233.606 137.219 233.554 137.167 233.502C136.543 232.877 136.015 232.156 135.613 231.353C135.569 231.264 135.524 231.175 135.487 231.085C135.13 230.32 134.892 229.494 134.788 228.625C134.773 228.535 134.766 228.446 134.758 228.357C134.736 228.104 134.721 227.851 134.721 227.591C134.721 227.019 134.781 226.446 134.892 225.896C134.907 225.807 134.929 225.717 134.952 225.628C135.16 224.758 135.509 223.933 135.985 223.167C136.03 223.1 136.074 223.026 136.119 222.959L136.156 222.9L137.309 221.167L137.576 220.766L137.799 220.439L137.978 220.171L139.621 217.71L139.799 217.442L140.045 217.078L140.312 216.677L141.442 214.981L141.621 214.714L142.773 212.981L143.041 212.58L143.257 212.253L143.435 211.985L145.078 209.524L145.257 209.256L145.301 209.19C145.368 209.093 145.435 209.004 145.502 208.907C145.591 208.788 145.68 208.677 145.77 208.558C146.29 207.903 146.87 207.316 147.509 206.796C147.621 206.706 147.732 206.617 147.844 206.528C147.97 206.431 148.104 206.335 148.23 206.245C148.32 206.186 148.409 206.126 148.498 206.067C149.264 205.554 150.097 205.138 150.959 204.818C151.048 204.788 151.138 204.751 151.227 204.721C152.022 204.446 152.848 204.26 153.688 204.164C153.777 204.156 153.866 204.141 153.955 204.134C154.327 204.097 154.706 204.082 155.086 204.082H175.926L175.948 204.074L176.632 203.807L178.238 203.182L178.506 203.078L180.967 202.119L181.234 202.015L182.967 201.346L183.651 201.078L183.695 201.056L183.963 200.952L184.424 200.773L184.587 201.078L184.736 201.346L186.082 203.807L186.23 204.074L186.424 204.431L186.691 204.922L187.576 206.535L187.725 206.803L189.071 209.264L189.152 209.42L189.212 209.532L189.42 209.903L190.558 211.993L190.706 212.26L191.881 214.409L192.052 214.721L192.149 214.892L192.201 214.989L193.546 217.45L193.695 217.717L194.61 219.39L194.877 219.881L195.041 220.178L195.19 220.446L195.628 221.249C195.918 221.784 196.126 222.342 196.253 222.907C196.275 222.996 196.29 223.085 196.305 223.175C196.387 223.517 196.416 223.888 196.416 224.253Z" fill="#FE5244"/>
<path d="M170.758 248.401C158.178 249.375 151.279 248.186 151.271 246.61C151.271 245.479 159.576 243.911 170.104 242.996C181.219 242.037 189.145 242.082 189.487 243.16C189.963 244.662 183.784 247.39 170.758 248.401Z" fill="#E57281"/>
<path d="M192.647 303.331L175.457 303.338L176.61 299.658H192.573L192.647 303.331Z" stroke="#FE5244" stroke-width="5" stroke-miterlimit="10"/>
<path d="M196.662 260.773C199.323 265.175 200.089 270.468 198.796 275.442L193.234 296.803L192.491 299.658H176.617L177.792 295.918L184.401 274.498L165.48 243.45C166.952 243.286 168.498 243.13 170.097 242.996C176.654 242.431 182.097 242.216 185.532 242.349L196.662 260.773Z" stroke="#9A3B82" stroke-width="6" stroke-miterlimit="10" stroke-linecap="round"/>
<path d="M215.755 303.331L192.647 303.338L192.573 299.636L192.587 299.658L205.301 293.762C212.476 295.985 215.576 299.219 216.885 301.301C217.435 302.186 216.796 303.331 215.755 303.331Z" stroke="#FE5244" stroke-width="5" stroke-miterlimit="10"/>
<path d="M205.301 293.762L192.587 299.658L158.788 253.398C157.673 251.874 156.803 250.208 156.193 248.446C155.807 247.331 155.524 246.178 155.353 245.004C158.781 244.253 164.082 243.517 170.104 242.996C171.621 242.862 173.071 242.751 174.454 242.662L177.472 247.658L205.301 293.762Z" stroke="#9A3B82" stroke-width="6" stroke-miterlimit="10" stroke-linecap="round"/>
<path d="M168.074 247.45L197.918 296.9" stroke="#9A3B82" stroke-width="6" stroke-miterlimit="10" stroke-linecap="round"/>
<path d="M165.963 245.532C165.963 245.532 165.74 250.989 161.026 252.915" stroke="#9A3B82" stroke-width="6" stroke-miterlimit="10" stroke-linecap="round"/>
<path d="M185.539 242.349L187.249 245.19C185.279 246.067 182.03 246.974 177.465 247.651C175.48 247.948 173.242 248.201 170.751 248.394C169.495 248.491 168.297 248.565 167.16 248.625C162.521 248.855 158.833 248.751 156.186 248.446C155.799 247.331 155.517 246.179 155.346 245.004C155.346 245.004 162.773 243.591 170.446 242.967C178.119 242.342 185.539 242.349 185.539 242.349Z" fill="#9A3B82"/>
<path d="M170.87 204.067H160.885L162.26 196.818H170.87V204.067Z" fill="#FFCF2D"/>
<path d="M163.368 204.067H160.885L162.26 196.818H170.87V199.375L163.368 204.067Z" fill="#E57281"/>
<path d="M162.223 197.903C162.223 197.903 163.591 190.126 163.769 189.688C164.074 188.944 170.372 186.55 171.338 187.435C172.305 188.32 170.349 189.108 171.398 189.026C172.446 188.944 175.606 186.595 176.929 188.387C177.732 189.48 175.145 191.056 173.487 191.375C171.829 191.695 167.167 194.193 167.056 195.078C166.944 195.963 165.45 197.732 162.223 197.903Z" stroke="#FFCF2D" stroke-width="5" stroke-miterlimit="10"/>
<path d="M173.487 191.242V197.829C173.487 198.855 172.654 199.68 171.636 199.68H169.279C168.052 199.68 167.063 198.684 167.063 197.457V196.81H165.918C165.546 196.81 165.212 196.662 164.967 196.416C164.721 196.171 164.573 195.836 164.573 195.465C164.573 194.721 165.175 194.119 165.918 194.119H167.212C167.554 193.048 168.454 192.216 169.606 191.993L173.487 191.242Z" fill="#FFCF2D"/>
<path d="M166.796 195.755C166.796 195.145 166.431 194.692 165.829 194.788" stroke="#E57281" stroke-width="4" stroke-miterlimit="10" stroke-linecap="round"/>
<path d="M171.063 193.628C171.063 193.628 171.836 193.19 172.706 193.108" stroke="#E57281" stroke-width="4" stroke-miterlimit="10" stroke-linecap="round"/>
<path d="M172.134 195.063C172.298 195.063 172.431 194.847 172.431 194.58C172.431 194.313 172.298 194.097 172.134 194.097C171.97 194.097 171.836 194.313 171.836 194.58C171.836 194.847 171.97 195.063 172.134 195.063Z" fill="#E57281"/>
<path d="M164.141 221.346L162.721 217.591C162.625 217.338 162.476 217.115 162.297 216.944C162 216.654 161.599 216.476 161.182 216.446C161.048 216.439 160.914 216.439 160.788 216.461C160.662 216.476 160.535 216.513 160.416 216.557L159.123 217.048L158.81 217.167L157.621 217.621L157.309 217.74L155.45 218.446L155.137 218.565L153.94 219.018L153.628 219.137L152.223 219.673L152.089 219.903L151.955 220.134L153.762 219.45L154.074 219.331L157.427 218.059L157.74 217.94L160.424 216.922L160.52 216.885C160.565 216.87 160.61 216.855 160.654 216.84C160.743 216.818 160.825 216.803 160.914 216.795C160.959 216.795 160.996 216.788 161.041 216.788C161.628 216.788 162.186 217.145 162.409 217.732L166.178 227.68L164.729 228.23L164.572 228.29L164.416 228.349L163.271 228.781V229.137L164.535 228.662L166.602 227.874L164.141 221.346Z" fill="#3FB1B5"/>
<path d="M166.394 227.754L164.632 228.424L160.558 217.68C160.372 217.197 160.617 216.654 161.1 216.468C161.584 216.282 162.126 216.528 162.312 217.011L166.394 227.754Z" fill="#3FB1B5"/>
<path d="M164.535 228.632L160.401 217.732C160.186 217.16 160.476 216.52 161.041 216.305C161.316 216.201 161.621 216.208 161.888 216.327C162.156 216.446 162.364 216.669 162.468 216.944L166.602 227.844L164.535 228.632ZM161.442 216.572C161.353 216.572 161.256 216.587 161.167 216.624C160.766 216.773 160.565 217.227 160.721 217.621L164.736 228.208L166.186 227.658L162.171 217.07C162.097 216.877 161.955 216.721 161.762 216.639C161.658 216.595 161.546 216.572 161.442 216.572Z" fill="#3FB1B5"/>
<path d="M158.468 218.81C158.29 218.81 158.097 218.743 157.918 218.617C157.665 218.439 157.465 218.163 157.338 217.836C157.212 217.509 157.182 217.16 157.256 216.862C157.331 216.543 157.517 216.312 157.769 216.216C158.282 216.022 158.892 216.431 159.16 217.145C159.19 217.234 159.152 217.331 159.063 217.361C158.974 217.39 158.877 217.353 158.848 217.264C158.647 216.743 158.208 216.409 157.881 216.528C157.732 216.587 157.621 216.729 157.576 216.937C157.524 217.167 157.546 217.442 157.651 217.71C157.755 217.978 157.918 218.201 158.111 218.342C158.29 218.468 158.468 218.505 158.617 218.446C158.706 218.416 158.803 218.453 158.833 218.543C158.862 218.632 158.825 218.728 158.736 218.758C158.647 218.795 158.558 218.81 158.468 218.81Z" fill="#3FB1B5"/>
<path d="M154.773 220.156C154.595 220.156 154.401 220.089 154.223 219.963C153.97 219.784 153.769 219.509 153.643 219.182C153.517 218.855 153.487 218.506 153.561 218.208C153.636 217.888 153.822 217.658 154.074 217.561C154.327 217.465 154.617 217.517 154.885 217.703C155.137 217.881 155.338 218.156 155.465 218.483C155.494 218.572 155.457 218.669 155.368 218.699C155.279 218.729 155.182 218.691 155.152 218.602C155.048 218.335 154.885 218.111 154.691 217.97C154.513 217.844 154.335 217.807 154.186 217.866C154.037 217.926 153.926 218.067 153.881 218.275C153.829 218.506 153.851 218.781 153.955 219.048C154.059 219.316 154.223 219.539 154.416 219.68C154.595 219.807 154.773 219.844 154.922 219.784C155.011 219.755 155.108 219.792 155.137 219.881C155.167 219.97 155.13 220.067 155.041 220.097C154.952 220.141 154.862 220.156 154.773 220.156Z" fill="#3FB1B5"/>
<path d="M163.294 235.926C164.337 235.926 165.182 233.619 165.182 230.773C165.182 227.928 164.337 225.621 163.294 225.621C162.251 225.621 161.405 227.928 161.405 230.773C161.405 233.619 162.251 235.926 163.294 235.926Z" fill="#73325A"/>
<path d="M170.074 226.676V232.253C170.074 232.699 169.844 233.115 169.465 233.353L167.085 234.766H162.089C161.665 233.821 161.398 232.387 161.398 230.788C161.398 229.636 161.539 228.565 161.769 227.71H166.558L165.821 225.762C165.606 225.204 166.126 224.639 166.699 224.795L169.123 225.435C169.688 225.584 170.074 226.089 170.074 226.676Z" fill="#FFCF2D"/>
<path d="M169.94 230.513C169.94 230.959 169.71 231.375 169.331 231.613L167.085 233.026" stroke="#73325A" stroke-width="4" stroke-miterlimit="10" stroke-linecap="round"/>
<path d="M169.94 228.453C169.94 228.899 169.71 229.316 169.331 229.554L167.085 230.966" stroke="#73325A" stroke-width="4" stroke-miterlimit="10" stroke-linecap="round"/>
<path d="M169.94 226.52C169.94 226.966 169.71 227.383 169.331 227.621L167.085 229.033" stroke="#73325A" stroke-width="4" stroke-miterlimit="10" stroke-linecap="round"/>
<path d="M167.673 226.996L166.55 227.695" stroke="#73325A" stroke-width="4" stroke-miterlimit="10" stroke-linecap="round"/>
<path d="M165.182 230.773C165.182 232.379 164.914 233.814 164.491 234.758H162.089C161.665 233.814 161.398 232.379 161.398 230.773C161.398 229.621 161.539 228.55 161.769 227.695H164.803C165.041 228.55 165.182 229.621 165.182 230.773Z" fill="#E57281"/>
<path d="M176.201 194.416L183.249 203.167L179.249 207.227L170.394 200.312C170.134 200.059 170.342 199.39 170.877 198.558C171.264 197.948 171.822 197.256 172.498 196.572C173.175 195.888 173.859 195.316 174.461 194.922C175.279 194.387 175.941 194.171 176.201 194.416Z" fill="#3FB1B5" stroke="#3FB1B5" stroke-width="5" stroke-miterlimit="10" stroke-linecap="round"/>
<path d="M181.994 205.959C183.097 204.839 183.653 203.596 183.235 203.184C182.816 202.772 181.583 203.347 180.479 204.467C179.376 205.587 178.82 206.829 179.238 207.242C179.657 207.654 180.89 207.079 181.994 205.959Z" stroke="#3FB1B5" stroke-width="6" stroke-miterlimit="10"/>
<path d="M177.911 202.565V203.13C177.911 203.591 176.736 203.814 176.416 203.48L173.636 200.565C173.427 200.342 173.308 200.052 173.308 199.747V198.067C173.308 197.636 173.509 197.234 173.851 196.974L174.84 196.223C175.078 196.037 175.375 195.941 175.673 195.941H178.357C179.1 195.941 179.784 196.349 180.126 197.004L182.491 201.457H179.004C178.401 201.465 177.911 201.955 177.911 202.565Z" fill="#FFCF2D"/>
<path d="M182.439 201.465H179.085C178.476 201.465 177.978 201.963 177.978 202.573V203.138C177.978 203.599 176.937 203.822 176.617 203.487L173.531 200.275" stroke="#73325A" stroke-width="4" stroke-miterlimit="10" stroke-linecap="round"/>
<path d="M174.669 201.465C174.461 201.249 174.349 200.967 174.349 200.669V199.033C174.349 198.61 174.543 198.216 174.877 197.963L175.844 197.227C176.082 197.048 176.364 196.952 176.662 196.952H178.55" stroke="#73325A" stroke-width="4" stroke-miterlimit="10" stroke-linecap="round"/>
<path d="M175.74 202.595C175.531 202.379 175.42 202.097 175.42 201.799V200.164C175.42 199.74 175.613 199.346 175.948 199.093L176.914 198.357C177.152 198.178 177.435 198.082 177.732 198.082H179.42" stroke="#73325A" stroke-width="4" stroke-miterlimit="10" stroke-linecap="round"/>
<path d="M176.907 203.532C176.714 203.331 176.61 203.071 176.61 202.796V201.279C176.61 200.892 176.788 200.52 177.1 200.29L177.993 199.606C178.208 199.442 178.476 199.353 178.743 199.353H179.874" stroke="#73325A" stroke-width="4" stroke-miterlimit="10" stroke-linecap="round"/>
<path d="M234.439 259.249H263.569C269.457 259.249 274.959 262.149 278.29 266.996L291.636 286.654C292.736 288.253 291.74 290.431 289.799 290.431H274.944L269.011 282.677C268.312 281.695 266.766 282.126 266.669 283.331L265.472 297.933H233.703L231.026 283.085C230.862 281.926 229.361 281.569 228.684 282.528L223.234 289.546H205.472L219.331 267.584C222.61 262.394 228.312 259.249 234.439 259.249Z" stroke="#3FB1B5" stroke-width="6" stroke-miterlimit="10" stroke-linecap="round"/>
<path d="M252.186 266.833L256.907 282.513H245.242L250.424 266.833H252.186Z" fill="#FE5244"/>
<path d="M254.297 266.669L256.201 268.714L262.335 259.249H256.9L254.297 266.669Z" stroke="#3FB1B5" stroke-width="6" stroke-miterlimit="10" stroke-linecap="round"/>
<path d="M248.654 266.669L246.743 268.714L240.097 259.249H246.045L248.654 266.669Z" stroke="#3FB1B5" stroke-width="6" stroke-miterlimit="10" stroke-linecap="round"/>
<path d="M293.97 292.23C293.97 295.933 291.331 299.442 287.227 300.045L270.402 302.52L266.706 303.063V288.758L267.844 288.491L284.26 284.595C287.427 283.844 290.729 285.115 292.572 287.799C293.532 289.182 293.97 290.721 293.97 292.23Z" fill="#A0505A"/>
<path d="M270.401 302.52L266.706 303.063V288.758L267.844 288.491L270.401 302.52Z" fill="#73325A"/>
<path d="M266.706 306.721H231.338V285.494C231.338 283.844 232.677 282.513 234.32 282.513H263.718C265.368 282.513 266.699 283.851 266.699 285.494V306.721H266.706Z" fill="#FFCF2D"/>
<path d="M243.762 306.491L281.204 300.892C288.491 299.784 295.056 305.428 295.056 312.803C295.056 319.457 289.665 324.848 283.011 324.848H244.007L243.762 306.491Z" fill="#0096A0"/>
<path d="M238.699 328.126L216.164 332.476C213.294 333.086 210.409 330.691 210.283 327.599L209.948 319.375C209.777 315.212 213.77 312.706 217.532 314.491L238.699 328.126Z" stroke="#FE5244" stroke-width="6" stroke-miterlimit="10"/>
<path d="M217.688 332.178C214.915 332.758 212.112 330.431 211.978 327.42L211.628 319.435C211.45 315.39 215.301 312.981 218.944 314.721" stroke="#FE5244" stroke-width="6" stroke-miterlimit="10"/>
<path d="M217.532 314.483L238.699 328.126L233.874 329.056L217.532 314.483Z" fill="#FE5244"/>
<path d="M225.688 320.461L222.9 326.015L220.141 319.487L216.952 326.818" stroke="#FE5244" stroke-width="6" stroke-miterlimit="10" stroke-linejoin="round"/>
<path d="M216.796 318.468L219.918 326.26L222.974 320.037L225.346 325.227" stroke="#FE5244" stroke-width="6" stroke-miterlimit="10" stroke-linejoin="round"/>
<path d="M256.201 317.933C254.952 316.907 251.338 319.242 248.126 323.145C244.914 327.048 243.323 331.048 244.572 332.074C244.387 331.963 220.914 317.242 206.349 307.197C202.647 304.647 200.691 300.558 200.691 296.416C200.691 293.532 201.643 290.624 203.613 288.193C208.55 282.104 217.695 281.695 223.16 287.316L256.201 317.933Z" fill="#3FB1B5"/>
<path d="M252.639 326.858C255.85 322.955 257.44 318.957 256.191 317.929C254.941 316.902 251.325 319.233 248.115 323.137C244.904 327.041 243.314 331.038 244.563 332.066C245.813 333.094 249.428 330.762 252.639 326.858Z" fill="#FE5244"/>
<path d="M266.535 330.781L262.357 337.874C260.238 341.465 255.45 341.532 253.256 337.993L246.223 326.662C246.825 325.666 247.569 324.625 248.424 323.584C249.97 321.703 251.613 320.186 253.041 319.234L264.238 323.494C266.974 324.543 268.104 328.112 266.535 330.781Z" stroke="#FE5244" stroke-width="6" stroke-miterlimit="10"/>
<path d="M263.056 323.034C265.643 324.037 266.558 327.39 265.078 329.955L261.138 336.758C259.145 340.208 254.632 340.268 252.558 336.877" stroke="#FE5244" stroke-width="6" stroke-miterlimit="10"/>
<path d="M249.316 326.669L255.011 323.785L253.301 330.647L260.111 326.469" stroke="#FE5244" stroke-width="6" stroke-miterlimit="10" stroke-linejoin="round"/>
<path d="M255.465 333.398L257.234 325.405L251.427 328.268L252.32 322.959" stroke="#FE5244" stroke-width="6" stroke-miterlimit="10" stroke-linejoin="round"/>
<path d="M259.903 260.535C259.873 261.011 259.665 261.435 259.338 261.74C259.011 262.045 258.58 262.23 258.104 262.23H256.461L256.357 263.963C256.268 265.39 254.847 266.848 253.368 266.848H249.212C247.74 266.848 246.312 265.39 246.223 263.963L246.119 262.23H244.453C243.978 262.23 243.539 262.045 243.219 261.74C242.892 261.435 242.684 261.011 242.654 260.528C242.595 259.487 243.45 258.625 244.491 258.625H245.896L245.74 255.985C245.71 255.428 246.149 254.959 246.706 254.959H255.881C256.439 254.959 256.877 255.428 256.847 255.985L256.691 258.625H258.111C259.137 258.632 259.963 259.502 259.903 260.535Z" fill="#A0505A"/>
<path d="M256.684 258.624H258.178C258.178 258.624 259.606 253.442 258.23 252.111C256.855 250.781 248.409 247.717 245.68 249.628C243.688 251.026 244.773 258.624 244.773 258.624H245.874C245.874 258.624 250.312 255.442 251.011 255.717C251.71 255.993 249.004 257.331 249.546 257.591C251.576 258.565 255.227 255.033 256.067 255.033C256.907 255.033 256.684 258.624 256.684 258.624Z" fill="#73325A"/>
<path d="M254.803 259.911C254.803 259.911 253.829 259.123 252.58 259.636" stroke="#73325A" stroke-width="4" stroke-miterlimit="10" stroke-linecap="round"/>
<path d="M252.81 264.149C252.81 264.149 252.275 265.294 250.654 264.699" stroke="#73325A" stroke-width="4" stroke-miterlimit="10" stroke-linecap="round"/>
<path d="M247.398 259.651C247.398 259.651 249.368 259.212 249.963 260.431C250.327 261.182 250.149 263.807 250.572 263.836C250.996 263.866 251.636 263.836 251.636 263.836" stroke="#73325A" stroke-width="4" stroke-miterlimit="10" stroke-linecap="round"/>
<path d="M253.472 261.933C253.665 261.933 253.821 261.673 253.821 261.353C253.821 261.033 253.665 260.773 253.472 260.773C253.279 260.773 253.123 261.033 253.123 261.353C253.123 261.673 253.279 261.933 253.472 261.933Z" fill="#73325A"/>
<path d="M248.951 261.933C249.144 261.933 249.301 261.673 249.301 261.353C249.301 261.033 249.144 260.773 248.951 260.773C248.759 260.773 248.602 261.033 248.602 261.353C248.602 261.673 248.759 261.933 248.951 261.933Z" fill="#73325A"/>
<path d="M245.531 260.803C245.487 260.074 244.885 259.509 244.156 259.509" stroke="#73325A" stroke-width="4" stroke-miterlimit="10" stroke-linecap="round"/>
<path d="M256.944 260.84C256.989 260.067 257.628 259.465 258.394 259.465" stroke="#73325A" stroke-width="4" stroke-miterlimit="10" stroke-linecap="round"/>
<path d="M147.018 275.234C147.018 274.751 146.996 274.283 146.959 273.844C146.505 273.643 143.643 272.268 142.922 269.792C142.922 269.792 140.751 274.186 137.524 273.68C137.517 273.68 137.509 273.68 137.502 273.673C137.502 273.673 137.502 273.673 137.494 273.673L136.714 273.271C136.699 273.264 136.691 273.257 136.676 273.257C135.792 272.833 134.773 273.383 134.595 274.305C134.386 273.725 134.238 273.108 134.149 272.461C133.576 268.134 135.963 264.513 139.926 264.513C143.539 264.513 147.011 267.911 147.561 271.502C147.784 272.863 147.554 274.134 147.018 275.234Z" fill="#FFCF2D"/>
<path d="M135.234 275.755C134.885 277.807 127.227 274.944 125.524 278.372C124.416 280.61 126.126 283.309 121.316 283.539C115.584 283.807 113.256 286.944 114.186 294.216L129.844 285.911L134.216 282.015L136.119 276.164L135.234 275.755Z" fill="#FFCF2D"/>
<path d="M144.156 280.587V282.625L139.316 285.554L134.216 282.022L136.119 276.171L144.156 280.587Z" fill="#E57281"/>
<path d="M136.996 276.632L139.316 285.554L144.156 282.625V280.587L136.996 276.632Z" fill="#9A3B82"/>
<path d="M147.018 275.279C147.018 278.602 144.885 281.301 142.253 281.301C140.097 281.301 138.186 279.494 137.561 277.011L135.383 275.896C135.137 275.77 134.937 275.584 134.795 275.353C134.654 275.13 134.58 274.862 134.58 274.587C134.58 273.487 135.74 272.781 136.721 273.279L137.531 273.688V273.68C140.758 274.178 142.929 269.792 142.929 269.792C143.65 272.268 146.513 273.636 146.966 273.844C147.004 274.297 147.018 274.773 147.018 275.279Z" fill="#E57281"/>
<path d="M147.004 274.587C147.004 274.587 145.807 274.089 145.071 274.833C144.156 275.755 144.357 278.402 144.357 278.402" stroke="#9A3B82" stroke-width="4" stroke-miterlimit="10" stroke-linecap="round"/>
<path d="M142.706 274.431C142.706 274.431 141.717 274.357 140.736 274.877" stroke="#9A3B82" stroke-width="4" stroke-miterlimit="10" stroke-linecap="round"/>
<path d="M136.855 275.167C136.773 274.677 136.416 274.275 135.941 274.126" stroke="#9A3B82" stroke-width="4" stroke-miterlimit="10" stroke-linecap="round"/>
<path d="M142.381 276.223C142.465 275.914 142.382 275.622 142.196 275.572C142.01 275.521 141.791 275.731 141.707 276.04C141.623 276.349 141.706 276.641 141.892 276.691C142.079 276.742 142.298 276.532 142.381 276.223Z" fill="#9A3B82"/>
<path d="M146.024 276.372C146.108 276.062 146.025 275.771 145.839 275.72C145.653 275.67 145.434 275.88 145.35 276.189C145.266 276.498 145.349 276.789 145.535 276.84C145.722 276.89 145.941 276.681 146.024 276.372Z" fill="#9A3B82"/>
<path d="M143.992 279.294C143.992 279.294 142.706 279.636 142.334 278.55" stroke="#9A3B82" stroke-width="4" stroke-miterlimit="10" stroke-linecap="round"/>
<path d="M124.699 285.933H153.658C157.628 285.933 161.234 288.275 162.84 291.911L168.312 303.167L119.19 326.952L103.361 320.171L111.978 294.952C113.881 289.547 118.974 285.933 124.699 285.933Z" stroke="#FE5244" stroke-width="5" stroke-miterlimit="10"/>
<path d="M138.275 290.9L135.874 289.48L139.204 285.688H139.442L142.818 289.227L140.476 290.647L150.528 311.361L131.442 320.692L138.275 290.9Z" fill="#FE5244"/>
<path d="M123.665 302.067L121.331 309.948" stroke="#FE5244" stroke-width="5" stroke-miterlimit="10"/>
<path d="M148.245 285.918L142.736 289.071L139.442 285.688H139.204L135.948 289.331L129.844 285.918L134.29 282.022L139.316 285.554L144.156 282.625L148.245 285.918Z" stroke="#FE5244" stroke-width="5" stroke-miterlimit="10" stroke-linejoin="round"/>
<path d="M177.732 295.152L171.963 313.487H136.87L142.639 295.152H177.732Z" fill="#3FB1B5"/>
<path d="M143.301 295.152C143.301 295.152 147.695 292.543 154.059 292.944C160.424 293.338 161.316 295.152 161.316 295.152H143.301Z" stroke="#3FB1B5" stroke-width="5" stroke-miterlimit="10" stroke-linecap="round"/>
<path d="M176.461 295.152C176.461 295.152 168.178 291.495 161.316 295.152H176.461Z" stroke="#3FB1B5" stroke-width="5" stroke-miterlimit="10" stroke-linecap="round"/>
<path d="M160.401 332.654L143.346 346.127C141.308 347.732 141.041 350.721 142.758 352.662L154.476 365.956C154.476 365.956 155.591 365.13 155.219 361.814C154.699 357.227 155.963 352.937 155.963 352.937L181.204 334.937C185.108 332.156 187.457 327.68 187.524 322.885C187.621 316.372 179.725 313.071 175.152 317.703L160.401 332.654Z" fill="#E57281"/>
<path d="M155.955 352.93C155.955 352.93 154.699 357.219 155.212 361.807C155.584 365.13 154.468 365.956 154.468 365.956L142.751 352.662C141.033 350.714 141.308 347.732 143.338 346.127L148.81 341.799C148.974 341.68 149.137 341.554 149.301 341.428L156.26 335.926L160.394 332.654C160.394 332.654 160.163 338.089 162.721 348.104L155.955 352.93Z" stroke="#9A3B82" stroke-width="6" stroke-miterlimit="10" stroke-linecap="round"/>
<path d="M155.487 362.253C155.628 363.539 155.539 364.469 155.368 365.123C155.331 365.279 155.286 365.413 155.234 365.539C154.944 366.305 154.565 366.558 154.565 366.558L142.416 352.781C140.84 350.989 140.885 348.35 142.394 346.617C142.58 346.402 142.795 346.193 143.033 346.008L143.427 345.695L146.848 342.996C146.624 344.483 147.584 346.974 149.427 349.324C151.762 352.298 154.862 353.881 156.216 353.063C156 353.851 155.011 358.008 155.487 362.253Z" fill="#FFCF2D"/>
<path d="M176.61 315.011V355.747C171.874 360.558 165.584 357.97 165.584 357.97C160.03 341.985 160.401 333.108 160.401 333.108L156.267 336.372C145.695 329.77 144.832 314.58 144.81 314.216L162.037 305.881C168.781 302.617 176.61 307.524 176.61 315.011Z" fill="#E57281"/>
<path d="M162.045 305.874C168.781 302.617 176.609 307.524 176.609 315.004V355.74C171.873 360.55 165.584 357.963 165.584 357.963C160.037 341.978 160.401 333.093 160.401 333.093" stroke="#9A3B82" stroke-width="6" stroke-miterlimit="10" stroke-linecap="round"/>
<path d="M156.268 336.364L149.308 341.866C136.833 351.733 118.483 342.848 118.483 326.944L144.81 314.201C144.81 314.201 144.81 314.201 144.81 314.208C144.833 314.58 145.702 329.77 156.268 336.364Z" fill="#FE5244"/>
<path d="M165.576 357.963C163.145 350.959 161.851 345.316 161.16 341.19H176.602V355.747" stroke="#9A3B82" stroke-width="6" stroke-miterlimit="10" stroke-linecap="round"/>
<path d="M187.71 366.402H165.74C164.714 366.402 163.933 365.487 164.097 364.476L164.134 364.253L164.268 363.45L165.219 357.621C165.219 357.621 171.918 360.32 176.855 355.309C176.855 355.309 178.401 359.294 184.855 362.223C186.372 362.915 187.085 363.941 187.42 364.81C187.472 364.937 187.509 365.063 187.546 365.182C187.747 365.881 187.71 366.402 187.71 366.402Z" fill="#FFCF2D"/>
<path d="M160.401 333.1C160.401 324.364 162.706 319.294 162.706 319.294" stroke="#9A3B82" stroke-width="6" stroke-miterlimit="10" stroke-linecap="round"/>
<path d="M139.316 305.717L108.803 312.892C104.937 313.799 102.208 317.249 102.208 321.219C102.208 327.532 108.818 331.673 114.498 328.915L144.022 314.58C144.528 314.335 144.929 313.903 145.13 313.375L148.401 304.981C148.535 304.647 148.253 304.29 147.888 304.342L147.368 304.416C146.543 304.535 145.799 304.989 145.316 305.673L143.985 307.665C143.74 308.03 143.331 308.245 142.892 308.245H139.777C139.145 308.245 138.691 307.628 138.885 307.026L139.316 305.717Z" fill="#E57281"/>
<g clip-path="url(#clip1_42_1290)">
<path d="M203.596 76.0162C203.596 74.1038 202.046 72.5535 200.134 72.5535C198.221 72.5535 196.671 74.1038 196.671 76.0162V87.9689C196.671 89.8814 198.221 91.4317 200.134 91.4317C202.046 91.4317 203.596 89.8814 203.596 87.9689V76.0162Z" fill="black"/>
<path d="M200.134 111.524C203.971 111.524 207.081 108.414 207.081 104.577C207.081 100.74 203.971 97.6295 200.134 97.6295C196.297 97.6295 193.186 100.74 193.186 104.577C193.186 108.414 196.297 111.524 200.134 111.524Z" fill="#FBDC8E"/>
<path d="M200.134 83.6309C197.382 83.6301 194.658 84.1714 192.116 85.2237C189.574 86.276 187.265 87.8188 185.319 89.7639C183.373 91.7089 181.83 94.0183 180.777 96.5599C179.724 99.1015 179.182 101.826 179.182 104.577H221.08C221.08 101.826 220.538 99.1024 219.485 96.5612C218.433 94.0199 216.89 91.7108 214.945 89.7658C213 87.8208 210.691 86.2779 208.149 85.2253C205.608 84.1726 202.884 83.6309 200.134 83.6309Z" fill="#AB8DE5"/>
<path d="M200.134 76.5413V0.547119" stroke="black" stroke-width="2" stroke-linecap="round" stroke-linejoin="round"/>
</g>
<defs>
<clipPath id="clip0_42_1290">
<rect width="95.1673" height="263.941" fill="white" transform="translate(0 136.059)"/>
</clipPath>
<clipPath id="clip1_42_1290">
<rect width="41.8975" height="111.524" fill="white" transform="translate(179.182)"/>
</clipPath>
</defs>
</svg>
