<svg width="320" height="224" viewBox="0 0 320 224" fill="none" xmlns="http://www.w3.org/2000/svg">
<path d="M279.936 191.744H40.064L83.1232 166.317H237.536L279.936 191.744Z" fill="#D0F0E4"/>
<path d="M177.594 67.4368H134.438V42.4832C134.438 40.7936 135.808 39.424 137.498 39.424H174.534C176.224 39.424 177.594 40.7936 177.594 42.4832V67.4368Z" fill="white" stroke="#66B0F0" stroke-width="6" stroke-miterlimit="10"/>
<path d="M174.336 65.8113H137.875C136.915 65.8113 136.134 65.0305 136.134 64.0705V42.6817C136.134 41.7217 136.915 40.9409 137.875 40.9409H174.336C175.296 40.9409 176.077 41.7217 176.077 42.6817V64.0769C176.077 65.0369 175.296 65.8113 174.336 65.8113Z" fill="#66B0F0"/>
<path d="M185.158 73.2928C186.809 74.368 186.425 76.4736 184.473 76.4736H125.683C124.038 76.4736 123.475 74.2528 125.088 73.2352L185.158 73.2928Z" fill="#66B0F0" stroke="#66B0F0" stroke-width="6" stroke-miterlimit="10"/>
<path d="M184.473 75.008H125.683C124.633 75.008 124.217 73.7728 125.088 73.2352L134.451 67.4368H177.472L185.152 73.2928C185.92 73.8752 185.472 75.008 184.473 75.008Z" fill="white" stroke="#66B0F0" stroke-width="6" stroke-miterlimit="10"/>
<path d="M177.69 73.2608H132.467C131.661 73.2608 131.341 72.3072 132.006 71.8976L138.509 67.4368H172.301L178.208 71.9424C178.803 72.3904 178.458 73.2608 177.69 73.2608Z" fill="white" stroke="#66B0F0" stroke-width="6" stroke-miterlimit="10"/>
<path d="M169.376 67.4368L175.29 73.2608" stroke="#66B0F0" stroke-width="6" stroke-miterlimit="10"/>
<path d="M166.24 67.4368L171.45 73.2608" stroke="#66B0F0" stroke-width="6" stroke-miterlimit="10"/>
<path d="M163.309 67.4368L167.827 73.2608" stroke="#66B0F0" stroke-width="6" stroke-miterlimit="10"/>
<path d="M160.032 67.4368L163.853 73.2608" stroke="#66B0F0" stroke-width="6" stroke-miterlimit="10"/>
<path d="M157.312 67.4368L159.174 73.2608" stroke="#66B0F0" stroke-width="6" stroke-miterlimit="10"/>
<path d="M141.254 67.4368L135.341 73.2608" stroke="#66B0F0" stroke-width="6" stroke-miterlimit="10"/>
<path d="M144.391 67.4368L139.181 73.2608" stroke="#66B0F0" stroke-width="6" stroke-miterlimit="10"/>
<path d="M147.322 67.4368L142.803 73.2608" stroke="#66B0F0" stroke-width="6" stroke-miterlimit="10"/>
<path d="M150.598 67.4368L146.778 73.2608" stroke="#66B0F0" stroke-width="6" stroke-miterlimit="10"/>
<path d="M153.318 67.4368L151.456 73.2608" stroke="#66B0F0" stroke-width="6" stroke-miterlimit="10"/>
<path d="M155.162 73.3312V67.4368" stroke="#66B0F0" stroke-width="6" stroke-miterlimit="10"/>
<path d="M135.341 69.6128H175.162" stroke="#66B0F0" stroke-width="6" stroke-miterlimit="10"/>
<path d="M171.302 65.8113H138.925L139.507 61.6833C139.866 59.1425 141.69 57.0561 144.154 56.3521L152.045 54.7137H158.182L166.074 56.3521C168.544 57.0497 170.368 59.1425 170.72 61.6833L171.302 65.8113Z" fill="#FFCF2D"/>
<path d="M157.299 59.4305L154.963 57.0689C154.912 57.0177 154.912 56.9345 154.963 56.8897C155.014 56.8385 155.098 56.8385 155.142 56.8897L157.286 59.0593L160.614 55.2897C160.659 55.2385 160.742 55.2321 160.794 55.2769C160.845 55.3217 160.851 55.4049 160.806 55.4561L157.299 59.4305Z" fill="white"/>
<path d="M152.96 59.4305L149.453 55.4561C149.408 55.4049 149.408 55.3217 149.466 55.2769C149.517 55.2321 149.6 55.2321 149.645 55.2897L152.973 59.0593L155.117 56.8897C155.168 56.8385 155.245 56.8385 155.296 56.8897C155.347 56.9409 155.347 57.0177 155.296 57.0689L152.96 59.4305Z" fill="white"/>
<path d="M155.168 60.973C154.861 60.973 154.611 60.7234 154.611 60.4162C154.611 60.1089 154.861 59.8593 155.168 59.8593C155.475 59.8593 155.725 60.1089 155.725 60.4162C155.725 60.7234 155.475 60.973 155.168 60.973ZM155.168 60.1153C155.002 60.1153 154.867 60.2498 154.867 60.4162C154.867 60.5826 155.002 60.717 155.168 60.717C155.335 60.717 155.469 60.5826 155.469 60.4162C155.469 60.2498 155.335 60.1153 155.168 60.1153Z" fill="white"/>
<path d="M155.168 64.1089C154.861 64.1089 154.611 63.8593 154.611 63.5521C154.611 63.2449 154.861 62.9953 155.168 62.9953C155.475 62.9953 155.725 63.2449 155.725 63.5521C155.725 63.8593 155.475 64.1089 155.168 64.1089ZM155.168 63.2513C155.002 63.2513 154.867 63.3857 154.867 63.5521C154.867 63.7185 155.002 63.8529 155.168 63.8529C155.335 63.8529 155.469 63.7185 155.469 63.5521C155.469 63.3857 155.335 63.2513 155.168 63.2513Z" fill="white"/>
<path d="M152.006 65.6769H141.549L138.758 57.3953L149.216 54.4001L152.006 65.6769Z" fill="white" stroke="#66B0F0" stroke-width="4" stroke-miterlimit="10"/>
<path d="M142.093 58.4705H141.894C141.389 58.4705 140.979 58.0609 140.979 57.5553V54.6817C140.979 54.4769 141.146 54.3105 141.35 54.3105H142.215C142.419 54.3105 142.586 54.4769 142.586 54.6817V57.9713C142.592 58.2465 142.368 58.4705 142.093 58.4705Z" fill="white"/>
<path d="M142.093 58.4705H141.894C141.389 58.4705 140.979 58.0609 140.979 57.5553V54.6817C140.979 54.4769 141.146 54.3105 141.35 54.3105H142.215C142.419 54.3105 142.586 54.4769 142.586 54.6817V57.9713C142.592 58.2465 142.368 58.4705 142.093 58.4705Z" stroke="#66B0F0" stroke-width="4" stroke-miterlimit="10" stroke-linecap="round"/>
<path d="M146.304 58.4705H146.502C147.008 58.4705 147.417 58.0609 147.417 57.5553V54.6817C147.417 54.4769 147.251 54.3105 147.046 54.3105H146.176C145.971 54.3105 145.805 54.4769 145.805 54.6817V57.9713C145.805 58.2465 146.029 58.4705 146.304 58.4705Z" fill="white"/>
<path d="M143.699 58.8033H143.238C142.88 58.8033 142.592 58.5153 142.592 58.1569V54.6881C142.592 54.4833 142.758 54.3169 142.963 54.3169H143.827C144.032 54.3169 144.198 54.4833 144.198 54.6881V58.3041C144.198 58.5793 143.974 58.8033 143.699 58.8033Z" fill="white"/>
<path d="M145.312 58.9313H144.928C144.525 58.9313 144.198 58.6049 144.198 58.2017V54.6817C144.198 54.4769 144.365 54.3105 144.57 54.3105H145.434C145.638 54.3105 145.805 54.4769 145.805 54.6817V58.4321C145.805 58.7073 145.581 58.9313 145.312 58.9313Z" fill="white"/>
<path d="M146.304 58.4705H146.502C147.008 58.4705 147.417 58.0609 147.417 57.5553V54.6817C147.417 54.4769 147.251 54.3105 147.046 54.3105H146.176C145.971 54.3105 145.805 54.4769 145.805 54.6817V57.9713C145.805 58.2465 146.029 58.4705 146.304 58.4705Z" stroke="#66B0F0" stroke-width="4" stroke-miterlimit="10" stroke-linecap="round"/>
<path d="M143.699 58.8033H143.238C142.88 58.8033 142.592 58.5153 142.592 58.1569V54.6881C142.592 54.4833 142.758 54.3169 142.963 54.3169H143.827C144.032 54.3169 144.198 54.4833 144.198 54.6881V58.3041C144.198 58.5793 143.974 58.8033 143.699 58.8033Z" stroke="#66B0F0" stroke-width="4" stroke-miterlimit="10" stroke-linecap="round"/>
<path d="M145.312 58.9313H144.928C144.525 58.9313 144.198 58.6049 144.198 58.2017V54.6817C144.198 54.4769 144.365 54.3105 144.57 54.3105H145.434C145.638 54.3105 145.805 54.4769 145.805 54.6817V58.4321C145.805 58.7073 145.581 58.9313 145.312 58.9313Z" stroke="#66B0F0" stroke-width="4" stroke-miterlimit="10" stroke-linecap="round"/>
<path d="M158.189 50.9505V55.6225C158.189 56.4289 156.813 57.0881 155.117 57.0881C153.421 57.0881 152.045 56.4289 152.045 55.6225V50.9505H158.189Z" fill="white"/>
<path d="M158.188 50.9505C158.188 54.4769 155.929 55.5265 153.76 55.3409C153.753 55.3409 153.747 55.3409 153.74 55.3409C152.78 55.2513 152.051 54.4321 152.051 53.4721V50.9569H158.188V50.9505Z" fill="#66B0F0"/>
<path d="M159.616 49.7473V49.9841C159.616 50.5089 159.193 50.9313 158.669 50.9313H158.182L158.189 51.0401C158.189 52.5505 156.966 53.7729 155.456 53.7729H154.784C153.273 53.7729 152.051 52.5505 152.051 51.0401L152.057 50.9313H151.571C151.046 50.9313 150.624 50.5089 150.624 49.9841V49.7473C150.624 49.2225 151.046 48.8001 151.571 48.8001H152.192L152.262 47.6417C152.262 47.4625 152.288 47.2897 152.339 47.1297C154.169 47.5841 156.313 46.4065 156.889 46.0545C157.529 46.2977 157.984 46.9121 157.984 47.6353L158.054 48.7937H158.675C159.193 48.8001 159.616 49.2225 159.616 49.7473Z" fill="white"/>
<path d="M158.713 48.8001H158.048L157.977 47.6417C157.977 46.9185 157.523 46.3041 156.883 46.0609C156.307 46.4065 154.163 47.5841 152.333 47.1361C152.281 47.2961 152.256 47.4689 152.256 47.6481L152.185 48.8065H151.769C151.769 48.8065 150.918 44.6849 151.757 43.9297C152.377 43.3729 158.061 44.5889 158.688 45.4529C159.04 45.9457 158.713 48.8001 158.713 48.8001Z" fill="#E57281"/>
<path d="M157.113 48.5504C157.094 48.5504 157.069 48.544 157.049 48.5248C157.043 48.5184 156.627 48.1792 155.961 48.1792C155.91 48.1792 155.865 48.1344 155.865 48.0832C155.865 48.032 155.91 47.9872 155.961 47.9872C156.697 47.9872 157.152 48.3584 157.171 48.3776C157.209 48.4096 157.216 48.4736 157.184 48.512C157.171 48.5376 157.139 48.5504 157.113 48.5504Z" fill="#66B0F0"/>
<path d="M154.682 50.5344C154.669 50.5344 154.656 50.5344 154.65 50.528C154.598 50.5088 154.573 50.4512 154.592 50.4064C154.771 49.9328 154.726 49.3376 154.477 48.8128C154.33 48.4928 154.118 48.2624 153.933 48.1984C153.523 48.0576 152.947 48.256 152.941 48.256C152.89 48.2752 152.838 48.2496 152.819 48.1984C152.8 48.1472 152.826 48.096 152.877 48.0768C152.902 48.0704 153.517 47.8592 153.99 48.0192C154.227 48.1024 154.47 48.3648 154.643 48.736C154.912 49.3056 154.957 49.9584 154.765 50.4832C154.758 50.5088 154.72 50.5344 154.682 50.5344Z" fill="#66B0F0"/>
<path d="M155.942 51.552C155.949 51.6032 155.904 51.648 155.853 51.6544H155.846C155.795 51.6544 155.757 51.616 155.75 51.5648C155.744 51.5008 155.731 51.4368 155.712 51.3792C155.437 51.5136 155.187 51.5584 154.982 51.5584C154.579 51.5584 154.336 51.392 154.323 51.3792C154.278 51.3472 154.272 51.2896 154.297 51.2448C154.329 51.2 154.387 51.1936 154.432 51.2192C154.445 51.2256 154.649 51.3664 154.982 51.3664C155.161 51.3664 155.379 51.328 155.629 51.2064C155.59 51.1424 155.552 51.104 155.552 51.104C155.513 51.0656 155.52 51.0016 155.558 50.9696C155.597 50.9376 155.661 50.9376 155.693 50.976C155.705 50.9952 155.923 51.2384 155.942 51.552Z" fill="#66B0F0"/>
<path d="M156.288 49.723C156.376 49.7175 156.439 49.57 156.428 49.3936C156.417 49.2173 156.336 49.0787 156.248 49.0842C156.16 49.0897 156.097 49.2372 156.108 49.4136C156.119 49.5899 156.2 49.7285 156.288 49.723Z" fill="#66B0F0"/>
<path d="M153.675 49.6974C153.756 49.6923 153.813 49.5567 153.803 49.3944C153.793 49.2321 153.719 49.1047 153.638 49.1097C153.557 49.1148 153.499 49.2505 153.51 49.4127C153.52 49.575 153.594 49.7025 153.675 49.6974Z" fill="#66B0F0"/>
<path d="M151.885 50.0544C151.833 50.0544 151.789 50.0096 151.789 49.9584C151.789 49.6768 151.558 49.4528 151.283 49.4528C151.232 49.4528 151.187 49.408 151.187 49.3568C151.187 49.3056 151.232 49.2608 151.283 49.2608C151.667 49.2608 151.981 49.5744 151.981 49.9584C151.981 50.016 151.936 50.0544 151.885 50.0544Z" fill="#66B0F0"/>
<path d="M158.323 50.0544C158.272 50.0544 158.227 50.0096 158.227 49.9584C158.227 49.5744 158.541 49.2608 158.925 49.2608C158.976 49.2608 159.021 49.3056 159.021 49.3568C159.021 49.408 158.976 49.4528 158.925 49.4528C158.643 49.4528 158.419 49.6832 158.419 49.9584C158.419 50.016 158.381 50.0544 158.323 50.0544Z" fill="#66B0F0"/>
<path d="M274.176 191.744L246.765 101.107C246.221 99.3025 244.55 98.0673 242.662 98.0673H76.2942C74.387 98.0673 72.7102 99.3281 72.179 101.165L46.0222 191.744" stroke="#66B0F0" stroke-width="6" stroke-miterlimit="10"/>
<path d="M121.869 67.4368H194.636" stroke="#66B0F0" stroke-width="6" stroke-miterlimit="10"/>
<path d="M147.123 81.2096H164.314V95.9744H147.123C147.123 95.9744 147.123 80.6528 147.123 81.2096Z" fill="#FFCF2D"/>
<path d="M211.405 149.811L203.411 129.907H216.282L211.405 149.811Z" fill="#9A3B82"/>
<path d="M189.472 103.341C191.187 100.096 194.56 98.0672 198.227 98.0672H208.128L214.855 103.341H189.472Z" fill="#9A3B82"/>
<path d="M227.008 126.643H202.067L211.456 149.434C210.803 148.371 206.893 149.478 202.752 152.019C198.662 154.528 195.898 157.549 196.461 158.65L176.224 123.437C170.976 114.554 177.376 103.341 187.693 103.341H243.584L243.706 103.725C247.354 115.053 238.906 126.643 227.008 126.643Z" fill="#3FB1B5"/>
<path d="M244.55 109.875C244.461 111.955 244 113.965 243.219 115.827L213.907 103.347H243.002L243.68 105.331C244.154 106.522 244.416 108.192 244.55 109.875Z" fill="#E6E6E6"/>
<path d="M211.462 149.434C212.115 150.496 209.261 153.395 205.126 155.936C200.986 158.477 197.139 159.75 196.486 158.688C195.834 157.626 198.618 154.624 202.758 152.083C206.893 149.542 210.803 148.371 211.462 149.434Z" fill="#66B0F0"/>
<path d="M202.279 152.096L184.077 119.917C182.65 117.37 184.487 114.221 187.411 114.221H222.861C227.635 114.221 231.2 109.824 230.215 105.152" stroke="white" stroke-width="6" stroke-miterlimit="10" stroke-linecap="round"/>
<path d="M196.276 158.758C195.623 157.696 198.445 154.317 202.759 151.802C207.604 148.979 210.74 148.141 211.674 149.638" stroke="white" stroke-width="6" stroke-miterlimit="10" stroke-linecap="round"/>
<path d="M211.815 149.779L199.923 121.427" stroke="white" stroke-width="6" stroke-miterlimit="10" stroke-linecap="round"/>
<path d="M186.995 103.13H216.007" stroke="white" stroke-width="6" stroke-miterlimit="10"/>
<path d="M203.405 160.154L201.677 157.798L199.296 154.56C200.269 153.741 201.44 152.89 202.752 152.083C205.363 150.483 207.879 149.421 209.549 149.126L210.707 151.437L212.154 154.317C211.13 157.958 203.405 160.154 203.405 160.154Z" fill="#E57281"/>
<path d="M210.714 151.437C209.638 152.749 207.616 154.406 205.127 155.936C203.93 156.672 202.758 157.299 201.683 157.798L199.302 154.56C200.275 153.741 201.446 152.89 202.758 152.083C205.37 150.483 207.885 149.421 209.555 149.126L210.714 151.437Z" fill="#9A3B82"/>
<path d="M220.064 167.008L202.502 179.623C201.011 180.659 198.694 181.523 199.002 177.773C199.43 172.602 200.576 164.909 203.405 160.147C203.526 160.115 211.13 157.92 212.154 154.31L220.16 160C222.464 161.792 222.413 165.286 220.064 167.008Z" fill="white" stroke="#FFCF2D" stroke-width="6" stroke-miterlimit="10"/>
<path d="M202.592 161.818C203.987 162.08 211.821 159.302 213.037 155.021" stroke="#FFCF2D" stroke-width="6" stroke-miterlimit="10" stroke-linecap="round"/>
<path d="M200.704 178.323C200.704 178.323 212.166 162.4 220.32 163.296C229.197 164.262 193.446 187.61 200.704 178.323Z" fill="#FFCF2D"/>
<path d="M200.377 180.493C199.488 180.55 198.547 179.514 199.846 177.85C199.846 177.85 211.776 161.338 220.269 162.272C221.581 162.413 222.022 163.482 221.715 164.403" stroke="#FFCF2D" stroke-width="6" stroke-miterlimit="10" stroke-linecap="round"/>
<path d="M244.615 111.174C240.557 110.214 230.458 107.686 218.938 105.024C213.523 103.776 208.992 100.09 206.656 95.0464L196.167 72.352L202.515 62.2911C204.467 59.1935 207.795 57.2223 211.45 56.9983L217.696 56.6143C223.994 56.2303 229.05 60.1599 230.97 66.1696L243.674 103.341C245.069 106.822 244.615 111.174 244.615 111.174Z" fill="white" stroke="#FE5244" stroke-width="6" stroke-miterlimit="10"/>
<path d="M201.69 73.6256C201.69 73.6256 205.031 78.8736 212.64 80.0319" stroke="#FE5244" stroke-width="6" stroke-miterlimit="10"/>
<path d="M206.195 64.0767C205.85 63.7055 205.242 63.8079 205.03 64.2623C204.794 64.7743 205.222 65.3439 205.779 65.2607C206.349 65.1775 206.586 64.4927 206.195 64.0767Z" fill="#FFCF2D" stroke="#FE5244" stroke-width="6" stroke-miterlimit="10" stroke-linejoin="round"/>
<path d="M222.138 75.0144C221.792 74.6431 221.184 74.7455 220.973 75.2C220.736 75.712 221.165 76.2816 221.722 76.1984C222.291 76.1152 222.528 75.4304 222.138 75.0144Z" fill="#FFCF2D" stroke="#FE5244" stroke-width="6" stroke-miterlimit="10" stroke-linejoin="round"/>
<path d="M227.187 79.4943C226.842 79.1231 226.234 79.2255 226.022 79.6799C225.786 80.1919 226.214 80.7615 226.771 80.6783C227.334 80.6015 227.571 79.9167 227.187 79.4943Z" fill="#FFCF2D" stroke="#FE5244" stroke-width="6" stroke-miterlimit="10" stroke-linejoin="round"/>
<path d="M236.871 104.845C236.525 104.474 235.917 104.576 235.706 105.03C235.469 105.542 235.898 106.112 236.455 106.029C237.018 105.946 237.255 105.267 236.871 104.845Z" fill="#FFCF2D" stroke="#FE5244" stroke-width="6" stroke-miterlimit="10" stroke-linejoin="round"/>
<path d="M231.45 92.7296C231.104 92.3584 230.496 92.4608 230.285 92.9152C230.048 93.4271 230.477 93.9967 231.034 93.9135C231.603 93.8303 231.84 93.1455 231.45 92.7296Z" fill="#FFCF2D" stroke="#FE5244" stroke-width="6" stroke-miterlimit="10" stroke-linejoin="round"/>
<path d="M233.696 84.0127C233.197 84.0767 232.922 84.6335 233.171 85.0687C233.453 85.5615 234.163 85.5423 234.419 85.0367C234.682 84.5247 234.259 83.9359 233.696 84.0127Z" fill="#FFCF2D" stroke="#FE5244" stroke-width="6" stroke-miterlimit="10" stroke-linejoin="round"/>
<path d="M237.786 96.9408C237.287 97.0048 237.011 97.5616 237.261 97.9968C237.543 98.4896 238.253 98.4704 238.509 97.9648C238.771 97.4528 238.355 96.864 237.786 96.9408Z" fill="#FFCF2D" stroke="#FE5244" stroke-width="6" stroke-miterlimit="10" stroke-linejoin="round"/>
<path d="M220.825 82.9951C220.48 82.6239 219.872 82.7263 219.661 83.1807C219.424 83.6927 219.853 84.2623 220.409 84.1791C220.973 84.0959 221.21 83.4175 220.825 82.9951Z" fill="#FFCF2D" stroke="#FE5244" stroke-width="6" stroke-miterlimit="10" stroke-linejoin="round"/>
<path d="M217.299 90.2463C216.954 89.8751 216.346 89.9775 216.134 90.4319C215.898 90.9439 216.326 91.5135 216.883 91.4303C217.453 91.3471 217.69 90.6623 217.299 90.2463Z" fill="#FFCF2D" stroke="#FE5244" stroke-width="6" stroke-miterlimit="10" stroke-linejoin="round"/>
<path d="M210.989 87.7119C211.36 87.3663 211.258 86.7583 210.803 86.5472C210.291 86.3104 209.722 86.7391 209.805 87.2959C209.888 87.8591 210.566 88.0959 210.989 87.7119Z" fill="#FFCF2D" stroke="#FE5244" stroke-width="6" stroke-miterlimit="10" stroke-linejoin="round"/>
<path d="M216.589 100.192C216.96 99.8464 216.858 99.2384 216.403 99.0272C215.891 98.7904 215.322 99.2192 215.405 99.776C215.488 100.346 216.173 100.582 216.589 100.192Z" fill="#FFCF2D" stroke="#FE5244" stroke-width="6" stroke-miterlimit="10" stroke-linejoin="round"/>
<path d="M226.016 89.4847C226.387 89.1391 226.285 88.5311 225.831 88.3199C225.319 88.0832 224.749 88.5119 224.832 89.0687C224.915 89.6319 225.6 89.8751 226.016 89.4847Z" fill="#FFCF2D" stroke="#FE5244" stroke-width="6" stroke-miterlimit="10" stroke-linejoin="round"/>
<path d="M229.235 102.886C229.606 102.541 229.504 101.933 229.05 101.722C228.538 101.485 227.968 101.914 228.051 102.47C228.128 103.04 228.813 103.277 229.235 102.886Z" fill="#FFCF2D" stroke="#FE5244" stroke-width="6" stroke-miterlimit="10" stroke-linejoin="round"/>
<path d="M209.933 75.744C209.587 75.3728 208.979 75.4752 208.768 75.9296C208.531 76.4415 208.96 77.0111 209.517 76.9279C210.086 76.8447 210.323 76.1599 209.933 75.744Z" fill="#FFCF2D" stroke="#FE5244" stroke-width="6" stroke-miterlimit="10" stroke-linejoin="round"/>
<path d="M211.078 59.1423C210.733 58.7711 210.125 58.8735 209.914 59.3279C209.677 59.8399 210.106 60.4096 210.662 60.3264C211.232 60.2432 211.469 59.5583 211.078 59.1423Z" fill="#FFCF2D" stroke="#FE5244" stroke-width="6" stroke-miterlimit="10" stroke-linejoin="round"/>
<path d="M222.138 59.1423C221.792 58.7711 221.184 58.8735 220.973 59.3279C220.736 59.8399 221.165 60.4096 221.722 60.3264C222.291 60.2432 222.528 59.5583 222.138 59.1423Z" fill="#FFCF2D" stroke="#FE5244" stroke-width="6" stroke-miterlimit="10" stroke-linejoin="round"/>
<path d="M222.157 66.3104C221.69 66.496 221.555 67.0976 221.907 67.4624C222.298 67.8656 222.982 67.68 223.11 67.1296C223.238 66.5728 222.688 66.0991 222.157 66.3104Z" fill="#FFCF2D" stroke="#FE5244" stroke-width="6" stroke-miterlimit="10" stroke-linejoin="round"/>
<path d="M215.872 62.2272C215.386 62.368 215.2 62.9504 215.507 63.3472C215.859 63.7888 216.557 63.6672 216.736 63.136C216.922 62.592 216.416 62.0672 215.872 62.2272Z" fill="#FFCF2D" stroke="#FE5244" stroke-width="6" stroke-miterlimit="10" stroke-linejoin="round"/>
<path d="M214.944 79.9551C214.445 80.0127 214.163 80.5631 214.406 81.0048C214.682 81.4976 215.392 81.4912 215.654 80.992C215.923 80.4863 215.514 79.8911 214.944 79.9551Z" fill="#FFCF2D" stroke="#FE5244" stroke-width="6" stroke-miterlimit="10" stroke-linejoin="round"/>
<path d="M209.459 93.2863C208.96 93.3439 208.678 93.8943 208.922 94.3359C209.197 94.8287 209.907 94.8223 210.17 94.3231C210.438 93.8175 210.029 93.2223 209.459 93.2863Z" fill="#FFCF2D" stroke="#FE5244" stroke-width="6" stroke-miterlimit="10" stroke-linejoin="round"/>
<path d="M211.302 67.5136C210.816 67.6544 210.63 68.2368 210.938 68.6336C211.29 69.0752 211.987 68.9536 212.166 68.4224C212.352 67.8848 211.853 67.36 211.302 67.5136Z" fill="#FFCF2D" stroke="#FE5244" stroke-width="6" stroke-miterlimit="10" stroke-linejoin="round"/>
<path d="M216.602 71.0976C216.115 71.2384 215.93 71.8208 216.237 72.2176C216.589 72.6592 217.286 72.5376 217.466 72.0064C217.651 71.4624 217.152 70.9376 216.602 71.0976Z" fill="#FFCF2D" stroke="#FE5244" stroke-width="6" stroke-miterlimit="10" stroke-linejoin="round"/>
<path d="M205.126 70.9439C205.446 70.5535 205.274 69.9647 204.787 69.8176C204.249 69.6512 203.737 70.1503 203.897 70.6879C204.057 71.2383 204.762 71.3855 205.126 70.9439Z" fill="#FFCF2D" stroke="#FE5244" stroke-width="6" stroke-miterlimit="10" stroke-linejoin="round"/>
<path d="M229.389 70.9632C229.709 70.5728 229.536 69.984 229.05 69.8367C228.512 69.6703 228 70.1696 228.16 70.7072C228.314 71.2576 229.024 71.4048 229.389 70.9632Z" fill="#FFCF2D" stroke="#FE5244" stroke-width="6" stroke-miterlimit="10" stroke-linejoin="round"/>
<path d="M223.232 96.9087C223.552 96.5183 223.379 95.9296 222.893 95.7824C222.355 95.616 221.843 96.1152 222.003 96.6527C222.157 97.1967 222.867 97.3439 223.232 96.9087Z" fill="#FFCF2D" stroke="#FE5244" stroke-width="6" stroke-miterlimit="10" stroke-linejoin="round"/>
<path d="M218.125 56.403C217.984 56.4094 217.843 56.4158 217.696 56.4222L211.45 56.8062C209.856 56.9022 208.333 57.331 206.951 58.0414L205.031 52.2942L213.587 46.0222L218.125 56.403Z" fill="#E57281"/>
<path d="M206.925 57.952C208.704 57.1456 210.125 55.712 210.931 53.9328L214.042 47.0528L213.587 46.016L205.031 52.288L206.925 57.952Z" fill="#9A3B82"/>
<path d="M214.138 46.5984C214.138 47.1936 213.894 47.7312 213.504 48.1216C213.114 48.512 212.576 48.7552 211.981 48.7552H210.099C209.357 51.6416 206.483 53.6192 203.392 53.0752L201.978 52.8256C200.429 52.5504 199.373 51.104 199.59 49.5488L201.248 41.248C201.536 39.4752 203.36 38.3936 205.056 39.0016L207.802 40.1024C209.286 40.6144 210.285 42.0096 210.285 43.5776V44.3776L211.981 44.4416C213.171 44.4416 214.138 45.408 214.138 46.5984Z" fill="#E57281"/>
<path d="M210.951 47.0144C210.951 46.1888 211.616 45.5232 212.442 45.5232" stroke="#9A3B82" stroke-width="5" stroke-miterlimit="10" stroke-linecap="round"/>
<path d="M202.17 42.9952C202.17 42.9952 203.514 42.9952 204.474 44.2816" stroke="#9A3B82" stroke-width="5" stroke-miterlimit="10" stroke-linecap="round"/>
<path d="M203.063 45.3906C203.131 45.0185 203.045 44.6912 202.871 44.6596C202.697 44.628 202.501 44.9041 202.433 45.2762C202.366 45.6483 202.452 45.9756 202.626 46.0072C202.8 46.0388 202.995 45.7627 203.063 45.3906Z" fill="#9A3B82"/>
<path d="M211.981 44.4416C213.171 44.4416 214.138 45.408 214.138 46.5984C214.138 46.6048 214.138 46.6176 214.138 46.6304C215.098 45.152 217.453 41.3888 217.453 40.1152C217.453 38.4064 215.322 36.6976 213.114 37.4784C213.261 37.3696 213.414 37.2544 213.574 37.1328C214.426 36.4672 214.874 35.968 214.944 35.6096C214.97 35.4816 214.95 35.3664 214.886 35.2768C214.63 34.912 214.349 34.752 214.048 34.8032C213.606 34.8736 213.152 35.4176 212.698 36.416C212.493 36.8704 212.333 37.3184 212.243 37.5936C212.064 36.5248 211.2 32.9856 207.488 33.5296C206.208 33.7152 205.606 34.2464 205.44 34.8288C204.378 33.9968 202.957 33.344 201.779 33.9648C199.744 35.0336 199.994 36.7872 201.171 38.0288C200.058 38.0096 199.277 38.336 199.277 39.2768C199.277 40.1408 200.166 40.5568 201.389 40.7232C202.611 40.8896 204.179 40.8 205.536 40.6464C206.502 40.5376 207.373 40.4032 207.93 40.3072C207.558 41.0688 207.411 41.7216 207.443 42.272C207.501 43.4112 208.326 44.0832 209.491 44.32C209.741 44.3712 210.01 44.4032 210.285 44.416L211.981 44.4416ZM214.086 35.0592C214.106 35.0528 214.125 35.0528 214.15 35.0528C214.33 35.0528 214.502 35.1808 214.675 35.424C214.688 35.4496 214.707 35.488 214.694 35.5584C214.592 36.0768 213.28 37.0624 212.518 37.5808C212.819 36.6976 213.453 35.168 214.086 35.0592Z" fill="#FFCF2D"/>
<path d="M206.874 36.9536C206.432 36.9536 205.984 36.7168 205.658 36.3008C205.293 35.84 205.171 35.2704 205.325 34.7776C205.344 34.7136 205.408 34.6752 205.472 34.688C205.498 34.688 205.523 34.6944 205.542 34.7136C206.509 35.4048 207.283 36.3904 207.168 36.7808C207.142 36.8832 207.059 36.9472 206.95 36.9536C206.925 36.9536 206.899 36.9536 206.874 36.9536ZM205.53 35.0208C205.472 35.392 205.587 35.8016 205.856 36.1408C206.144 36.5056 206.541 36.7168 206.925 36.6912C206.938 36.5248 206.509 35.7632 205.53 35.0208Z" fill="white"/>
<path d="M194.24 93.4656H153.28C152.269 93.4656 151.661 92.352 152.198 91.5008L157.651 82.9376C158.362 81.824 159.584 81.152 160.902 81.152H188.627L194.24 93.4656Z" fill="#E57281"/>
<path d="M161.805 81.1584L165.069 75.7824C165.261 75.4624 165.613 75.264 165.984 75.264C166.823 75.264 167.335 76.1792 166.899 76.896L164.307 81.1584H161.805Z" fill="#FE5244"/>
<path d="M194.24 93.4656H185.03C185.011 93.4464 184.985 93.4208 184.966 93.4016C182.726 91.0976 181.773 87.6032 183.033 84.2368L184.345 81.152H188.627L194.24 93.4656Z" fill="#9A3B82"/>
<path d="M159.066 87.7184H153.933C153.587 87.7184 153.267 87.904 153.094 88.2048L152.55 89.1521C152.186 89.7921 152.646 90.5921 153.389 90.5921H157.517C158.234 90.5921 158.899 90.2209 159.277 89.6065L159.718 88.8833C160.026 88.3713 159.661 87.7184 159.066 87.7184Z" fill="#E57281"/>
<path d="M157.741 90.592H152.608C152.262 90.592 151.942 90.7776 151.77 91.0784L151.226 92.0256C150.861 92.6656 151.322 93.4656 152.064 93.4656H156.192C156.909 93.4656 157.574 93.0944 157.952 92.48L158.394 91.7568C158.707 91.2448 158.336 90.592 157.741 90.592Z" fill="#E57281"/>
<path d="M160.531 84.8065H155.398C155.053 84.8065 154.733 84.9921 154.56 85.2929L154.016 86.2401C153.651 86.8801 154.112 87.6801 154.854 87.6801H158.982C159.699 87.6801 160.365 87.3089 160.742 86.6945L161.184 85.9713C161.498 85.4593 161.126 84.8065 160.531 84.8065Z" fill="#E57281"/>
<path d="M159.066 87.7184H153.933C153.587 87.7184 153.267 87.904 153.094 88.2048L152.55 89.1521C152.186 89.7921 152.646 90.5921 153.389 90.5921H157.517C158.234 90.5921 158.899 90.2209 159.277 89.6065L159.718 88.8833C160.026 88.3713 159.661 87.7184 159.066 87.7184Z" stroke="#9A3B82" stroke-width="5" stroke-miterlimit="10" stroke-linecap="round"/>
<path d="M157.741 90.592H152.608C152.262 90.592 151.942 90.7776 151.77 91.0784L151.226 92.0256C150.861 92.6656 151.322 93.4656 152.064 93.4656H156.192C156.909 93.4656 157.574 93.0944 157.952 92.48L158.394 91.7568C158.707 91.2448 158.336 90.592 157.741 90.592Z" stroke="#9A3B82" stroke-width="5" stroke-miterlimit="10" stroke-linecap="round"/>
<path d="M160.531 84.8065H155.398C155.053 84.8065 154.733 84.9921 154.56 85.2929L154.016 86.2401C153.651 86.8801 154.112 87.6801 154.854 87.6801H158.982C159.699 87.6801 160.365 87.3089 160.742 86.6945L161.184 85.9713C161.498 85.4593 161.126 84.8065 160.531 84.8065Z" stroke="#9A3B82" stroke-width="5" stroke-miterlimit="10" stroke-linecap="round"/>
<path d="M167.962 89.088C166.419 89.088 164.935 88.5312 163.77 87.5136L161.824 85.8112H160.032L159.571 86.304C158.746 87.1872 157.728 87.6928 156.519 87.6928H155.661C155.213 87.6928 154.938 87.1936 155.181 86.816L157.338 83.4368H167.968V89.088H167.962Z" fill="#E57281"/>
<path d="M157.338 83.4368L155.181 86.816C154.938 87.1936 155.213 87.6928 155.661 87.6928H156.519C157.728 87.6928 158.746 87.1936 159.571 86.304L160.032 85.8112H161.824L163.77 87.5136C164.928 88.5248 166.419 89.088 167.962 89.088" stroke="#9A3B82" stroke-width="5" stroke-miterlimit="10" stroke-linecap="round"/>
<path d="M211.175 81.4976L201.402 92.416C199.347 94.7136 196.41 96.0256 193.325 96.0256C187.232 96.0256 183.014 89.9456 185.152 84.2368L196.762 56.96L192.838 54.7648C192.282 54.3296 192.013 53.6192 192.134 52.928L192.8 48.4416C193.005 47.4432 194.022 46.6624 195.015 46.432L199.61 45.3952C200 45.3056 200.359 45.6384 200.295 46.0288L199.629 49.4912C199.367 51.1808 200.506 52.64 202.195 52.928C203.578 53.1648 204.551 54.5536 204.423 55.9488L201.293 75.4688C201.287 75.4816 204.493 80.48 211.175 81.4976Z" fill="#E57281"/>
<path d="M203.68 60.5888L199.904 85.1072" stroke="#9A3B82" stroke-width="5" stroke-miterlimit="10" stroke-linecap="round"/>
<path d="M195.853 48.768L195.802 50.3552C195.783 51.008 196.173 51.584 196.736 51.744L202.618 52.9344" stroke="#9A3B82" stroke-width="5" stroke-miterlimit="10" stroke-linecap="round"/>
<path d="M206.618 53.4464L201.914 52.8192C200.365 52.544 199.309 51.0976 199.527 49.5424L200.135 46.0672C200.192 45.7408 199.898 45.4656 199.578 45.5424L194.778 46.6624" stroke="#9A3B82" stroke-width="5" stroke-miterlimit="10" stroke-linecap="round"/>
<path d="M204.019 89.472L216.742 75.3152" stroke="#FE5244" stroke-width="6" stroke-miterlimit="10"/>
<path d="M196.896 56.9664H199.142" stroke="#9A3B82" stroke-width="5" stroke-miterlimit="10" stroke-linecap="round"/>
<path d="M195.859 49.1904V49.7024C195.859 50.3104 196.301 50.8096 196.845 50.8096H197.549C197.856 50.8096 198.099 50.5344 198.099 50.1888L198.144 46.848C198.15 46.3296 197.6 46.0096 197.152 46.1184" stroke="#9A3B82" stroke-width="5" stroke-miterlimit="10" stroke-linecap="round"/>
<path d="M198.144 49.1904V49.7024C198.144 50.3104 198.586 50.8096 199.13 50.8096H199.578" stroke="#9A3B82" stroke-width="5" stroke-miterlimit="10" stroke-linecap="round"/>
<path d="M240.646 129.907L248.077 191.744" stroke="#66B0F0" stroke-width="6" stroke-miterlimit="10"/>
<path d="M208.442 129.907L201.011 191.744" stroke="#66B0F0" stroke-width="6" stroke-miterlimit="10"/>
<path d="M203.558 170.509H245.523" stroke="#66B0F0" stroke-width="6" stroke-miterlimit="10"/>
<path d="M204.16 130.099H244.544C245.082 130.099 245.517 129.664 245.517 129.126V127.808C245.517 127.27 245.082 126.835 244.544 126.835H204.16C203.622 126.835 203.187 127.27 203.187 127.808V129.126C203.187 129.664 203.622 130.099 204.16 130.099Z" fill="white" stroke="#FFCF2D" stroke-width="6" stroke-miterlimit="10"/>
<path d="M136.96 83.3024L130.778 96.0256H112.096L119.603 83.3024H136.96Z" fill="white" stroke="#3FB1B5" stroke-width="5" stroke-miterlimit="10"/>
<path d="M132.864 86.4063C132.864 86.4063 132.051 85.0176 130.099 85.376C128.64 85.6384 126.912 86.8415 125.85 86.1952C124.787 85.5488 123.847 84.7424 122.471 85.1264C121.095 85.5104 120.077 86.2463 120.077 86.2463" stroke="#3FB1B5" stroke-width="5" stroke-miterlimit="10"/>
<path d="M132.224 88.3904C132.224 88.3904 131.411 87.0016 129.459 87.36C128 87.6224 126.272 88.8256 125.21 88.1792C124.147 87.5328 123.206 86.7264 121.83 87.1104C120.454 87.4944 119.437 88.2304 119.437 88.2304" stroke="#3FB1B5" stroke-width="5" stroke-miterlimit="10"/>
<path d="M143.988 140.403C143.988 142.112 139.245 143.494 133.306 143.494C127.367 143.494 122.765 142.112 122.765 140.403C122.765 138.694 127.367 137.312 133.306 137.312C139.245 137.312 143.988 138.701 143.988 140.403Z" fill="#FE5244"/>
<path d="M141.255 138.323V160.403L140.583 157.216C139.859 153.786 136.832 151.334 133.325 151.334C132.269 151.334 131.232 151.558 130.291 151.981C130.259 151.994 130.227 152.013 130.189 152.026L127.725 143.04L126.355 138.042C128.231 137.587 130.656 137.312 133.306 137.312C136.455 137.312 139.29 137.702 141.255 138.323Z" fill="#A0505A"/>
<path d="M141.255 138.323V142.483C139.29 143.104 136.455 143.494 133.306 143.494C131.264 143.494 129.357 143.328 127.725 143.046L126.355 138.048C128.231 137.593 130.656 137.318 133.306 137.318C136.455 137.312 139.29 137.702 141.255 138.323Z" fill="#73325A"/>
<path d="M140.781 159.757C140.954 159.808 142.579 160.262 144.019 160.262C144.8 160.262 145.523 160.128 145.933 159.718C146.285 159.366 146.368 158.854 146.183 158.208C146.016 157.632 145.696 157.274 145.229 157.146C144.371 156.915 143.181 157.555 142.24 158.227C143.706 156.448 145.152 154.189 144.615 152.71C144.423 152.186 143.987 151.834 143.443 151.77C142.989 151.718 142.567 151.878 142.368 152.179C141.447 153.581 140.691 159.334 140.659 159.578L140.781 159.757ZM142.637 152.358C142.752 152.186 142.995 152.083 143.277 152.083C143.322 152.083 143.367 152.083 143.411 152.09C143.616 152.115 144.109 152.23 144.32 152.819C144.461 153.21 144.512 153.926 143.943 155.13C143.405 156.269 142.432 157.606 141.05 159.123C141.255 157.664 141.907 153.466 142.637 152.358ZM145.709 159.494C145.287 159.917 144.327 160.045 142.925 159.866C142.189 159.77 141.504 159.616 141.139 159.52C141.415 159.277 141.927 158.835 142.522 158.426C143.661 157.638 144.57 157.299 145.152 157.459C145.504 157.555 145.741 157.83 145.882 158.298C146.035 158.835 145.978 159.226 145.709 159.494Z" fill="#FFCF2D"/>
<path d="M127.789 153.818L126.311 155.475C124.634 157.357 124.359 160.096 125.632 162.272L132.141 173.434C133.415 175.616 135.751 176.954 138.272 176.954H140.967C142.919 176.954 144.371 175.162 143.968 173.254L140.576 157.222C139.853 153.792 136.826 151.341 133.319 151.341C131.213 151.334 129.197 152.237 127.789 153.818Z" fill="white" stroke="#3FB1B5" stroke-width="5" stroke-miterlimit="10"/>
<path d="M132.826 158.643L141.229 174.925C141.626 175.661 142.119 176.134 142.682 176.435C142.196 176.762 141.607 176.96 140.967 176.96H138.272C135.744 176.96 133.408 175.616 132.141 173.44L125.632 162.272C125.37 161.818 125.172 161.344 125.037 160.851C124.116 157.427 128.013 154.739 130.938 156.749C131.604 157.203 132.256 157.818 132.826 158.643Z" fill="#3FB1B5"/>
<path d="M132.845 158.682H125.088C125.127 158.56 125.171 158.445 125.223 158.336H132.595C132.672 158.438 132.749 158.541 132.826 158.65L132.845 158.682Z" fill="white"/>
<path d="M133.984 160.883H125.05C125.05 160.87 125.043 160.858 125.043 160.851C125.018 160.749 124.992 160.64 124.973 160.538H133.811L133.984 160.883Z" fill="white"/>
<path d="M135.123 163.091H126.112L125.907 162.739H134.944L135.123 163.091Z" fill="white"/>
<path d="M136.262 165.299H127.398L127.194 164.947H136.083L136.262 165.299Z" fill="white"/>
<path d="M137.402 167.501H128.685L128.48 167.155H137.223L137.402 167.501Z" fill="white"/>
<path d="M138.541 169.709H129.971L129.767 169.357H138.355L138.541 169.709Z" fill="white"/>
<path d="M139.68 171.917H131.258L131.053 171.565H139.495L139.68 171.917Z" fill="white"/>
<path d="M140.813 174.118H132.595C132.512 174.003 132.429 173.888 132.352 173.773H140.634L140.813 174.118Z" fill="white"/>
<path d="M142.496 176.326H135.354C135.123 176.224 134.899 176.109 134.682 175.981H142.035C142.182 176.109 142.336 176.224 142.496 176.326Z" fill="white"/>
<path d="M117.773 139.949C117.715 141.638 112.922 143.008 107.021 143.008C101.12 143.008 96.3266 141.645 96.269 139.949V126.643H117.773V139.949Z" fill="#73325A"/>
<path d="M116.346 142.157L116.314 143.738L116.007 159.168V158.72C116.007 154.758 112.794 151.546 108.832 151.546H108.397C106.375 151.546 104.551 152.333 103.2 153.6L102.259 147.238L101.677 143.302C103.251 143.565 105.075 143.712 107.015 143.712C111.008 143.706 114.483 143.078 116.346 142.157Z" fill="#A0505A"/>
<path d="M116.346 142.157L116.314 143.738C113.933 145.427 106.579 147.507 102.266 147.232L101.683 143.296C103.258 143.552 105.082 143.706 107.021 143.706C111.008 143.706 114.483 143.078 116.346 142.157Z" fill="#73325A"/>
<path d="M109.159 177.165H110.349C113.472 177.165 116.007 174.63 116.007 171.507V158.72C116.007 154.758 112.794 151.546 108.832 151.546H108.397C103.789 151.546 100.237 155.61 100.858 160.179L102.362 171.238C102.829 174.63 105.728 177.165 109.159 177.165Z" fill="white" stroke="#3FB1B5" stroke-width="5" stroke-miterlimit="10"/>
<path d="M114.228 175.622C113.216 176.576 111.847 177.165 110.349 177.165H109.159C105.728 177.165 102.829 174.63 102.368 171.238L100.864 160.179C100.839 159.968 100.813 159.757 100.807 159.552C101.191 157.101 103.309 155.226 105.869 155.226C107.13 155.226 108.295 155.686 109.197 156.454C110.099 157.222 110.733 158.304 110.931 159.552L112.909 173.05C113.056 174.054 113.53 174.95 114.228 175.622Z" fill="#3FB1B5"/>
<path d="M110.336 157.843H101.395C101.459 157.722 101.536 157.606 101.613 157.498H110.125C110.202 157.606 110.272 157.722 110.336 157.843Z" fill="white"/>
<path d="M111.002 160.045H100.845C100.832 159.93 100.819 159.814 100.813 159.699H110.951L111.002 160.045Z" fill="white"/>
<path d="M111.328 162.253H101.146L101.095 161.907H111.277L111.328 162.253Z" fill="white"/>
<path d="M111.648 164.461H101.446L101.395 164.109H111.597L111.648 164.461Z" fill="white"/>
<path d="M111.975 166.662H101.747L101.696 166.317H111.923L111.975 166.662Z" fill="white"/>
<path d="M112.294 168.87H102.042L101.997 168.525H112.243L112.294 168.87Z" fill="white"/>
<path d="M112.621 171.078H102.343L102.298 170.726H112.57L112.621 171.078Z" fill="white"/>
<path d="M112.947 173.28H102.976C102.919 173.165 102.868 173.05 102.823 172.934H112.89L112.909 173.05C112.922 173.126 112.935 173.203 112.947 173.28Z" fill="white"/>
<path d="M114.093 175.488H104.666C104.538 175.379 104.41 175.258 104.295 175.142H113.799C113.888 175.264 113.991 175.379 114.093 175.488Z" fill="white"/>
<path d="M122.426 70.7904V81.568C121.958 80.3456 118.259 80.5184 114.189 82.0608C110.701 83.3856 108.083 85.2032 107.699 86.464V71.296C107.699 66.784 110.112 62.752 113.818 60.5504C118.63 61.3888 122.426 65.5808 122.426 70.7904Z" fill="#FFCF2D"/>
<path d="M107.418 61.0367C104.141 63.3151 102.054 67.0975 102.054 71.2959V83.808H83.8337L86.3489 72.9791C87.4177 68.3647 90.7585 64.6847 95.1105 63.1167L107.418 61.0367Z" fill="#FFCF2D"/>
<path d="M144.269 114.592V139.712C144.269 138.003 139.245 136.621 133.306 136.621C127.366 136.621 122.554 138.003 122.554 139.712V127.674C122.554 127.11 122.093 126.65 121.53 126.65H88.864C79.04 126.65 71.7761 117.504 73.9969 107.936L81.8816 73.9648C83.136 68.544 87.5264 64.416 93.0112 63.4816L95.1104 63.1232C90.7584 64.6912 87.4176 68.3712 86.3488 72.9856L83.8336 83.8144H102.054V71.296C102.054 67.0976 104.147 63.3088 107.418 61.0368L110.298 60.5504C110.893 60.448 111.475 60.4032 112.058 60.4032C112.134 60.4032 112.205 60.4032 112.282 60.4032C112.352 60.4032 112.422 60.4096 112.486 60.4096C112.499 60.4096 112.512 60.4096 112.525 60.4096C112.576 60.4096 112.634 60.416 112.685 60.416C112.691 60.416 112.704 60.416 112.71 60.416C112.742 60.416 112.774 60.4224 112.8 60.4224C112.858 60.4288 112.909 60.4288 112.966 60.4352C113.03 60.4416 113.101 60.448 113.165 60.4544C113.229 60.4608 113.286 60.4672 113.35 60.4736C113.363 60.4736 113.376 60.48 113.395 60.48C113.459 60.4864 113.53 60.4992 113.594 60.5056C113.6 60.5056 113.606 60.5056 113.606 60.5056C113.677 60.5184 113.747 60.5248 113.818 60.5376C110.112 62.7392 107.699 66.7712 107.699 71.2832V102.035H131.725C138.65 102.048 144.269 107.661 144.269 114.592Z" fill="#FE5244"/>
<path d="M107.834 60.7552C104.557 63.0336 102.048 67.0975 102.048 71.2959V83.8079H83.8274L86.3426 72.9791C87.4114 68.3647 90.4706 64.6143 94.829 63.0464" stroke="white" stroke-width="6" stroke-miterlimit="10" stroke-linecap="round"/>
<path d="M122.554 123.814C122.554 120.25 123.815 116.8 126.112 114.08" stroke="white" stroke-width="6" stroke-miterlimit="10" stroke-linecap="round"/>
<path d="M95.9363 122.541C95.9043 122.541 95.8723 122.534 95.8467 122.515L95.0019 122.054C94.9059 122.003 94.8739 121.888 94.9251 121.792C94.9763 121.696 95.0915 121.664 95.1875 121.715L96.0323 122.176C96.1283 122.227 96.1603 122.342 96.1091 122.438C96.0707 122.502 96.0067 122.541 95.9363 122.541ZM96.7811 122.323C96.7107 122.323 96.6467 122.285 96.6147 122.221C96.5635 122.125 96.5955 122.01 96.6915 121.958L97.5363 121.498C97.6323 121.446 97.7475 121.485 97.7987 121.574C97.8499 121.67 97.8179 121.786 97.7219 121.837L96.8771 122.298C96.8451 122.31 96.8131 122.323 96.7811 122.323ZM94.2467 121.626C94.2147 121.626 94.1827 121.619 94.1571 121.6L93.3123 121.139C93.2163 121.088 93.1843 120.973 93.2355 120.877C93.2867 120.781 93.4019 120.749 93.4979 120.8L94.3427 121.261C94.4387 121.312 94.4707 121.427 94.4195 121.523C94.3811 121.587 94.3171 121.626 94.2467 121.626ZM98.4643 121.402C98.3939 121.402 98.3299 121.363 98.2979 121.299C98.2467 121.203 98.2787 121.088 98.3747 121.037L99.2195 120.576C99.3667 120.499 99.5011 120.41 99.6355 120.314C99.7187 120.25 99.8403 120.269 99.9043 120.352C99.9683 120.435 99.9491 120.557 99.8659 120.621C99.7187 120.73 99.5651 120.826 99.4051 120.915L98.5603 121.376C98.5283 121.395 98.4963 121.402 98.4643 121.402ZM92.5763 120.678C92.5379 120.678 92.4995 120.666 92.4611 120.64C92.1923 120.442 91.9427 120.211 91.7315 119.949C91.6611 119.866 91.6739 119.744 91.7571 119.68C91.8403 119.61 91.9619 119.622 92.0259 119.706C92.2179 119.942 92.4419 120.147 92.6851 120.326C92.7683 120.39 92.7875 120.512 92.7299 120.595C92.6979 120.653 92.6403 120.678 92.5763 120.678ZM100.442 120.006C100.397 120.006 100.359 119.994 100.32 119.962C100.237 119.898 100.224 119.776 100.295 119.693C100.487 119.456 100.647 119.2 100.775 118.918C100.819 118.822 100.935 118.778 101.031 118.822C101.127 118.867 101.171 118.982 101.127 119.078C100.986 119.386 100.807 119.674 100.596 119.93C100.551 119.981 100.5 120.006 100.442 120.006ZM91.3731 119.213C91.3027 119.213 91.2323 119.174 91.2003 119.104C91.0595 118.797 90.9571 118.477 90.8931 118.144C90.8739 118.042 90.9443 117.939 91.0467 117.92C91.1491 117.901 91.2515 117.971 91.2707 118.074C91.3283 118.374 91.4179 118.662 91.5459 118.938C91.5907 119.034 91.5459 119.149 91.4499 119.194C91.4243 119.206 91.3987 119.213 91.3731 119.213ZM101.236 118.278C101.223 118.278 101.21 118.278 101.204 118.278C101.101 118.259 101.031 118.157 101.05 118.054C101.088 117.843 101.108 117.632 101.108 117.421V117.133C101.108 117.024 101.191 116.941 101.3 116.941C101.408 116.941 101.492 117.024 101.492 117.133V117.421C101.492 117.658 101.472 117.894 101.428 118.125C101.408 118.214 101.325 118.278 101.236 118.278ZM91.0211 117.344C90.9123 117.344 90.8291 117.261 90.8291 117.152V116.192C90.8291 116.083 90.9123 116 91.0211 116C91.1299 116 91.2131 116.083 91.2131 116.192V117.152C91.2131 117.254 91.1235 117.344 91.0211 117.344ZM101.293 116.365C101.184 116.365 101.101 116.282 101.101 116.173V115.213C101.101 115.104 101.184 115.021 101.293 115.021C101.402 115.021 101.485 115.104 101.485 115.213V116.173C101.485 116.282 101.402 116.365 101.293 116.365ZM91.0211 115.424C90.9123 115.424 90.8291 115.341 90.8291 115.232V114.272C90.8291 114.163 90.9123 114.08 91.0211 114.08C91.1299 114.08 91.2131 114.163 91.2131 114.272V115.232C91.2131 115.334 91.1235 115.424 91.0211 115.424ZM101.293 114.445C101.184 114.445 101.101 114.362 101.101 114.253V113.293C101.101 113.184 101.184 113.101 101.293 113.101C101.402 113.101 101.485 113.184 101.485 113.293V114.253C101.485 114.362 101.402 114.445 101.293 114.445ZM91.0211 113.504C90.9123 113.504 90.8291 113.421 90.8291 113.312V112.352C90.8291 112.243 90.9123 112.16 91.0211 112.16C91.1299 112.16 91.2131 112.243 91.2131 112.352V113.312C91.2131 113.414 91.1235 113.504 91.0211 113.504ZM101.293 112.525C101.184 112.525 101.101 112.442 101.101 112.333V111.373C101.101 111.264 101.184 111.181 101.293 111.181C101.402 111.181 101.485 111.264 101.485 111.373V112.333C101.485 112.442 101.402 112.525 101.293 112.525ZM91.0211 111.584C90.9123 111.584 90.8291 111.501 90.8291 111.392V110.566H91.3475C91.4563 110.566 91.5395 110.65 91.5395 110.758C91.5395 110.867 91.4563 110.95 91.3475 110.95H91.2131V111.392C91.2131 111.494 91.1235 111.584 91.0211 111.584ZM100.948 110.95H99.9875C99.8787 110.95 99.7955 110.867 99.7955 110.758C99.7955 110.65 99.8787 110.566 99.9875 110.566H100.948C101.056 110.566 101.14 110.65 101.14 110.758C101.14 110.867 101.056 110.95 100.948 110.95ZM99.0275 110.95H98.0675C97.9587 110.95 97.8755 110.867 97.8755 110.758C97.8755 110.65 97.9587 110.566 98.0675 110.566H99.0275C99.1363 110.566 99.2195 110.65 99.2195 110.758C99.2195 110.867 99.1363 110.95 99.0275 110.95ZM97.1075 110.95H96.1475C96.0387 110.95 95.9555 110.867 95.9555 110.758C95.9555 110.65 96.0387 110.566 96.1475 110.566H97.1075C97.2163 110.566 97.2995 110.65 97.2995 110.758C97.2995 110.867 97.2163 110.95 97.1075 110.95ZM95.1875 110.95H94.2275C94.1187 110.95 94.0355 110.867 94.0355 110.758C94.0355 110.65 94.1187 110.566 94.2275 110.566H95.1875C95.2963 110.566 95.3795 110.65 95.3795 110.758C95.3795 110.867 95.2963 110.95 95.1875 110.95ZM93.2675 110.95H92.3075C92.1987 110.95 92.1155 110.867 92.1155 110.758C92.1155 110.65 92.1987 110.566 92.3075 110.566H93.2675C93.3763 110.566 93.4595 110.65 93.4595 110.758C93.4595 110.867 93.3763 110.95 93.2675 110.95Z" fill="white"/>
<path d="M77.8241 121.478C77.7537 121.478 77.6897 121.44 77.6577 121.376C77.6065 121.28 77.6385 121.165 77.7345 121.114L78.5153 120.685C78.5345 120.672 78.5537 120.666 78.5729 120.653C78.6625 120.602 78.7841 120.634 78.8353 120.723C78.8865 120.813 78.8545 120.934 78.7649 120.986C78.7457 120.998 78.7265 121.011 78.7009 121.018L77.9201 121.446C77.8881 121.472 77.8561 121.478 77.8241 121.478ZM79.4433 120.454C79.3921 120.454 79.3409 120.435 79.3025 120.39C79.2321 120.314 79.2385 120.192 79.3153 120.122C79.5393 119.917 79.7377 119.68 79.9105 119.43C79.9681 119.341 80.0897 119.322 80.1793 119.379C80.2689 119.437 80.2881 119.558 80.2305 119.648C80.0449 119.923 79.8209 120.179 79.5777 120.41C79.5329 120.442 79.4881 120.454 79.4433 120.454ZM80.5121 118.88C80.4865 118.88 80.4673 118.874 80.4417 118.867C80.3457 118.829 80.2945 118.72 80.3329 118.618C80.4417 118.33 80.5185 118.035 80.5633 117.734C80.5761 117.632 80.6721 117.555 80.7809 117.568C80.8833 117.581 80.9601 117.677 80.9473 117.786C80.9025 118.118 80.8193 118.445 80.6977 118.758C80.6593 118.835 80.5889 118.88 80.5121 118.88ZM80.7873 116.998C80.6785 116.998 80.5953 116.915 80.5953 116.806V115.846C80.5953 115.738 80.6785 115.654 80.7873 115.654C80.8961 115.654 80.9793 115.738 80.9793 115.846V116.806C80.9793 116.909 80.8961 116.998 80.7873 116.998ZM80.7873 115.078C80.6785 115.078 80.5953 114.995 80.5953 114.886V113.926C80.5953 113.818 80.6785 113.734 80.7873 113.734C80.8961 113.734 80.9793 113.818 80.9793 113.926V114.886C80.9793 114.989 80.8961 115.078 80.7873 115.078ZM80.7873 113.158C80.6785 113.158 80.5953 113.075 80.5953 112.966V112.006C80.5953 111.898 80.6785 111.814 80.7873 111.814C80.8961 111.814 80.9793 111.898 80.9793 112.006V112.966C80.9793 113.069 80.8961 113.158 80.7873 113.158ZM80.7873 111.238C80.6785 111.238 80.5953 111.155 80.5953 111.046V110.95H80.1153C80.0065 110.95 79.9233 110.867 79.9233 110.758C79.9233 110.65 80.0065 110.566 80.1153 110.566H80.9793V111.046C80.9793 111.149 80.8961 111.238 80.7873 111.238ZM79.1553 110.95H78.1953C78.0865 110.95 78.0033 110.867 78.0033 110.758C78.0033 110.65 78.0865 110.566 78.1953 110.566H79.1553C79.2641 110.566 79.3473 110.65 79.3473 110.758C79.3473 110.867 79.2577 110.95 79.1553 110.95ZM77.2353 110.95H76.2753C76.1665 110.95 76.0833 110.867 76.0833 110.758C76.0833 110.65 76.1665 110.566 76.2753 110.566H77.2353C77.3441 110.566 77.4273 110.65 77.4273 110.758C77.4273 110.867 77.3377 110.95 77.2353 110.95ZM75.3153 110.95H74.3553C74.2465 110.95 74.1633 110.867 74.1633 110.758C74.1633 110.65 74.2465 110.566 74.3553 110.566H75.3153C75.4241 110.566 75.5073 110.65 75.5073 110.758C75.5073 110.867 75.4177 110.95 75.3153 110.95Z" fill="white"/>
<path d="M122.426 81.568C122.893 82.7904 119.936 84.96 115.872 86.5024C111.808 88.0448 108.166 88.2816 107.699 87.0528C107.232 85.824 110.118 83.6096 114.189 82.0672C118.259 80.5248 121.958 80.3392 122.426 81.568Z" fill="#FE5244"/>
<path d="M124.698 121.274V121.952C124.486 121.901 124.262 121.875 124.038 121.875H123.213C121.99 121.875 120.947 121.094 120.55 120.006L122.893 119.693C123.846 119.565 124.698 120.307 124.698 121.274Z" fill="#73325A"/>
<path d="M126.861 124.698V129.907C126.861 131.123 125.875 132.109 124.659 132.109H122.208C121.6 132.109 121.05 131.866 120.653 131.462C120.256 131.066 120.006 130.515 120.006 129.907H121.6C122.125 129.907 122.547 129.485 122.547 128.96V127.597C122.547 127.072 122.125 126.65 121.6 126.65H113.453C110.272 126.65 107.693 124.07 107.693 120.89V86.4704C108.077 85.2096 110.694 83.3856 114.182 82.0672C116.563 81.1648 118.822 80.7296 120.378 80.768V119.053C120.378 120.614 121.645 121.882 123.206 121.882H124.032C125.594 121.875 126.861 123.136 126.861 124.698Z" fill="#A0505A"/>
<path d="M120.378 80.7616V84.2432C119.219 85.024 117.651 85.824 115.866 86.496C111.795 88.0384 108.16 88.2752 107.693 87.0464V86.464C108.077 85.2032 110.694 83.3792 114.182 82.0608C116.57 81.1584 118.822 80.7232 120.378 80.7616Z" fill="#73325A"/>
<path d="M109.735 54.8352L107.328 61.0368L94.925 63.2576L98.1635 54.8352H109.735Z" fill="#A0505A"/>
<path d="M109.735 54.8352L108.436 58.1888L96.1348 60.1088L98.1636 54.8352H109.735Z" fill="#73325A"/>
<path d="M117.005 42.2144C117.005 43.0528 115.552 43.9808 113.875 44.7616C111.591 45.8304 108.896 46.6432 108.896 46.6432L107.079 50.0672C109.549 51.3792 110.515 53.7344 110.899 55.3792C111.143 56.4288 111.143 57.1776 111.143 57.1776H93.7218C93.7218 57.1776 89.1458 42.3552 100.173 38.8096C106.919 36.64 117.005 40.224 117.005 42.2144Z" fill="white" stroke="#FFCF2D" stroke-width="6" stroke-miterlimit="10" stroke-linecap="round"/>
<path d="M98.5601 40.9216C100.953 40.9216 102.893 38.9817 102.893 36.5888C102.893 34.1959 100.953 32.256 98.5601 32.256C96.1672 32.256 94.2273 34.1959 94.2273 36.5888C94.2273 38.9817 96.1672 40.9216 98.5601 40.9216Z" fill="white" stroke="#FFCF2D" stroke-width="6" stroke-miterlimit="10" stroke-linecap="round"/>
<path d="M110.893 55.3792C110.535 53.824 109.639 51.6096 107.431 50.272H106.861C106.336 50.272 105.856 50.0608 105.511 49.7152C105.165 49.3696 104.954 48.8896 104.954 48.3648C104.954 47.3088 105.805 46.4576 106.861 46.4576L109.274 46.5088H109.338C109.383 46.496 109.427 46.4768 109.479 46.464C110.131 46.3232 112.199 45.824 113.914 44.9664L114.112 46.1504L114.752 49.9456C115.187 52.5504 113.402 54.9504 110.893 55.3792Z" fill="#A0505A"/>
<path d="M114.106 46.144C112.007 46.9952 109.267 46.5024 109.267 46.5024C109.267 46.5024 111.847 45.9904 113.907 44.96L114.106 46.144Z" fill="#73325A"/>
<path d="M108.346 48.7295C108.346 47.9999 107.757 47.4111 107.027 47.4111" stroke="#73325A" stroke-width="5" stroke-miterlimit="10" stroke-linecap="round"/>
<path d="M115.123 129.907L122.554 191.744" stroke="#66B0F0" stroke-width="6" stroke-miterlimit="10"/>
<path d="M82.912 129.907L75.488 191.744" stroke="#66B0F0" stroke-width="6" stroke-miterlimit="10"/>
<path d="M78.0354 170.509H120" stroke="#66B0F0" stroke-width="6" stroke-miterlimit="10"/>
<path d="M76.4545 129.907H121.581C122.118 129.907 122.554 129.472 122.554 128.934V127.616C122.554 127.078 122.118 126.643 121.581 126.643H76.4545C75.9169 126.643 75.4817 127.078 75.4817 127.616V128.934C75.4881 129.472 75.9233 129.907 76.4545 129.907Z" fill="white" stroke="#FFCF2D" stroke-width="6" stroke-miterlimit="10"/>
</svg>
