<svg width="359" height="360" viewBox="0 0 359 360" fill="none" xmlns="http://www.w3.org/2000/svg">
<g clip-path="url(#clip0_22_1314)">
<path d="M180 360C279.411 360 360 279.411 360 180C360 80.5887 279.411 0 180 0C80.5887 0 0 80.5887 0 180C0 279.411 80.5887 360 180 360Z" fill="#FAEFE9"/>
<g clip-path="url(#clip1_22_1314)">
<path d="M32.6038 122.453C51.7728 122.453 58.2425 135.432 58.2425 144.451C58.2425 163.26 54.1648 159.066 54.1648 178.505C54.1648 199.397 80.9665 225.777 80.9665 261.863C80.9665 311.195 37.8493 318.427 32.6038 318.427C5.416 318.427 -4.68408 288.548 -4.68408 270.421C-4.68408 248.946 14.2542 225.956 14.2542 205.256C14.2542 190.115 9.30064 184.232 9.30064 160.758C9.30064 137.153 22.9934 122.453 32.6038 122.453Z" fill="#73E5E2"/>
<path d="M31.1724 359.295V153.517" stroke="#FBDC8E" stroke-width="3" stroke-miterlimit="10" stroke-linecap="round"/>
<path d="M31.1724 287.072L63.0971 254.396" stroke="#FBDC8E" stroke-width="3" stroke-miterlimit="10" stroke-linecap="round"/>
<path d="M30.3765 195.372L20.0928 185.102" stroke="#FBDC8E" stroke-width="3" stroke-miterlimit="10" stroke-linecap="round"/>
<path d="M31.1724 167.826L45.5291 153.493" stroke="#FBDC8E" stroke-width="3" stroke-miterlimit="10" stroke-linecap="round"/>
</g>
<path d="M225.241 154.057H137.851V236.65H225.241V154.057Z" stroke="#66B0F0" stroke-width="6" stroke-miterlimit="10"/>
<path d="M181.546 154.057H137.851V236.65H181.546V154.057Z" stroke="#66B0F0" stroke-width="6" stroke-miterlimit="10"/>
<path d="M225.241 154.057H181.546V236.65H225.241V154.057Z" stroke="#66B0F0" stroke-width="6" stroke-miterlimit="10"/>
<path d="M217.178 162.047H190.533V188.692H217.178V162.047Z" stroke="#66B0F0" stroke-width="6" stroke-miterlimit="10"/>
<path d="M207.937 174.861L204.839 177.203" stroke="#66B0F0" stroke-width="6" stroke-miterlimit="10" stroke-linecap="round"/>
<path d="M200.523 180.468L190.533 188.023V182.469L217.171 162.716V167.882L209.991 173.309" stroke="#66B0F0" stroke-width="6" stroke-miterlimit="10" stroke-linecap="round"/>
<path d="M137.851 154.057H181.546V160.448L137.851 154.057Z" fill="#66B0F0"/>
<path d="M192.46 206.846C192.159 206.846 191.877 206.685 191.724 206.418L185.333 195.243C185.012 194.681 185.42 193.972 186.069 193.972C186.37 193.972 186.651 194.132 186.805 194.4L193.196 205.575C193.517 206.143 193.109 206.846 192.46 206.846Z" stroke="#66B0F0" stroke-width="6" stroke-miterlimit="10"/>
<path d="M172.452 162.047H145.807V188.692H172.452V162.047Z" stroke="#66B0F0" stroke-width="6" stroke-miterlimit="10"/>
<path d="M145.807 182.469L172.446 162.716" stroke="#66B0F0" stroke-width="6" stroke-miterlimit="10" stroke-linecap="round"/>
<path d="M170.518 206.846C170.82 206.846 171.101 206.685 171.254 206.418L177.645 195.243C177.966 194.681 177.558 193.972 176.909 193.972C176.608 193.972 176.327 194.132 176.173 194.4L169.782 205.575C169.461 206.143 169.869 206.846 170.518 206.846Z" stroke="#66B0F0" stroke-width="6" stroke-miterlimit="10"/>
<path d="M293.588 317.048L68.4805 329.761V311.674H293.588V317.048Z" fill="#D0F0E4"/>
<path d="M283.329 297.656L80.1636 310.37V292.283H283.329V297.656Z" fill="#D0F0E4"/>
<path d="M270.248 278.331L91.1311 291.045V272.958H270.248V278.331Z" fill="#D0F0E4"/>
<path d="M259.936 259.14L103.35 271.854V253.767H259.936V259.14Z" fill="#D0F0E4"/>
<path d="M68.4805 311.674H293.588V329.092" stroke="#66B0F0" stroke-width="6" stroke-miterlimit="10"/>
<path d="M80.1636 292.216H283.329V310.376" stroke="#66B0F0" stroke-width="6" stroke-miterlimit="10"/>
<path d="M91.1311 272.891H270.248V291.045" stroke="#66B0F0" stroke-width="6" stroke-miterlimit="10"/>
<path d="M103.416 253.7H259.936V271.854" stroke="#66B0F0" stroke-width="6" stroke-miterlimit="10"/>
<path d="M245.884 241.006L117.408 252.147V236.295H245.884V241.006Z" fill="#D0F0E4"/>
<path d="M117.462 236.235H245.884V252.147" stroke="#66B0F0" stroke-width="6" stroke-miterlimit="10"/>
<path d="M103.363 272.603V230.835" stroke="#66B0F0" stroke-width="6" stroke-miterlimit="10"/>
<path d="M137.938 202.497L59.3467 266.875C56.5965 269.625 55.0508 273.352 55.0508 277.24C55.0508 285.337 61.6151 292.236 69.7117 292.236" stroke="#66B0F0" stroke-width="6" stroke-miterlimit="10"/>
<path d="M79.9631 310.376V249.946" stroke="#66B0F0" stroke-width="6" stroke-miterlimit="10"/>
<path d="M259.936 272.737V230.835" stroke="#66B0F0" stroke-width="6" stroke-miterlimit="10"/>
<path d="M225.362 202.497L303.959 266.875C306.71 269.625 308.255 273.352 308.255 277.24C308.255 285.337 301.691 292.236 293.594 292.236" stroke="#66B0F0" stroke-width="6" stroke-miterlimit="10"/>
<path d="M283.343 310.376V249.946" stroke="#66B0F0" stroke-width="6" stroke-miterlimit="10"/>
<path d="M272.67 330.129C272.67 330.129 281.429 314.411 276.109 314.324C273.627 314.284 271.084 322.789 272.048 330.129H272.67Z" fill="#3FB1B5"/>
<path d="M272.289 330.042C272.289 330.042 275.541 315.328 283.396 317.703C291.252 320.079 277.843 330.042 277.843 330.042" stroke="#FFCF2D" stroke-width="6" stroke-miterlimit="10" stroke-linecap="round"/>
<path d="M261.776 330.297C259.053 330.042 257.514 325.171 260.739 323.545C265.376 321.21 266.828 326.088 265.912 326.248C264.995 326.416 263.703 320.246 267.705 320.413C271.706 320.581 271.854 330.042 271.854 330.042" stroke="#FFCF2D" stroke-width="6" stroke-miterlimit="10" stroke-linecap="round"/>
<path d="M275.581 330.042C275.581 330.042 279.763 319.885 283.838 317.857" stroke="#FFCF2D" stroke-width="6" stroke-miterlimit="10" stroke-linecap="round"/>
<path d="M271.124 324.77C271.124 324.77 270.141 319.316 270.101 315.729" stroke="#FFCF2D" stroke-width="6" stroke-miterlimit="10"/>
<path d="M272.315 318.158C272.121 318.64 270.622 319.838 270.622 319.838C270.622 319.838 270.382 317.931 270.576 317.449C270.77 316.967 271.318 316.74 271.793 316.934C272.275 317.128 272.509 317.677 272.315 318.158Z" stroke="#FFCF2D" stroke-width="6" stroke-miterlimit="10"/>
<path d="M271.813 314.324C271.619 314.806 270.12 316.004 270.12 316.004C270.12 316.004 269.88 314.097 270.074 313.615C270.268 313.133 270.816 312.906 271.291 313.1C271.773 313.3 272.007 313.842 271.813 314.324Z" stroke="#FFCF2D" stroke-width="6" stroke-miterlimit="10"/>
<path d="M268.361 318.58C268.642 319.015 270.341 319.905 270.341 319.905C270.341 319.905 270.214 317.991 269.933 317.556C269.652 317.121 269.07 317.001 268.635 317.282C268.2 317.569 268.08 318.145 268.361 318.58Z" stroke="#FFCF2D" stroke-width="6" stroke-miterlimit="10"/>
<path d="M77.9219 330.404C77.9219 330.404 72.542 325.546 72.649 322.06C72.7695 318.071 76.5836 319.999 76.7844 318.56C76.9918 317.128 72.7561 307.332 78.6513 307.405C84.5465 307.479 81.803 316.874 83.4022 317.744C85.0015 318.607 87.6513 317.576 86.9353 321.377C86.2193 325.184 80.2639 330.357 80.2639 330.357L77.9219 330.404Z" fill="#3FB1B5"/>
<path d="M61.7689 330.283C58.2827 330.283 55.5994 323.913 60.9726 322.227C66.3459 320.54 66.9347 325.619 65.7637 325.813C64.5927 326.007 64.0106 316.057 73.6797 317.409C84.2321 318.881 77.7816 330.283 77.7816 330.283C77.7816 330.283 84.0046 319.818 78.2834 307.559" stroke="#FFCF2D" stroke-width="6" stroke-miterlimit="10" stroke-linecap="round"/>
<path d="M85.0886 330.283C85.0886 330.283 90.5488 318.854 95.7882 322.494C101.028 326.135 88.7288 330.283 88.7288 330.283" stroke="#FFCF2D" stroke-width="6" stroke-miterlimit="10" stroke-linecap="round"/>
<path d="M87.0559 330.183C87.0559 330.183 92.3622 323.09 95.8619 322.568" stroke="#FFCF2D" stroke-width="6" stroke-miterlimit="10" stroke-linecap="round"/>
<path d="M80.3579 330.216C80.3579 330.216 83.2285 323.532 85.7713 319.57" stroke="#FFCF2D" stroke-width="6" stroke-miterlimit="10" stroke-linecap="round"/>
<path d="M86.4471 323.826C85.885 324.214 83.3757 324.448 83.3757 324.448C83.3757 324.448 84.4932 322.187 85.0486 321.798C85.6107 321.41 86.3735 321.551 86.7616 322.113C87.1497 322.675 87.0092 323.445 86.4471 323.826Z" stroke="#FFCF2D" stroke-width="6" stroke-miterlimit="10"/>
<path d="M88.6688 319.262C88.1067 319.651 85.5974 319.885 85.5974 319.885C85.5974 319.885 86.7149 317.623 87.2703 317.235C87.8323 316.847 88.5952 316.987 88.9833 317.549C89.3714 318.112 89.2309 318.881 88.6688 319.262Z" stroke="#FFCF2D" stroke-width="6" stroke-miterlimit="10"/>
<path d="M89.5987 315.388C89.2374 315.964 87.0225 317.168 87.0225 317.168C87.0225 317.168 87.1496 314.652 87.5176 314.077C87.879 313.501 88.6418 313.327 89.2173 313.688C89.7928 314.05 89.96 314.813 89.5987 315.388Z" stroke="#FFCF2D" stroke-width="6" stroke-miterlimit="10"/>
<path d="M81.8033 321.43C81.7966 322.113 83.0144 324.321 83.0144 324.321C83.0144 324.321 84.259 322.126 84.2657 321.45C84.2724 320.768 83.7237 320.213 83.0412 320.213C82.3653 320.206 81.8099 320.748 81.8033 321.43Z" stroke="#FFCF2D" stroke-width="6" stroke-miterlimit="10"/>
<path d="M84.2925 316.92C84.2858 317.603 85.5037 319.811 85.5037 319.811C85.5037 319.811 86.7482 317.616 86.7549 316.94C86.7616 316.258 86.2129 315.703 85.5304 315.703C84.8479 315.703 84.2992 316.245 84.2925 316.92Z" stroke="#FFCF2D" stroke-width="6" stroke-miterlimit="10"/>
<path d="M244.861 330.297H301.256" stroke="#66B0F0" stroke-width="6" stroke-miterlimit="10"/>
<path d="M53.0901 330.297H189.154" stroke="#66B0F0" stroke-width="6" stroke-miterlimit="10"/>
<path d="M176.775 201.828C176.775 202.242 176.728 202.651 176.641 203.052C176.621 203.132 176.601 203.213 176.581 203.293C176.367 204.096 175.979 204.859 175.423 205.508C175.417 205.515 175.41 205.528 175.403 205.535C175.343 205.608 175.276 205.675 175.209 205.749C175.196 205.769 175.176 205.782 175.162 205.796C174.941 206.023 174.694 206.237 174.426 206.431C173.958 206.773 173.463 207.027 172.947 207.207C172.867 207.234 172.787 207.261 172.707 207.288C171.984 207.502 171.228 207.569 170.492 207.489C170.411 207.482 170.331 207.468 170.251 207.455C169.468 207.335 168.712 207.06 168.036 206.625C167.956 206.572 167.875 206.518 167.795 206.465C167.501 206.257 167.226 206.016 166.972 205.749C166.898 205.668 166.825 205.595 166.758 205.508C166.617 205.341 166.477 205.16 166.356 204.973L165.935 204.337L166.309 205.508L166.383 205.749L167.086 207.964L167.159 208.205L167.795 210.212L167.862 210.419L167.936 210.66L168.036 210.968L168.638 212.875L168.712 213.116L169.414 215.331L169.488 215.572L170.191 217.787L170.244 217.961L170.264 218.028L170.485 218.717L170.525 218.844C170.518 218.817 170.505 218.79 170.485 218.764C170.438 218.697 170.358 218.636 170.244 218.583C169.863 218.396 169.1 218.255 168.029 218.175C167.949 218.168 167.869 218.161 167.788 218.155C167.146 218.115 166.41 218.088 165.573 218.074C165.493 218.074 165.413 218.074 165.333 218.074C164.65 218.068 163.914 218.074 163.118 218.094C163.037 218.094 162.957 218.101 162.877 218.101C162.174 218.121 161.438 218.148 160.662 218.181C160.582 218.188 160.501 218.188 160.421 218.195C159.712 218.228 158.976 218.268 158.206 218.315C158.126 218.322 158.046 218.322 157.965 218.329C157.249 218.376 156.513 218.422 155.75 218.483C155.67 218.489 155.59 218.496 155.509 218.503C154.787 218.556 154.051 218.616 153.295 218.683C153.221 218.69 153.147 218.697 153.074 218.703C153.067 218.703 153.06 218.703 153.054 218.703C152.304 218.77 151.562 218.837 150.839 218.911C150.759 218.918 150.678 218.924 150.598 218.938C149.842 219.011 149.099 219.092 148.383 219.178C148.303 219.185 148.223 219.199 148.142 219.205C147.379 219.292 146.637 219.386 145.927 219.486C145.847 219.5 145.767 219.506 145.686 219.52C144.91 219.627 144.174 219.734 143.472 219.841C143.391 219.854 143.311 219.868 143.231 219.881C142.468 220.002 141.759 220.129 141.096 220.249C141.069 220.256 141.043 220.263 141.016 220.263C140.936 220.276 140.855 220.296 140.775 220.309C140.474 220.37 140.186 220.43 139.912 220.49C139.417 220.597 138.968 220.704 138.56 220.811C138.48 220.831 138.399 220.851 138.319 220.878C136.914 221.26 136.118 221.634 136.118 221.969V212.36H128.737C128.657 212.36 128.576 212.36 128.496 212.353C127.72 212.326 126.977 212.179 126.281 211.938C126.201 211.912 126.121 211.878 126.04 211.851C125.311 211.564 124.635 211.169 124.033 210.68C123.966 210.627 123.892 210.567 123.825 210.506C123.799 210.486 123.779 210.466 123.752 210.439C123.698 210.393 123.638 210.339 123.585 210.286C123.538 210.245 123.498 210.199 123.451 210.152C122.889 209.59 122.414 208.941 122.052 208.218C122.012 208.138 121.972 208.057 121.938 207.977C121.617 207.288 121.403 206.545 121.309 205.762C121.296 205.682 121.289 205.602 121.283 205.521C121.263 205.294 121.249 205.066 121.249 204.832C121.249 204.317 121.303 203.802 121.403 203.306C121.417 203.226 121.437 203.146 121.457 203.065C121.644 202.283 121.959 201.54 122.387 200.851C122.427 200.79 122.467 200.723 122.507 200.663L122.541 200.61L123.578 199.051L123.819 198.689L124.02 198.395L124.18 198.154L125.659 195.939L125.82 195.698L126.04 195.37L126.281 195.009L127.298 193.483L127.459 193.242L128.496 191.683L128.737 191.322L128.931 191.028L129.092 190.787L130.57 188.572L130.731 188.331L130.771 188.271C130.831 188.184 130.892 188.103 130.952 188.016C131.032 187.909 131.112 187.809 131.193 187.702C131.661 187.113 132.183 186.584 132.759 186.116C132.859 186.036 132.959 185.955 133.06 185.875C133.173 185.788 133.294 185.701 133.408 185.621C133.488 185.567 133.568 185.514 133.649 185.46C134.338 184.999 135.087 184.624 135.863 184.336C135.944 184.309 136.024 184.276 136.104 184.249C136.82 184.002 137.563 183.834 138.319 183.747C138.399 183.741 138.48 183.727 138.56 183.72C138.895 183.687 139.236 183.674 139.577 183.674H158.333L158.353 183.667L158.969 183.426L160.414 182.864L160.655 182.77L162.87 181.907L163.111 181.813L164.67 181.211L165.286 180.97L165.326 180.95L165.567 180.857L165.982 180.696L166.129 180.97L166.263 181.211L167.474 183.426L167.608 183.667L167.782 183.988L168.023 184.43L168.819 185.882L168.953 186.123L170.164 188.338L170.237 188.478L170.291 188.578L170.478 188.913L171.502 190.793L171.636 191.034L172.693 192.968L172.847 193.249L172.934 193.403L172.981 193.49L174.192 195.705L174.326 195.946L175.149 197.451L175.39 197.893L175.537 198.161L175.671 198.402L176.066 199.124C176.327 199.606 176.514 200.108 176.628 200.616C176.648 200.697 176.661 200.777 176.675 200.857C176.748 201.165 176.775 201.5 176.775 201.828Z" fill="#FE5244"/>
<path d="M153.683 223.561C142.361 224.438 136.151 223.367 136.145 221.949C136.145 220.932 143.619 219.52 153.094 218.697C163.098 217.833 170.231 217.874 170.539 218.844C170.967 220.196 165.406 222.651 153.683 223.561Z" fill="#E57281"/>
<path d="M173.383 272.998L157.912 273.005L158.949 269.692H173.316L173.383 272.998Z" stroke="#FE5244" stroke-width="5" stroke-miterlimit="10"/>
<path d="M176.996 234.696C179.391 238.657 180.081 243.422 178.916 247.898L173.911 267.123L173.242 269.692H158.956L160.013 266.326L165.962 247.048L148.932 219.105C150.257 218.958 151.649 218.817 153.087 218.697C158.989 218.188 163.887 217.994 166.979 218.115L176.996 234.696Z" stroke="#9A3B82" stroke-width="6" stroke-miterlimit="10" stroke-linecap="round"/>
<path d="M194.179 272.998L173.382 273.005L173.315 269.672L173.329 269.692L184.771 264.386C191.228 266.387 194.019 269.298 195.196 271.171C195.692 271.967 195.116 272.998 194.179 272.998Z" stroke="#FE5244" stroke-width="5" stroke-miterlimit="10"/>
<path d="M184.771 264.386L173.329 269.692L142.91 228.058C141.906 226.686 141.123 225.187 140.574 223.601C140.226 222.598 139.972 221.561 139.818 220.503C142.903 219.827 147.674 219.165 153.094 218.697C154.459 218.576 155.764 218.476 157.008 218.396L159.725 222.892L184.771 264.386Z" stroke="#9A3B82" stroke-width="6" stroke-miterlimit="10" stroke-linecap="round"/>
<path d="M151.267 222.705L178.127 267.21" stroke="#9A3B82" stroke-width="6" stroke-miterlimit="10" stroke-linecap="round"/>
<path d="M149.367 220.978C149.367 220.978 149.166 225.89 144.924 227.623" stroke="#9A3B82" stroke-width="6" stroke-miterlimit="10" stroke-linecap="round"/>
<path d="M166.986 218.115L168.525 220.671C166.751 221.46 163.827 222.277 159.719 222.886C157.932 223.153 155.918 223.381 153.676 223.555C152.545 223.642 151.468 223.709 150.444 223.762C146.269 223.97 142.95 223.876 140.568 223.602C140.22 222.598 139.965 221.561 139.812 220.503C139.812 220.503 146.496 219.232 153.402 218.67C160.307 218.108 166.986 218.115 166.986 218.115Z" fill="#9A3B82"/>
<path d="M153.783 183.66H144.796L146.034 177.136H153.783V183.66Z" fill="#FFCF2D"/>
<path d="M147.031 183.66H144.796L146.034 177.136H153.783V179.438L147.031 183.66Z" fill="#E57281"/>
<path d="M146.001 178.113C146.001 178.113 147.232 171.114 147.393 170.719C147.667 170.05 153.335 167.895 154.205 168.691C155.075 169.488 153.315 170.197 154.258 170.123C155.202 170.05 158.046 167.935 159.237 169.548C159.959 170.532 157.631 171.95 156.139 172.238C154.646 172.526 150.451 174.774 150.35 175.57C150.25 176.367 148.905 177.959 146.001 178.113Z" stroke="#FFCF2D" stroke-width="5" stroke-miterlimit="10"/>
<path d="M156.138 172.118V178.046C156.138 178.97 155.389 179.712 154.472 179.712H152.351C151.247 179.712 150.357 178.816 150.357 177.712V177.129H149.326C148.992 177.129 148.691 176.996 148.47 176.775C148.249 176.554 148.115 176.253 148.115 175.918C148.115 175.249 148.657 174.707 149.326 174.707H150.491C150.799 173.744 151.608 172.994 152.645 172.793L156.138 172.118Z" fill="#FFCF2D"/>
<path d="M150.116 176.179C150.116 175.631 149.788 175.222 149.246 175.309" stroke="#E57281" stroke-width="4" stroke-miterlimit="10" stroke-linecap="round"/>
<path d="M153.957 174.266C153.957 174.266 154.653 173.871 155.436 173.797" stroke="#E57281" stroke-width="4" stroke-miterlimit="10" stroke-linecap="round"/>
<path d="M154.92 175.557C155.068 175.557 155.188 175.362 155.188 175.122C155.188 174.882 155.068 174.687 154.92 174.687C154.773 174.687 154.653 174.882 154.653 175.122C154.653 175.362 154.773 175.557 154.92 175.557Z" fill="#E57281"/>
<path d="M147.727 199.211L146.449 195.832C146.362 195.604 146.228 195.404 146.068 195.25C145.8 194.989 145.439 194.828 145.064 194.801C144.944 194.795 144.823 194.795 144.709 194.815C144.596 194.828 144.482 194.862 144.375 194.902L143.211 195.344L142.93 195.451L141.859 195.859L141.578 195.966L139.905 196.601L139.624 196.709L138.547 197.117L138.266 197.224L137.001 197.706L136.88 197.913L136.76 198.12L138.386 197.505L138.667 197.398L141.685 196.254L141.966 196.146L144.382 195.23L144.469 195.196C144.509 195.183 144.549 195.17 144.589 195.156C144.669 195.136 144.743 195.123 144.823 195.116C144.863 195.116 144.897 195.109 144.937 195.109C145.466 195.109 145.967 195.43 146.168 195.959L149.561 204.912L148.256 205.407L148.115 205.461L147.975 205.515L146.944 205.903V206.224L148.082 205.796L149.942 205.086L147.727 199.211Z" fill="#3FB1B5"/>
<path d="M149.755 204.979L148.169 205.581L144.502 195.912C144.335 195.477 144.556 194.989 144.991 194.822C145.426 194.654 145.914 194.875 146.081 195.31L149.755 204.979Z" fill="#3FB1B5"/>
<path d="M148.082 205.769L144.362 195.959C144.168 195.444 144.429 194.868 144.937 194.674C145.185 194.581 145.459 194.587 145.7 194.694C145.941 194.801 146.128 195.002 146.222 195.25L149.942 205.06L148.082 205.769ZM145.298 194.915C145.218 194.915 145.131 194.929 145.051 194.962C144.689 195.096 144.509 195.504 144.649 195.859L148.263 205.387L149.568 204.892L145.954 195.364C145.887 195.19 145.76 195.049 145.586 194.975C145.492 194.935 145.392 194.915 145.298 194.915Z" fill="#3FB1B5"/>
<path d="M142.622 196.929C142.461 196.929 142.287 196.869 142.127 196.755C141.899 196.595 141.718 196.347 141.605 196.053C141.491 195.758 141.464 195.444 141.531 195.176C141.598 194.889 141.765 194.681 141.993 194.594C142.454 194.42 143.003 194.788 143.244 195.43C143.271 195.511 143.237 195.598 143.157 195.625C143.077 195.651 142.99 195.618 142.963 195.538C142.782 195.069 142.388 194.768 142.093 194.875C141.959 194.929 141.859 195.056 141.819 195.243C141.772 195.451 141.792 195.698 141.886 195.939C141.979 196.18 142.127 196.381 142.301 196.508C142.461 196.622 142.622 196.655 142.756 196.601C142.836 196.575 142.923 196.608 142.95 196.688C142.976 196.769 142.943 196.856 142.863 196.882C142.782 196.916 142.702 196.929 142.622 196.929Z" fill="#3FB1B5"/>
<path d="M139.296 198.14C139.135 198.14 138.961 198.08 138.801 197.967C138.573 197.806 138.393 197.558 138.279 197.264C138.165 196.969 138.138 196.655 138.205 196.387C138.272 196.1 138.44 195.892 138.667 195.805C138.895 195.718 139.156 195.765 139.396 195.932C139.624 196.093 139.805 196.341 139.918 196.635C139.945 196.715 139.912 196.802 139.831 196.829C139.751 196.856 139.664 196.822 139.637 196.742C139.544 196.501 139.396 196.3 139.222 196.173C139.062 196.059 138.901 196.026 138.767 196.08C138.634 196.133 138.533 196.26 138.493 196.448C138.446 196.655 138.466 196.903 138.56 197.143C138.654 197.384 138.801 197.585 138.975 197.712C139.135 197.826 139.296 197.859 139.43 197.806C139.51 197.779 139.597 197.813 139.624 197.893C139.651 197.973 139.617 198.06 139.537 198.087C139.457 198.127 139.376 198.14 139.296 198.14Z" fill="#3FB1B5"/>
<path d="M146.964 212.333C147.903 212.333 148.664 210.257 148.664 207.696C148.664 205.135 147.903 203.059 146.964 203.059C146.026 203.059 145.265 205.135 145.265 207.696C145.265 210.257 146.026 212.333 146.964 212.333Z" fill="#73325A"/>
<path d="M153.067 204.009V209.028C153.067 209.429 152.86 209.804 152.518 210.018L150.377 211.289H145.88C145.499 210.439 145.258 209.148 145.258 207.709C145.258 206.672 145.385 205.709 145.593 204.939H149.902L149.239 203.186C149.045 202.684 149.514 202.175 150.029 202.316L152.21 202.891C152.719 203.025 153.067 203.48 153.067 204.009Z" fill="#FFCF2D"/>
<path d="M152.946 207.462C152.946 207.863 152.739 208.238 152.398 208.452L150.377 209.723" stroke="#73325A" stroke-width="4" stroke-miterlimit="10" stroke-linecap="round"/>
<path d="M152.946 205.608C152.946 206.01 152.739 206.384 152.398 206.599L150.377 207.87" stroke="#73325A" stroke-width="4" stroke-miterlimit="10" stroke-linecap="round"/>
<path d="M152.946 203.868C152.946 204.27 152.739 204.645 152.398 204.859L150.377 206.13" stroke="#73325A" stroke-width="4" stroke-miterlimit="10" stroke-linecap="round"/>
<path d="M150.906 204.297L149.895 204.926" stroke="#73325A" stroke-width="4" stroke-miterlimit="10" stroke-linecap="round"/>
<path d="M148.664 207.696C148.664 209.141 148.423 210.433 148.042 211.283H145.88C145.499 210.433 145.258 209.141 145.258 207.696C145.258 206.659 145.385 205.695 145.593 204.926H148.323C148.537 205.695 148.664 206.659 148.664 207.696Z" fill="#E57281"/>
<path d="M158.581 174.975L164.924 182.851L161.324 186.504L153.355 180.281C153.121 180.054 153.308 179.451 153.79 178.702C154.138 178.153 154.64 177.531 155.249 176.915C155.858 176.3 156.473 175.784 157.015 175.43C157.751 174.948 158.347 174.754 158.581 174.975Z" fill="#3FB1B5" stroke="#3FB1B5" stroke-width="5" stroke-miterlimit="10" stroke-linecap="round"/>
<path d="M163.795 185.363C164.788 184.355 165.288 183.237 164.911 182.866C164.535 182.495 163.425 183.012 162.431 184.02C161.438 185.029 160.938 186.147 161.315 186.517C161.691 186.888 162.802 186.371 163.795 185.363Z" stroke="#3FB1B5" stroke-width="6" stroke-miterlimit="10"/>
<path d="M160.12 182.309V182.817C160.12 183.232 159.063 183.433 158.775 183.132L156.272 180.509C156.085 180.308 155.978 180.047 155.978 179.772V178.26C155.978 177.872 156.159 177.511 156.467 177.277L157.356 176.601C157.571 176.433 157.838 176.346 158.106 176.346H160.522C161.191 176.346 161.806 176.714 162.114 177.303L164.242 181.311H161.104C160.562 181.318 160.12 181.76 160.12 182.309Z" fill="#FFCF2D"/>
<path d="M164.195 181.318H161.177C160.629 181.318 160.18 181.767 160.18 182.315V182.824C160.18 183.239 159.243 183.439 158.956 183.138L156.179 180.248" stroke="#73325A" stroke-width="4" stroke-miterlimit="10" stroke-linecap="round"/>
<path d="M157.203 181.318C157.015 181.124 156.915 180.87 156.915 180.602V179.13C156.915 178.749 157.089 178.394 157.39 178.167L158.26 177.504C158.474 177.343 158.728 177.256 158.996 177.256H160.695" stroke="#73325A" stroke-width="4" stroke-miterlimit="10" stroke-linecap="round"/>
<path d="M158.166 182.335C157.979 182.141 157.878 181.887 157.878 181.619V180.147C157.878 179.766 158.052 179.411 158.354 179.184L159.223 178.521C159.438 178.361 159.692 178.274 159.959 178.274H161.478" stroke="#73325A" stroke-width="4" stroke-miterlimit="10" stroke-linecap="round"/>
<path d="M159.217 183.178C159.043 182.998 158.949 182.764 158.949 182.516V181.151C158.949 180.803 159.11 180.468 159.391 180.261L160.194 179.645C160.388 179.498 160.629 179.418 160.869 179.418H161.887" stroke="#73325A" stroke-width="4" stroke-miterlimit="10" stroke-linecap="round"/>
<path d="M210.995 233.324H237.212C242.512 233.324 247.463 235.934 250.461 240.297L262.472 257.989C263.463 259.428 262.566 261.388 260.82 261.388H247.45L242.11 254.409C241.481 253.526 240.089 253.914 240.002 254.998L238.925 268.14H210.333L207.924 254.777C207.776 253.733 206.425 253.412 205.816 254.275L200.911 260.592H184.925L197.398 240.825C200.349 236.155 205.481 233.324 210.995 233.324Z" stroke="#3FB1B5" stroke-width="6" stroke-miterlimit="10" stroke-linecap="round"/>
<path d="M226.967 240.15L231.216 254.262H220.718L225.381 240.15H226.967Z" fill="#FE5244"/>
<path d="M228.868 240.002L230.581 241.842L236.101 233.324H231.21L228.868 240.002Z" stroke="#3FB1B5" stroke-width="6" stroke-miterlimit="10" stroke-linecap="round"/>
<path d="M223.789 240.002L222.069 241.842L216.087 233.324H221.44L223.789 240.002Z" stroke="#3FB1B5" stroke-width="6" stroke-miterlimit="10" stroke-linecap="round"/>
<path d="M264.574 263.007C264.574 266.34 262.198 269.498 258.504 270.04L243.362 272.268L240.036 272.757V259.883L241.06 259.642L255.835 256.135C258.685 255.46 261.656 256.604 263.316 259.019C264.179 260.264 264.574 261.649 264.574 263.007Z" fill="#A0505A"/>
<path d="M243.362 272.268L240.036 272.757V259.883L241.06 259.642L243.362 272.268Z" fill="#73325A"/>
<path d="M240.036 276.049H208.205V256.945C208.205 255.459 209.409 254.262 210.888 254.262H237.346C238.832 254.262 240.029 255.466 240.029 256.945V276.049H240.036Z" fill="#FFCF2D"/>
<path d="M219.386 275.842L253.084 270.803C259.642 269.806 265.551 274.885 265.551 281.523C265.551 287.512 260.699 292.363 254.71 292.363H219.607L219.386 275.842Z" fill="#0096A0"/>
<path d="M214.829 295.314L194.548 299.228C191.965 299.777 189.368 297.622 189.255 294.839L188.954 287.438C188.8 283.691 192.393 281.436 195.779 283.042L214.829 295.314Z" stroke="#FE5244" stroke-width="6" stroke-miterlimit="10"/>
<path d="M195.919 298.96C193.423 299.482 190.901 297.388 190.78 294.678L190.466 287.491C190.305 283.851 193.771 281.683 197.05 283.249" stroke="#FE5244" stroke-width="6" stroke-miterlimit="10"/>
<path d="M195.779 283.035L214.829 295.314L210.487 296.15L195.779 283.035Z" fill="#FE5244"/>
<path d="M203.119 288.415L200.61 293.413L198.127 287.538L195.257 294.136" stroke="#FE5244" stroke-width="6" stroke-miterlimit="10" stroke-linejoin="round"/>
<path d="M195.116 286.622L197.927 293.634L200.677 288.033L202.811 292.704" stroke="#FE5244" stroke-width="6" stroke-miterlimit="10" stroke-linejoin="round"/>
<path d="M230.581 286.14C229.457 285.216 226.205 287.317 223.314 290.83C220.423 294.343 218.991 297.943 220.115 298.867C219.948 298.766 198.823 285.517 185.715 276.477C182.382 274.182 180.623 270.502 180.623 266.775C180.623 264.178 181.479 261.562 183.252 259.374C187.695 253.894 195.926 253.526 200.844 258.584L230.581 286.14Z" fill="#3FB1B5"/>
<path d="M227.376 294.172C230.265 290.659 231.696 287.061 230.572 286.136C229.447 285.211 226.193 287.31 223.303 290.823C220.414 294.337 218.983 297.934 220.107 298.859C221.232 299.784 224.486 297.686 227.376 294.172Z" fill="#FE5244"/>
<path d="M239.882 297.703L236.122 304.086C234.214 307.318 229.905 307.379 227.931 304.193L221.601 293.996C222.143 293.099 222.812 292.162 223.582 291.225C224.974 289.532 226.452 288.167 227.737 287.311L237.814 291.145C240.277 292.089 241.294 295.3 239.882 297.703Z" stroke="#FE5244" stroke-width="6" stroke-miterlimit="10"/>
<path d="M236.751 290.73C239.079 291.633 239.902 294.651 238.571 296.96L235.024 303.083C233.231 306.187 229.169 306.241 227.302 303.19" stroke="#FE5244" stroke-width="6" stroke-miterlimit="10"/>
<path d="M224.385 294.002L229.51 291.406L227.971 297.582L234.101 293.822" stroke="#FE5244" stroke-width="6" stroke-miterlimit="10" stroke-linejoin="round"/>
<path d="M229.919 300.058L231.511 292.865L226.285 295.441L227.088 290.663" stroke="#FE5244" stroke-width="6" stroke-miterlimit="10" stroke-linejoin="round"/>
<path d="M233.913 234.482C233.886 234.91 233.699 235.291 233.405 235.566C233.11 235.84 232.722 236.007 232.294 236.007H230.815L230.721 237.566C230.641 238.851 229.363 240.163 228.031 240.163H224.291C222.966 240.163 221.681 238.851 221.601 237.566L221.507 236.007H220.008C219.58 236.007 219.185 235.84 218.898 235.566C218.603 235.291 218.416 234.91 218.389 234.475C218.336 233.538 219.105 232.762 220.042 232.762H221.307L221.166 230.387C221.139 229.885 221.534 229.463 222.036 229.463H230.293C230.795 229.463 231.19 229.885 231.163 230.387L231.023 232.762H232.301C233.224 232.769 233.967 233.552 233.913 234.482Z" fill="#A0505A"/>
<path d="M231.016 232.762H232.361C232.361 232.762 233.646 228.098 232.408 226.9C231.17 225.703 223.568 222.946 221.112 224.665C219.319 225.923 220.296 232.762 220.296 232.762H221.286C221.286 232.762 225.281 229.898 225.91 230.146C226.539 230.393 224.104 231.598 224.592 231.832C226.419 232.709 229.704 229.53 230.46 229.53C231.217 229.53 231.016 232.762 231.016 232.762Z" fill="#73325A"/>
<path d="M229.323 233.92C229.323 233.92 228.446 233.21 227.322 233.672" stroke="#73325A" stroke-width="4" stroke-miterlimit="10" stroke-linecap="round"/>
<path d="M227.53 237.734C227.53 237.734 227.048 238.764 225.589 238.229" stroke="#73325A" stroke-width="4" stroke-miterlimit="10" stroke-linecap="round"/>
<path d="M222.658 233.685C222.658 233.685 224.431 233.291 224.967 234.388C225.295 235.064 225.134 237.426 225.515 237.453C225.897 237.48 226.472 237.453 226.472 237.453" stroke="#73325A" stroke-width="4" stroke-miterlimit="10" stroke-linecap="round"/>
<path d="M228.125 235.74C228.299 235.74 228.44 235.506 228.44 235.218C228.44 234.93 228.299 234.696 228.125 234.696C227.951 234.696 227.811 234.93 227.811 235.218C227.811 235.506 227.951 235.74 228.125 235.74Z" fill="#73325A"/>
<path d="M224.057 235.74C224.23 235.74 224.371 235.506 224.371 235.218C224.371 234.93 224.23 234.696 224.057 234.696C223.883 234.696 223.742 234.93 223.742 235.218C223.742 235.506 223.883 235.74 224.057 235.74Z" fill="#73325A"/>
<path d="M220.979 234.723C220.938 234.067 220.396 233.558 219.741 233.558" stroke="#73325A" stroke-width="4" stroke-miterlimit="10" stroke-linecap="round"/>
<path d="M231.25 234.756C231.29 234.06 231.866 233.518 232.555 233.518" stroke="#73325A" stroke-width="4" stroke-miterlimit="10" stroke-linecap="round"/>
<path d="M132.317 247.711C132.317 247.276 132.297 246.854 132.264 246.46C131.855 246.279 129.279 245.041 128.63 242.813C128.63 242.813 126.676 246.767 123.772 246.312C123.765 246.312 123.759 246.312 123.752 246.306C123.752 246.306 123.752 246.306 123.745 246.306L123.043 245.944C123.029 245.938 123.023 245.931 123.009 245.931C122.213 245.55 121.296 246.045 121.136 246.874C120.948 246.352 120.814 245.797 120.734 245.215C120.219 241.321 122.367 238.062 125.933 238.062C129.185 238.062 132.31 241.12 132.806 244.352C133.006 245.576 132.799 246.721 132.317 247.711Z" fill="#FFCF2D"/>
<path d="M121.711 248.179C121.397 250.026 114.504 247.45 112.972 250.535C111.975 252.549 113.514 254.978 109.185 255.185C104.026 255.426 101.931 258.25 102.768 264.794L116.86 257.32L120.794 253.813L122.507 248.547L121.711 248.179Z" fill="#FFCF2D"/>
<path d="M129.741 252.529V254.362L125.385 256.999L120.794 253.82L122.507 248.554L129.741 252.529Z" fill="#E57281"/>
<path d="M123.297 248.969L125.385 256.998L129.741 254.362V252.529L123.297 248.969Z" fill="#9A3B82"/>
<path d="M132.317 247.751C132.317 250.742 130.396 253.171 128.028 253.171C126.087 253.171 124.367 251.545 123.805 249.31L121.845 248.306C121.624 248.193 121.443 248.025 121.316 247.818C121.189 247.617 121.122 247.376 121.122 247.129C121.122 246.138 122.166 245.503 123.049 245.951L123.779 246.319V246.312C126.683 246.761 128.637 242.813 128.637 242.813C129.286 245.041 131.862 246.272 132.27 246.46C132.303 246.868 132.317 247.296 132.317 247.751Z" fill="#E57281"/>
<path d="M132.303 247.129C132.303 247.129 131.226 246.68 130.564 247.35C129.741 248.179 129.921 250.561 129.921 250.561" stroke="#9A3B82" stroke-width="4" stroke-miterlimit="10" stroke-linecap="round"/>
<path d="M128.436 246.988C128.436 246.988 127.546 246.921 126.663 247.39" stroke="#9A3B82" stroke-width="4" stroke-miterlimit="10" stroke-linecap="round"/>
<path d="M123.17 247.651C123.096 247.209 122.775 246.848 122.347 246.714" stroke="#9A3B82" stroke-width="4" stroke-miterlimit="10" stroke-linecap="round"/>
<path d="M128.144 248.601C128.219 248.322 128.144 248.06 127.977 248.015C127.809 247.969 127.612 248.158 127.536 248.436C127.461 248.714 127.536 248.977 127.703 249.022C127.871 249.068 128.068 248.879 128.144 248.601Z" fill="#9A3B82"/>
<path d="M131.422 248.734C131.498 248.456 131.423 248.194 131.255 248.148C131.087 248.103 130.89 248.292 130.815 248.57C130.74 248.848 130.814 249.111 130.982 249.156C131.15 249.201 131.347 249.013 131.422 248.734Z" fill="#9A3B82"/>
<path d="M129.594 251.364C129.594 251.364 128.436 251.672 128.101 250.695" stroke="#9A3B82" stroke-width="4" stroke-miterlimit="10" stroke-linecap="round"/>
<path d="M112.229 257.34H138.292C141.866 257.34 145.111 259.448 146.556 262.72L151.481 272.851L107.271 294.256L93.0247 288.154L100.78 265.457C102.493 260.592 107.077 257.34 112.229 257.34Z" stroke="#FE5244" stroke-width="5" stroke-miterlimit="10"/>
<path d="M124.448 261.81L122.286 260.532L125.284 257.119H125.498L128.536 260.304L126.428 261.582L135.475 280.225L118.298 288.622L124.448 261.81Z" fill="#FE5244"/>
<path d="M111.299 271.86L109.198 278.953" stroke="#FE5244" stroke-width="5" stroke-miterlimit="10"/>
<path d="M133.421 257.326L128.463 260.164L125.498 257.119H125.284L122.353 260.398L116.86 257.326L120.861 253.82L125.385 256.998L129.741 254.362L133.421 257.326Z" stroke="#FE5244" stroke-width="5" stroke-miterlimit="10" stroke-linejoin="round"/>
<path d="M159.959 265.637L154.767 282.138H123.183L128.376 265.637H159.959Z" fill="#3FB1B5"/>
<path d="M128.971 265.637C128.971 265.637 132.926 263.289 138.654 263.65C144.382 264.004 145.185 265.637 145.185 265.637H128.971Z" stroke="#3FB1B5" stroke-width="5" stroke-miterlimit="10" stroke-linecap="round"/>
<path d="M158.815 265.637C158.815 265.637 151.361 262.345 145.185 265.637H158.815Z" stroke="#3FB1B5" stroke-width="5" stroke-miterlimit="10" stroke-linecap="round"/>
<path d="M144.361 299.389L129.011 311.514C127.178 312.959 126.937 315.649 128.482 317.396L139.028 329.36C139.028 329.36 140.032 328.617 139.697 325.633C139.229 321.504 140.366 317.643 140.366 317.643L163.084 301.443C166.597 298.941 168.711 294.912 168.772 290.596C168.859 284.735 161.752 281.764 157.637 285.932L144.361 299.389Z" fill="#E57281"/>
<path d="M140.36 317.636C140.36 317.636 139.229 321.497 139.691 325.626C140.025 328.617 139.022 329.36 139.022 329.36L128.476 317.396C126.93 315.642 127.178 312.959 129.004 311.514L133.929 307.619C134.077 307.512 134.224 307.399 134.371 307.285L140.634 302.333L144.355 299.389C144.355 299.389 144.147 304.28 146.449 313.294L140.36 317.636Z" stroke="#9A3B82" stroke-width="6" stroke-miterlimit="10" stroke-linecap="round"/>
<path d="M139.938 326.028C140.065 327.185 139.985 328.022 139.831 328.61C139.798 328.751 139.758 328.871 139.711 328.985C139.45 329.674 139.109 329.902 139.109 329.902L128.175 317.503C126.756 315.89 126.796 313.515 128.155 311.956C128.322 311.761 128.516 311.574 128.73 311.407L129.085 311.126L132.163 308.697C131.962 310.035 132.825 312.277 134.485 314.391C136.586 317.068 139.376 318.493 140.594 317.757C140.4 318.466 139.51 322.207 139.938 326.028Z" fill="#FFCF2D"/>
<path d="M158.949 283.51V320.172C154.686 324.502 149.025 322.173 149.025 322.173C144.027 307.787 144.361 299.797 144.361 299.797L140.641 302.735C131.126 296.793 130.349 283.122 130.329 282.794L145.834 275.293C151.903 272.355 158.949 276.772 158.949 283.51Z" fill="#E57281"/>
<path d="M145.84 275.286C151.903 272.355 158.949 276.772 158.949 283.503V320.166C154.686 324.495 149.025 322.167 149.025 322.167C144.033 307.78 144.361 299.784 144.361 299.784" stroke="#9A3B82" stroke-width="6" stroke-miterlimit="10" stroke-linecap="round"/>
<path d="M140.641 302.728L134.378 307.68C123.15 316.559 106.635 308.563 106.635 294.25L130.329 282.781C130.329 282.781 130.329 282.781 130.329 282.787C130.35 283.122 131.132 296.793 140.641 302.728Z" fill="#FE5244"/>
<path d="M149.019 322.167C146.831 315.863 145.666 310.784 145.044 307.071H158.942V320.173" stroke="#9A3B82" stroke-width="6" stroke-miterlimit="10" stroke-linecap="round"/>
<path d="M168.939 329.761H149.166C148.242 329.761 147.54 328.938 147.687 328.028L147.72 327.828L147.841 327.105L148.697 321.859C148.697 321.859 154.726 324.288 159.17 319.778C159.17 319.778 160.561 323.364 166.37 326.001C167.735 326.623 168.377 327.546 168.678 328.329C168.725 328.443 168.758 328.557 168.792 328.664C168.972 329.293 168.939 329.761 168.939 329.761Z" fill="#FFCF2D"/>
<path d="M144.361 299.79C144.361 291.928 146.436 287.364 146.436 287.364" stroke="#9A3B82" stroke-width="6" stroke-miterlimit="10" stroke-linecap="round"/>
<path d="M125.385 275.146L97.9229 281.603C94.4433 282.419 91.9875 285.524 91.9875 289.098C91.9875 294.779 97.9362 298.506 103.049 296.023L129.62 283.122C130.075 282.901 130.437 282.513 130.617 282.038L133.562 274.483C133.682 274.182 133.428 273.861 133.1 273.908L132.631 273.975C131.889 274.082 131.22 274.49 130.785 275.106L129.587 276.899C129.366 277.227 128.998 277.421 128.603 277.421H125.799C125.231 277.421 124.822 276.866 124.996 276.324L125.385 275.146Z" fill="#E57281"/>
<g clip-path="url(#clip2_22_1314)">
<path d="M183.237 68.4146C183.237 66.6934 181.842 65.2981 180.12 65.2981C178.399 65.2981 177.004 66.6934 177.004 68.4146V79.172C177.004 80.8932 178.399 82.2885 180.12 82.2885C181.842 82.2885 183.237 80.8932 183.237 79.172V68.4146Z" fill="black"/>
<path d="M180.12 100.372C183.574 100.372 186.373 97.5724 186.373 94.1192C186.373 90.666 183.574 87.8666 180.12 87.8666C176.667 87.8666 173.868 90.666 173.868 94.1192C173.868 97.5724 176.667 100.372 180.12 100.372Z" fill="#FBDC8E"/>
<path d="M180.12 75.2678C177.644 75.2672 175.192 75.7543 172.905 76.7014C170.617 77.6485 168.538 79.0369 166.787 80.7875C165.036 82.5381 163.647 84.6165 162.699 86.9039C161.752 89.1914 161.264 91.6432 161.264 94.1192H198.972C198.972 91.6436 198.484 89.1922 197.537 86.9051C196.589 84.6179 195.201 82.5398 193.45 80.7893C191.7 79.0387 189.622 77.6502 187.334 76.7028C185.047 75.7554 182.596 75.2678 180.12 75.2678Z" fill="#AB8DE5"/>
<path d="M180.12 68.8872V0.492432" stroke="black" stroke-width="2" stroke-linecap="round" stroke-linejoin="round"/>
</g>
</g>
<defs>
<clipPath id="clip0_22_1314">
<rect width="360" height="360" fill="white"/>
</clipPath>
<clipPath id="clip1_22_1314">
<rect width="85.6506" height="237.546" fill="white" transform="translate(0 122.453)"/>
</clipPath>
<clipPath id="clip2_22_1314">
<rect width="37.7077" height="100.372" fill="white" transform="translate(161.264)"/>
</clipPath>
</defs>
</svg>
