<svg width="500" height="350" viewBox="0 0 500 350" fill="none" xmlns="http://www.w3.org/2000/svg">
<path d="M305.52 51.9L325.31 71L345.2 178.67H158.63L305.52 51.9Z" fill="#FFCF2D"/>
<path d="M325.48 70.85L305.63 51.69L308.95 48.24C313.84 43.16 322.65 43.74 327.73 48.62C332.81 53.51 333.7 62.32 328.81 67.4L325.48 70.85Z" fill="white" stroke="#FFCF2D" stroke-width="6" stroke-miterlimit="10" stroke-linecap="round"/>
<path d="M328.8 67.4001L308.94 48.2401" stroke="#FFCF2D" stroke-width="6" stroke-miterlimit="10" stroke-linecap="round"/>
<path d="M328.82 49.49L331.04 47.79C334.02 45.51 338.3 46.11 340.53 49.14L395.09 115.56L367.16 177.85" stroke="#3FB1B5" stroke-width="6" stroke-miterlimit="10" stroke-linecap="round"/>
<path d="M394.2 118.95C395.89 118.95 397.26 117.58 397.26 115.89C397.26 114.2 395.89 112.83 394.2 112.83C392.51 112.83 391.14 114.2 391.14 115.89C391.14 117.58 392.51 118.95 394.2 118.95Z" fill="white" stroke="#FFCF2D" stroke-width="6" stroke-miterlimit="10" stroke-linecap="round"/>
<path d="M359.4 170.89H374.31C378.6 170.89 382.07 174.37 382.07 178.65V178.87H351.63V178.65C351.64 174.37 355.11 170.89 359.4 170.89Z" fill="white" stroke="#FFCF2D" stroke-width="6" stroke-miterlimit="10" stroke-linecap="round"/>
<path d="M287.17 156.16H192.78C189.23 156.16 186.36 153.29 186.36 149.74V83.72C186.36 80.17 189.23 77.3 192.78 77.3H287.17C290.72 77.3 293.59 80.17 293.59 83.72V149.73C293.6 153.28 290.72 156.16 287.17 156.16Z" fill="white" stroke="#3FB1B5" stroke-width="6" stroke-miterlimit="10" stroke-linecap="round"/>
<path d="M287.23 150.02H193.75C192.36 150.02 191.24 148.89 191.24 147.51V84.35C191.24 82.96 192.37 81.84 193.75 81.84H287.23C288.62 81.84 289.74 82.97 289.74 84.35V147.5C289.75 148.89 288.62 150.02 287.23 150.02Z" fill="#66B0F0" stroke="#66B0F0" stroke-width="6" stroke-miterlimit="10" stroke-linejoin="round"/>
<path d="M197.1 87.74H195.62C195.14 87.74 194.74 87.35 194.74 86.86V85.38C194.74 84.9 195.13 84.5 195.62 84.5H197.1C197.58 84.5 197.98 84.89 197.98 85.38V86.86C197.97 87.35 197.58 87.74 197.1 87.74Z" stroke="white" stroke-width="6" stroke-miterlimit="10" stroke-linecap="round"/>
<path d="M203.83 87.74H202.35C201.87 87.74 201.47 87.35 201.47 86.86V85.38C201.47 84.9 201.86 84.5 202.35 84.5H203.83C204.31 84.5 204.71 84.89 204.71 85.38V86.86C204.71 87.35 204.31 87.74 203.83 87.74Z" stroke="white" stroke-width="6" stroke-miterlimit="10" stroke-linecap="round"/>
<path d="M210.56 87.74H209.08C208.6 87.74 208.2 87.35 208.2 86.86V85.38C208.2 84.9 208.59 84.5 209.08 84.5H210.56C211.04 84.5 211.44 84.89 211.44 85.38V86.86C211.44 87.35 211.05 87.74 210.56 87.74Z" stroke="white" stroke-width="6" stroke-miterlimit="10" stroke-linecap="round"/>
<path d="M259.9 178.67H223.26L230.45 156.16H252.7L259.9 178.67Z" fill="white" stroke="#3FB1B5" stroke-width="6" stroke-miterlimit="10" stroke-linecap="round"/>
<path d="M226.14 169.66L230.45 156.16H252.7L226.14 169.66Z" fill="#3FB1B5"/>
<path d="M281.79 102.55H263.98C262.31 102.55 260.96 101.2 260.96 99.53V88.03C260.96 86.36 262.31 85.01 263.98 85.01H281.79C283.46 85.01 284.81 86.36 284.81 88.03V99.53C284.81 101.2 283.46 102.55 281.79 102.55Z" stroke="white" stroke-width="6" stroke-miterlimit="10" stroke-linecap="round"/>
<path d="M266.05 89.11H279.64" stroke="white" stroke-width="6" stroke-miterlimit="10" stroke-linecap="round"/>
<path d="M266.05 92.21H279.64" stroke="white" stroke-width="6" stroke-miterlimit="10" stroke-linecap="round"/>
<path d="M266.05 95.31H279.64" stroke="white" stroke-width="6" stroke-miterlimit="10" stroke-linecap="round"/>
<path d="M266.05 98.4101H279.64" stroke="white" stroke-width="6" stroke-miterlimit="10" stroke-linecap="round"/>
<path d="M286.71 150.02H215.92L211.77 155.97C207.08 162.69 197.17 162.79 192.35 156.16L167.07 121.39C168.13 122.71 172.98 121.24 177.6 118.2C182.29 115.11 185.32 111.22 184.37 109.78L201.9 132.12L207.27 122.64C208.74 120.13 211.18 118.33 214.02 117.67L232.29 113.8H248.04L265.4 117.63C268.42 118.32 270.98 120.29 272.43 123.02L286.71 150.02Z" fill="white" stroke="#3FB1B5" stroke-width="6" stroke-miterlimit="10"/>
<path d="M267.279 149.61L262.25 139.68" stroke="#3FB1B5" stroke-width="6" stroke-miterlimit="10" stroke-linecap="round"/>
<path d="M215.52 150.54L220.5 140.71" stroke="#3FB1B5" stroke-width="6" stroke-miterlimit="10" stroke-linecap="round"/>
<path d="M195.08 123.45L206.49 138.04" stroke="#3FB1B5" stroke-width="6" stroke-miterlimit="10" stroke-linecap="round"/>
<path d="M242.13 118.6L246.33 123.71L255.73 115.73" stroke="#3FB1B5" stroke-width="6" stroke-miterlimit="10" stroke-linecap="round"/>
<path d="M238.92 118.7L234.84 123.91L224.51 115.73" stroke="#3FB1B5" stroke-width="6" stroke-miterlimit="10" stroke-linecap="round"/>
<path d="M187.85 114.25C188.8 115.7 185.76 119.64 181.04 122.77C176.4 125.85 171.48 127.33 170.41 126" stroke="#3FB1B5" stroke-width="6" stroke-miterlimit="10" stroke-linecap="round"/>
<path d="M184.71 116.78C185.334 116.78 185.84 116.274 185.84 115.65C185.84 115.026 185.334 114.52 184.71 114.52C184.086 114.52 183.58 115.026 183.58 115.65C183.58 116.274 184.086 116.78 184.71 116.78Z" stroke="#3FB1B5" stroke-width="6" stroke-miterlimit="10" stroke-linecap="round"/>
<path d="M240.51 123.88C241.134 123.88 241.64 123.374 241.64 122.75C241.64 122.126 241.134 121.62 240.51 121.62C239.886 121.62 239.38 122.126 239.38 122.75C239.38 123.374 239.886 123.88 240.51 123.88Z" stroke="#3FB1B5" stroke-width="6" stroke-miterlimit="10" stroke-linecap="round"/>
<path d="M240.51 132.98C241.134 132.98 241.64 132.474 241.64 131.85C241.64 131.226 241.134 130.72 240.51 130.72C239.886 130.72 239.38 131.226 239.38 131.85C239.38 132.474 239.886 132.98 240.51 132.98Z" stroke="#3FB1B5" stroke-width="6" stroke-miterlimit="10" stroke-linecap="round"/>
<path d="M211.41 156.45L215.92 150.02V156.45H211.41Z" fill="#3FB1B5"/>
<path d="M177.49 117.9C172.87 120.94 168.02 122.41 166.96 121.09C166.94 121.07 166.93 121.05 166.91 121.02C166.69 120.69 166.71 120.24 166.91 119.69C167.6 117.88 170.45 115.08 174.07 112.7C176.95 110.8 179.79 109.48 181.76 109.07C182.9 108.84 183.75 108.91 184.16 109.35L184.26 109.47C185.2 110.91 182.18 114.81 177.49 117.9Z" fill="#FE5244"/>
<path d="M177.49 117.9C174.86 119.63 172.15 120.86 170.11 121.34L160.98 108.46C159.71 106.66 160.13 104.17 161.94 102.9L170.16 97.12L165.5 89.19C164.82 88.04 165.21 86.55 166.37 85.88C166.75 85.66 167.16 85.56 167.57 85.56C168.36 85.56 169.14 85.95 169.6 86.67L184.17 109.33L184.27 109.49C185.2 110.91 182.18 114.81 177.49 117.9Z" fill="#E57281"/>
<path d="M170.14 97.2099L175.23 105.1C175.7 105.84 175.49 106.82 174.75 107.3L173.62 108.04C172.88 108.53 171.88 108.32 171.4 107.58L166.59 100.38" stroke="#9A3B82" stroke-width="6" stroke-miterlimit="10" stroke-linecap="round"/>
<path d="M171.38 107.56C171.87 108.31 171.65 109.32 170.9 109.8L169.87 110.45C169.13 110.92 168.15 110.71 167.67 109.98" stroke="#9A3B82" stroke-width="6" stroke-miterlimit="10" stroke-linecap="round"/>
<path d="M162.94 102.92L167.65 109.92C168.14 110.67 167.93 111.68 167.16 112.16L166.2 112.69C165.48 113.15 164.53 112.96 164.03 112.26L161.3 108.41" stroke="#9A3B82" stroke-width="6" stroke-miterlimit="10" stroke-linecap="round"/>
<path d="M180.77 104.05L178.38 100.34C177.59 99.1099 175.94 98.7699 174.73 99.5899L168.8 103.61C168.8 103.61 170.52 106.7 174.7 104.25L176.1 106.48C173.24 108.29 172.42 112.1 174.28 114.93L180.77 104.05Z" fill="#E57281"/>
<path d="M180.46 104.15L178.07 100.44C177.28 99.2099 175.63 98.8699 174.42 99.6899L168.8 103.61C168.8 103.61 170.52 106.7 174.7 104.25L176.1 106.48C173.24 108.29 172.42 112.1 174.28 114.93" stroke="#9A3B82" stroke-width="6" stroke-miterlimit="10" stroke-linecap="round"/>
<path d="M177.49 117.9C174.86 119.63 172.15 120.86 170.11 121.34L167.84 118.14C169.11 116.48 171.38 114.48 174.07 112.71C176.95 110.81 179.79 109.49 181.76 109.08C182.9 108.85 183.75 108.92 184.16 109.36L184.26 109.48C184.27 109.5 184.28 109.51 184.29 109.53C184.3 109.54 184.3 109.55 184.31 109.57C184.32 109.59 184.33 109.6 184.34 109.62C185.02 111.15 182.03 114.9 177.49 117.9Z" fill="#9A3B82"/>
<path d="M248.03 105V113.79C248.03 116.34 244.49 118.4 240.14 118.4C235.78 118.4 232.25 116.34 232.25 113.79V105H248.03Z" fill="#E57281"/>
<path d="M234.56 117.05C233.13 116.22 232.24 115.06 232.24 113.79V105H248.03V107.44C248.03 109.97 246.49 112.24 244.15 113.19L234.56 117.05Z" fill="#9A3B82"/>
<path d="M252.43 104.48V104.63C252.43 106.15 251.2 107.38 249.68 107.38H247.87C247.26 109.84 245.04 111.67 242.38 111.67H237.9C235.25 111.67 233.02 109.85 232.42 107.38H230.61C229.09 107.38 227.86 106.15 227.86 104.63V104.48C227.86 102.96 229.09 101.73 230.61 101.73H232.25V99.56C232.25 97.2399 233.96 95.3199 236.19 94.9999C236.68 95.8199 238.16 97.78 241.18 97.67C242.6 97.62 243.92 97.3499 245.01 97.0299C246.32 96.6499 247.63 97.45 247.96 98.7C248.01 98.98 248.04 99.26 248.04 99.55V101.72H249.68C251.19 101.72 252.43 102.96 252.43 104.48Z" fill="#E57281"/>
<path d="M249.29 101.72H248.03V99.31C248.03 99.1 248 98.89 247.95 98.7C247.62 97.45 246.31 96.65 245 97.03C243.91 97.35 242.6 97.62 241.17 97.67C238.15 97.78 236.67 95.82 236.18 95C233.95 95.32 232.24 97.24 232.24 99.56V101.73H230.67C230.67 101.73 228.87 95.22 230.22 93.38C231.55 91.57 233.15 92.36 233.15 92.36C233.15 92.36 232.19 86.94 237.55 87.04C242.9 87.14 249.86 93.35 250.37 94.49C251.17 96.24 249.29 101.72 249.29 101.72Z" fill="#9A3B82"/>
<path d="M248.64 104.99C248.64 103.92 249.51 103.06 250.57 103.06" stroke="#9A3B82" stroke-width="5" stroke-miterlimit="10" stroke-linecap="round"/>
<path d="M231.66 104.99C231.66 103.92 230.79 103.06 229.73 103.06" stroke="#9A3B82" stroke-width="5" stroke-miterlimit="10" stroke-linecap="round"/>
<path d="M245.51 99.5599C245.51 99.5599 244.09 98.5199 242.28 99.2699" stroke="#9A3B82" stroke-width="5" stroke-miterlimit="10" stroke-linecap="round"/>
<path d="M234.67 99.5599C234.67 99.5599 236.09 98.5199 237.9 99.2699" stroke="#9A3B82" stroke-width="5" stroke-miterlimit="10" stroke-linecap="round"/>
<path d="M242.63 106.94C242.63 106.94 241.86 108.6 239.5 107.73" stroke="#9A3B82" stroke-width="5" stroke-miterlimit="10" stroke-linecap="round"/>
<path d="M239.39 106.08C240 106.12 240.93 106.08 240.93 106.08" stroke="#9A3B82" stroke-width="5" stroke-miterlimit="10" stroke-linecap="round"/>
<path d="M243.9 103.73C244.176 103.73 244.4 103.354 244.4 102.89C244.4 102.426 244.176 102.05 243.9 102.05C243.624 102.05 243.4 102.426 243.4 102.89C243.4 103.354 243.624 103.73 243.9 103.73Z" fill="#9A3B82"/>
<path d="M236.73 103.73C237.006 103.73 237.23 103.354 237.23 102.89C237.23 102.426 237.006 102.05 236.73 102.05C236.454 102.05 236.23 102.426 236.23 102.89C236.23 103.354 236.454 103.73 236.73 103.73Z" fill="#9A3B82"/>
<path d="M237.92 105.72H234.77C234.16 105.72 233.67 105.23 233.67 104.62V101.47C233.67 100.86 234.16 100.37 234.77 100.37H237.92C238.53 100.37 239.02 100.86 239.02 101.47V104.62C239.03 105.22 238.53 105.72 237.92 105.72Z" stroke="white" stroke-width="5" stroke-miterlimit="10"/>
<path d="M245.63 105.72H242.48C241.87 105.72 241.38 105.23 241.38 104.62V101.47C241.38 100.86 241.87 100.37 242.48 100.37H245.63C246.24 100.37 246.73 100.86 246.73 101.47V104.62C246.73 105.22 246.24 105.72 245.63 105.72Z" stroke="white" stroke-width="5" stroke-miterlimit="10"/>
<path d="M239.03 102.45H241.38" stroke="white" stroke-width="5" stroke-miterlimit="10"/>
<path d="M246.46 146.14H235.53C234.54 146.14 233.73 145.34 233.73 144.34V138.53C233.73 137.54 234.53 136.73 235.53 136.73H246.46C247.45 136.73 248.26 137.53 248.26 138.53V144.34C248.26 145.33 247.46 146.14 246.46 146.14Z" stroke="#66B0F0" stroke-width="6" stroke-miterlimit="10" stroke-linejoin="round"/>
<path d="M241.27 143.8H237.57C236.98 143.8 236.5 143.32 236.5 142.73V140.14C236.5 139.55 236.98 139.07 237.57 139.07H241.27C241.86 139.07 242.34 139.55 242.34 140.14V142.73C242.34 143.32 241.86 143.8 241.27 143.8Z" fill="#66B0F0"/>
<path d="M244.87 143.73L243.73 142.97C243.42 142.76 243.23 142.4 243.23 142.01V140.87C243.23 140.48 243.42 140.12 243.73 139.91L244.87 139.15C245.14 138.97 245.49 139.17 245.49 139.51V143.38C245.5 143.71 245.14 143.91 244.87 143.73Z" fill="#66B0F0"/>
<path d="M392.64 178.87H127.169" stroke="#3FB1B5" stroke-width="6" stroke-miterlimit="10" stroke-linecap="round"/>
<path d="M212.64 180.62V304.08H205.67V280.58C205.67 278.39 203.89 276.61 201.7 276.61H151.81C149.62 276.61 147.84 278.39 147.84 280.58V304.08H140.87V180.62H212.64Z" fill="white" stroke="#3FB1B5" stroke-width="6" stroke-miterlimit="10" stroke-linecap="round"/>
<path d="M212.85 180.62V213.38L140.87 272.65L140.88 180.62H212.85Z" fill="#D0F0E4"/>
<path d="M205.67 190.02V212.41C205.67 214.49 203.99 216.17 201.91 216.17H151.61C149.53 216.17 147.85 214.49 147.85 212.41V190.02C147.85 187.94 149.53 186.26 151.61 186.26H201.91C203.99 186.26 205.67 187.94 205.67 190.02Z" stroke="#3FB1B5" stroke-width="6" stroke-miterlimit="10" stroke-linecap="round"/>
<path d="M189.55 233.13H164.79L163.76 226.04H188.53L189.55 233.13Z" fill="#FFCF2D"/>
<path d="M202.76 221.95C199.67 221.95 197.17 224.45 197.17 227.54V233.13H176.099V227.54C176.099 224.45 178.6 221.95 181.69 221.95H202.76Z" fill="white" stroke="#3FB1B5" stroke-width="6" stroke-miterlimit="10" stroke-linecap="round"/>
<path d="M208.01 226.04H186.94C186.29 223.68 184.12 221.95 181.55 221.95H202.62C205.19 221.95 207.35 223.68 208.01 226.04Z" fill="white" stroke="#3FB1B5" stroke-width="6" stroke-miterlimit="10" stroke-linecap="round"/>
<path d="M205.67 236.89V259.28C205.67 261.36 203.99 263.04 201.91 263.04H151.61C149.53 263.04 147.85 261.36 147.85 259.28V236.89C147.85 234.81 149.53 233.13 151.61 233.13H201.91C203.99 233.13 205.67 234.81 205.67 236.89Z" stroke="#3FB1B5" stroke-width="6" stroke-miterlimit="10" stroke-linecap="round"/>
<path d="M166.46 200.77C166.46 198.99 167.9 197.54 169.69 197.54H183.84C185.62 197.54 187.07 198.98 187.07 200.77" stroke="#3FB1B5" stroke-width="6" stroke-miterlimit="10" stroke-linecap="round"/>
<path d="M166.46 247.64C166.46 245.86 167.9 244.41 169.69 244.41H183.84C185.62 244.41 187.07 245.85 187.07 247.64" stroke="#3FB1B5" stroke-width="6" stroke-miterlimit="10" stroke-linecap="round"/>
<path d="M382.07 180.62H374.64V304.35H382.07V180.62Z" fill="white" stroke="#3FB1B5" stroke-width="6" stroke-miterlimit="10" stroke-linecap="round"/>
<path d="M255.799 304.35H410.86" stroke="#3FB1B5" stroke-width="6" stroke-miterlimit="10" stroke-linecap="round"/>
<path d="M161.97 161.9H157.48C157.48 161.9 151.07 135.19 145.44 134.32C139.81 133.45 139.52 143.73 139.52 143.73C139.52 143.73 139.62 128.1 153.69 130.24C167.77 132.38 161.97 161.9 161.97 161.9Z" fill="white" stroke="#3FB1B5" stroke-width="6" stroke-miterlimit="10" stroke-linecap="round"/>
<path d="M146.59 130.92C146.59 130.92 159.42 126.18 160 161.5" stroke="#3FB1B5" stroke-width="6" stroke-miterlimit="10" stroke-linecap="round"/>
<path d="M174.2 161.5H153.11V178.67H174.2V161.5Z" fill="#FE5244"/>
<path d="M178.64 170.09C177.3 170.67 175.7 170.6 174.21 169.95C173.11 169.47 172.07 168.68 171.23 167.6C170.07 166.1 169.29 164.05 169.29 161.5C169.29 155.32 164.37 151.44 162.35 159.62C162.21 160.19 162.08 160.81 161.97 161.5V161.48V161.44C161.97 161.42 161.97 161.39 161.98 161.36V161.32C162.02 160.81 162.17 159.3 162.63 157.48C162.97 156.13 163.48 154.63 164.24 153.24C164.62 152.55 165.06 151.89 165.58 151.3C166.92 149.76 168.76 148.68 171.27 148.68C175.89 148.68 179.27 154.12 180.56 159.54C181.69 164.25 181.23 168.96 178.64 170.09Z" fill="white" stroke="#3FB1B5" stroke-width="6" stroke-miterlimit="10" stroke-linecap="round"/>
<path d="M165.59 151.3C165.59 151.3 174.85 144.71 177.57 170.28" stroke="#3FB1B5" stroke-width="6" stroke-miterlimit="10" stroke-linecap="round"/>
<path d="M139.22 143.73C139.22 145.38 139.03 151.69 145.05 151.98C151.07 152.27 151.67 143.18 151.67 143.18C151.67 143.18 148.71 135.14 145.44 134.32C139.91 132.93 139.22 143.73 139.22 143.73Z" fill="#3FB1B5"/>
<path d="M169.29 161.5H161.97C163.66 150.91 169.29 154.89 169.29 161.5Z" fill="#3FB1B5"/>
<path opacity="0.4" d="M293.601 83.72V149.73C293.601 153.28 290.721 156.15 287.181 156.15H211.63C206.89 162.68 197.12 162.71 192.34 156.15L192.33 156.14C190.43 156.01 188.75 155.04 187.67 153.61L189.41 152.11L233.81 113.79L276.091 77.3H287.181C290.721 77.3 293.601 80.18 293.601 83.72Z" fill="white"/>
<path opacity="0.4" d="M178.64 170.39C177.31 170.99 175.7 170.9 174.21 170.25V178.67H158.64L171.24 167.8L174.22 165.23L176.49 163.27L180.88 159.54C182.16 165 181.45 169.1 178.64 170.39Z" fill="white"/>
<path d="M96.69 86.7C96.57 86.7 96.45 86.62 96.41 86.5C96.36 86.34 96.44 86.17 96.59 86.12L97.53 85.79C97.69 85.74 97.86 85.82 97.91 85.97C97.96 86.13 97.88 86.3 97.73 86.35L96.79 86.6799C96.75 86.6899 96.72 86.7 96.69 86.7ZM99.05 85.88C98.93 85.88 98.81 85.8 98.77 85.68C98.72 85.52 98.8 85.35 98.95 85.3L99.89 84.97C100.05 84.92 100.22 85 100.27 85.15C100.32 85.31 100.24 85.48 100.09 85.53L99.15 85.86C99.12 85.87 99.08 85.88 99.05 85.88ZM101.41 85.05C101.29 85.05 101.17 84.97 101.13 84.85C101.08 84.69 101.16 84.52 101.31 84.47L102.25 84.14C102.41 84.09 102.58 84.17 102.63 84.32C102.68 84.48 102.6 84.65 102.45 84.7L101.51 85.03C101.48 85.05 101.44 85.05 101.41 85.05ZM103.77 84.23C103.65 84.23 103.53 84.15 103.49 84.03C103.44 83.87 103.52 83.7 103.67 83.65L104.61 83.32C104.77 83.27 104.94 83.35 104.99 83.5C105.04 83.66 104.96 83.83 104.81 83.88L103.87 84.21C103.84 84.23 103.81 84.23 103.77 84.23ZM106.13 83.41C106.01 83.41 105.89 83.33 105.85 83.21C105.8 83.05 105.88 82.88 106.03 82.83L106.97 82.5C107.13 82.45 107.3 82.53 107.35 82.68C107.4 82.84 107.32 83.01 107.17 83.06L106.23 83.39C106.2 83.41 106.17 83.41 106.13 83.41ZM108.5 82.59C108.38 82.59 108.26 82.51 108.22 82.39C108.17 82.23 108.25 82.06 108.4 82.01L109.34 81.68C109.5 81.63 109.67 81.71 109.72 81.86C109.77 82.02 109.69 82.19 109.54 82.24L108.6 82.57C108.56 82.59 108.53 82.59 108.5 82.59ZM110.86 81.77C110.74 81.77 110.62 81.69 110.58 81.57C110.53 81.41 110.61 81.24 110.76 81.19L111.7 80.86C111.86 80.81 112.03 80.89 112.08 81.04C112.13 81.2 112.05 81.37 111.9 81.42L110.96 81.75C110.92 81.76 110.89 81.77 110.86 81.77ZM113.22 80.95C113.1 80.95 112.98 80.87 112.94 80.75C112.89 80.59 112.97 80.42 113.12 80.37L114.06 80.04C114.22 79.99 114.39 80.07 114.44 80.22C114.49 80.38 114.41 80.55 114.26 80.6L113.32 80.93C113.28 80.94 113.25 80.95 113.22 80.95ZM115.58 80.13C115.46 80.13 115.34 80.05 115.3 79.93C115.25 79.77 115.33 79.6 115.48 79.55L116.42 79.22C116.58 79.17 116.75 79.25 116.8 79.4C116.85 79.56 116.77 79.73 116.62 79.78L115.68 80.11C115.65 80.12 115.61 80.13 115.58 80.13ZM117.94 79.31C117.82 79.31 117.7 79.23 117.66 79.11C117.61 78.95 117.69 78.78 117.84 78.73L118.78 78.4C118.94 78.35 119.11 78.43 119.16 78.58C119.21 78.74 119.13 78.91 118.98 78.96L118.04 79.29C118.01 79.3 117.97 79.31 117.94 79.31ZM120.3 78.49C120.18 78.49 120.06 78.41 120.02 78.29C119.97 78.13 120.05 77.96 120.2 77.91L121.14 77.58C121.3 77.53 121.47 77.61 121.52 77.76C121.57 77.92 121.49 78.09 121.34 78.14L120.4 78.47C120.37 78.48 120.33 78.49 120.3 78.49ZM122.66 77.66C122.54 77.66 122.42 77.58 122.38 77.46C122.33 77.3 122.41 77.13 122.56 77.08L123.5 76.75C123.66 76.7 123.83 76.78 123.88 76.93C123.93 77.09 123.85 77.26 123.7 77.31L122.76 77.64C122.73 77.66 122.7 77.66 122.66 77.66ZM125.02 76.84C124.9 76.84 124.78 76.76 124.74 76.64C124.69 76.48 124.77 76.31 124.92 76.26L125.86 75.93C126.02 75.88 126.19 75.96 126.24 76.11C126.29 76.27 126.21 76.44 126.06 76.49L125.12 76.82C125.09 76.84 125.06 76.84 125.02 76.84ZM127.39 76.02C127.27 76.02 127.15 75.94 127.11 75.82C127.06 75.66 127.14 75.49 127.29 75.44L128.23 75.11C128.39 75.06 128.56 75.14 128.61 75.29C128.66 75.45 128.58 75.62 128.43 75.67L127.49 76C127.45 76.02 127.42 76.02 127.39 76.02ZM129.75 75.2C129.63 75.2 129.51 75.12 129.47 75C129.42 74.84 129.5 74.67 129.65 74.62L130.59 74.29C130.75 74.24 130.92 74.32 130.97 74.47C131.02 74.63 130.94 74.8 130.79 74.85L129.85 75.18C129.81 75.2 129.78 75.2 129.75 75.2ZM132.11 74.38C131.99 74.38 131.87 74.3 131.83 74.18C131.78 74.02 131.86 73.85 132.01 73.8L132.95 73.47C133.11 73.42 133.28 73.5 133.33 73.65C133.38 73.81 133.3 73.98 133.15 74.03L132.21 74.36C132.17 74.38 132.14 74.38 132.11 74.38ZM134.47 73.56C134.35 73.56 134.23 73.48 134.19 73.36C134.14 73.2 134.22 73.03 134.37 72.98L135.31 72.65C135.47 72.6 135.64 72.68 135.69 72.83C135.74 72.99 135.66 73.16 135.51 73.21L134.57 73.54C134.54 73.55 134.5 73.56 134.47 73.56ZM136.83 72.74C136.71 72.74 136.59 72.66 136.55 72.54C136.5 72.38 136.58 72.21 136.73 72.16L137.67 71.83C137.83 71.78 138 71.86 138.05 72.01C138.1 72.17 138.02 72.34 137.87 72.39L136.93 72.72C136.9 72.73 136.86 72.74 136.83 72.74Z" fill="#FFCF2D"/>
<path d="M107.33 86.6999C107.16 86.6999 107.03 86.5699 107.03 86.3999C107.03 83.6899 106.19 81.72 104.52 80.56C103.27 79.69 102 79.61 101.99 79.61C101.82 79.6 101.7 79.46 101.71 79.29C101.72 79.12 101.86 79 102.02 79.01C102.08 79.01 103.45 79.09 104.84 80.05C107.15 81.65 107.63 84.3899 107.63 86.3999C107.63 86.5599 107.5 86.6999 107.33 86.6999Z" fill="#3FB1B5"/>
<path d="M155.11 86.7H96.6898C96.5798 86.7 96.4698 86.64 96.4198 86.53C96.3698 86.43 96.3798 86.31 96.4498 86.22L120.19 54.57C120.24 54.5 120.32 54.46 120.4 54.45C120.48 54.44 120.57 54.47 120.63 54.53L155.32 86.18C155.41 86.26 155.44 86.39 155.4 86.51C155.35 86.62 155.24 86.7 155.11 86.7ZM97.2898 86.1H154.34L120.47 55.19L97.2898 86.1Z" fill="#3FB1B5"/>
<path d="M91.44 88.78C90.01 88.78 88.85 87.62 88.85 86.19C88.85 84.76 90.01 83.6 91.44 83.6C92.87 83.6 94.03 84.76 94.03 86.19C94.03 87.62 92.87 88.78 91.44 88.78ZM91.44 84.19C90.34 84.19 89.45 85.08 89.45 86.18C89.45 87.28 90.34 88.17 91.44 88.17C92.54 88.17 93.43 87.28 93.43 86.18C93.43 85.08 92.54 84.19 91.44 84.19Z" fill="#FFCF2D"/>
<path d="M94.0302 86.1901H93.4302V88.4801H94.0302V86.1901Z" fill="#FFCF2D"/>
<path d="M122.2 52.6C120.77 52.6 119.61 51.44 119.61 50.01C119.61 48.58 120.77 47.42 122.2 47.42C123.63 47.42 124.79 48.58 124.79 50.01C124.79 51.43 123.63 52.6 122.2 52.6ZM122.2 48.01C121.1 48.01 120.21 48.9 120.21 50C120.21 51.1 121.1 52 122.2 52C123.3 52 124.19 51.11 124.19 50.01C124.19 48.91 123.3 48.01 122.2 48.01Z" fill="#FFCF2D"/>
<path d="M120.19 46H119.59V52.29H120.19V46Z" fill="#FFCF2D"/>
<path d="M159.78 88.72C158.35 88.72 157.19 87.56 157.19 86.13C157.19 84.7 158.35 83.54 159.78 83.54V84.14C158.68 84.14 157.79 85.03 157.79 86.13C157.79 87.23 158.68 88.12 159.78 88.12V88.72Z" fill="#FFCF2D"/>
<path d="M311.23 214.82V270.48H298.37L290.18 247.61L278.45 214.82H311.23Z" fill="#A0505A"/>
<path d="M278.45 214.82H311.23V232.69L282.35 225.71L278.45 214.82Z" fill="#73325A"/>
<path d="M311.23 247.61V270.48H298.37L290.18 247.61C290.18 247.61 296.81 251.27 311.23 247.61Z" stroke="white" stroke-width="6" stroke-miterlimit="10" stroke-linecap="round"/>
<path d="M296.87 252.98C297.676 252.98 298.33 252.326 298.33 251.52C298.33 250.714 297.676 250.06 296.87 250.06C296.064 250.06 295.41 250.714 295.41 251.52C295.41 252.326 296.064 252.98 296.87 252.98Z" stroke="white" stroke-width="6" stroke-miterlimit="10" stroke-linecap="round"/>
<path d="M303.83 257.69C304.636 257.69 305.29 257.036 305.29 256.23C305.29 255.424 304.636 254.77 303.83 254.77C303.024 254.77 302.37 255.424 302.37 256.23C302.37 257.036 303.024 257.69 303.83 257.69Z" stroke="white" stroke-width="6" stroke-miterlimit="10" stroke-linecap="round"/>
<path d="M309.01 252.46C309.816 252.46 310.47 251.806 310.47 251C310.47 250.194 309.816 249.54 309.01 249.54C308.203 249.54 307.55 250.194 307.55 251C307.55 251.806 308.203 252.46 309.01 252.46Z" stroke="white" stroke-width="6" stroke-miterlimit="10" stroke-linecap="round"/>
<path d="M306.96 263.17C307.766 263.17 308.42 262.516 308.42 261.71C308.42 260.904 307.766 260.25 306.96 260.25C306.154 260.25 305.5 260.904 305.5 261.71C305.5 262.516 306.154 263.17 306.96 263.17Z" stroke="white" stroke-width="6" stroke-miterlimit="10" stroke-linecap="round"/>
<path d="M298.33 260.51C299.136 260.51 299.79 259.856 299.79 259.05C299.79 258.244 299.136 257.59 298.33 257.59C297.524 257.59 296.87 258.244 296.87 259.05C296.87 259.856 297.524 260.51 298.33 260.51Z" stroke="white" stroke-width="6" stroke-miterlimit="10" stroke-linecap="round"/>
<path d="M300.71 268.51C301.516 268.51 302.17 267.856 302.17 267.05C302.17 266.244 301.516 265.59 300.71 265.59C299.904 265.59 299.25 266.244 299.25 267.05C299.25 267.856 299.904 268.51 300.71 268.51Z" stroke="white" stroke-width="6" stroke-miterlimit="10" stroke-linecap="round"/>
<path d="M317.31 280.86L308.49 299.17C307.24 302.12 304.35 304.04 301.14 304.04H289.89C287.01 304.04 285.26 301.12 286.36 298.46L297.67 271.18C298.3 269.52 299.41 268.14 300.8 267.17C302.2 266.2 303.88 265.65 305.65 265.65C308.11 265.65 310.55 267.32 312.17 269.17L316.09 273.4C317.9 275.46 318.37 278.35 317.31 280.86Z" fill="#66B0F0"/>
<path d="M317.31 280.86L308.49 299.17C307.24 302.12 304.35 304.04 301.14 304.04H289.18C288.07 304.04 287.44 303.35 287.07 302.4H289.73C292.94 302.4 295.83 300.48 297.08 297.53L307.25 276.32C308.2 274.34 310.21 273.07 312.41 273.07C315.28 273.07 317.46 275.17 317.86 277.83C317.9 278.85 317.72 279.88 317.31 280.86Z" fill="white" stroke="#66B0F0" stroke-width="6" stroke-miterlimit="10" stroke-linejoin="round"/>
<path d="M315.28 272.52C314.22 271.94 312.94 271.52 311.82 271.52C309.67 271.52 307.68 272.77 306.75 274.71L296.22 296.67C294.88 299.84 291.78 301.89 288.33 301.89H286.39C286.29 301.7 286.22 301.5 286.15 301.29H288.33C291.54 301.29 294.42 299.38 295.67 296.43L295.68 296.42L306.22 274.45C307.25 272.3 309.45 270.92 311.83 270.92C312.59 270.92 313.5 271.17 314.28 271.44L315.28 272.52Z" fill="white"/>
<path d="M278.45 214.82L275.94 247.61L274.82 262.3C274.82 262.3 267.51 270.44 259.19 265.42L255.34 247.62L246.53 206.89C244.15 195.88 251.67 185.17 262.84 183.68L278.45 214.82Z" fill="#A0505A"/>
<path d="M275.94 247.61L274.82 262.7C274.82 262.7 267.51 270.84 259.19 265.82L255.34 247.62C265.01 250.52 275.94 247.61 275.94 247.61Z" stroke="white" stroke-width="6" stroke-miterlimit="10" stroke-linecap="round"/>
<path d="M264.45 256.68C265.256 256.68 265.91 256.026 265.91 255.22C265.91 254.414 265.256 253.76 264.45 253.76C263.644 253.76 262.99 254.414 262.99 255.22C262.99 256.026 263.644 256.68 264.45 256.68Z" stroke="white" stroke-width="6" stroke-miterlimit="10" stroke-linecap="round"/>
<path d="M273.73 254.44C274.536 254.44 275.19 253.786 275.19 252.98C275.19 252.174 274.536 251.52 273.73 251.52C272.924 251.52 272.27 252.174 272.27 252.98C272.27 253.786 272.924 254.44 273.73 254.44Z" stroke="white" stroke-width="6" stroke-miterlimit="10" stroke-linecap="round"/>
<path d="M258.85 252.46C259.656 252.46 260.31 251.806 260.31 251C260.31 250.194 259.656 249.54 258.85 249.54C258.044 249.54 257.39 250.194 257.39 251C257.39 251.806 258.044 252.46 258.85 252.46Z" stroke="white" stroke-width="6" stroke-miterlimit="10" stroke-linecap="round"/>
<path d="M262.99 264.63C263.796 264.63 264.45 263.976 264.45 263.17C264.45 262.364 263.796 261.71 262.99 261.71C262.184 261.71 261.53 262.364 261.53 263.17C261.53 263.976 262.184 264.63 262.99 264.63Z" stroke="white" stroke-width="6" stroke-miterlimit="10" stroke-linecap="round"/>
<path d="M269.8 261.71C270.606 261.71 271.26 261.056 271.26 260.25C271.26 259.444 270.606 258.79 269.8 258.79C268.994 258.79 268.34 259.444 268.34 260.25C268.34 261.056 268.994 261.71 269.8 261.71Z" stroke="white" stroke-width="6" stroke-miterlimit="10" stroke-linecap="round"/>
<path d="M284.46 265.8L274.82 304.35H271.78C271.64 304.35 271.51 304.34 271.37 304.33C269.07 304.12 267.13 302.18 266.64 299.89L259.18 265.4C267.5 270.43 274.82 262.29 274.82 262.29L284.46 265.8Z" fill="#66B0F0"/>
<path d="M284.95 285.58C286.98 274.86 287.54 266.67 284.04 266.01C280.54 265.35 274.31 272.46 272.28 283.18C270.25 293.9 271.31 303.38 274.81 304.04C278.31 304.71 282.92 296.31 284.95 285.58Z" fill="white" stroke="#66B0F0" stroke-width="6" stroke-miterlimit="10" stroke-linejoin="round"/>
<path d="M270.88 283.01C269.83 288.57 269.52 293.94 270.02 298.14C270.38 301.16 271.14 303.31 272.18 304.35H271.78C271.64 304.35 271.51 304.34 271.37 304.33C270.43 303.09 269.76 301.01 269.42 298.21C268.91 293.96 269.22 288.52 270.29 282.9C271.3 277.58 273.34 272.59 276.05 268.84C277.67 266.6 279.37 265.03 280.92 264.32L281.82 264.62C278.25 265.68 272.83 272.72 270.88 283.01Z" fill="white"/>
<path d="M262.84 183.67L308.46 178.97L354.06 191.76L353.67 197.82C353.05 207.38 344.81 214.82 335.23 214.82H278.46L262.84 183.67Z" fill="#FE5244"/>
<path d="M351.46 191.32C351.46 200 342.8 210.62 333.22 210.62H276.45" stroke="white" stroke-width="6" stroke-miterlimit="10" stroke-linecap="round" stroke-linejoin="round"/>
<path d="M346.05 189.59C344.63 197.34 337.05 205.62 328.75 205.62H274.15" stroke="white" stroke-width="6" stroke-miterlimit="10" stroke-linecap="round" stroke-linejoin="round"/>
<path d="M339.9 187.75C337.5 194.33 330.99 200.52 323.94 200.52H271.25" stroke="white" stroke-width="6" stroke-miterlimit="10" stroke-linecap="round" stroke-linejoin="round"/>
<path d="M335.17 186.46C332.02 191.25 326.85 195.02 321.34 195.02H268.65" stroke="white" stroke-width="6" stroke-miterlimit="10" stroke-linecap="round" stroke-linejoin="round"/>
<path d="M329.89 184.98C326.86 188.03 322.94 190.02 318.84 190.02H266.15" stroke="white" stroke-width="6" stroke-miterlimit="10" stroke-linecap="round" stroke-linejoin="round"/>
<path d="M323.02 182.99C320.88 184.2 318.54 184.92 316.14 184.92H263.45" stroke="white" stroke-width="6" stroke-miterlimit="10" stroke-linecap="round" stroke-linejoin="round"/>
<path d="M278.35 214.82L262.74 183.67" stroke="white" stroke-width="6" stroke-miterlimit="10" stroke-linecap="round" stroke-linejoin="round"/>
<path d="M356.56 150.02C352.26 151.24 348.03 150.88 347.58 149.57C347.16 148.32 349.06 146.18 352.91 144.76C353.1 144.69 353.3 144.62 353.5 144.55C354.66 144.16 355.82 143.91 356.91 143.78C360.14 143.37 362.77 143.95 363.1 144.93C363.55 146.24 361.11 148.73 356.56 150.02Z" fill="white" stroke="#3FB1B5" stroke-width="6" stroke-miterlimit="10" stroke-linejoin="round"/>
<path d="M353.84 179.18H352.19L347.86 149.95V149.93L347.75 149.2C347.96 147.87 350.04 145.99 353.71 144.77C355.54 144.16 357.36 143.89 358.91 143.86L360.49 148.19L360.64 148.6L365.64 162.31C368.64 170.5 362.57 179.18 353.84 179.18Z" fill="#A0505A"/>
<path d="M360.59 148.5C359.54 149.16 358.18 149.77 356.56 150.23C352.84 151.28 349.07 150.85 347.86 149.95V149.93L347.75 149.2C347.96 147.87 350.04 145.99 353.71 144.77C355.54 144.16 357.36 143.89 358.91 143.86L360.59 148.5Z" fill="#73325A"/>
<path d="M300.28 155.13L295.03 168.19C292.44 174.64 286.18 178.87 279.22 178.87H208.65V172.41C208.65 170.85 209.61 169.45 211.07 168.9L218.32 166.15C218.98 165.9 219.67 165.77 220.37 165.77H228.6L275.18 161.07L283.22 142.66L300.28 155.13Z" fill="#A0505A"/>
<path d="M216.25 170.12L210.78 172.19C209.68 172.61 208.95 173.66 208.95 174.84" stroke="#73325A" stroke-width="6" stroke-miterlimit="10" stroke-linecap="round"/>
<path d="M216.25 173.42L210.78 175.49C209.68 175.91 208.95 176.96 208.95 178.14" stroke="#73325A" stroke-width="6" stroke-miterlimit="10" stroke-linecap="round"/>
<path d="M216.25 176.6L210.78 178.57" stroke="#73325A" stroke-width="6" stroke-miterlimit="10" stroke-linecap="round"/>
<path d="M215.68 167.26C215.68 167.26 220.8 154.19 222.44 154.41C224.08 154.63 217.9 166.42 217.9 166.42L215.68 167.26Z" fill="#FE5244"/>
<path d="M283.22 142.67L282.04 145.36L297.15 162.91L300.28 155.13L283.22 142.67Z" fill="#73325A"/>
<path d="M347.86 149.96L354.06 191.76L308.47 178.97L300.28 155.12L279.14 139.67L286.56 130.83C293.18 122.94 302.95 118.38 313.25 118.38H327.9C340.64 118.38 352.37 125.34 358.48 136.52L363.23 144.74C363.23 144.74 361.8 142.64 354.09 144.75C347.3 146.62 347.86 149.96 347.86 149.96Z" fill="#3FB1B5"/>
<path d="M300.28 154.93L302.65 144.65" stroke="white" stroke-width="6" stroke-miterlimit="10" stroke-linecap="round" stroke-linejoin="round"/>
<path d="M352.91 182L345.2 134.07" stroke="white" stroke-width="6" stroke-miterlimit="10" stroke-linecap="round" stroke-linejoin="round"/>
<path d="M308.46 178.78L353.96 191.76" stroke="white" stroke-width="6" stroke-miterlimit="10" stroke-linecap="round" stroke-linejoin="round"/>
<path d="M310.92 111.7V118.42L322.78 118.32V106.46L310.92 111.7Z" fill="#A0505A"/>
<path d="M323.74 104.39V104.57C323.74 106.37 322.38 107.83 320.58 107.83H319.88C319.43 109.61 315.43 111.69 312.59 111.69H309.28C305.66 111.69 302.89 108.44 303.48 104.86L303.64 103.89L302.66 103.34C302.1 103.02 301.94 102.29 302.33 101.77L304.45 98.97L304.91 96.21C305.28 93.94 306.77 92.09 308.75 91.18C309.53 99.97 317.29 101.01 319.34 101.13H320.48C322.28 101.13 323.74 102.59 323.74 104.39Z" fill="#A0505A"/>
<path d="M318.49 105.25C318.49 103.83 319.64 102.68 321.06 102.68" stroke="#73325A" stroke-width="6" stroke-miterlimit="10" stroke-linecap="round"/>
<path d="M307.65 101.22C307.932 101.22 308.16 100.692 308.16 100.04C308.16 99.3883 307.932 98.86 307.65 98.86C307.368 98.86 307.14 99.3883 307.14 100.04C307.14 100.692 307.368 101.22 307.65 101.22Z" fill="#73325A"/>
<path d="M306.87 96.3901C306.87 96.3901 308.28 96.25 309.73 98.25" stroke="#73325A" stroke-width="6" stroke-miterlimit="10" stroke-linecap="round"/>
<path d="M319.34 101.13H320.48C322.28 101.13 323.74 102.59 323.74 104.39V104.57C323.74 106.37 322.38 107.83 320.58 107.83L319.81 108.37C316.57 110.45 312.09 118.63 313.19 124.42C314.43 130.93 320.1 132.38 325.34 131.38C330.58 130.38 334.4 127.33 333.16 120.81C333.02 120.04 332.79 119.27 332.5 118.51C332.59 118.54 332.67 118.57 332.76 118.6C339.06 120.32 346.46 120.52 348.5 115.6C350.54 110.68 350.08 105.81 343.95 103.27C340.39 101.79 335.55 101.8 331.8 102.82C333.69 96.25 330.33 88.94 324.16 88.21C314.47 87.06 308.91 91.06 308.76 91.17C308.75 92.33 309.54 100.56 319.34 101.13Z" fill="#73325A"/>
<path d="M332.05 102.59C331.26 105.16 329.63 107.91 326.98 109.78C326.98 109.78 331.66 112.87 332.76 118.61" stroke="white" stroke-width="6" stroke-miterlimit="10" stroke-linecap="round" stroke-linejoin="round"/>
<path d="M334.77 102.37H332.12V99.7199C332.12 98.3299 333.24 97.2099 334.63 97.2099H334.77C336.16 97.2099 337.28 98.3299 337.28 99.7199V99.8599C337.29 101.24 336.16 102.37 334.77 102.37Z" stroke="#FE5244" stroke-width="6" stroke-miterlimit="10" stroke-linejoin="round"/>
<path d="M333.8 105.09L332.1 102.39L334.8 100.69C336.15 99.84 337.94 100.24 338.79 101.59L338.95 101.84C339.8 103.19 339.4 104.98 338.05 105.83L337.8 105.99C336.43 106.84 334.65 106.44 333.8 105.09Z" stroke="#FE5244" stroke-width="6" stroke-miterlimit="10" stroke-linejoin="round"/>
<path d="M318.14 109.91L320.03 108.1L321.88 110.19C322.79 111.24 322.67 112.83 321.62 113.73L321.51 113.82C320.46 114.73 318.87 114.61 317.97 113.56L317.88 113.45C316.97 112.41 317.09 110.82 318.14 109.91Z" stroke="#FE5244" stroke-width="6" stroke-miterlimit="10" stroke-linejoin="round"/>
<path d="M320.9 111.21L320.05 108.14L323.12 107.29C324.66 106.86 326.25 107.76 326.68 109.3L326.76 109.59C327.19 111.13 326.29 112.72 324.75 113.15L324.46 113.23C322.92 113.65 321.33 112.74 320.9 111.21Z" stroke="#FE5244" stroke-width="6" stroke-miterlimit="10" stroke-linejoin="round"/>
<path d="M293.61 222.51L276.19 304.04" stroke="#FFCF2D" stroke-width="6" stroke-miterlimit="10" stroke-linecap="round"/>
<path d="M338.19 222.51L355.61 304.04" stroke="#FFCF2D" stroke-width="6" stroke-miterlimit="10" stroke-linecap="round"/>
<path d="M280.05 285.94H351.51" stroke="#FFCF2D" stroke-width="6" stroke-miterlimit="10" stroke-linecap="round"/>
<path d="M351.9 222.51H279.89C278.98 222.51 278.24 221.77 278.24 220.86V216.47C278.24 215.56 278.98 214.82 279.89 214.82H351.9C352.81 214.82 353.55 215.56 353.55 216.47V220.86C353.55 221.77 352.81 222.51 351.9 222.51Z" fill="white" stroke="#66B0F0" stroke-width="6" stroke-miterlimit="10" stroke-linejoin="round"/>
</svg>
