<svg width="360" height="252" viewBox="0 0 360 252" fill="none" xmlns="http://www.w3.org/2000/svg">
<path d="M306.482 229.954L221.601 230.105C211.197 230.177 200.145 230.213 188.683 230.213C160.783 230.213 135.281 229.982 115.776 229.601H37.26C37.26 215.734 52.524 221.825 56.5488 224.273C61.2288 227.117 55.2024 211.975 64.7568 211.975C72.936 211.975 77.616 216.086 77.616 216.086C77.616 216.086 77.8392 208.094 85.5936 207.979C93.348 207.864 98.2728 214.697 104.393 220.32C106.92 222.638 109.958 224.482 112.831 225.886C132.682 225.468 159.35 225.209 188.683 225.209C202.579 225.209 215.87 225.266 228.132 225.374C249.919 225.374 269.87 213.919 275.529 211.046C289.512 203.933 282.888 220.889 282.888 220.889C282.888 220.889 293.666 216.353 301.248 216.389C311.954 216.432 306.482 229.954 306.482 229.954Z" fill="#D0F0E4"/>
<path d="M262.44 229.536C262.44 229.536 264.586 210.226 250.618 204.012C250.618 204.012 248.558 225.022 255.528 223.646C258.142 223.128 252.533 218.03 243.389 217.814C243.389 217.814 250.394 229.586 258.905 229.752" stroke="#FFCF2D" stroke-width="6" stroke-miterlimit="10"/>
<path d="M258.933 229.723C258.933 229.723 259.74 220.889 268.351 218.138C276.127 215.662 262.519 229.507 262.519 229.507" stroke="#FFCF2D" stroke-width="6" stroke-miterlimit="10"/>
<path d="M65.5705 228.917C65.5705 228.917 53.2225 220.457 49.7449 206.654C49.7449 206.654 60.6745 209.923 65.3113 216.878C65.3113 216.878 67.2121 201.046 71.8057 195.718C71.8057 195.718 74.2897 199.289 74.5993 212.522C74.5993 212.522 80.2297 202.932 84.4201 199.836C84.4201 199.836 83.8441 212.314 80.8489 218.686C80.8489 218.686 85.1761 215.316 88.0993 218.621C91.0225 221.926 85.2913 226.764 85.2913 226.764" stroke="#FE5244" stroke-width="5" stroke-miterlimit="10"/>
<path d="M71.813 196.186C71.813 196.186 71.9354 225.029 70.625 228.766" stroke="#FE5244" stroke-width="5" stroke-miterlimit="10"/>
<path d="M84.017 200.563C84.017 200.563 75.4058 222.689 70.625 228.766" stroke="#FE5244" stroke-width="5" stroke-miterlimit="10"/>
<path d="M80.7193 218.786C80.4025 219.945 78.2209 223.142 77.7889 221.767C77.3641 220.392 81.2881 218.167 82.2745 217.8" stroke="#FE5244" stroke-width="5" stroke-miterlimit="10"/>
<path d="M65.3186 216.886C65.9018 218.009 67.8746 221.162 65.8802 221.083C64.577 221.033 65.6714 214.416 65.6714 214.416" stroke="#FE5244" stroke-width="5" stroke-miterlimit="10"/>
<path d="M228.103 205.208C223.207 207.605 223.668 212.206 223.625 215.295C223.574 218.585 217.296 220.306 217.296 220.306C218.966 215.043 217.778 209.621 217.778 209.621L228.103 205.208Z" fill="#A0505A"/>
<path d="M233.294 217.325L232.178 217.93L229.838 212.58C229.716 212.3 229.442 212.134 229.162 212.134C229.068 212.134 228.967 212.156 228.874 212.192C228.636 212.292 228.463 212.516 228.434 212.775L227.405 220.529L213.862 227.902C213.458 226.937 215.971 224.518 217.303 220.306C217.303 220.306 223.589 218.585 223.632 215.295C223.675 212.206 223.222 207.598 228.11 205.208L229.14 204.768C234.756 207.353 233.294 217.325 233.294 217.325Z" fill="#FFCF2D"/>
<path d="M229.133 166.781V204.768L217.93 209.628L209.534 171.49C213.293 171.634 219.557 170.842 229.133 166.781Z" fill="white" stroke="#9A3B82" stroke-width="5" stroke-miterlimit="10"/>
<path d="M220.896 170.122L223.106 207.367" stroke="#9A3B82" stroke-width="5" stroke-miterlimit="10"/>
<path d="M229.133 166.781V176.724L210.067 173.967L209.534 171.49C213.293 171.634 219.557 170.842 229.133 166.781Z" fill="#9A3B82"/>
<path d="M285.595 141.005L278.352 142.532C278.107 142.582 277.863 142.503 277.69 142.323C277.567 142.186 277.503 142.02 277.503 141.848C277.503 141.66 277.575 141.473 277.726 141.336L281.758 137.556L280.865 136.757C280.865 136.757 271.505 138.593 270.972 144.432L271.685 145.21C275.364 148.824 279.331 146.96 282.103 146.024C284.753 145.131 287.914 149.242 288.54 150.092C288.547 150.092 288.562 150.092 288.569 150.092C292.745 149.955 295.704 151.438 296.431 150.768L285.595 141.005Z" fill="#FFCF2D"/>
<path d="M271.692 145.21C275.371 148.824 279.338 146.96 282.11 146.024C285.062 145.03 288.583 150.092 288.583 150.092C283.356 150.257 278.899 153.029 278.899 153.029L271.692 145.21Z" fill="#A0505A"/>
<path d="M226.966 167.105C226.966 167.105 228.787 179.41 242.762 179.179C256.738 178.949 278.748 152.957 278.748 152.957L271.008 144.476L226.966 167.105Z" fill="white" stroke="#9A3B82" stroke-width="5" stroke-miterlimit="10"/>
<path d="M235.022 163.764C235.483 167.004 237.657 170.057 244.289 169.949C254.138 169.791 268.056 156.867 275.414 149.249" stroke="#9A3B82" stroke-width="5" stroke-miterlimit="10"/>
<path d="M287.964 119.376C286.69 118.894 283.658 120.55 281.376 123.43C278.921 126.518 277.927 129.802 279.007 130.658L244.425 112.27C242.726 111.37 240.768 112.91 241.25 114.768L251.719 154.426C216.259 177.437 204.89 170.539 204.89 170.539V40.2192C204.89 40.2264 204.89 40.2264 204.897 40.2336C205.2 41.004 208.447 40.464 212.155 39.0168C215.568 37.692 218.174 36.0648 218.34 35.2152L218.347 35.208V76.2696C218.347 78.8472 219.737 81.216 221.983 82.476L287.964 119.376Z" fill="#FE5244"/>
<path d="M287.964 119.376C286.69 118.894 283.658 120.55 281.376 123.43C278.921 126.518 277.927 129.802 279.007 130.658L244.425 112.27C242.726 111.37 240.768 112.91 241.25 114.768L251.719 154.584C242.705 160.438 235.245 164.196 229.133 166.788C219.557 170.841 213.293 171.641 209.534 171.497C206.258 171.374 204.89 170.539 204.89 170.539V40.2192C204.89 40.2264 204.89 40.2264 204.897 40.2336C205.2 41.004 208.447 40.464 212.155 39.0168C215.568 37.692 218.174 36.0648 218.34 35.2152L218.347 35.208V76.2696C218.347 78.8472 219.737 81.216 221.983 82.476L287.964 119.376Z" fill="#FE5244"/>
<path d="M238.363 109.073L279.007 131.12" stroke="white" stroke-width="6" stroke-miterlimit="10" stroke-linecap="round"/>
<path d="M222.948 83.009L218.39 109.498L241.654 93.4778L222.948 83.009Z" fill="#FFCF2D"/>
<path d="M222.948 83.009L218.39 109.498L241.654 93.4778" stroke="white" stroke-width="6" stroke-miterlimit="10" stroke-linecap="round"/>
<path d="M222.761 31.8816L192.73 38.0377C191.621 38.2681 190.476 37.2817 190.181 35.8345C189.886 34.3872 190.548 33.0336 191.657 32.8032L221.688 26.6472L222.761 31.8816Z" fill="white" stroke="#3FB1B5" stroke-width="5" stroke-miterlimit="10" stroke-linecap="round"/>
<path d="M222.75 31.8861C223.86 31.6585 224.52 30.3025 224.224 28.8573C223.928 27.4122 222.787 26.4251 221.677 26.6527C220.567 26.8802 219.907 28.2362 220.203 29.6814C220.5 31.1266 221.64 32.1136 222.75 31.8861Z" fill="white" stroke="#3FB1B5" stroke-width="5" stroke-miterlimit="10" stroke-linecap="round"/>
<path d="M205.625 34.5026C205.625 34.5026 195.912 45.4178 196.971 47.8226C198.353 49.1978 199.476 49.8026 199.311 50.3138C199.131 50.8682 196.805 54.2162 196.805 54.2162L196.575 51.7322L194.35 52.4666C194.35 52.4666 196.697 49.0394 196.848 47.9882C195.883 47.2538 193.918 45.7274 193.983 44.6618C194.055 43.5314 197.496 39.5138 199.995 36.7418L196.229 37.9874L195.487 34.5098L202.263 33.2642L205.625 34.5026Z" fill="#FE5244"/>
<path d="M204.307 34.9778C205.437 34.9778 206.352 34.0623 206.352 32.933C206.352 31.8037 205.437 30.8882 204.307 30.8882C203.178 30.8882 202.262 31.8037 202.262 32.933C202.262 34.0623 203.178 34.9778 204.307 34.9778Z" fill="white" stroke="#FE5244" stroke-width="5" stroke-miterlimit="10"/>
<path d="M218.34 35.2152C218.174 36.0648 215.568 37.692 212.155 39.0168C208.447 40.4568 205.2 41.004 204.898 40.2336C204.898 40.2264 204.898 40.2264 204.891 40.2192C204.631 39.4416 207.382 37.6632 211.068 36.2304C214.776 34.7904 218.023 34.2432 218.326 35.0136C218.347 35.0712 218.354 35.136 218.34 35.2152Z" fill="#9A3B82"/>
<path d="M215.842 29.1673L215.446 34.8841L215.259 37.6201C214.359 38.0953 213.3 38.5705 212.155 39.0169C210.211 39.7729 208.397 40.2769 207.065 40.4857V35.2585L212.53 34.1353C212.53 34.1353 212.832 32.1841 213.408 30.5497C213.977 28.9081 215.842 29.1673 215.842 29.1673Z" fill="#A0505A"/>
<path d="M212.681 33.8977C212.602 34.2217 210.226 34.9777 210.226 36.7057" stroke="#73325A" stroke-width="4" stroke-miterlimit="10" stroke-linecap="round"/>
<path d="M215.446 34.884L215.259 37.62C214.359 38.0952 213.3 38.5704 212.155 39.0168C210.211 39.7728 208.397 40.2768 207.065 40.4856V38.124C208.131 37.4976 209.52 36.8352 211.068 36.2304C212.681 35.5968 214.207 35.136 215.446 34.884Z" fill="#73325A"/>
<path d="M211.867 32.0257L205.769 33.4225C205.445 33.4945 205.143 33.2353 205.143 32.8753V29.1745C205.143 28.6777 205.445 28.2457 205.884 28.1017L211.911 26.1361C212.292 26.0137 212.674 26.3161 212.674 26.7409V30.9601C212.667 31.4713 212.335 31.9177 211.867 32.0257Z" fill="#A0505A"/>
<path d="M207.303 32.8465C206.971 32.9185 206.655 32.6665 206.655 32.3209V28.7713C206.655 28.2961 206.964 27.8785 207.418 27.7417" stroke="#73325A" stroke-width="4" stroke-miterlimit="10" stroke-linecap="round"/>
<path d="M209.06 32.465C208.728 32.537 208.411 32.2778 208.411 31.925V28.2674C208.411 27.7778 208.721 27.3458 209.175 27.209" stroke="#73325A" stroke-width="4" stroke-miterlimit="10" stroke-linecap="round"/>
<path d="M211.025 32.0473C210.694 32.1193 210.377 31.8529 210.377 31.4929V27.7057C210.377 27.2017 210.687 26.7553 211.14 26.6113" stroke="#73325A" stroke-width="4" stroke-miterlimit="10" stroke-linecap="round"/>
<path d="M285.286 126.533C282.83 129.629 280.08 131.508 279 130.651C277.92 129.795 278.914 126.519 281.369 123.422C283.658 120.542 286.682 118.886 287.957 119.369L288.209 119.513C289.296 120.377 287.741 123.444 285.286 126.533Z" fill="#9A3B82"/>
<path d="M296.395 131.738L294.761 132.602C294.113 132.948 293.306 132.703 292.961 132.055L291.24 128.858L288.634 127.966C288.922 128.074 290.045 128.65 289.692 130.745L283.572 128.462L281.47 127.678L279.475 126.403C279.943 125.453 280.584 124.43 281.383 123.43C282.053 122.587 282.78 121.853 283.507 121.248L285.588 122.702L287.719 122.933L291.182 123.3C291.737 123.358 292.27 123.545 292.738 123.84L295.502 125.806C295.906 126.094 296.172 126.526 296.237 127.015L296.798 130.946C296.849 131.27 296.683 131.587 296.395 131.738Z" fill="#A0505A"/>
<path d="M292.37 125.338L294.768 127.044C295.114 127.289 295.344 127.67 295.409 128.095L295.898 131.271C295.934 131.551 295.798 131.825 295.546 131.955" stroke="#73325A" stroke-width="4" stroke-miterlimit="10" stroke-linecap="round"/>
<path d="M290.887 125.906L293.285 127.613C293.631 127.858 293.861 128.239 293.926 128.664L294.415 131.839C294.451 132.12 294.315 132.394 294.063 132.523" stroke="#73325A" stroke-width="4" stroke-miterlimit="10" stroke-linecap="round"/>
<path d="M288.634 127.958L286.891 127.368" stroke="#73325A" stroke-width="4" stroke-miterlimit="10" stroke-linecap="round"/>
<path d="M287.719 122.933C287.136 124.034 286.286 125.287 285.293 126.54C284.724 127.253 284.148 127.901 283.572 128.462L281.469 127.678L279.475 126.403C279.943 125.453 280.584 124.43 281.383 123.43C282.053 122.587 282.78 121.853 283.507 121.248L285.588 122.702L287.719 122.933Z" fill="#73325A"/>
<path d="M224.849 63.7849L240.25 70.6177L245.743 86.6881L234.583 78.7105L229.378 72.3529L224.849 63.7849Z" fill="#FE5244"/>
<path d="M229.378 72.3531C229.378 72.3531 234.418 73.2171 236.448 78.833L237.521 77.753C237.521 77.753 235.57 72.2883 230.414 70.8843L229.378 72.3531Z" fill="#9A3B82"/>
<path d="M259.416 79.3297C257.688 78.3505 256.09 77.8105 255.578 78.0049C255.614 77.9185 255.636 77.8177 255.629 77.7169C255.6 77.4001 255.341 77.1625 255.031 77.1625C255.017 77.1625 255.002 77.1625 254.981 77.1625C254.65 77.1913 254.405 77.4793 254.426 77.8105C254.426 77.8321 254.434 77.8537 254.434 77.8681L252.605 79.0417C252.194 79.3081 251.69 79.3225 251.258 79.0849C250.826 78.8473 250.574 78.4153 250.574 77.9257V75.2977C250.574 74.1529 250.006 73.0945 249.048 72.4609C248.09 71.8273 246.888 71.7265 245.837 72.1729L242.352 73.7281L241.027 69.8473L225.547 62.9857C225.454 62.9425 225.338 62.9857 225.295 63.0865C225.252 63.1801 225.295 63.2953 225.396 63.3385L240.718 70.1353L246.182 86.1265C246.211 86.2057 246.283 86.2561 246.362 86.2561C246.384 86.2561 246.406 86.2489 246.427 86.2489C246.528 86.2129 246.578 86.1049 246.55 86.0041L242.482 74.0953L245.995 72.5257C246.931 72.1225 247.997 72.2161 248.839 72.7777C249.689 73.3393 250.193 74.2753 250.193 75.2977V77.9257C250.193 78.5593 250.524 79.1209 251.078 79.4233C251.338 79.5673 251.618 79.6393 251.899 79.6393C252.216 79.6393 252.533 79.5457 252.814 79.3657L254.628 78.2065C254.736 78.3073 254.88 78.3649 255.031 78.3649C255.046 78.3649 255.067 78.3649 255.082 78.3649C255.211 78.3577 255.326 78.3073 255.413 78.2281C255.413 78.7393 256.723 79.8841 258.523 80.9065C258.912 81.1297 259.301 81.3313 259.668 81.5041C259.891 81.3169 260.078 81.0937 260.23 80.8273C260.381 80.5681 260.474 80.2873 260.518 79.9993C260.172 79.7833 259.805 79.5529 259.416 79.3297ZM255.046 78.0625C254.88 78.0769 254.743 77.9545 254.729 77.7961C254.714 77.6377 254.837 77.4937 254.995 77.4793C255.154 77.4649 255.298 77.5873 255.312 77.7457C255.326 77.9041 255.204 78.0481 255.046 78.0625Z" fill="#FFCF2D"/>
<path d="M228.377 81.8207L225.713 96.6383L234.792 89.6399V80.4023L228.377 81.8207Z" fill="#A0505A"/>
<path d="M228.377 81.8207L228.046 83.6783L232.063 91.7423L234.792 89.6399V80.4023L228.377 81.8207Z" fill="#73325A"/>
<path d="M229.529 72.504C229.529 72.504 224.986 71.3736 223.567 74.0088C222.149 76.644 226.296 77.3712 226.469 76.4496C226.548 76.0464 219.002 76.0536 220.27 81.7632C221.587 87.7104 227.527 85.6656 227.527 85.6656L228.219 81.8208L229.529 72.504Z" fill="white" stroke="#9A3B82" stroke-width="4" stroke-miterlimit="10"/>
<path d="M234.72 81.0288C234.72 81.0288 227.938 89.8704 233.899 93.6288C238.68 96.6384 239.911 92.3976 238.63 91.8144C237.24 91.1808 234.051 103.133 243.871 103.097C253.714 103.061 250.704 90.7704 245.743 86.6952C243.374 84.7512 235.469 79.3152 235.469 79.3152L234.72 81.0288Z" fill="white" stroke="#9A3B82" stroke-width="4" stroke-miterlimit="10"/>
<path d="M234.519 78.8113L235.03 79.1353C235.527 79.4521 235.671 80.1073 235.361 80.6041L235.26 80.7553C234.943 81.2521 234.288 81.4033 233.791 81.0865L233.244 80.7409C232.639 81.1729 229.003 83.5993 226.757 81.1873C224.575 78.8473 229.615 72 229.615 72C233.892 73.3392 235.563 77.1409 235.563 77.1409L234.519 78.8113Z" fill="#A0505A"/>
<path d="M228.211 73.5552C228.211 73.5552 229.392 73.9944 229.277 75.0096C229.162 76.0248 228.096 77.6232 228.348 77.8968C228.6 78.1704 228.939 78.2208 228.939 78.2208" stroke="#73325A" stroke-width="4" stroke-miterlimit="10" stroke-linecap="round"/>
<path d="M227.923 78.8328C227.923 78.8328 228.802 79.3224 229.997 79.1352" stroke="#73325A" stroke-width="4" stroke-miterlimit="10" stroke-linecap="round"/>
<path d="M231.688 77.3919C231.79 77.1243 231.756 76.8627 231.611 76.8074C231.466 76.7522 231.266 76.9243 231.164 77.1918C231.062 77.4594 231.097 77.7211 231.242 77.7763C231.386 77.8315 231.586 77.6594 231.688 77.3919Z" fill="#73325A"/>
<path d="M228.364 75.8667C228.449 75.6437 228.418 75.4251 228.296 75.3784C228.173 75.3317 228.005 75.4745 227.92 75.6974C227.835 75.9204 227.865 76.139 227.988 76.1857C228.111 76.2324 228.279 76.0896 228.364 75.8667Z" fill="#73325A"/>
<path d="M234.144 80.0497C234.346 79.7329 234.763 79.6393 235.08 79.8409" stroke="#73325A" stroke-width="4" stroke-miterlimit="10" stroke-linecap="round"/>
<path d="M231.487 75.4922C231.487 75.4922 232.366 75.7298 232.82 76.7738" stroke="#73325A" stroke-width="4" stroke-miterlimit="10" stroke-linecap="round"/>
<path d="M232.798 73.7424C232.798 73.7424 231.84 76.9176 234.583 79.0848C236.196 80.3592 236.29 78.8256 236.29 78.8256C236.29 78.8256 236.081 75.708 232.798 73.7424Z" fill="white" stroke="#9A3B82" stroke-width="4" stroke-miterlimit="10"/>
<path d="M169.193 155.109C168.437 152.352 155.952 154.937 142.2 159.941C129.046 164.729 118.354 171.187 118.239 173.786L111.024 121.161C110.916 120.42 110.283 119.873 109.534 119.873C109.116 119.873 108.742 120.038 108.468 120.312C108.195 120.585 108.029 120.96 108.029 121.377V166.32C107.943 165.089 104.767 164.102 100.865 164.102C96.9625 164.102 93.7945 165.089 93.7009 166.32V115.819C93.7009 111.557 95.9329 107.611 99.5761 105.408L104.307 102.549L123.79 90.7847L141.912 79.7543V60.9263C141.912 61.7327 145.246 62.3807 149.177 62.3807C153.101 62.3807 156.442 61.7399 156.442 60.9263V81.3383C156.442 85.8599 154.231 90.1295 150.703 92.9519L139.68 100.829C137.801 102.168 137.347 104.774 138.658 106.675C145.966 117.252 168.423 148.118 169.186 154.908C169.193 154.973 169.193 155.045 169.193 155.109Z" fill="#3FB1B5"/>
<path d="M141.696 78.1414V83.6854" stroke="white" stroke-width="6" stroke-miterlimit="10" stroke-linecap="round"/>
<path d="M104.321 102.549L128.347 118.62L123.804 90.7847L118.599 93.8663L119.823 105.278L109.498 99.3095L104.321 102.549Z" stroke="white" stroke-width="6" stroke-miterlimit="10" stroke-linecap="round"/>
<path d="M168.422 155.801C167.558 153.418 156.11 156.168 142.351 161.172C128.592 166.176 118.03 172.505 118.901 174.888C119.765 177.271 131.738 174.809 145.498 169.805C159.257 164.801 169.294 158.184 168.422 155.801Z" stroke="#3FB1B5" stroke-width="5" stroke-miterlimit="10" stroke-linecap="round"/>
<path d="M137.088 205.517L136.296 206.899L135.418 208.44C127.822 209.39 126.483 204.422 126.483 204.422L127.627 202.147C130.695 204.034 134.583 205.034 137.088 205.517Z" fill="#E57281"/>
<path d="M164.448 169.366C159.048 178.675 139.63 205.92 139.63 205.92C139.63 205.92 138.614 205.812 137.088 205.517C134.582 205.027 130.694 204.034 127.62 202.147C126.907 201.708 126.245 201.226 125.647 200.686L139.723 172.102L143.28 164.606L145.253 160.445C145.49 160.358 145.728 160.279 145.958 160.2C146.074 160.157 146.189 160.121 146.311 160.078C146.664 159.955 147.01 159.84 147.355 159.725C147.643 159.631 147.924 159.538 148.205 159.437C149.062 159.149 149.904 158.882 150.725 158.623C156.24 156.881 160.956 155.707 164.138 155.347C164.844 156.334 165.65 157.752 166.111 159.53C166.781 162.13 166.702 165.485 164.448 169.366Z" fill="white" stroke="#9A3B82" stroke-width="5" stroke-miterlimit="10"/>
<path d="M140.875 226.764C140.631 227.837 139.299 228.218 138.521 227.441L121.119 210.096L126.562 204.415C126.562 204.415 127.822 209.376 135.425 208.433C141.567 217.706 141.552 223.776 140.875 226.764Z" fill="white" stroke="#FE5244" stroke-width="5" stroke-miterlimit="10"/>
<path d="M140.163 227.858C138.982 228.312 137.65 228.074 136.692 227.232L127.606 219.247C127.383 219.046 127.354 218.707 127.541 218.47C127.721 218.246 127.707 217.915 127.498 217.714L126.756 216.994C126.555 216.792 126.231 216.785 126.015 216.972L125.842 217.116C125.633 217.296 125.331 217.296 125.129 217.116L120.247 212.875C119.614 212.328 119.592 211.349 120.19 210.766L121.039 209.945L138.55 227.621C139.054 228.125 139.781 228.146 140.299 227.808L140.163 227.858Z" fill="#FE5244"/>
<path d="M137.794 210.751C137.794 210.751 139.27 212.062 135.742 213.653" stroke="#FE5244" stroke-width="5" stroke-miterlimit="10" stroke-linecap="round"/>
<path d="M138.723 212.328C138.723 212.328 140.199 213.639 136.671 215.23" stroke="#FE5244" stroke-width="5" stroke-miterlimit="10" stroke-linecap="round"/>
<path d="M139.652 213.905C139.652 213.905 141.128 215.215 137.6 216.806" stroke="#FE5244" stroke-width="5" stroke-miterlimit="10" stroke-linecap="round"/>
<path d="M166.111 159.53C161.431 159.523 156.636 160.337 152.014 161.618C151.646 160.322 151.128 159.293 150.725 158.623C156.24 156.881 160.956 155.707 164.138 155.347C164.851 156.341 165.658 157.759 166.111 159.53Z" fill="#9A3B82"/>
<path d="M117.31 204.79L115.92 206.568L114.826 207.965C107.172 207.814 106.56 202.709 106.56 202.709L108.223 200.326C111.11 202.644 115.013 204.084 117.31 204.79Z" fill="#E57281"/>
<path d="M152.172 167.443C151.755 169.222 150.862 171.137 149.22 173.11C142.481 181.224 119.211 205.315 119.211 205.315C119.211 205.315 110.124 203.27 106.244 198.374L121.911 176.119L127.692 167.904C131.681 165.78 136.75 163.526 142.352 161.482C145.275 160.416 148.09 159.458 150.725 158.623C151.121 159.293 151.647 160.33 152.014 161.618C152.475 163.217 152.698 165.218 152.172 167.443Z" fill="white" stroke="#9A3B82" stroke-width="5" stroke-miterlimit="10"/>
<path d="M117.591 226.887C117.195 227.916 115.827 228.103 115.164 227.218L100.426 207.555L106.625 202.709C106.625 202.709 107.158 207.814 114.819 207.965C119.578 218.023 118.692 224.028 117.591 226.887Z" fill="white" stroke="#FE5244" stroke-width="5" stroke-miterlimit="10"/>
<path d="M116.734 227.808C115.503 228.089 114.214 227.657 113.393 226.699L105.545 217.512C105.351 217.282 105.372 216.943 105.588 216.734C105.804 216.54 105.826 216.209 105.653 215.978L105.02 215.165C104.847 214.942 104.53 214.884 104.285 215.035L104.098 215.158C103.868 215.302 103.572 215.258 103.392 215.057L99.1443 210.183C98.5971 209.549 98.7123 208.584 99.3891 208.095L100.347 207.403L115.157 227.34C115.582 227.909 116.302 228.031 116.863 227.779L116.734 227.808Z" fill="#FE5244"/>
<path d="M116.993 210.643C116.993 210.643 118.267 212.148 114.545 213.221" stroke="#FE5244" stroke-width="5" stroke-miterlimit="10" stroke-linecap="round"/>
<path d="M117.835 212.335C117.835 212.335 119.109 213.84 115.387 214.913" stroke="#FE5244" stroke-width="5" stroke-miterlimit="10" stroke-linecap="round"/>
<path d="M118.527 214.027C118.527 214.027 119.801 215.532 116.079 216.605" stroke="#FE5244" stroke-width="5" stroke-miterlimit="10" stroke-linecap="round"/>
<path d="M152.021 161.618C149.011 162.454 146.074 163.483 143.287 164.599C131.256 169.445 122.033 176.026 121.918 176.105L127.699 167.89C131.688 165.766 136.757 163.512 142.359 161.467C143.338 161.114 144.303 160.769 145.26 160.43C145.498 160.344 145.735 160.265 145.966 160.186C146.081 160.142 146.196 160.106 146.319 160.063C146.671 159.941 147.017 159.826 147.363 159.71C147.651 159.617 147.931 159.523 148.212 159.422C149.069 159.134 149.911 158.868 150.732 158.609C151.128 159.3 151.647 160.33 152.021 161.618Z" fill="#9A3B82"/>
<path d="M107.871 167.292C107.871 168.545 104.739 169.567 100.872 169.567C97.0058 169.567 93.8738 168.552 93.8738 167.292C93.8738 167.278 93.8738 167.256 93.8738 167.242C93.9602 166.01 97.0634 165.024 100.872 165.024C104.681 165.024 107.784 166.01 107.871 167.242C107.871 167.256 107.871 167.278 107.871 167.292Z" fill="white" stroke="#3FB1B5" stroke-width="5" stroke-miterlimit="10" stroke-linecap="round"/>
<path d="M105.048 165.6V171.511C105.048 173.426 103.99 175.176 102.305 176.076L99.4321 177.602C98.7337 177.977 97.9489 178.171 97.1569 178.171C96.8185 178.171 96.5881 177.89 96.5881 177.595C96.5881 177.473 96.6313 177.343 96.7177 177.235L97.7905 175.939C97.9417 175.759 97.8121 175.493 97.5817 175.493H91.2673L90.1153 176.947C89.5033 177.718 88.5673 178.171 87.5881 178.171H87.2569C86.8465 178.171 86.5945 177.732 86.7961 177.379L86.9257 177.142C86.5297 177.307 86.0977 177.401 85.6585 177.401H85.3273C84.9169 177.401 84.6649 176.962 84.8665 176.609L87.4513 173.758L89.2441 173.052V173.059L98.1505 169.56V165.355C98.9929 165.247 99.9073 165.182 100.872 165.182C102.434 165.175 103.874 165.334 105.048 165.6Z" fill="#E57281"/>
<path d="M89.0138 173.354L86.8538 177.062" stroke="#9A3B82" stroke-width="4" stroke-miterlimit="10" stroke-linecap="round"/>
<path d="M97.2434 176.587L98.5683 174.967C98.8275 174.65 98.6043 174.182 98.1939 174.182" stroke="#9A3B82" stroke-width="4" stroke-miterlimit="10" stroke-linecap="round"/>
<path d="M105.048 165.6V169.294C103.875 169.56 102.435 169.718 100.872 169.718C99.9074 169.718 98.993 169.661 98.1506 169.546V165.341C98.993 165.233 99.9074 165.168 100.872 165.168C102.427 165.175 103.875 165.334 105.048 165.6Z" fill="#9A3B82"/>
<path d="M156.291 60.1558C156.291 60.9694 153.108 61.6102 149.184 61.6102C145.26 61.6102 142.078 60.9694 142.078 60.1558C142.078 59.3422 145.26 58.6726 149.184 58.6726C153.108 58.6726 156.291 59.3494 156.291 60.1558Z" stroke="#3FB1B5" stroke-width="5" stroke-miterlimit="10" stroke-linecap="round"/>
<path d="M147.017 61.3438C146.139 61.2862 145.339 61.1998 144.648 61.0774V54.0862C144.648 53.8558 144.699 53.6254 144.799 53.4166L147.06 48.751C147.478 47.887 148.356 47.3398 149.314 47.3398H152.086L146.023 58.4926C145.995 58.543 145.973 58.5934 145.951 58.6438C145.599 59.515 146.038 60.631 147.017 61.3438Z" fill="#E57281"/>
<path d="M152.23 58.5142L153.123 56.959V61.1782C152.388 61.2718 151.56 61.351 150.675 61.387L152.23 58.5142Z" fill="#9A3B82"/>
<path d="M165.291 34.0992L150.531 61.2576C149.984 62.2656 148.486 62.5032 147.176 61.7904C145.865 61.0776 145.253 59.688 145.8 58.6872L160.56 31.5288L165.291 34.0992Z" fill="white" stroke="#FE5244" stroke-width="5" stroke-miterlimit="10"/>
<path d="M165.285 34.1091C165.832 33.1029 165.216 31.7116 163.91 31.0015C162.603 30.2913 161.1 30.5313 160.554 31.5375C160.007 32.5437 160.623 33.9351 161.929 34.6452C163.236 35.3553 164.739 35.1153 165.285 34.1091Z" fill="white" stroke="#FE5244" stroke-width="5" stroke-miterlimit="10"/>
<path d="M156.248 44.064L163.224 38.2896L163.116 40.392L165.348 40.9464L160.02 44.2368C164.11 43.3584 171.454 42.12 172.57 44.28C173.009 45.1296 172.181 46.8648 171.627 48.1104C171.281 50.7384 185.062 47.484 185.22 47.448L183.096 49.4136L185.22 50.6232C185.22 50.6232 173.657 52.8264 170.676 52.2216C168.992 51.876 170.331 49.6152 171.504 47.9592C171.864 46.6848 168.999 46.2672 157.083 47.5632L156.248 44.064Z" fill="#FE5244"/>
<path d="M156.349 47.5344C157.486 47.5344 158.408 46.6125 158.408 45.4752C158.408 44.3379 157.486 43.416 156.349 43.416C155.211 43.416 154.289 44.3379 154.289 45.4752C154.289 46.6125 155.211 47.5344 156.349 47.5344Z" fill="white" stroke="#FE5244" stroke-width="5" stroke-miterlimit="10"/>
<path d="M157.961 52.3727L157.299 53.9279L156.521 55.7423L156.104 56.7287L155.463 58.2335C155.448 58.2767 155.427 58.3127 155.405 58.3559C155.405 58.3559 155.405 58.3631 155.398 58.3631C155.189 58.7159 154.793 58.9391 154.361 58.9391H149.278C148.666 58.9391 148.241 58.3559 148.472 57.8159L148.839 56.9519L149.652 55.0439L150.351 53.4023L150.963 51.9551C151.143 51.5303 151.582 51.2567 152.064 51.2567H157.148C157.774 51.2495 158.192 51.8327 157.961 52.3727Z" fill="#E57281"/>
<path d="M150.531 53.3951C150.739 53.1575 151.049 53.0208 151.38 53.0208H156.233C156.744 53.0208 157.111 53.46 157.061 53.928" stroke="#9A3B82" stroke-width="4" stroke-miterlimit="10" stroke-linecap="round"/>
<path d="M149.868 55.0438C150.077 54.835 150.365 54.7126 150.675 54.7126H155.527C156.082 54.7126 156.471 55.231 156.327 55.7422" stroke="#9A3B82" stroke-width="4" stroke-miterlimit="10" stroke-linecap="round"/>
<path d="M149.105 56.9449C149.314 56.7505 149.595 56.6353 149.89 56.6353H154.743C155.319 56.6353 155.715 57.1897 155.528 57.7153" stroke="#9A3B82" stroke-width="4" stroke-miterlimit="10" stroke-linecap="round"/>
<path d="M154.872 47.3328V47.4624C154.872 48.78 153.807 49.8528 152.482 49.8528H149.976V47.3328H154.872Z" fill="#E57281"/>
<path d="M94.0249 103.658C93.7945 104.004 93.5569 104.328 93.3193 104.623C93.06 104.558 92.808 104.45 92.5776 104.292C92.3472 104.134 92.1528 103.946 91.9944 103.723C92.1816 103.399 92.3904 103.054 92.628 102.708C93.7945 100.98 95.0474 99.7919 95.4362 100.051C95.825 100.31 95.1914 101.93 94.0249 103.658Z" fill="#FFCF2D"/>
<path d="M104.638 77.7168L95.6452 90.9936C95.5372 91.152 95.6884 91.3464 95.8684 91.296L100.167 89.9136C99.6412 90.54 99.3172 91.3536 99.3172 92.232V96.4152C99.3172 98.0496 98.014 99.3816 96.3868 99.4248C96.286 99.2376 96.0844 99.108 95.8468 99.108C95.6812 99.108 95.53 99.1728 95.4148 99.288C95.2996 99.4032 95.2348 99.5544 95.242 99.72C95.242 100.051 95.5156 100.325 95.854 100.325C96.1564 100.325 96.4084 100.094 96.4516 99.8064C98.2516 99.7272 99.6988 98.2368 99.6988 96.4152V92.232C99.6988 91.1808 100.217 90.2232 100.995 89.6472L109.642 86.868L120.744 77.7168H104.638ZM96.0124 99.864C95.9692 99.9072 95.9116 99.9288 95.854 99.9288C95.7964 99.9288 95.7388 99.9072 95.6956 99.864C95.6524 99.8208 95.6308 99.7632 95.6308 99.7056C95.6308 99.648 95.6524 99.5904 95.6956 99.5472C95.7388 99.504 95.7964 99.4824 95.854 99.4824C95.9188 99.4824 95.9692 99.504 96.0124 99.5472C96.0556 99.5904 96.0772 99.6408 96.0772 99.7056C96.0844 99.7704 96.0556 99.8208 96.0124 99.864Z" fill="#3FB1B5"/>
<path d="M94.8597 90.9648C94.8237 90.9648 94.7877 90.9576 94.7517 90.9288C94.6653 90.8712 94.6437 90.7488 94.7013 90.6624L104.076 76.824H121.054C121.162 76.824 121.248 76.9104 121.248 77.0184C121.248 77.1264 121.162 77.2128 121.054 77.2128H104.277L95.0181 90.8784C94.9821 90.936 94.9245 90.9648 94.8597 90.9648Z" fill="#3FB1B5"/>
<path d="M104.335 88.7327L103.255 88.2431L103.313 88.0775C103.335 88.0127 103.86 86.4863 105.156 84.8663C106.359 83.3615 108.468 81.5111 111.715 81.1943L111.903 81.1799L112.09 82.5407L111.708 82.5911L111.571 81.5975C108.562 81.9431 106.589 83.6855 105.459 85.1039C104.443 86.3711 103.911 87.6095 103.745 88.0415L104.501 88.3871L104.335 88.7327Z" fill="white"/>
<path d="M109.807 99.2304L107.626 92.1024L112.731 89.604L114.833 91.2024L118.447 93.9456L119.542 104.846L109.807 99.2304Z" fill="#E57281"/>
<path d="M114.833 91.2024L110.938 99.8856L109.807 99.2304L107.626 92.1024L112.731 89.604L114.833 91.2024Z" fill="#9A3B82"/>
<path d="M110.506 92.5705C110.139 92.6065 109.397 92.2321 108.555 91.6993L107.568 92.4985C106.999 92.9593 106.164 92.8801 105.703 92.3113C105.502 92.0665 105.401 91.7641 105.401 91.4689C105.401 91.0873 105.567 90.7056 105.891 90.4392L106.294 90.108C105.235 89.316 104.407 88.632 104.407 88.632C104.407 88.632 106.243 83.1168 112.111 82.5552C112.111 82.5552 115.222 88.9848 115.431 89.5968C115.64 90.216 112.58 92.3617 110.506 92.5705Z" fill="#E57281"/>
<path d="M106.294 90.1078C105.236 89.3158 104.407 88.6318 104.407 88.6318C104.407 88.6318 105.084 86.5942 106.942 84.8662C104.998 86.803 107.9 88.963 106.294 90.1078Z" fill="#FFCF2D"/>
<path d="M107.316 86.3927C107.316 86.3927 107.626 85.5575 108.411 85.1255" stroke="#9A3B82" stroke-width="4" stroke-miterlimit="10" stroke-linecap="round"/>
<path d="M112.932 84.2759C112.932 84.2759 111.845 84.1247 111.305 84.4559C110.765 84.7871 110.765 86.5007 111.629 87.5735" stroke="#9A3B82" stroke-width="4" stroke-miterlimit="10" stroke-linecap="round"/>
<path d="M112.148 88.6462C112.148 88.6462 111.478 89.2439 110.341 88.8047" stroke="#9A3B82" stroke-width="4" stroke-miterlimit="10" stroke-linecap="round"/>
<path d="M110.449 88.488C110.449 88.488 110.211 88.8264 110.225 89.208" stroke="#9A3B82" stroke-width="4" stroke-miterlimit="10" stroke-linecap="round"/>
<path d="M109.041 87.4704C109.156 87.4394 109.2 87.2307 109.139 87.0041C109.078 86.7775 108.935 86.6189 108.82 86.6498C108.705 86.6807 108.661 86.8895 108.722 87.1161C108.783 87.3427 108.925 87.5013 109.041 87.4704Z" fill="#9A3B82"/>
<path d="M112.259 86.0612C112.363 86.0333 112.401 85.8395 112.344 85.6283C112.288 85.4171 112.158 85.2684 112.054 85.2963C111.95 85.3241 111.912 85.5179 111.969 85.7291C112.026 85.9403 112.156 86.089 112.259 86.0612Z" fill="#9A3B82"/>
<path d="M108.929 92.1311L107.266 90.8352C107.079 90.6912 106.82 90.7056 106.647 90.864L106.546 90.9576C106.352 91.1448 106.352 91.4472 106.546 91.6343" stroke="#9A3B82" stroke-width="4" stroke-miterlimit="10" stroke-linecap="round"/>
</svg>
