<svg width="500" height="350" viewBox="0 0 500 350" fill="none" xmlns="http://www.w3.org/2000/svg">
<path d="M425.67 319.38L307.78 319.59C293.33 319.69 277.98 319.74 262.06 319.74C223.31 319.74 187.89 319.42 160.8 318.89H51.75C51.75 299.63 72.95 308.09 78.54 311.49C85.04 315.44 76.67 294.41 89.94 294.41C101.3 294.41 107.8 300.12 107.8 300.12C107.8 300.12 108.11 289.02 118.88 288.86C129.65 288.7 136.49 298.19 144.99 306C148.5 309.22 152.72 311.78 156.71 313.73C184.28 313.15 221.32 312.79 262.06 312.79C281.36 312.79 299.82 312.87 316.85 313.02C347.11 313.02 374.82 297.11 382.68 293.12C402.1 283.24 392.9 306.79 392.9 306.79C392.9 306.79 407.87 300.49 418.4 300.54C433.27 300.6 425.67 319.38 425.67 319.38Z" fill="#D0F0E4"/>
<path d="M364.5 318.8C364.5 318.8 367.48 291.98 348.08 283.35C348.08 283.35 345.22 312.53 354.9 310.62C358.53 309.9 350.74 302.82 338.04 302.52C338.04 302.52 347.77 318.87 359.59 319.1" stroke="#FFCF2D" stroke-width="6" stroke-miterlimit="10"/>
<path d="M359.63 319.06C359.63 319.06 360.75 306.79 372.71 302.97C383.51 299.53 364.61 318.76 364.61 318.76" stroke="#FFCF2D" stroke-width="6" stroke-miterlimit="10"/>
<path d="M91.0701 317.94C91.0701 317.94 73.9201 306.19 69.0901 287.02C69.0901 287.02 84.2701 291.56 90.7101 301.22C90.7101 301.22 93.3501 279.23 99.7301 271.83C99.7301 271.83 103.18 276.79 103.61 295.17C103.61 295.17 111.43 281.85 117.25 277.55C117.25 277.55 116.45 294.88 112.29 303.73C112.29 303.73 118.3 299.05 122.36 303.64C126.42 308.23 118.46 314.95 118.46 314.95" stroke="#FE5244" stroke-width="5" stroke-miterlimit="10"/>
<path d="M99.7401 272.48C99.7401 272.48 99.9101 312.54 98.0901 317.73" stroke="#FE5244" stroke-width="5" stroke-miterlimit="10"/>
<path d="M116.69 278.56C116.69 278.56 104.73 309.29 98.0901 317.73" stroke="#FE5244" stroke-width="5" stroke-miterlimit="10"/>
<path d="M112.11 303.87C111.67 305.48 108.64 309.92 108.04 308.01C107.45 306.1 112.9 303.01 114.27 302.5" stroke="#FE5244" stroke-width="5" stroke-miterlimit="10"/>
<path d="M90.7203 301.23C91.5303 302.79 94.2703 307.17 91.5003 307.06C89.6904 306.99 91.2103 297.8 91.2103 297.8" stroke="#FE5244" stroke-width="5" stroke-miterlimit="10"/>
<path d="M316.81 285.01C310.01 288.34 310.65 294.73 310.59 299.02C310.52 303.59 301.8 305.98 301.8 305.98C304.12 298.67 302.47 291.14 302.47 291.14L316.81 285.01Z" fill="#A0505A"/>
<path d="M324.02 301.84L322.47 302.68L319.22 295.25C319.05 294.86 318.67 294.63 318.28 294.63C318.15 294.63 318.01 294.66 317.88 294.71C317.55 294.85 317.31 295.16 317.27 295.52L315.84 306.29L297.03 316.53C296.47 315.19 299.96 311.83 301.81 305.98C301.81 305.98 310.54 303.59 310.6 299.02C310.66 294.73 310.03 288.33 316.82 285.01L318.25 284.4C326.05 287.99 324.02 301.84 324.02 301.84Z" fill="#FFCF2D"/>
<path d="M318.24 231.64V284.4L302.68 291.15L291.02 238.18C296.24 238.38 304.94 237.28 318.24 231.64Z" fill="white" stroke="#9A3B82" stroke-width="5" stroke-miterlimit="10"/>
<path d="M306.8 236.28L309.87 288.01" stroke="#9A3B82" stroke-width="5" stroke-miterlimit="10"/>
<path d="M318.24 231.64V245.45L291.76 241.62L291.02 238.18C296.24 238.38 304.94 237.28 318.24 231.64Z" fill="#9A3B82"/>
<path d="M396.66 195.84L386.6 197.96C386.26 198.03 385.92 197.92 385.68 197.67C385.51 197.48 385.42 197.25 385.42 197.01C385.42 196.75 385.52 196.49 385.73 196.3L391.33 191.05L390.09 189.94C390.09 189.94 377.09 192.49 376.35 200.6L377.34 201.68C382.45 206.7 387.96 204.11 391.81 202.81C395.49 201.57 399.88 207.28 400.75 208.46C400.76 208.46 400.78 208.46 400.79 208.46C406.59 208.27 410.7 210.33 411.71 209.4L396.66 195.84Z" fill="#FFCF2D"/>
<path d="M377.35 201.68C382.46 206.7 387.97 204.11 391.82 202.81C395.92 201.43 400.81 208.46 400.81 208.46C393.55 208.69 387.36 212.54 387.36 212.54L377.35 201.68Z" fill="#A0505A"/>
<path d="M315.23 232.09C315.23 232.09 317.76 249.18 337.17 248.86C356.58 248.54 387.15 212.44 387.15 212.44L376.4 200.66L315.23 232.09Z" fill="white" stroke="#9A3B82" stroke-width="5" stroke-miterlimit="10"/>
<path d="M326.42 227.45C327.06 231.95 330.08 236.19 339.29 236.04C352.97 235.82 372.3 217.87 382.52 207.29" stroke="#9A3B82" stroke-width="5" stroke-miterlimit="10"/>
<path d="M399.95 165.8C398.18 165.13 393.97 167.43 390.8 171.43C387.39 175.72 386.01 180.28 387.51 181.47L339.48 155.93C337.12 154.68 334.4 156.82 335.07 159.4L349.61 214.48C300.36 246.44 284.57 236.86 284.57 236.86V55.8601C284.57 55.8701 284.57 55.8701 284.58 55.8801C285 56.9501 289.51 56.2001 294.66 54.1901C299.4 52.3501 303.02 50.0901 303.25 48.9101L303.26 48.9001V105.93C303.26 109.51 305.19 112.8 308.31 114.55L399.95 165.8Z" fill="#FE5244"/>
<path d="M399.95 165.8C398.18 165.13 393.97 167.43 390.8 171.43C387.39 175.72 386.01 180.28 387.51 181.47L339.48 155.93C337.12 154.68 334.4 156.82 335.07 159.4L349.61 214.7C337.09 222.83 326.73 228.05 318.24 231.65C304.94 237.28 296.24 238.39 291.02 238.19C286.47 238.02 284.57 236.86 284.57 236.86V55.8601C284.57 55.8701 284.57 55.8701 284.58 55.8801C285 56.9501 289.51 56.2001 294.66 54.1901C299.4 52.3501 303.02 50.0901 303.25 48.9101L303.26 48.9001V105.93C303.26 109.51 305.19 112.8 308.31 114.55L399.95 165.8Z" fill="#FE5244"/>
<path d="M331.06 151.49L387.51 182.11" stroke="white" stroke-width="6" stroke-miterlimit="10" stroke-linecap="round"/>
<path d="M309.65 115.29L303.32 152.08L335.63 129.83L309.65 115.29Z" fill="#FFCF2D"/>
<path d="M309.65 115.29L303.32 152.08L335.63 129.83" stroke="white" stroke-width="6" stroke-miterlimit="10" stroke-linecap="round"/>
<path d="M309.39 44.28L267.68 52.8301C266.14 53.1501 264.55 51.7801 264.14 49.7701C263.73 47.76 264.65 45.88 266.19 45.56L307.9 37.01L309.39 44.28Z" fill="white" stroke="#3FB1B5" stroke-width="5" stroke-miterlimit="10" stroke-linecap="round"/>
<path d="M309.375 44.286C310.917 43.9699 311.833 42.0865 311.422 40.0794C311.011 38.0722 309.427 36.7013 307.885 37.0173C306.343 37.3334 305.427 39.2167 305.838 41.2239C306.249 43.2311 307.833 44.602 309.375 44.286Z" fill="white" stroke="#3FB1B5" stroke-width="5" stroke-miterlimit="10" stroke-linecap="round"/>
<path d="M285.59 47.9202C285.59 47.9202 272.1 63.0802 273.57 66.4202C275.49 68.3302 277.05 69.1702 276.82 69.8802C276.57 70.6502 273.34 75.3002 273.34 75.3002L273.02 71.8502L269.93 72.8702C269.93 72.8702 273.19 68.1102 273.4 66.6502C272.06 65.6302 269.33 63.5102 269.42 62.0302C269.52 60.4602 274.3 54.8802 277.77 51.0302L272.54 52.7602L271.51 47.9302L280.92 46.2002L285.59 47.9202Z" fill="#FE5244"/>
<path d="M283.76 48.5801C285.329 48.5801 286.6 47.3086 286.6 45.7401C286.6 44.1717 285.329 42.9001 283.76 42.9001C282.192 42.9001 280.92 44.1717 280.92 45.7401C280.92 47.3086 282.192 48.5801 283.76 48.5801Z" fill="white" stroke="#FE5244" stroke-width="5" stroke-miterlimit="10"/>
<path d="M303.25 48.9099C303.02 50.0899 299.4 52.3499 294.66 54.1899C289.51 56.1899 285 56.9499 284.58 55.8799C284.58 55.8699 284.58 55.8699 284.57 55.8599C284.21 54.7799 288.03 52.3099 293.15 50.3199C298.3 48.3199 302.81 47.5599 303.23 48.6299C303.26 48.7099 303.27 48.7999 303.25 48.9099Z" fill="#9A3B82"/>
<path d="M299.78 40.51L299.23 48.45L298.97 52.25C297.72 52.91 296.25 53.57 294.66 54.19C291.96 55.24 289.44 55.94 287.59 56.23V48.97L295.18 47.41C295.18 47.41 295.6 44.7 296.4 42.43C297.19 40.15 299.78 40.51 299.78 40.51Z" fill="#A0505A"/>
<path d="M295.39 47.0801C295.28 47.5301 291.98 48.5801 291.98 50.9801" stroke="#73325A" stroke-width="4" stroke-miterlimit="10" stroke-linecap="round"/>
<path d="M299.23 48.4502L298.97 52.2502C297.72 52.9102 296.25 53.5702 294.66 54.1902C291.96 55.2402 289.44 55.9402 287.59 56.2302V52.9502C289.07 52.0802 291 51.1602 293.15 50.3202C295.39 49.4402 297.51 48.8002 299.23 48.4502Z" fill="#73325A"/>
<path d="M294.26 44.4801L285.79 46.4201C285.34 46.5201 284.92 46.1601 284.92 45.6601V40.5201C284.92 39.8301 285.34 39.2301 285.95 39.0301L294.32 36.3001C294.85 36.1301 295.38 36.5501 295.38 37.1401V43.0001C295.37 43.7101 294.91 44.3301 294.26 44.4801Z" fill="#A0505A"/>
<path d="M287.92 45.62C287.46 45.72 287.02 45.37 287.02 44.89V39.96C287.02 39.3 287.45 38.72 288.08 38.53" stroke="#73325A" stroke-width="4" stroke-miterlimit="10" stroke-linecap="round"/>
<path d="M290.36 45.09C289.9 45.19 289.46 44.83 289.46 44.34V39.26C289.46 38.58 289.89 37.98 290.52 37.79" stroke="#73325A" stroke-width="4" stroke-miterlimit="10" stroke-linecap="round"/>
<path d="M293.09 44.51C292.63 44.61 292.19 44.24 292.19 43.74V38.48C292.19 37.78 292.62 37.16 293.25 36.96" stroke="#73325A" stroke-width="4" stroke-miterlimit="10" stroke-linecap="round"/>
<path d="M396.23 175.74C392.82 180.04 389 182.65 387.5 181.46C386 180.27 387.38 175.72 390.79 171.42C393.97 167.42 398.17 165.12 399.94 165.79L400.29 165.99C401.8 167.19 399.64 171.45 396.23 175.74Z" fill="#9A3B82"/>
<path d="M411.66 182.97L409.39 184.17C408.49 184.65 407.37 184.31 406.89 183.41L404.5 178.97L400.88 177.73C401.28 177.88 402.84 178.68 402.35 181.59L393.85 178.42L390.93 177.33L388.16 175.56C388.81 174.24 389.7 172.82 390.81 171.43C391.74 170.26 392.75 169.24 393.76 168.4L396.65 170.42L399.61 170.74L404.42 171.25C405.19 171.33 405.93 171.59 406.58 172L410.42 174.73C410.98 175.13 411.35 175.73 411.44 176.41L412.22 181.87C412.29 182.32 412.06 182.76 411.66 182.97Z" fill="#A0505A"/>
<path d="M406.07 174.08L409.4 176.45C409.88 176.79 410.2 177.32 410.29 177.91L410.97 182.32C411.02 182.71 410.83 183.09 410.48 183.27" stroke="#73325A" stroke-width="4" stroke-miterlimit="10" stroke-linecap="round"/>
<path d="M404.01 174.87L407.34 177.24C407.82 177.58 408.14 178.11 408.23 178.7L408.91 183.11C408.96 183.5 408.77 183.88 408.42 184.06" stroke="#73325A" stroke-width="4" stroke-miterlimit="10" stroke-linecap="round"/>
<path d="M400.88 177.72L398.46 176.9" stroke="#73325A" stroke-width="4" stroke-miterlimit="10" stroke-linecap="round"/>
<path d="M399.61 170.74C398.8 172.27 397.62 174.01 396.24 175.75C395.45 176.74 394.65 177.64 393.85 178.42L390.93 177.33L388.16 175.56C388.81 174.24 389.7 172.82 390.81 171.43C391.74 170.26 392.75 169.24 393.76 168.4L396.65 170.42L399.61 170.74Z" fill="#73325A"/>
<path d="M312.29 88.5901L333.68 98.0801L341.31 120.4L325.81 109.32L318.58 100.49L312.29 88.5901Z" fill="#FE5244"/>
<path d="M318.58 100.49C318.58 100.49 325.58 101.69 328.4 109.49L329.89 107.99C329.89 107.99 327.18 100.4 320.02 98.4502L318.58 100.49Z" fill="#9A3B82"/>
<path d="M360.3 110.18C357.9 108.82 355.68 108.07 354.97 108.34C355.02 108.22 355.05 108.08 355.04 107.94C355 107.5 354.64 107.17 354.21 107.17C354.19 107.17 354.17 107.17 354.14 107.17C353.68 107.21 353.34 107.61 353.37 108.07C353.37 108.1 353.38 108.13 353.38 108.15L350.84 109.78C350.27 110.15 349.57 110.17 348.97 109.84C348.37 109.51 348.02 108.91 348.02 108.23V104.58C348.02 102.99 347.23 101.52 345.9 100.64C344.57 99.76 342.9 99.62 341.44 100.24L336.6 102.4L334.76 97.01L313.26 87.48C313.13 87.42 312.97 87.48 312.91 87.62C312.85 87.75 312.91 87.91 313.05 87.97L334.33 97.41L341.92 119.62C341.96 119.73 342.06 119.8 342.17 119.8C342.2 119.8 342.23 119.79 342.26 119.79C342.4 119.74 342.47 119.59 342.43 119.45L336.78 102.91L341.66 100.73C342.96 100.17 344.44 100.3 345.61 101.08C346.79 101.86 347.49 103.16 347.49 104.58V108.23C347.49 109.11 347.95 109.89 348.72 110.31C349.08 110.51 349.47 110.61 349.86 110.61C350.3 110.61 350.74 110.48 351.13 110.23L353.65 108.62C353.8 108.76 354 108.84 354.21 108.84C354.23 108.84 354.26 108.84 354.28 108.84C354.46 108.83 354.62 108.76 354.74 108.65C354.74 109.36 356.56 110.95 359.06 112.37C359.6 112.68 360.14 112.96 360.65 113.2C360.96 112.94 361.22 112.63 361.43 112.26C361.64 111.9 361.77 111.51 361.83 111.11C361.35 110.81 360.84 110.49 360.3 110.18ZM354.23 108.42C354 108.44 353.81 108.27 353.79 108.05C353.77 107.83 353.94 107.63 354.16 107.61C354.38 107.59 354.58 107.76 354.6 107.98C354.62 108.2 354.45 108.4 354.23 108.42Z" fill="#FFCF2D"/>
<path d="M317.19 113.64L313.49 134.22L326.1 124.5V111.67L317.19 113.64Z" fill="#A0505A"/>
<path d="M317.19 113.64L316.73 116.22L322.31 127.42L326.1 124.5V111.67L317.19 113.64Z" fill="#73325A"/>
<path d="M318.79 100.7C318.79 100.7 312.48 99.13 310.51 102.79C308.54 106.45 314.3 107.46 314.54 106.18C314.65 105.62 304.17 105.63 305.93 113.56C307.76 121.82 316.01 118.98 316.01 118.98L316.97 113.64L318.79 100.7Z" fill="white" stroke="#9A3B82" stroke-width="4" stroke-miterlimit="10"/>
<path d="M326 112.54C326 112.54 316.58 124.82 324.86 130.04C331.5 134.22 333.21 128.33 331.43 127.52C329.5 126.64 325.07 143.24 338.71 143.19C352.38 143.14 348.2 126.07 341.31 120.41C338.02 117.71 327.04 110.16 327.04 110.16L326 112.54Z" fill="white" stroke="#9A3B82" stroke-width="4" stroke-miterlimit="10"/>
<path d="M325.72 109.46L326.43 109.91C327.12 110.35 327.32 111.26 326.89 111.95L326.75 112.16C326.31 112.85 325.4 113.06 324.71 112.62L323.95 112.14C323.11 112.74 318.06 116.11 314.94 112.76C311.91 109.51 318.91 100 318.91 100C324.85 101.86 327.17 107.14 327.17 107.14L325.72 109.46Z" fill="#A0505A"/>
<path d="M316.96 102.16C316.96 102.16 318.6 102.77 318.44 104.18C318.28 105.59 316.8 107.81 317.15 108.19C317.5 108.57 317.97 108.64 317.97 108.64" stroke="#73325A" stroke-width="4" stroke-miterlimit="10" stroke-linecap="round"/>
<path d="M316.56 109.49C316.56 109.49 317.78 110.17 319.44 109.91" stroke="#73325A" stroke-width="4" stroke-miterlimit="10" stroke-linecap="round"/>
<path d="M321.789 107.489C321.931 107.117 321.882 106.754 321.681 106.677C321.48 106.6 321.202 106.839 321.061 107.211C320.919 107.582 320.967 107.946 321.168 108.022C321.37 108.099 321.648 107.86 321.789 107.489Z" fill="#73325A"/>
<path d="M317.172 105.37C317.29 105.061 317.247 104.757 317.077 104.692C316.907 104.627 316.673 104.826 316.555 105.135C316.437 105.445 316.48 105.748 316.65 105.813C316.82 105.878 317.054 105.68 317.172 105.37Z" fill="#73325A"/>
<path d="M325.2 111.18C325.48 110.74 326.06 110.61 326.5 110.89" stroke="#73325A" stroke-width="4" stroke-miterlimit="10" stroke-linecap="round"/>
<path d="M321.51 104.85C321.51 104.85 322.73 105.18 323.36 106.63" stroke="#73325A" stroke-width="4" stroke-miterlimit="10" stroke-linecap="round"/>
<path d="M323.33 102.42C323.33 102.42 322 106.83 325.81 109.84C328.05 111.61 328.18 109.48 328.18 109.48C328.18 109.48 327.89 105.15 323.33 102.42Z" fill="white" stroke="#9A3B82" stroke-width="4" stroke-miterlimit="10"/>
<path d="M234.99 215.43C233.94 211.6 216.6 215.19 197.5 222.14C179.23 228.79 164.38 237.76 164.22 241.37L154.2 168.28C154.05 167.25 153.17 166.49 152.13 166.49C151.55 166.49 151.03 166.72 150.65 167.1C150.27 167.48 150.04 168 150.04 168.58V231C149.92 229.29 145.51 227.92 140.09 227.92C134.67 227.92 130.27 229.29 130.14 231V160.86C130.14 154.94 133.24 149.46 138.3 146.4L144.87 142.43L171.93 126.09L197.1 110.77V84.6201C197.1 85.7401 201.73 86.6401 207.19 86.6401C212.64 86.6401 217.28 85.7501 217.28 84.6201V112.97C217.28 119.25 214.21 125.18 209.31 129.1L194 140.04C191.39 141.9 190.76 145.52 192.58 148.16C202.73 162.85 233.92 205.72 234.98 215.15C234.99 215.24 234.99 215.34 234.99 215.43Z" fill="#3FB1B5"/>
<path d="M196.8 108.53V116.23" stroke="white" stroke-width="6" stroke-miterlimit="10" stroke-linecap="round"/>
<path d="M144.89 142.43L178.26 164.75L171.95 126.09L164.72 130.37L166.42 146.22L152.08 137.93L144.89 142.43Z" stroke="white" stroke-width="6" stroke-miterlimit="10" stroke-linecap="round"/>
<path d="M233.92 216.39C232.72 213.08 216.82 216.9 197.71 223.85C178.6 230.8 163.93 239.59 165.14 242.9C166.34 246.21 182.97 242.79 202.08 235.84C221.19 228.89 235.13 219.7 233.92 216.39Z" stroke="#3FB1B5" stroke-width="5" stroke-miterlimit="10" stroke-linecap="round"/>
<path d="M190.4 285.44L189.3 287.36L188.08 289.5C177.53 290.82 175.67 283.92 175.67 283.92L177.26 280.76C181.52 283.38 186.92 284.77 190.4 285.44Z" fill="#E57281"/>
<path d="M228.4 235.23C220.9 248.16 193.93 286 193.93 286C193.93 286 192.52 285.85 190.4 285.44C186.92 284.76 181.52 283.38 177.25 280.76C176.26 280.15 175.34 279.48 174.51 278.73L194.06 239.03L199 228.62L201.74 222.84C202.07 222.72 202.4 222.61 202.72 222.5C202.88 222.44 203.04 222.39 203.21 222.33C203.7 222.16 204.18 222 204.66 221.84C205.06 221.71 205.45 221.58 205.84 221.44C207.03 221.04 208.2 220.67 209.34 220.31C217 217.89 223.55 216.26 227.97 215.76C228.95 217.13 230.07 219.1 230.71 221.57C231.64 225.18 231.53 229.84 228.4 235.23Z" fill="white" stroke="#9A3B82" stroke-width="5" stroke-miterlimit="10"/>
<path d="M195.66 314.95C195.32 316.44 193.47 316.97 192.39 315.89L168.22 291.8L175.78 283.91C175.78 283.91 177.53 290.8 188.09 289.49C196.62 302.37 196.6 310.8 195.66 314.95Z" fill="white" stroke="#FE5244" stroke-width="5" stroke-miterlimit="10"/>
<path d="M194.67 316.47C193.03 317.1 191.18 316.77 189.85 315.6L177.23 304.51C176.92 304.23 176.88 303.76 177.14 303.43C177.39 303.12 177.37 302.66 177.08 302.38L176.05 301.38C175.77 301.1 175.32 301.09 175.02 301.35L174.78 301.55C174.49 301.8 174.07 301.8 173.79 301.55L167.01 295.66C166.13 294.9 166.1 293.54 166.93 292.73L168.11 291.59L192.43 316.14C193.13 316.84 194.14 316.87 194.86 316.4L194.67 316.47Z" fill="#FE5244"/>
<path d="M191.38 292.71C191.38 292.71 193.43 294.53 188.53 296.74" stroke="#FE5244" stroke-width="5" stroke-miterlimit="10" stroke-linecap="round"/>
<path d="M192.67 294.9C192.67 294.9 194.72 296.72 189.82 298.93" stroke="#FE5244" stroke-width="5" stroke-miterlimit="10" stroke-linecap="round"/>
<path d="M193.96 297.09C193.96 297.09 196.01 298.91 191.11 301.12" stroke="#FE5244" stroke-width="5" stroke-miterlimit="10" stroke-linecap="round"/>
<path d="M230.71 221.57C224.21 221.56 217.55 222.69 211.13 224.47C210.62 222.67 209.9 221.24 209.34 220.31C217 217.89 223.55 216.26 227.97 215.76C228.96 217.14 230.08 219.11 230.71 221.57Z" fill="#9A3B82"/>
<path d="M162.93 284.43L161 286.9L159.48 288.84C148.85 288.63 148 281.54 148 281.54L150.31 278.23C154.32 281.45 159.74 283.45 162.93 284.43Z" fill="#E57281"/>
<path d="M211.35 232.56C210.77 235.03 209.53 237.69 207.25 240.43C197.89 251.7 165.57 285.16 165.57 285.16C165.57 285.16 152.95 282.32 147.56 275.52L169.32 244.61L177.35 233.2C182.89 230.25 189.93 227.12 197.71 224.28C201.77 222.8 205.68 221.47 209.34 220.31C209.89 221.24 210.62 222.68 211.13 224.47C211.77 226.69 212.08 229.47 211.35 232.56Z" fill="white" stroke="#9A3B82" stroke-width="5" stroke-miterlimit="10"/>
<path d="M163.32 315.12C162.77 316.55 160.87 316.81 159.95 315.58L139.48 288.27L148.09 281.54C148.09 281.54 148.83 288.63 159.47 288.84C166.08 302.81 164.85 311.15 163.32 315.12Z" fill="white" stroke="#FE5244" stroke-width="5" stroke-miterlimit="10"/>
<path d="M162.13 316.4C160.42 316.79 158.63 316.19 157.49 314.86L146.59 302.1C146.32 301.78 146.35 301.31 146.65 301.02C146.95 300.75 146.98 300.29 146.74 299.97L145.86 298.84C145.62 298.53 145.18 298.45 144.84 298.66L144.58 298.83C144.26 299.03 143.85 298.97 143.6 298.69L137.7 291.92C136.94 291.04 137.1 289.7 138.04 289.02L139.37 288.06L159.94 315.75C160.53 316.54 161.53 316.71 162.31 316.36L162.13 316.4Z" fill="#FE5244"/>
<path d="M162.49 292.56C162.49 292.56 164.26 294.65 159.09 296.14" stroke="#FE5244" stroke-width="5" stroke-miterlimit="10" stroke-linecap="round"/>
<path d="M163.66 294.91C163.66 294.91 165.43 297 160.26 298.49" stroke="#FE5244" stroke-width="5" stroke-miterlimit="10" stroke-linecap="round"/>
<path d="M164.62 297.26C164.62 297.26 166.39 299.35 161.22 300.84" stroke="#FE5244" stroke-width="5" stroke-miterlimit="10" stroke-linecap="round"/>
<path d="M211.14 224.47C206.96 225.63 202.88 227.06 199.01 228.61C182.3 235.34 169.49 244.48 169.33 244.59L177.36 233.18C182.9 230.23 189.94 227.1 197.72 224.26C199.08 223.77 200.42 223.29 201.75 222.82C202.08 222.7 202.41 222.59 202.73 222.48C202.89 222.42 203.05 222.37 203.22 222.31C203.71 222.14 204.19 221.98 204.67 221.82C205.07 221.69 205.46 221.56 205.85 221.42C207.04 221.02 208.21 220.65 209.35 220.29C209.9 221.25 210.62 222.68 211.14 224.47Z" fill="#9A3B82"/>
<path d="M149.82 232.35C149.82 234.09 145.47 235.51 140.1 235.51C134.73 235.51 130.38 234.1 130.38 232.35C130.38 232.33 130.38 232.3 130.38 232.28C130.5 230.57 134.81 229.2 140.1 229.2C145.39 229.2 149.7 230.57 149.82 232.28C149.82 232.3 149.82 232.33 149.82 232.35Z" fill="white" stroke="#3FB1B5" stroke-width="5" stroke-miterlimit="10" stroke-linecap="round"/>
<path d="M145.9 230V238.21C145.9 240.87 144.43 243.3 142.09 244.55L138.1 246.67C137.13 247.19 136.04 247.46 134.94 247.46C134.47 247.46 134.15 247.07 134.15 246.66C134.15 246.49 134.21 246.31 134.33 246.16L135.82 244.36C136.03 244.11 135.85 243.74 135.53 243.74H126.76L125.16 245.76C124.31 246.83 123.01 247.46 121.65 247.46H121.19C120.62 247.46 120.27 246.85 120.55 246.36L120.73 246.03C120.18 246.26 119.58 246.39 118.97 246.39H118.51C117.94 246.39 117.59 245.78 117.87 245.29L121.46 241.33L123.95 240.35V240.36L136.32 235.5V229.66C137.49 229.51 138.76 229.42 140.1 229.42C142.27 229.41 144.27 229.63 145.9 230Z" fill="#E57281"/>
<path d="M123.63 240.77L120.63 245.92" stroke="#9A3B82" stroke-width="4" stroke-miterlimit="10" stroke-linecap="round"/>
<path d="M135.06 245.26L136.9 243.01C137.26 242.57 136.95 241.92 136.38 241.92" stroke="#9A3B82" stroke-width="4" stroke-miterlimit="10" stroke-linecap="round"/>
<path d="M145.9 230V235.13C144.27 235.5 142.27 235.72 140.1 235.72C138.76 235.72 137.49 235.64 136.32 235.48V229.64C137.49 229.49 138.76 229.4 140.1 229.4C142.26 229.41 144.27 229.63 145.9 230Z" fill="#9A3B82"/>
<path d="M217.07 83.55C217.07 84.68 212.65 85.57 207.2 85.57C201.75 85.57 197.33 84.68 197.33 83.55C197.33 82.42 201.75 81.49 207.2 81.49C212.65 81.49 217.07 82.43 217.07 83.55Z" stroke="#3FB1B5" stroke-width="5" stroke-miterlimit="10" stroke-linecap="round"/>
<path d="M204.19 85.2C202.97 85.12 201.86 85 200.9 84.83V75.12C200.9 74.8 200.97 74.48 201.11 74.19L204.25 67.71C204.83 66.51 206.05 65.75 207.38 65.75H211.23L202.81 81.24C202.77 81.31 202.74 81.38 202.71 81.45C202.22 82.66 202.83 84.21 204.19 85.2Z" fill="#E57281"/>
<path d="M211.43 81.2699L212.67 79.1099V84.9699C211.65 85.0999 210.5 85.2099 209.27 85.2599L211.43 81.2699Z" fill="#9A3B82"/>
<path d="M229.571 47.36L209.07 85.0801C208.31 86.4801 206.23 86.8101 204.41 85.8201C202.59 84.8301 201.74 82.9001 202.5 81.5101L223.001 43.79L229.571 47.36Z" fill="white" stroke="#FE5244" stroke-width="5" stroke-miterlimit="10"/>
<path d="M229.563 47.3738C230.322 45.9764 229.467 44.0439 227.652 43.0576C225.837 42.0713 223.75 42.4047 222.991 43.8022C222.231 45.1996 223.087 47.1321 224.902 48.1184C226.716 49.1047 228.803 48.7713 229.563 47.3738Z" fill="white" stroke="#FE5244" stroke-width="5" stroke-miterlimit="10"/>
<path d="M217.011 61.2L226.701 53.1799L226.551 56.0999L229.651 56.8699L222.251 61.44C227.931 60.22 238.131 58.5 239.681 61.5C240.291 62.68 239.141 65.09 238.371 66.82C237.891 70.47 257.031 65.95 257.251 65.9L254.301 68.63L257.251 70.31C257.251 70.31 241.191 73.37 237.051 72.53C234.711 72.05 236.571 68.91 238.201 66.61C238.701 64.84 234.721 64.26 218.171 66.06L217.011 61.2Z" fill="#FE5244"/>
<path d="M217.151 66.02C218.73 66.02 220.011 64.7396 220.011 63.16C220.011 61.5805 218.73 60.3 217.151 60.3C215.571 60.3 214.291 61.5805 214.291 63.16C214.291 64.7396 215.571 66.02 217.151 66.02Z" fill="white" stroke="#FE5244" stroke-width="5" stroke-miterlimit="10"/>
<path d="M219.39 72.74L218.47 74.9L217.39 77.42L216.81 78.79L215.92 80.88C215.9 80.94 215.87 80.99 215.84 81.05C215.84 81.05 215.84 81.06 215.83 81.06C215.54 81.55 214.99 81.86 214.39 81.86H207.33C206.48 81.86 205.89 81.05 206.21 80.3L206.72 79.1L207.85 76.45L208.82 74.17L209.67 72.16C209.92 71.57 210.53 71.19 211.2 71.19H218.26C219.13 71.18 219.71 71.99 219.39 72.74Z" fill="#E57281"/>
<path d="M209.07 74.1599C209.36 73.8299 209.79 73.6399 210.25 73.6399H216.99C217.7 73.6399 218.21 74.2499 218.14 74.8999" stroke="#9A3B82" stroke-width="4" stroke-miterlimit="10" stroke-linecap="round"/>
<path d="M208.15 76.4497C208.44 76.1597 208.84 75.9897 209.27 75.9897H216.01C216.78 75.9897 217.32 76.7097 217.12 77.4197" stroke="#9A3B82" stroke-width="4" stroke-miterlimit="10" stroke-linecap="round"/>
<path d="M207.09 79.0899C207.38 78.8199 207.77 78.6599 208.18 78.6599H214.92C215.72 78.6599 216.271 79.4299 216.011 80.1599" stroke="#9A3B82" stroke-width="4" stroke-miterlimit="10" stroke-linecap="round"/>
<path d="M215.1 65.74V65.92C215.1 67.75 213.62 69.24 211.78 69.24H208.3V65.74H215.1Z" fill="#E57281"/>
<path d="M130.59 143.97C130.27 144.45 129.94 144.9 129.61 145.31C129.25 145.22 128.9 145.07 128.58 144.85C128.26 144.63 127.99 144.37 127.77 144.06C128.03 143.61 128.32 143.13 128.65 142.65C130.27 140.25 132.01 138.6 132.55 138.96C133.09 139.32 132.21 141.57 130.59 143.97Z" fill="#FFCF2D"/>
<path d="M145.331 107.94L132.841 126.38C132.691 126.6 132.901 126.87 133.151 126.8L139.121 124.88C138.391 125.75 137.941 126.88 137.941 128.1V133.91C137.941 136.18 136.131 138.03 133.871 138.09C133.731 137.83 133.451 137.65 133.121 137.65C132.891 137.65 132.681 137.74 132.521 137.9C132.361 138.06 132.271 138.27 132.281 138.5C132.281 138.96 132.661 139.34 133.131 139.34C133.551 139.34 133.901 139.02 133.961 138.62C136.461 138.51 138.471 136.44 138.471 133.91V128.1C138.471 126.64 139.191 125.31 140.271 124.51L152.281 120.65L167.701 107.94H145.331ZM133.351 138.7C133.291 138.76 133.211 138.79 133.131 138.79C133.051 138.79 132.971 138.76 132.911 138.7C132.851 138.64 132.821 138.56 132.821 138.48C132.821 138.4 132.851 138.32 132.911 138.26C132.971 138.2 133.051 138.17 133.131 138.17C133.221 138.17 133.291 138.2 133.351 138.26C133.411 138.32 133.441 138.39 133.441 138.48C133.451 138.57 133.411 138.64 133.351 138.7Z" fill="#3FB1B5"/>
<path d="M131.75 126.34C131.7 126.34 131.65 126.33 131.6 126.29C131.48 126.21 131.45 126.04 131.53 125.92L144.55 106.7H168.13C168.28 106.7 168.4 106.82 168.4 106.97C168.4 107.12 168.28 107.24 168.13 107.24H144.83L131.97 126.22C131.92 126.3 131.84 126.34 131.75 126.34Z" fill="#3FB1B5"/>
<path d="M144.91 123.24L143.41 122.56L143.49 122.33C143.52 122.24 144.25 120.12 146.05 117.87C147.72 115.78 150.65 113.21 155.16 112.77L155.42 112.75L155.68 114.64L155.15 114.71L154.96 113.33C150.78 113.81 148.04 116.23 146.47 118.2C145.06 119.96 144.32 121.68 144.09 122.28L145.14 122.76L144.91 123.24Z" fill="white"/>
<path d="M152.51 137.82L149.48 127.92L156.57 124.45L159.49 126.67L164.51 130.48L166.03 145.62L152.51 137.82Z" fill="#E57281"/>
<path d="M159.49 126.67L154.08 138.73L152.51 137.82L149.48 127.92L156.57 124.45L159.49 126.67Z" fill="#9A3B82"/>
<path d="M153.481 128.57C152.971 128.62 151.941 128.1 150.771 127.36L149.401 128.47C148.611 129.11 147.451 129 146.811 128.21C146.531 127.87 146.391 127.45 146.391 127.04C146.391 126.51 146.62 125.98 147.071 125.61L147.631 125.15C146.161 124.05 145.01 123.1 145.01 123.1C145.01 123.1 147.561 115.44 155.711 114.66C155.711 114.66 160.031 123.59 160.321 124.44C160.611 125.3 156.361 128.28 153.481 128.57Z" fill="#E57281"/>
<path d="M147.631 125.15C146.161 124.05 145.01 123.1 145.01 123.1C145.01 123.1 145.951 120.27 148.531 117.87C145.831 120.56 149.861 123.56 147.631 125.15Z" fill="#FFCF2D"/>
<path d="M149.051 119.99C149.051 119.99 149.481 118.83 150.571 118.23" stroke="#9A3B82" stroke-width="4" stroke-miterlimit="10" stroke-linecap="round"/>
<path d="M156.851 117.05C156.851 117.05 155.341 116.84 154.591 117.3C153.841 117.76 153.841 120.14 155.041 121.63" stroke="#9A3B82" stroke-width="4" stroke-miterlimit="10" stroke-linecap="round"/>
<path d="M155.761 123.12C155.761 123.12 154.831 123.95 153.251 123.34" stroke="#9A3B82" stroke-width="4" stroke-miterlimit="10" stroke-linecap="round"/>
<path d="M153.401 122.9C153.401 122.9 153.071 123.37 153.091 123.9" stroke="#9A3B82" stroke-width="4" stroke-miterlimit="10" stroke-linecap="round"/>
<path d="M151.445 121.486C151.605 121.443 151.666 121.154 151.582 120.839C151.497 120.524 151.299 120.304 151.139 120.347C150.979 120.39 150.918 120.68 151.002 120.994C151.087 121.309 151.285 121.529 151.445 121.486Z" fill="#9A3B82"/>
<path d="M155.916 119.529C156.06 119.491 156.113 119.221 156.034 118.928C155.955 118.635 155.775 118.428 155.631 118.467C155.486 118.506 155.434 118.775 155.512 119.068C155.591 119.361 155.772 119.568 155.916 119.529Z" fill="#9A3B82"/>
<path d="M151.291 127.96L148.981 126.16C148.721 125.96 148.361 125.98 148.121 126.2L147.981 126.33C147.711 126.59 147.711 127.01 147.981 127.27" stroke="#9A3B82" stroke-width="4" stroke-miterlimit="10" stroke-linecap="round"/>
</svg>
