<svg width="500" height="350" viewBox="0 0 500 350" fill="none" xmlns="http://www.w3.org/2000/svg">
<path d="M437.4 299.6H62.6L129.88 259.87H371.15L437.4 299.6Z" fill="#D0F0E4"/>
<path d="M277.49 105.37H210.06V66.38C210.06 63.74 212.2 61.6 214.84 61.6H272.71C275.35 61.6 277.49 63.74 277.49 66.38V105.37Z" fill="white" stroke="#66B0F0" stroke-width="6" stroke-miterlimit="10"/>
<path d="M272.4 102.83H215.43C213.93 102.83 212.71 101.61 212.71 100.11V66.69C212.71 65.19 213.93 63.97 215.43 63.97H272.4C273.9 63.97 275.12 65.19 275.12 66.69V100.12C275.12 101.62 273.9 102.83 272.4 102.83Z" fill="#66B0F0"/>
<path d="M289.31 114.52C291.89 116.2 291.29 119.49 288.24 119.49H196.38C193.81 119.49 192.93 116.02 195.45 114.43L289.31 114.52Z" fill="#66B0F0" stroke="#66B0F0" stroke-width="6" stroke-miterlimit="10"/>
<path d="M288.24 117.2H196.38C194.74 117.2 194.09 115.27 195.45 114.43L210.08 105.37H277.3L289.3 114.52C290.5 115.43 289.8 117.2 288.24 117.2Z" fill="white" stroke="#66B0F0" stroke-width="6" stroke-miterlimit="10"/>
<path d="M277.64 114.47H206.98C205.72 114.47 205.22 112.98 206.26 112.34L216.42 105.37H269.22L278.45 112.41C279.38 113.11 278.84 114.47 277.64 114.47Z" fill="white" stroke="#66B0F0" stroke-width="6" stroke-miterlimit="10"/>
<path d="M264.65 105.37L273.89 114.47" stroke="#66B0F0" stroke-width="6" stroke-miterlimit="10"/>
<path d="M259.75 105.37L267.89 114.47" stroke="#66B0F0" stroke-width="6" stroke-miterlimit="10"/>
<path d="M255.17 105.37L262.23 114.47" stroke="#66B0F0" stroke-width="6" stroke-miterlimit="10"/>
<path d="M250.05 105.37L256.02 114.47" stroke="#66B0F0" stroke-width="6" stroke-miterlimit="10"/>
<path d="M245.8 105.37L248.71 114.47" stroke="#66B0F0" stroke-width="6" stroke-miterlimit="10"/>
<path d="M220.71 105.37L211.47 114.47" stroke="#66B0F0" stroke-width="6" stroke-miterlimit="10"/>
<path d="M225.61 105.37L217.47 114.47" stroke="#66B0F0" stroke-width="6" stroke-miterlimit="10"/>
<path d="M230.19 105.37L223.13 114.47" stroke="#66B0F0" stroke-width="6" stroke-miterlimit="10"/>
<path d="M235.31 105.37L229.34 114.47" stroke="#66B0F0" stroke-width="6" stroke-miterlimit="10"/>
<path d="M239.56 105.37L236.65 114.47" stroke="#66B0F0" stroke-width="6" stroke-miterlimit="10"/>
<path d="M242.44 114.58V105.37" stroke="#66B0F0" stroke-width="6" stroke-miterlimit="10"/>
<path d="M211.47 108.77H273.69" stroke="#66B0F0" stroke-width="6" stroke-miterlimit="10"/>
<path d="M267.66 102.83H217.07L217.98 96.38C218.54 92.41 221.39 89.15 225.24 88.05L237.57 85.49H247.16L259.49 88.05C263.35 89.14 266.2 92.41 266.75 96.38L267.66 102.83Z" fill="#FFCF2D"/>
<path d="M245.78 92.86L242.13 89.17C242.05 89.09 242.05 88.96 242.13 88.89C242.21 88.81 242.34 88.81 242.41 88.89L245.76 92.28L250.96 86.3901C251.03 86.3101 251.16 86.3001 251.24 86.3701C251.32 86.4401 251.33 86.5701 251.26 86.6501L245.78 92.86Z" fill="white"/>
<path d="M239 92.8601L233.52 86.6501C233.45 86.5701 233.45 86.4401 233.54 86.3701C233.62 86.3001 233.75 86.3001 233.82 86.3901L239.02 92.2801L242.37 88.8901C242.45 88.8101 242.57 88.8101 242.65 88.8901C242.73 88.9701 242.73 89.0901 242.65 89.1701L239 92.8601Z" fill="white"/>
<path d="M242.45 95.2701C241.97 95.2701 241.58 94.88 241.58 94.4C241.58 93.92 241.97 93.53 242.45 93.53C242.93 93.53 243.32 93.92 243.32 94.4C243.32 94.88 242.93 95.2701 242.45 95.2701ZM242.45 93.93C242.19 93.93 241.98 94.14 241.98 94.4C241.98 94.66 242.19 94.87 242.45 94.87C242.71 94.87 242.92 94.66 242.92 94.4C242.92 94.14 242.71 93.93 242.45 93.93Z" fill="white"/>
<path d="M242.45 100.17C241.97 100.17 241.58 99.7801 241.58 99.3001C241.58 98.8201 241.97 98.4301 242.45 98.4301C242.93 98.4301 243.32 98.8201 243.32 99.3001C243.32 99.7801 242.93 100.17 242.45 100.17ZM242.45 98.8301C242.19 98.8301 241.98 99.0401 241.98 99.3001C241.98 99.5601 242.19 99.7701 242.45 99.7701C242.71 99.7701 242.92 99.5601 242.92 99.3001C242.92 99.0401 242.71 98.8301 242.45 98.8301Z" fill="white"/>
<path d="M237.51 102.62H221.17L216.81 89.68L233.15 85L237.51 102.62Z" fill="white" stroke="#66B0F0" stroke-width="4" stroke-miterlimit="10"/>
<path d="M222.02 91.36H221.71C220.92 91.36 220.28 90.72 220.28 89.93V85.44C220.28 85.12 220.54 84.86 220.86 84.86H222.21C222.53 84.86 222.79 85.12 222.79 85.44V90.58C222.8 91.01 222.45 91.36 222.02 91.36Z" fill="white"/>
<path d="M222.02 91.36H221.71C220.92 91.36 220.28 90.72 220.28 89.93V85.44C220.28 85.12 220.54 84.86 220.86 84.86H222.21C222.53 84.86 222.79 85.12 222.79 85.44V90.58C222.8 91.01 222.45 91.36 222.02 91.36Z" stroke="#66B0F0" stroke-width="4" stroke-miterlimit="10" stroke-linecap="round"/>
<path d="M228.6 91.36H228.91C229.7 91.36 230.34 90.72 230.34 89.93V85.44C230.34 85.12 230.08 84.86 229.76 84.86H228.4C228.08 84.86 227.82 85.12 227.82 85.44V90.58C227.82 91.01 228.17 91.36 228.6 91.36Z" fill="white"/>
<path d="M224.53 91.88H223.81C223.25 91.88 222.8 91.43 222.8 90.87V85.45C222.8 85.13 223.06 84.87 223.38 84.87H224.73C225.05 84.87 225.31 85.13 225.31 85.45V91.1C225.31 91.53 224.96 91.88 224.53 91.88Z" fill="white"/>
<path d="M227.05 92.08H226.45C225.82 92.08 225.31 91.57 225.31 90.94V85.44C225.31 85.12 225.57 84.86 225.89 84.86H227.24C227.56 84.86 227.82 85.12 227.82 85.44V91.3C227.82 91.73 227.47 92.08 227.05 92.08Z" fill="white"/>
<path d="M228.6 91.36H228.91C229.7 91.36 230.34 90.72 230.34 89.93V85.44C230.34 85.12 230.08 84.86 229.76 84.86H228.4C228.08 84.86 227.82 85.12 227.82 85.44V90.58C227.82 91.01 228.17 91.36 228.6 91.36Z" stroke="#66B0F0" stroke-width="4" stroke-miterlimit="10" stroke-linecap="round"/>
<path d="M224.53 91.88H223.81C223.25 91.88 222.8 91.43 222.8 90.87V85.45C222.8 85.13 223.06 84.87 223.38 84.87H224.73C225.05 84.87 225.31 85.13 225.31 85.45V91.1C225.31 91.53 224.96 91.88 224.53 91.88Z" stroke="#66B0F0" stroke-width="4" stroke-miterlimit="10" stroke-linecap="round"/>
<path d="M227.05 92.08H226.45C225.82 92.08 225.31 91.57 225.31 90.94V85.44C225.31 85.12 225.57 84.86 225.89 84.86H227.24C227.56 84.86 227.82 85.12 227.82 85.44V91.3C227.82 91.73 227.47 92.08 227.05 92.08Z" stroke="#66B0F0" stroke-width="4" stroke-miterlimit="10" stroke-linecap="round"/>
<path d="M247.17 79.61V86.91C247.17 88.17 245.02 89.2 242.37 89.2C239.72 89.2 237.57 88.17 237.57 86.91V79.61H247.17Z" fill="white"/>
<path d="M247.17 79.61C247.17 85.12 243.64 86.76 240.25 86.47C240.24 86.47 240.23 86.47 240.22 86.47C238.72 86.33 237.58 85.05 237.58 83.55V79.62H247.17V79.61Z" fill="#66B0F0"/>
<path d="M249.4 77.73V78.1C249.4 78.92 248.74 79.58 247.92 79.58H247.16L247.17 79.75C247.17 82.11 245.26 84.02 242.9 84.02H241.85C239.49 84.02 237.58 82.11 237.58 79.75L237.59 79.58H236.83C236.01 79.58 235.35 78.92 235.35 78.1V77.73C235.35 76.91 236.01 76.25 236.83 76.25H237.8L237.91 74.44C237.91 74.16 237.95 73.89 238.03 73.64C240.89 74.35 244.24 72.51 245.14 71.96C246.14 72.34 246.85 73.3 246.85 74.43L246.96 76.24H247.93C248.74 76.25 249.4 76.91 249.4 77.73Z" fill="white"/>
<path d="M247.99 76.25H246.95L246.84 74.44C246.84 73.31 246.13 72.35 245.13 71.97C244.23 72.51 240.88 74.35 238.02 73.65C237.94 73.9 237.9 74.17 237.9 74.45L237.79 76.26H237.14C237.14 76.26 235.81 69.82 237.12 68.64C238.09 67.77 246.97 69.67 247.95 71.02C248.5 71.79 247.99 76.25 247.99 76.25Z" fill="#E57281"/>
<path d="M245.49 75.86C245.46 75.86 245.42 75.85 245.39 75.82C245.38 75.81 244.73 75.28 243.69 75.28C243.61 75.28 243.54 75.21 243.54 75.13C243.54 75.05 243.61 74.98 243.69 74.98C244.84 74.98 245.55 75.56 245.58 75.59C245.64 75.64 245.65 75.74 245.6 75.8C245.58 75.84 245.53 75.86 245.49 75.86Z" fill="#66B0F0"/>
<path d="M241.69 78.9599C241.67 78.9599 241.65 78.9599 241.64 78.9499C241.56 78.9199 241.52 78.8299 241.55 78.7599C241.83 78.0199 241.76 77.0899 241.37 76.2699C241.14 75.7699 240.81 75.4099 240.52 75.3099C239.88 75.0899 238.98 75.3999 238.97 75.3999C238.89 75.4299 238.81 75.3899 238.78 75.3099C238.75 75.2299 238.79 75.1499 238.87 75.1199C238.91 75.1099 239.87 74.7799 240.61 75.0299C240.98 75.1599 241.36 75.5699 241.63 76.1499C242.05 77.0399 242.12 78.0599 241.82 78.8799C241.81 78.9199 241.75 78.9599 241.69 78.9599Z" fill="#66B0F0"/>
<path d="M243.66 80.5498C243.67 80.6298 243.6 80.6998 243.52 80.7098H243.51C243.43 80.7098 243.37 80.6498 243.36 80.5698C243.35 80.4698 243.33 80.3698 243.3 80.2798C242.87 80.4898 242.48 80.5598 242.16 80.5598C241.53 80.5598 241.15 80.2998 241.13 80.2798C241.06 80.2298 241.05 80.1398 241.09 80.0698C241.14 79.9998 241.23 79.9898 241.3 80.0298C241.32 80.0398 241.64 80.2598 242.16 80.2598C242.44 80.2598 242.78 80.1998 243.17 80.0098C243.11 79.9098 243.05 79.8498 243.05 79.8498C242.99 79.7898 243 79.6898 243.06 79.6399C243.12 79.5899 243.22 79.5899 243.27 79.6498C243.29 79.6798 243.63 80.0598 243.66 80.5498Z" fill="#66B0F0"/>
<path d="M244.2 77.692C244.338 77.6834 244.436 77.453 244.419 77.1774C244.401 76.9018 244.276 76.6853 244.138 76.6939C244 76.7025 243.902 76.9329 243.92 77.2085C243.937 77.4841 244.062 77.7006 244.2 77.692Z" fill="#66B0F0"/>
<path d="M240.117 77.6521C240.244 77.6442 240.334 77.4322 240.318 77.1787C240.303 76.9251 240.187 76.726 240.06 76.7339C239.933 76.7418 239.843 76.9537 239.859 77.2073C239.875 77.4608 239.991 77.66 240.117 77.6521Z" fill="#66B0F0"/>
<path d="M237.32 78.2098C237.24 78.2098 237.17 78.1398 237.17 78.0598C237.17 77.6198 236.81 77.2698 236.38 77.2698C236.3 77.2698 236.23 77.1998 236.23 77.1198C236.23 77.0398 236.3 76.9698 236.38 76.9698C236.98 76.9698 237.47 77.4598 237.47 78.0598C237.47 78.1498 237.4 78.2098 237.32 78.2098Z" fill="#66B0F0"/>
<path d="M247.38 78.2098C247.3 78.2098 247.23 78.1398 247.23 78.0598C247.23 77.4598 247.72 76.9698 248.32 76.9698C248.4 76.9698 248.47 77.0398 248.47 77.1198C248.47 77.1998 248.4 77.2698 248.32 77.2698C247.88 77.2698 247.53 77.6298 247.53 78.0598C247.53 78.1498 247.47 78.2098 247.38 78.2098Z" fill="#66B0F0"/>
<path d="M428.4 299.6L385.57 157.98C384.72 155.16 382.11 153.23 379.16 153.23H119.21C116.23 153.23 113.61 155.2 112.78 158.07L71.9099 299.6" stroke="#66B0F0" stroke-width="6" stroke-miterlimit="10"/>
<path d="M190.42 105.37H304.12" stroke="#66B0F0" stroke-width="6" stroke-miterlimit="10"/>
<path d="M229.88 126.89H256.74V149.96H229.88C229.88 149.96 229.88 126.02 229.88 126.89Z" fill="#FFCF2D"/>
<path d="M330.32 234.08L317.83 202.98H337.94L330.32 234.08Z" fill="#9A3B82"/>
<path d="M296.05 161.47C298.73 156.4 304 153.23 309.73 153.23H325.2L335.71 161.47H296.05Z" fill="#9A3B82"/>
<path d="M354.7 197.88H315.73L330.4 233.49C329.38 231.83 323.27 233.56 316.8 237.53C310.41 241.45 306.09 246.17 306.97 247.89L275.35 192.87C267.15 178.99 277.15 161.47 293.27 161.47H380.6L380.79 162.07C386.49 179.77 373.29 197.88 354.7 197.88Z" fill="#3FB1B5"/>
<path d="M382.11 171.68C381.97 174.93 381.25 178.07 380.03 180.98L334.23 161.48H379.69L380.75 164.58C381.49 166.44 381.9 169.05 382.11 171.68Z" fill="#E6E6E6"/>
<path d="M330.41 233.49C331.43 235.15 326.97 239.68 320.51 243.65C314.04 247.62 308.03 249.61 307.01 247.95C305.99 246.29 310.34 241.6 316.81 237.63C323.27 233.66 329.38 231.83 330.41 233.49Z" fill="#66B0F0"/>
<path d="M316.06 237.65L287.62 187.37C285.39 183.39 288.26 178.47 292.83 178.47H348.22C355.68 178.47 361.25 171.6 359.71 164.3" stroke="white" stroke-width="6" stroke-miterlimit="10" stroke-linecap="round"/>
<path d="M306.68 248.06C305.66 246.4 310.07 241.12 316.81 237.19C324.38 232.78 329.28 231.47 330.74 233.81" stroke="white" stroke-width="6" stroke-miterlimit="10" stroke-linecap="round"/>
<path d="M330.96 234.03L312.38 189.73" stroke="white" stroke-width="6" stroke-miterlimit="10" stroke-linecap="round"/>
<path d="M292.18 161.14H337.51" stroke="white" stroke-width="6" stroke-miterlimit="10"/>
<path d="M317.82 250.24L315.12 246.56L311.4 241.5C312.92 240.22 314.75 238.89 316.8 237.63C320.88 235.13 324.81 233.47 327.42 233.01L329.23 236.62L331.49 241.12C329.89 246.81 317.82 250.24 317.82 250.24Z" fill="#E57281"/>
<path d="M329.24 236.62C327.56 238.67 324.4 241.26 320.51 243.65C318.64 244.8 316.81 245.78 315.13 246.56L311.41 241.5C312.93 240.22 314.76 238.89 316.81 237.63C320.89 235.13 324.82 233.47 327.43 233.01L329.24 236.62Z" fill="#9A3B82"/>
<path d="M343.85 260.95L316.41 280.66C314.08 282.28 310.46 283.63 310.94 277.77C311.61 269.69 313.4 257.67 317.82 250.23C318.01 250.18 329.89 246.75 331.49 241.11L344 250C347.6 252.8 347.52 258.26 343.85 260.95Z" fill="white" stroke="#FFCF2D" stroke-width="6" stroke-miterlimit="10"/>
<path d="M316.55 252.84C318.73 253.25 330.97 248.91 332.87 242.22" stroke="#FFCF2D" stroke-width="6" stroke-miterlimit="10" stroke-linecap="round"/>
<path d="M313.6 278.63C313.6 278.63 331.51 253.75 344.25 255.15C358.12 256.66 302.26 293.14 313.6 278.63Z" fill="#FFCF2D"/>
<path d="M313.09 282.02C311.7 282.11 310.23 280.49 312.26 277.89C312.26 277.89 330.9 252.09 344.17 253.55C346.22 253.77 346.91 255.44 346.43 256.88" stroke="#FFCF2D" stroke-width="6" stroke-miterlimit="10" stroke-linecap="round"/>
<path d="M382.21 173.71C375.87 172.21 360.09 168.26 342.09 164.1C333.63 162.15 326.55 156.39 322.9 148.51L306.51 113.05L316.43 97.3298C319.48 92.4898 324.68 89.4098 330.39 89.0598L340.15 88.4598C349.99 87.8598 357.89 93.9998 360.89 103.39L380.74 161.47C382.92 166.91 382.21 173.71 382.21 173.71Z" fill="white" stroke="#FE5244" stroke-width="6" stroke-miterlimit="10"/>
<path d="M315.14 115.04C315.14 115.04 320.36 123.24 332.25 125.05" stroke="#FE5244" stroke-width="6" stroke-miterlimit="10"/>
<path d="M322.18 100.12C321.64 99.5398 320.69 99.6998 320.36 100.41C319.99 101.21 320.66 102.1 321.53 101.97C322.42 101.84 322.79 100.77 322.18 100.12Z" fill="#FFCF2D" stroke="#FE5244" stroke-width="6" stroke-miterlimit="10" stroke-linejoin="round"/>
<path d="M347.09 117.21C346.55 116.63 345.6 116.79 345.27 117.5C344.9 118.3 345.57 119.19 346.44 119.06C347.33 118.93 347.7 117.86 347.09 117.21Z" fill="#FFCF2D" stroke="#FE5244" stroke-width="6" stroke-miterlimit="10" stroke-linejoin="round"/>
<path d="M354.98 124.21C354.44 123.63 353.49 123.79 353.16 124.5C352.79 125.3 353.46 126.19 354.33 126.06C355.21 125.94 355.58 124.87 354.98 124.21Z" fill="#FFCF2D" stroke="#FE5244" stroke-width="6" stroke-miterlimit="10" stroke-linejoin="round"/>
<path d="M370.11 163.82C369.57 163.24 368.62 163.4 368.29 164.11C367.92 164.91 368.59 165.8 369.46 165.67C370.34 165.54 370.71 164.48 370.11 163.82Z" fill="#FFCF2D" stroke="#FE5244" stroke-width="6" stroke-miterlimit="10" stroke-linejoin="round"/>
<path d="M361.64 144.89C361.1 144.31 360.15 144.47 359.82 145.18C359.45 145.98 360.12 146.87 360.99 146.74C361.88 146.61 362.25 145.54 361.64 144.89Z" fill="#FFCF2D" stroke="#FE5244" stroke-width="6" stroke-miterlimit="10" stroke-linejoin="round"/>
<path d="M365.15 131.27C364.37 131.37 363.94 132.24 364.33 132.92C364.77 133.69 365.88 133.66 366.28 132.87C366.69 132.07 366.03 131.15 365.15 131.27Z" fill="#FFCF2D" stroke="#FE5244" stroke-width="6" stroke-miterlimit="10" stroke-linejoin="round"/>
<path d="M371.54 151.47C370.76 151.57 370.33 152.44 370.72 153.12C371.16 153.89 372.27 153.86 372.67 153.07C373.08 152.27 372.43 151.35 371.54 151.47Z" fill="#FFCF2D" stroke="#FE5244" stroke-width="6" stroke-miterlimit="10" stroke-linejoin="round"/>
<path d="M345.04 129.68C344.5 129.1 343.55 129.26 343.22 129.97C342.85 130.77 343.52 131.66 344.39 131.53C345.27 131.4 345.64 130.34 345.04 129.68Z" fill="#FFCF2D" stroke="#FE5244" stroke-width="6" stroke-miterlimit="10" stroke-linejoin="round"/>
<path d="M339.53 141.01C338.99 140.43 338.04 140.59 337.71 141.3C337.34 142.1 338.01 142.99 338.88 142.86C339.77 142.73 340.14 141.66 339.53 141.01Z" fill="#FFCF2D" stroke="#FE5244" stroke-width="6" stroke-miterlimit="10" stroke-linejoin="round"/>
<path d="M329.67 137.05C330.25 136.51 330.09 135.56 329.38 135.23C328.58 134.86 327.69 135.53 327.82 136.4C327.95 137.28 329.01 137.65 329.67 137.05Z" fill="#FFCF2D" stroke="#FE5244" stroke-width="6" stroke-miterlimit="10" stroke-linejoin="round"/>
<path d="M338.42 156.55C339 156.01 338.84 155.06 338.13 154.73C337.33 154.36 336.44 155.03 336.57 155.9C336.7 156.79 337.77 157.16 338.42 156.55Z" fill="#FFCF2D" stroke="#FE5244" stroke-width="6" stroke-miterlimit="10" stroke-linejoin="round"/>
<path d="M353.15 139.82C353.73 139.28 353.57 138.33 352.86 138C352.06 137.63 351.17 138.3 351.3 139.17C351.43 140.05 352.5 140.43 353.15 139.82Z" fill="#FFCF2D" stroke="#FE5244" stroke-width="6" stroke-miterlimit="10" stroke-linejoin="round"/>
<path d="M358.18 160.76C358.76 160.22 358.6 159.27 357.89 158.94C357.09 158.57 356.2 159.24 356.33 160.11C356.45 161 357.52 161.37 358.18 160.76Z" fill="#FFCF2D" stroke="#FE5244" stroke-width="6" stroke-miterlimit="10" stroke-linejoin="round"/>
<path d="M328.02 118.35C327.48 117.77 326.53 117.93 326.2 118.64C325.83 119.44 326.5 120.33 327.37 120.2C328.26 120.07 328.63 119 328.02 118.35Z" fill="#FFCF2D" stroke="#FE5244" stroke-width="6" stroke-miterlimit="10" stroke-linejoin="round"/>
<path d="M329.81 92.4098C329.27 91.8297 328.32 91.9897 327.99 92.6998C327.62 93.4998 328.29 94.3898 329.16 94.2598C330.05 94.1298 330.42 93.0598 329.81 92.4098Z" fill="#FFCF2D" stroke="#FE5244" stroke-width="6" stroke-miterlimit="10" stroke-linejoin="round"/>
<path d="M347.09 92.4098C346.55 91.8297 345.6 91.9897 345.27 92.6998C344.9 93.4998 345.57 94.3898 346.44 94.2598C347.33 94.1298 347.7 93.0598 347.09 92.4098Z" fill="#FFCF2D" stroke="#FE5244" stroke-width="6" stroke-miterlimit="10" stroke-linejoin="round"/>
<path d="M347.12 103.61C346.39 103.9 346.18 104.84 346.73 105.41C347.34 106.04 348.41 105.75 348.61 104.89C348.81 104.02 347.95 103.28 347.12 103.61Z" fill="#FFCF2D" stroke="#FE5244" stroke-width="6" stroke-miterlimit="10" stroke-linejoin="round"/>
<path d="M337.3 97.2298C336.54 97.4498 336.25 98.3598 336.73 98.9798C337.28 99.6698 338.37 99.4798 338.65 98.6498C338.94 97.7998 338.15 96.9798 337.3 97.2298Z" fill="#FFCF2D" stroke="#FE5244" stroke-width="6" stroke-miterlimit="10" stroke-linejoin="round"/>
<path d="M335.85 124.93C335.07 125.02 334.63 125.88 335.01 126.57C335.44 127.34 336.55 127.33 336.96 126.55C337.38 125.76 336.74 124.83 335.85 124.93Z" fill="#FFCF2D" stroke="#FE5244" stroke-width="6" stroke-miterlimit="10" stroke-linejoin="round"/>
<path d="M327.28 145.76C326.5 145.85 326.06 146.71 326.44 147.4C326.87 148.17 327.98 148.16 328.39 147.38C328.81 146.59 328.17 145.66 327.28 145.76Z" fill="#FFCF2D" stroke="#FE5244" stroke-width="6" stroke-miterlimit="10" stroke-linejoin="round"/>
<path d="M330.16 105.49C329.4 105.71 329.11 106.62 329.59 107.24C330.14 107.93 331.23 107.74 331.51 106.91C331.8 106.07 331.02 105.25 330.16 105.49Z" fill="#FFCF2D" stroke="#FE5244" stroke-width="6" stroke-miterlimit="10" stroke-linejoin="round"/>
<path d="M338.44 111.09C337.68 111.31 337.39 112.22 337.87 112.84C338.42 113.53 339.51 113.34 339.79 112.51C340.08 111.66 339.3 110.84 338.44 111.09Z" fill="#FFCF2D" stroke="#FE5244" stroke-width="6" stroke-miterlimit="10" stroke-linejoin="round"/>
<path d="M320.51 110.85C321.01 110.24 320.74 109.32 319.98 109.09C319.14 108.83 318.34 109.61 318.59 110.45C318.84 111.31 319.94 111.54 320.51 110.85Z" fill="#FFCF2D" stroke="#FE5244" stroke-width="6" stroke-miterlimit="10" stroke-linejoin="round"/>
<path d="M358.42 110.88C358.92 110.27 358.65 109.35 357.89 109.12C357.05 108.86 356.25 109.64 356.5 110.48C356.74 111.34 357.85 111.57 358.42 110.88Z" fill="#FFCF2D" stroke="#FE5244" stroke-width="6" stroke-miterlimit="10" stroke-linejoin="round"/>
<path d="M348.8 151.42C349.3 150.81 349.03 149.89 348.27 149.66C347.43 149.4 346.63 150.18 346.88 151.02C347.12 151.87 348.23 152.1 348.8 151.42Z" fill="#FFCF2D" stroke="#FE5244" stroke-width="6" stroke-miterlimit="10" stroke-linejoin="round"/>
<path d="M340.82 88.1297C340.6 88.1397 340.38 88.1497 340.15 88.1597L330.39 88.7597C327.9 88.9097 325.52 89.5797 323.36 90.6897L320.36 81.7097L333.73 71.9097L340.82 88.1297Z" fill="#E57281"/>
<path d="M323.32 90.55C326.1 89.29 328.32 87.05 329.58 84.27L334.44 73.52L333.73 71.9L320.36 81.7L323.32 90.55Z" fill="#9A3B82"/>
<path d="M334.59 72.81C334.59 73.74 334.21 74.58 333.6 75.19C332.99 75.8 332.15 76.18 331.22 76.18H328.28C327.12 80.69 322.63 83.78 317.8 82.93L315.59 82.54C313.17 82.11 311.52 79.85 311.86 77.42L314.45 64.45C314.9 61.68 317.75 59.99 320.4 60.94L324.69 62.66C327.01 63.46 328.57 65.64 328.57 68.09V69.34L331.22 69.44C333.08 69.44 334.59 70.95 334.59 72.81Z" fill="#E57281"/>
<path d="M329.61 73.4599C329.61 72.1699 330.65 71.1299 331.94 71.1299" stroke="#9A3B82" stroke-width="5" stroke-miterlimit="10" stroke-linecap="round"/>
<path d="M315.89 67.1799C315.89 67.1799 317.99 67.1799 319.49 69.1899" stroke="#9A3B82" stroke-width="5" stroke-miterlimit="10" stroke-linecap="round"/>
<path d="M317.286 70.9227C317.391 70.3412 317.257 69.8299 316.985 69.7805C316.713 69.7311 316.407 70.1625 316.302 70.7439C316.196 71.3253 316.331 71.8367 316.602 71.886C316.874 71.9354 317.18 71.5041 317.286 70.9227Z" fill="#9A3B82"/>
<path d="M331.22 69.44C333.08 69.44 334.59 70.95 334.59 72.81C334.59 72.82 334.59 72.84 334.59 72.86C336.09 70.55 339.77 64.67 339.77 62.68C339.77 60.01 336.44 57.34 332.99 58.56C333.22 58.39 333.46 58.21 333.71 58.02C335.04 56.98 335.74 56.2 335.85 55.64C335.89 55.44 335.86 55.26 335.76 55.12C335.36 54.55 334.92 54.3 334.45 54.38C333.76 54.49 333.05 55.34 332.34 56.9C332.02 57.61 331.77 58.31 331.63 58.74C331.35 57.07 330 51.54 324.2 52.39C322.2 52.68 321.26 53.51 321 54.42C319.34 53.12 317.12 52.1 315.28 53.07C312.1 54.74 312.49 57.48 314.33 59.42C312.59 59.39 311.37 59.9 311.37 61.37C311.37 62.72 312.76 63.37 314.67 63.63C316.58 63.89 319.03 63.75 321.15 63.51C322.66 63.34 324.02 63.13 324.89 62.98C324.31 64.17 324.08 65.19 324.13 66.05C324.22 67.83 325.51 68.88 327.33 69.25C327.72 69.33 328.14 69.38 328.57 69.4L331.22 69.44ZM334.51 54.78C334.54 54.77 334.57 54.77 334.61 54.77C334.89 54.77 335.16 54.97 335.43 55.35C335.45 55.39 335.48 55.45 335.46 55.56C335.3 56.37 333.25 57.91 332.06 58.72C332.53 57.34 333.52 54.95 334.51 54.78Z" fill="#FFCF2D"/>
<path d="M323.24 57.74C322.55 57.74 321.85 57.37 321.34 56.72C320.77 56 320.58 55.11 320.82 54.34C320.85 54.24 320.95 54.18 321.05 54.2C321.09 54.2 321.13 54.21 321.16 54.24C322.67 55.32 323.88 56.86 323.7 57.47C323.66 57.63 323.53 57.73 323.36 57.74C323.32 57.74 323.28 57.74 323.24 57.74ZM321.14 54.72C321.05 55.3 321.23 55.94 321.65 56.47C322.1 57.04 322.72 57.37 323.32 57.33C323.34 57.07 322.67 55.88 321.14 54.72Z" fill="white"/>
<path d="M303.5 146.04H239.5C237.92 146.04 236.97 144.3 237.81 142.97L246.33 129.59C247.44 127.85 249.35 126.8 251.41 126.8H294.73L303.5 146.04Z" fill="#E57281"/>
<path d="M252.82 126.81L257.92 118.41C258.22 117.91 258.77 117.6 259.35 117.6C260.66 117.6 261.46 119.03 260.78 120.15L256.73 126.81H252.82Z" fill="#FE5244"/>
<path d="M303.5 146.04H289.11C289.08 146.01 289.04 145.97 289.01 145.94C285.51 142.34 284.02 136.88 285.99 131.62L288.04 126.8H294.73L303.5 146.04Z" fill="#9A3B82"/>
<path d="M248.54 137.06H240.52C239.98 137.06 239.48 137.35 239.21 137.82L238.36 139.3C237.79 140.3 238.51 141.55 239.67 141.55H246.12C247.24 141.55 248.28 140.97 248.87 140.01L249.56 138.88C250.04 138.08 249.47 137.06 248.54 137.06Z" fill="#E57281"/>
<path d="M246.47 141.55H238.45C237.91 141.55 237.41 141.84 237.14 142.31L236.29 143.79C235.72 144.79 236.44 146.04 237.6 146.04H244.05C245.17 146.04 246.21 145.46 246.8 144.5L247.49 143.37C247.98 142.57 247.4 141.55 246.47 141.55Z" fill="#E57281"/>
<path d="M250.83 132.51H242.81C242.27 132.51 241.77 132.8 241.5 133.27L240.65 134.75C240.08 135.75 240.8 137 241.96 137H248.41C249.53 137 250.57 136.42 251.16 135.46L251.85 134.33C252.34 133.53 251.76 132.51 250.83 132.51Z" fill="#E57281"/>
<path d="M248.54 137.06H240.52C239.98 137.06 239.48 137.35 239.21 137.82L238.36 139.3C237.79 140.3 238.51 141.55 239.67 141.55H246.12C247.24 141.55 248.28 140.97 248.87 140.01L249.56 138.88C250.04 138.08 249.47 137.06 248.54 137.06Z" stroke="#9A3B82" stroke-width="5" stroke-miterlimit="10" stroke-linecap="round"/>
<path d="M246.47 141.55H238.45C237.91 141.55 237.41 141.84 237.14 142.31L236.29 143.79C235.72 144.79 236.44 146.04 237.6 146.04H244.05C245.17 146.04 246.21 145.46 246.8 144.5L247.49 143.37C247.98 142.57 247.4 141.55 246.47 141.55Z" stroke="#9A3B82" stroke-width="5" stroke-miterlimit="10" stroke-linecap="round"/>
<path d="M250.83 132.51H242.81C242.27 132.51 241.77 132.8 241.5 133.27L240.65 134.75C240.08 135.75 240.8 137 241.96 137H248.41C249.53 137 250.57 136.42 251.16 135.46L251.85 134.33C252.34 133.53 251.76 132.51 250.83 132.51Z" stroke="#9A3B82" stroke-width="5" stroke-miterlimit="10" stroke-linecap="round"/>
<path d="M262.44 139.2C260.03 139.2 257.71 138.33 255.89 136.74L252.85 134.08H250.05L249.33 134.85C248.04 136.23 246.45 137.02 244.56 137.02H243.22C242.52 137.02 242.09 136.24 242.47 135.65L245.84 130.37H262.45V139.2H262.44Z" fill="#E57281"/>
<path d="M245.84 130.37L242.47 135.65C242.09 136.24 242.52 137.02 243.22 137.02H244.56C246.45 137.02 248.04 136.24 249.33 134.85L250.05 134.08H252.85L255.89 136.74C257.7 138.32 260.03 139.2 262.44 139.2" stroke="#9A3B82" stroke-width="5" stroke-miterlimit="10" stroke-linecap="round"/>
<path d="M329.96 127.34L314.69 144.4C311.48 147.99 306.89 150.04 302.07 150.04C292.55 150.04 285.96 140.54 289.3 131.62L307.44 89L301.31 85.57C300.44 84.89 300.02 83.78 300.21 82.7L301.25 75.69C301.57 74.13 303.16 72.91 304.71 72.55L311.89 70.93C312.5 70.79 313.06 71.31 312.96 71.92L311.92 77.33C311.51 79.97 313.29 82.25 315.93 82.7C318.09 83.07 319.61 85.24 319.41 87.42L314.52 117.92C314.51 117.94 319.52 125.75 329.96 127.34Z" fill="#E57281"/>
<path d="M318.25 94.67L312.35 132.98" stroke="#9A3B82" stroke-width="5" stroke-miterlimit="10" stroke-linecap="round"/>
<path d="M306.02 76.2L305.94 78.68C305.91 79.7 306.52 80.6 307.4 80.85L316.59 82.71" stroke="#9A3B82" stroke-width="5" stroke-miterlimit="10" stroke-linecap="round"/>
<path d="M322.84 83.5101L315.49 82.5301C313.07 82.1001 311.42 79.8401 311.76 77.4101L312.71 71.9801C312.8 71.4701 312.34 71.0401 311.84 71.1601L304.34 72.9101" stroke="#9A3B82" stroke-width="5" stroke-miterlimit="10" stroke-linecap="round"/>
<path d="M318.78 139.8L338.66 117.68" stroke="#FE5244" stroke-width="6" stroke-miterlimit="10"/>
<path d="M307.65 89.01H311.16" stroke="#9A3B82" stroke-width="5" stroke-miterlimit="10" stroke-linecap="round"/>
<path d="M306.03 76.8599V77.6599C306.03 78.6099 306.72 79.3899 307.57 79.3899H308.67C309.15 79.3899 309.53 78.9599 309.53 78.4199L309.6 73.2C309.61 72.39 308.75 71.89 308.05 72.06" stroke="#9A3B82" stroke-width="5" stroke-miterlimit="10" stroke-linecap="round"/>
<path d="M309.6 76.86V77.66C309.6 78.61 310.29 79.39 311.14 79.39H311.84" stroke="#9A3B82" stroke-width="5" stroke-miterlimit="10" stroke-linecap="round"/>
<path d="M376.01 202.98L387.62 299.6" stroke="#66B0F0" stroke-width="6" stroke-miterlimit="10"/>
<path d="M325.69 202.98L314.08 299.6" stroke="#66B0F0" stroke-width="6" stroke-miterlimit="10"/>
<path d="M318.06 266.42H383.63" stroke="#66B0F0" stroke-width="6" stroke-miterlimit="10"/>
<path d="M319 203.28H382.1C382.94 203.28 383.62 202.6 383.62 201.76V199.7C383.62 198.86 382.94 198.18 382.1 198.18H319C318.16 198.18 317.48 198.86 317.48 199.7V201.76C317.48 202.6 318.16 203.28 319 203.28Z" fill="white" stroke="#FFCF2D" stroke-width="6" stroke-miterlimit="10"/>
<path d="M214 130.16L204.34 150.04H175.15L186.88 130.16H214Z" fill="white" stroke="#3FB1B5" stroke-width="5" stroke-miterlimit="10"/>
<path d="M207.6 135.01C207.6 135.01 206.33 132.84 203.28 133.4C201 133.81 198.3 135.69 196.64 134.68C194.98 133.67 193.51 132.41 191.36 133.01C189.21 133.61 187.62 134.76 187.62 134.76" stroke="#3FB1B5" stroke-width="5" stroke-miterlimit="10"/>
<path d="M206.6 138.11C206.6 138.11 205.33 135.94 202.28 136.5C200 136.91 197.3 138.79 195.64 137.78C193.98 136.77 192.51 135.51 190.36 136.11C188.21 136.71 186.62 137.86 186.62 137.86" stroke="#3FB1B5" stroke-width="5" stroke-miterlimit="10"/>
<path d="M224.98 219.38C224.98 222.05 217.57 224.21 208.29 224.21C199.01 224.21 191.82 222.05 191.82 219.38C191.82 216.71 199.01 214.55 208.29 214.55C217.57 214.55 224.98 216.72 224.98 219.38Z" fill="#FE5244"/>
<path d="M220.71 216.13V250.63L219.66 245.65C218.53 240.29 213.8 236.46 208.32 236.46C206.67 236.46 205.05 236.81 203.58 237.47C203.53 237.49 203.48 237.52 203.42 237.54L199.57 223.5L197.43 215.69C200.36 214.98 204.15 214.55 208.29 214.55C213.21 214.55 217.64 215.16 220.71 216.13Z" fill="#A0505A"/>
<path d="M220.71 216.13V222.63C217.64 223.6 213.21 224.21 208.29 224.21C205.1 224.21 202.12 223.95 199.57 223.51L197.43 215.7C200.36 214.99 204.15 214.56 208.29 214.56C213.21 214.55 217.64 215.16 220.71 216.13Z" fill="#73325A"/>
<path d="M219.97 249.62C220.24 249.7 222.78 250.41 225.03 250.41C226.25 250.41 227.38 250.2 228.02 249.56C228.57 249.01 228.7 248.21 228.41 247.2C228.15 246.3 227.65 245.74 226.92 245.54C225.58 245.18 223.72 246.18 222.25 247.23C224.54 244.45 226.8 240.92 225.96 238.61C225.66 237.79 224.98 237.24 224.13 237.14C223.42 237.06 222.76 237.31 222.45 237.78C221.01 239.97 219.83 248.96 219.78 249.34L219.97 249.62ZM222.87 238.06C223.05 237.79 223.43 237.63 223.87 237.63C223.94 237.63 224.01 237.63 224.08 237.64C224.4 237.68 225.17 237.86 225.5 238.78C225.72 239.39 225.8 240.51 224.91 242.39C224.07 244.17 222.55 246.26 220.39 248.63C220.71 246.35 221.73 239.79 222.87 238.06ZM227.67 249.21C227.01 249.87 225.51 250.07 223.32 249.79C222.17 249.64 221.1 249.4 220.53 249.25C220.96 248.87 221.76 248.18 222.69 247.54C224.47 246.31 225.89 245.78 226.8 246.03C227.35 246.18 227.72 246.61 227.94 247.34C228.18 248.18 228.09 248.79 227.67 249.21Z" fill="#FFCF2D"/>
<path d="M199.67 240.34L197.36 242.93C194.74 245.87 194.31 250.15 196.3 253.55L206.47 270.99C208.46 274.4 212.11 276.49 216.05 276.49H220.26C223.31 276.49 225.58 273.69 224.95 270.71L219.65 245.66C218.52 240.3 213.79 236.47 208.31 236.47C205.02 236.46 201.87 237.87 199.67 240.34Z" fill="white" stroke="#3FB1B5" stroke-width="5" stroke-miterlimit="10"/>
<path d="M207.54 247.88L220.67 273.32C221.29 274.47 222.06 275.21 222.94 275.68C222.18 276.19 221.26 276.5 220.26 276.5H216.05C212.1 276.5 208.45 274.4 206.47 271L196.3 253.55C195.89 252.84 195.58 252.1 195.37 251.33C193.93 245.98 200.02 241.78 204.59 244.92C205.63 245.63 206.65 246.59 207.54 247.88Z" fill="#3FB1B5"/>
<path d="M207.57 247.94H195.45C195.51 247.75 195.58 247.57 195.66 247.4H207.18C207.3 247.56 207.42 247.72 207.54 247.89L207.57 247.94Z" fill="white"/>
<path d="M209.35 251.38H195.39C195.39 251.36 195.38 251.34 195.38 251.33C195.34 251.17 195.3 251 195.27 250.84H209.08L209.35 251.38Z" fill="white"/>
<path d="M211.13 254.83H197.05L196.73 254.28H210.85L211.13 254.83Z" fill="white"/>
<path d="M212.91 258.28H199.06L198.74 257.73H212.63L212.91 258.28Z" fill="white"/>
<path d="M214.69 261.72H201.07L200.75 261.18H214.41L214.69 261.72Z" fill="white"/>
<path d="M216.47 265.17H203.08L202.76 264.62H216.18L216.47 265.17Z" fill="white"/>
<path d="M218.25 268.62H205.09L204.77 268.07H217.96L218.25 268.62Z" fill="white"/>
<path d="M220.02 272.06H207.18C207.05 271.88 206.92 271.7 206.8 271.52H219.74L220.02 272.06Z" fill="white"/>
<path d="M222.65 275.51H211.49C211.13 275.35 210.78 275.17 210.44 274.97H221.93C222.16 275.17 222.4 275.35 222.65 275.51Z" fill="white"/>
<path d="M184.02 218.67C183.93 221.31 176.44 223.45 167.22 223.45C158 223.45 150.51 221.32 150.42 218.67V197.88H184.02V218.67Z" fill="#73325A"/>
<path d="M181.79 222.12L181.74 224.59L181.26 248.7V248C181.26 241.81 176.24 236.79 170.05 236.79H169.37C166.21 236.79 163.36 238.02 161.25 240L159.78 230.06L158.87 223.91C161.33 224.32 164.18 224.55 167.21 224.55C173.45 224.54 178.88 223.56 181.79 222.12Z" fill="#A0505A"/>
<path d="M181.79 222.12L181.74 224.59C178.02 227.23 166.53 230.48 159.79 230.05L158.88 223.9C161.34 224.3 164.19 224.54 167.22 224.54C173.45 224.54 178.88 223.56 181.79 222.12Z" fill="#73325A"/>
<path d="M170.56 276.82H172.42C177.3 276.82 181.26 272.86 181.26 267.98V248C181.26 241.81 176.24 236.79 170.05 236.79H169.37C162.17 236.79 156.62 243.14 157.59 250.28L159.94 267.56C160.67 272.86 165.2 276.82 170.56 276.82Z" fill="white" stroke="#3FB1B5" stroke-width="5" stroke-miterlimit="10"/>
<path d="M178.48 274.41C176.9 275.9 174.76 276.82 172.42 276.82H170.56C165.2 276.82 160.67 272.86 159.95 267.56L157.6 250.28C157.56 249.95 157.52 249.62 157.51 249.3C158.11 245.47 161.42 242.54 165.42 242.54C167.39 242.54 169.21 243.26 170.62 244.46C172.03 245.66 173.02 247.35 173.33 249.3L176.42 270.39C176.65 271.96 177.39 273.36 178.48 274.41Z" fill="#3FB1B5"/>
<path d="M172.4 246.63H158.43C158.53 246.44 158.65 246.26 158.77 246.09H172.07C172.19 246.26 172.3 246.44 172.4 246.63Z" fill="white"/>
<path d="M173.44 250.07H157.57C157.55 249.89 157.53 249.71 157.52 249.53H173.36L173.44 250.07Z" fill="white"/>
<path d="M173.95 253.52H158.04L157.96 252.98H173.87L173.95 253.52Z" fill="white"/>
<path d="M174.45 256.97H158.51L158.43 256.42H174.37L174.45 256.97Z" fill="white"/>
<path d="M174.96 260.41H158.98L158.9 259.87H174.88L174.96 260.41Z" fill="white"/>
<path d="M175.46 263.86H159.44L159.37 263.32H175.38L175.46 263.86Z" fill="white"/>
<path d="M175.97 267.31H159.91L159.84 266.76H175.89L175.97 267.31Z" fill="white"/>
<path d="M176.48 270.75H160.9C160.81 270.57 160.73 270.39 160.66 270.21H176.39L176.42 270.39C176.44 270.51 176.46 270.63 176.48 270.75Z" fill="white"/>
<path d="M178.27 274.2H163.54C163.34 274.03 163.14 273.84 162.96 273.66H177.81C177.95 273.85 178.11 274.03 178.27 274.2Z" fill="white"/>
<path d="M191.29 110.61V127.45C190.56 125.54 184.78 125.81 178.42 128.22C172.97 130.29 168.88 133.13 168.28 135.1V111.4C168.28 104.35 172.05 98.0499 177.84 94.6099C185.36 95.9199 191.29 102.47 191.29 110.61Z" fill="#FFCF2D"/>
<path d="M167.84 95.3698C162.72 98.9298 159.46 104.84 159.46 111.4V130.95H130.99L134.92 114.03C136.59 106.82 141.81 101.07 148.61 98.6198L167.84 95.3698Z" fill="#FFCF2D"/>
<path d="M225.42 179.05V218.3C225.42 215.63 217.57 213.47 208.29 213.47C199.01 213.47 191.49 215.63 191.49 218.3V199.49C191.49 198.61 190.77 197.89 189.89 197.89H138.85C123.5 197.89 112.15 183.6 115.62 168.65L127.94 115.57C129.9 107.1 136.76 100.65 145.33 99.1899L148.61 98.6299C141.81 101.08 136.59 106.83 134.92 114.04L130.99 130.96H159.46V111.4C159.46 104.84 162.73 98.9199 167.84 95.3699L172.34 94.6099C173.27 94.4499 174.18 94.3799 175.09 94.3799C175.21 94.3799 175.32 94.3799 175.44 94.3799C175.55 94.3799 175.66 94.3899 175.76 94.3899C175.78 94.3899 175.8 94.3899 175.82 94.3899C175.9 94.3899 175.99 94.3999 176.07 94.3999C176.08 94.3999 176.1 94.3999 176.11 94.3999C176.16 94.3999 176.21 94.4099 176.25 94.4099C176.34 94.4199 176.42 94.4199 176.51 94.4299C176.61 94.4399 176.72 94.4499 176.82 94.4599C176.92 94.4699 177.01 94.4799 177.11 94.4899C177.13 94.4899 177.15 94.4999 177.18 94.4999C177.28 94.5099 177.39 94.5299 177.49 94.5399C177.5 94.5399 177.51 94.5399 177.51 94.5399C177.62 94.5599 177.73 94.5699 177.84 94.5899C172.05 98.0299 168.28 104.33 168.28 111.38V159.43H205.82C216.64 159.45 225.42 168.22 225.42 179.05Z" fill="#FE5244"/>
<path d="M168.49 94.9299C163.37 98.4899 159.45 104.84 159.45 111.4V130.95H130.98L134.91 114.03C136.58 106.82 141.36 100.96 148.17 98.5099" stroke="white" stroke-width="6" stroke-miterlimit="10" stroke-linecap="round"/>
<path d="M191.49 193.46C191.49 187.89 193.46 182.5 197.05 178.25" stroke="white" stroke-width="6" stroke-miterlimit="10" stroke-linecap="round"/>
<path d="M149.9 191.47C149.85 191.47 149.8 191.46 149.76 191.43L148.44 190.71C148.29 190.63 148.24 190.45 148.32 190.3C148.4 190.15 148.58 190.1 148.73 190.18L150.05 190.9C150.2 190.98 150.25 191.16 150.17 191.31C150.11 191.41 150.01 191.47 149.9 191.47ZM151.22 191.13C151.11 191.13 151.01 191.07 150.96 190.97C150.88 190.82 150.93 190.64 151.08 190.56L152.4 189.84C152.55 189.76 152.73 189.82 152.81 189.96C152.89 190.11 152.84 190.29 152.69 190.37L151.37 191.09C151.32 191.11 151.27 191.13 151.22 191.13ZM147.26 190.04C147.21 190.04 147.16 190.03 147.12 190L145.8 189.28C145.65 189.2 145.6 189.02 145.68 188.87C145.76 188.72 145.94 188.67 146.09 188.75L147.41 189.47C147.56 189.55 147.61 189.73 147.53 189.88C147.47 189.98 147.37 190.04 147.26 190.04ZM153.85 189.69C153.74 189.69 153.64 189.63 153.59 189.53C153.51 189.38 153.56 189.2 153.71 189.12L155.03 188.4C155.26 188.28 155.47 188.14 155.68 187.99C155.81 187.89 156 187.92 156.1 188.05C156.2 188.18 156.17 188.37 156.04 188.47C155.81 188.64 155.57 188.79 155.32 188.93L154 189.65C153.95 189.68 153.9 189.69 153.85 189.69ZM144.65 188.56C144.59 188.56 144.53 188.54 144.47 188.5C144.05 188.19 143.66 187.83 143.33 187.42C143.22 187.29 143.24 187.1 143.37 187C143.5 186.89 143.69 186.91 143.79 187.04C144.09 187.41 144.44 187.73 144.82 188.01C144.95 188.11 144.98 188.3 144.89 188.43C144.84 188.52 144.75 188.56 144.65 188.56ZM156.94 187.51C156.87 187.51 156.81 187.49 156.75 187.44C156.62 187.34 156.6 187.15 156.71 187.02C157.01 186.65 157.26 186.25 157.46 185.81C157.53 185.66 157.71 185.59 157.86 185.66C158.01 185.73 158.08 185.91 158.01 186.06C157.79 186.54 157.51 186.99 157.18 187.39C157.11 187.47 157.03 187.51 156.94 187.51ZM142.77 186.27C142.66 186.27 142.55 186.21 142.5 186.1C142.28 185.62 142.12 185.12 142.02 184.6C141.99 184.44 142.1 184.28 142.26 184.25C142.42 184.22 142.58 184.33 142.61 184.49C142.7 184.96 142.84 185.41 143.04 185.84C143.11 185.99 143.04 186.17 142.89 186.24C142.85 186.26 142.81 186.27 142.77 186.27ZM158.18 184.81C158.16 184.81 158.14 184.81 158.13 184.81C157.97 184.78 157.86 184.62 157.89 184.46C157.95 184.13 157.98 183.8 157.98 183.47V183.02C157.98 182.85 158.11 182.72 158.28 182.72C158.45 182.72 158.58 182.85 158.58 183.02V183.47C158.58 183.84 158.55 184.21 158.48 184.57C158.45 184.71 158.32 184.81 158.18 184.81ZM142.22 183.35C142.05 183.35 141.92 183.22 141.92 183.05V181.55C141.92 181.38 142.05 181.25 142.22 181.25C142.39 181.25 142.52 181.38 142.52 181.55V183.05C142.52 183.21 142.38 183.35 142.22 183.35ZM158.27 181.82C158.1 181.82 157.97 181.69 157.97 181.52V180.02C157.97 179.85 158.1 179.72 158.27 179.72C158.44 179.72 158.57 179.85 158.57 180.02V181.52C158.57 181.69 158.44 181.82 158.27 181.82ZM142.22 180.35C142.05 180.35 141.92 180.22 141.92 180.05V178.55C141.92 178.38 142.05 178.25 142.22 178.25C142.39 178.25 142.52 178.38 142.52 178.55V180.05C142.52 180.21 142.38 180.35 142.22 180.35ZM158.27 178.82C158.1 178.82 157.97 178.69 157.97 178.52V177.02C157.97 176.85 158.1 176.72 158.27 176.72C158.44 176.72 158.57 176.85 158.57 177.02V178.52C158.57 178.69 158.44 178.82 158.27 178.82ZM142.22 177.35C142.05 177.35 141.92 177.22 141.92 177.05V175.55C141.92 175.38 142.05 175.25 142.22 175.25C142.39 175.25 142.52 175.38 142.52 175.55V177.05C142.52 177.21 142.38 177.35 142.22 177.35ZM158.27 175.82C158.1 175.82 157.97 175.69 157.97 175.52V174.02C157.97 173.85 158.1 173.72 158.27 173.72C158.44 173.72 158.57 173.85 158.57 174.02V175.52C158.57 175.69 158.44 175.82 158.27 175.82ZM142.22 174.35C142.05 174.35 141.92 174.22 141.92 174.05V172.76H142.73C142.9 172.76 143.03 172.89 143.03 173.06C143.03 173.23 142.9 173.36 142.73 173.36H142.52V174.05C142.52 174.21 142.38 174.35 142.22 174.35ZM157.73 173.36H156.23C156.06 173.36 155.93 173.23 155.93 173.06C155.93 172.89 156.06 172.76 156.23 172.76H157.73C157.9 172.76 158.03 172.89 158.03 173.06C158.03 173.23 157.9 173.36 157.73 173.36ZM154.73 173.36H153.23C153.06 173.36 152.93 173.23 152.93 173.06C152.93 172.89 153.06 172.76 153.23 172.76H154.73C154.9 172.76 155.03 172.89 155.03 173.06C155.03 173.23 154.9 173.36 154.73 173.36ZM151.73 173.36H150.23C150.06 173.36 149.93 173.23 149.93 173.06C149.93 172.89 150.06 172.76 150.23 172.76H151.73C151.9 172.76 152.03 172.89 152.03 173.06C152.03 173.23 151.9 173.36 151.73 173.36ZM148.73 173.36H147.23C147.06 173.36 146.93 173.23 146.93 173.06C146.93 172.89 147.06 172.76 147.23 172.76H148.73C148.9 172.76 149.03 172.89 149.03 173.06C149.03 173.23 148.9 173.36 148.73 173.36ZM145.73 173.36H144.23C144.06 173.36 143.93 173.23 143.93 173.06C143.93 172.89 144.06 172.76 144.23 172.76H145.73C145.9 172.76 146.03 172.89 146.03 173.06C146.03 173.23 145.9 173.36 145.73 173.36Z" fill="white"/>
<path d="M121.6 189.81C121.49 189.81 121.39 189.75 121.34 189.65C121.26 189.5 121.31 189.32 121.46 189.24L122.68 188.57C122.71 188.55 122.74 188.54 122.77 188.52C122.91 188.44 123.1 188.49 123.18 188.63C123.26 188.77 123.21 188.96 123.07 189.04C123.04 189.06 123.01 189.08 122.97 189.09L121.75 189.76C121.7 189.8 121.65 189.81 121.6 189.81ZM124.13 188.21C124.05 188.21 123.97 188.18 123.91 188.11C123.8 187.99 123.81 187.8 123.93 187.69C124.28 187.37 124.59 187 124.86 186.61C124.95 186.47 125.14 186.44 125.28 186.53C125.42 186.62 125.45 186.81 125.36 186.95C125.07 187.38 124.72 187.78 124.34 188.14C124.27 188.19 124.2 188.21 124.13 188.21ZM125.8 185.75C125.76 185.75 125.73 185.74 125.69 185.73C125.54 185.67 125.46 185.5 125.52 185.34C125.69 184.89 125.81 184.43 125.88 183.96C125.9 183.8 126.05 183.68 126.22 183.7C126.38 183.72 126.5 183.87 126.48 184.04C126.41 184.56 126.28 185.07 126.09 185.56C126.03 185.68 125.92 185.75 125.8 185.75ZM126.23 182.81C126.06 182.81 125.93 182.68 125.93 182.51V181.01C125.93 180.84 126.06 180.71 126.23 180.71C126.4 180.71 126.53 180.84 126.53 181.01V182.51C126.53 182.67 126.4 182.81 126.23 182.81ZM126.23 179.81C126.06 179.81 125.93 179.68 125.93 179.51V178.01C125.93 177.84 126.06 177.71 126.23 177.71C126.4 177.71 126.53 177.84 126.53 178.01V179.51C126.53 179.67 126.4 179.81 126.23 179.81ZM126.23 176.81C126.06 176.81 125.93 176.68 125.93 176.51V175.01C125.93 174.84 126.06 174.71 126.23 174.71C126.4 174.71 126.53 174.84 126.53 175.01V176.51C126.53 176.67 126.4 176.81 126.23 176.81ZM126.23 173.81C126.06 173.81 125.93 173.68 125.93 173.51V173.36H125.18C125.01 173.36 124.88 173.23 124.88 173.06C124.88 172.89 125.01 172.76 125.18 172.76H126.53V173.51C126.53 173.67 126.4 173.81 126.23 173.81ZM123.68 173.36H122.18C122.01 173.36 121.88 173.23 121.88 173.06C121.88 172.89 122.01 172.76 122.18 172.76H123.68C123.85 172.76 123.98 172.89 123.98 173.06C123.98 173.23 123.84 173.36 123.68 173.36ZM120.68 173.36H119.18C119.01 173.36 118.88 173.23 118.88 173.06C118.88 172.89 119.01 172.76 119.18 172.76H120.68C120.85 172.76 120.98 172.89 120.98 173.06C120.98 173.23 120.84 173.36 120.68 173.36ZM117.68 173.36H116.18C116.01 173.36 115.88 173.23 115.88 173.06C115.88 172.89 116.01 172.76 116.18 172.76H117.68C117.85 172.76 117.98 172.89 117.98 173.06C117.98 173.23 117.84 173.36 117.68 173.36Z" fill="white"/>
<path d="M191.29 127.45C192.02 129.36 187.4 132.75 181.05 135.16C174.7 137.57 169.01 137.94 168.28 136.02C167.55 134.1 172.06 130.64 178.42 128.23C184.78 125.82 190.56 125.53 191.29 127.45Z" fill="#FE5244"/>
<path d="M194.84 189.49V190.55C194.51 190.47 194.16 190.43 193.81 190.43H192.52C190.61 190.43 188.98 189.21 188.36 187.51L192.02 187.02C193.51 186.82 194.84 187.98 194.84 189.49Z" fill="#73325A"/>
<path d="M198.22 194.84V202.98C198.22 204.88 196.68 206.42 194.78 206.42H190.95C190 206.42 189.14 206.04 188.52 205.41C187.9 204.79 187.51 203.93 187.51 202.98H190C190.82 202.98 191.48 202.32 191.48 201.5V199.37C191.48 198.55 190.82 197.89 190 197.89H177.27C172.3 197.89 168.27 193.86 168.27 188.89V135.11C168.87 133.14 172.96 130.29 178.41 128.23C182.13 126.82 185.66 126.14 188.09 126.2V186.02C188.09 188.46 190.07 190.44 192.51 190.44H193.8C196.24 190.43 198.22 192.4 198.22 194.84Z" fill="#A0505A"/>
<path d="M188.09 126.19V131.63C186.28 132.85 183.83 134.1 181.04 135.15C174.68 137.56 169 137.93 168.27 136.01V135.1C168.87 133.13 172.96 130.28 178.41 128.22C182.14 126.81 185.66 126.13 188.09 126.19Z" fill="#73325A"/>
<path d="M171.46 85.6799L167.7 95.37L148.32 98.84L153.38 85.6799H171.46Z" fill="#A0505A"/>
<path d="M171.46 85.6799L169.43 90.9199L150.21 93.9199L153.38 85.6799H171.46Z" fill="#73325A"/>
<path d="M182.82 65.9601C182.82 67.2701 180.55 68.7201 177.93 69.9401C174.36 71.6101 170.15 72.8801 170.15 72.8801L167.31 78.2301C171.17 80.2801 172.68 83.9601 173.28 86.5301C173.66 88.1701 173.66 89.3401 173.66 89.3401H146.44C146.44 89.3401 139.29 66.1801 156.52 60.6401C167.06 57.2501 182.82 62.8501 182.82 65.9601Z" fill="white" stroke="#FFCF2D" stroke-width="6" stroke-miterlimit="10" stroke-linecap="round"/>
<path d="M154 63.94C157.739 63.94 160.77 60.909 160.77 57.17C160.77 53.4311 157.739 50.4 154 50.4C150.261 50.4 147.23 53.4311 147.23 57.17C147.23 60.909 150.261 63.94 154 63.94Z" fill="white" stroke="#FFCF2D" stroke-width="6" stroke-miterlimit="10" stroke-linecap="round"/>
<path d="M173.27 86.53C172.71 84.1 171.31 80.64 167.86 78.55H166.97C166.15 78.55 165.4 78.22 164.86 77.68C164.32 77.14 163.99 76.39 163.99 75.57C163.99 73.92 165.32 72.59 166.97 72.59L170.74 72.67H170.84C170.91 72.65 170.98 72.62 171.06 72.6C172.08 72.38 175.31 71.6 177.99 70.26L178.3 72.11L179.3 78.04C179.98 82.11 177.19 85.86 173.27 86.53Z" fill="#A0505A"/>
<path d="M178.29 72.1C175.01 73.43 170.73 72.66 170.73 72.66C170.73 72.66 174.76 71.86 177.98 70.25L178.29 72.1Z" fill="#73325A"/>
<path d="M169.29 76.14C169.29 75 168.37 74.08 167.23 74.08" stroke="#73325A" stroke-width="5" stroke-miterlimit="10" stroke-linecap="round"/>
<path d="M179.88 202.98L191.49 299.6" stroke="#66B0F0" stroke-width="6" stroke-miterlimit="10"/>
<path d="M129.55 202.98L117.95 299.6" stroke="#66B0F0" stroke-width="6" stroke-miterlimit="10"/>
<path d="M121.93 266.42H187.5" stroke="#66B0F0" stroke-width="6" stroke-miterlimit="10"/>
<path d="M119.46 202.98H189.97C190.81 202.98 191.49 202.3 191.49 201.46V199.4C191.49 198.56 190.81 197.88 189.97 197.88H119.46C118.62 197.88 117.94 198.56 117.94 199.4V201.46C117.95 202.3 118.63 202.98 119.46 202.98Z" fill="white" stroke="#FFCF2D" stroke-width="6" stroke-miterlimit="10"/>
</svg>
